# Generated MicroDuck mesh; do not edit by hand.
# Source: microduck_rl/src/mjlab_microduck/robot/microduck/assets/banana_pcb_locker.stl
# Source repository: https://github.com/pollen-robotics/microduck_rl.git@5946fd9cdbc58956424420153e51975af3b30d77
# Source SHA-256: a176364f824248b5156b37f2fd5c6b8bdfb24cd08be7ed6b3faa10b4db14a9cb
# License: Creative Commons BY-SA-NC; see ../Licenses/ATTRIBUTION.json.
# Modified: exported MuJoCo-compiled mesh geometry in Tuanjie coordinates.
# Transform: (x,y,z) -> (-y,z,x); triangle winding reversed.
o banana_pcb_locker
v 0.00303735887 0.0157102365 -0.00277863606
v 0.00303735887 0.0181299429 -0.00277863606
v 0.00111765356 0.0157102365 -0.00277863606
v 0.00111765356 0.0181299429 -0.00277863606
v 0.00307750632 0.0156700909 -0.000478634378
v 0.00107750611 0.0156700909 -0.000478634378
v 0.00107750611 0.0181700904 -0.000478634378
v 0.00307750632 0.0181700904 -0.000478634378
v 0.00303735887 -0.0156700555 -0.00277863606
v 0.00111765356 -0.0156700555 -0.00277863606
v 0.00303735887 -0.018089762 -0.00277863606
v 0.00111765356 -0.018089762 -0.00277863606
v 0.00307750632 -0.0181299094 -0.000478634378
v 0.00107750611 -0.0181299094 -0.000478634378
v 0.00307750632 0.0224292707 -0.000478634378
v 0.00310368766 0.022439586 0.00102136494
v 0.00309847598 0.0225645136 0.00102136494
v 0.00307229464 0.0225541983 -0.000478634378
v 0.00308287446 0.0226885714 0.00102136494
v 0.00305669312 0.0226782579 -0.000478634378
v 0.0030569986 0.0228108987 0.00102136494
v 0.00303081353 0.0228005853 -0.000478634378
v 0.00302101974 0.0229306445 0.00102136494
v 0.00299483468 0.022920331 -0.000478634378
v 0.00297519122 0.0230469778 0.00102136494
v 0.00294900616 0.0230366644 -0.000478634378
v 0.00291982968 0.0231590886 0.00102136494
v 0.00289364834 0.0231487751 -0.000478634378
v 0.00285532628 0.0232662 0.00102136494
v 0.00282914122 0.0232558846 -0.000478634378
v 0.0027821206 0.0233675651 0.00102136494
v 0.00275593926 0.0233572517 -0.000478634378
v 0.00270072673 0.0234624818 0.00102136494
v 0.00267454539 0.0234521683 -0.000478634378
v 0.00267454539 -0.0234119873 -0.000478634378
v 0.00270072673 -0.0234223008 0.00102136494
v 0.0027821206 -0.0233273841 0.00102136494
v 0.00275593926 -0.0233170707 -0.000478634378
v 0.00285532628 -0.023226019 0.00102136494
v 0.00282914122 -0.0232157037 -0.000478634378
v 0.00291982968 -0.0231189076 0.00102136494
v 0.00289364834 -0.0231085941 -0.000478634378
v 0.00297519122 -0.0230067968 0.00102136494
v 0.00294900616 -0.0229964834 -0.000478634378
v 0.00302101974 -0.0228904635 0.00102136494
v 0.00299483468 -0.02288015 -0.000478634378
v 0.0030569986 -0.0227707177 0.00102136494
v 0.00303081353 -0.0227604043 -0.000478634378
v 0.00308287446 -0.0226483904 0.00102136494
v 0.00305669312 -0.0226380769 -0.000478634378
v 0.00309847598 -0.0225243326 0.00102136494
v 0.00307229464 -0.0225140173 -0.000478634378
v 0.00310368766 -0.022399405 0.00102136494
v 0.00307750632 -0.0223890897 -0.000478634378
v -0.00352249364 0.00351986219 -0.000478634378
v -0.00354867871 0.00349367969 0.00102136494
v -0.00354297156 0.0033629532 0.00102136494
v -0.0035167865 0.0033891357 -0.000478634378
v -0.00352589483 0.00323322462 0.00102136494
v -0.00349971349 0.00325940736 -0.000478634378
v -0.0034975789 0.00310548116 0.00102136494
v -0.00347139384 0.00313166366 -0.000478634378
v -0.00345823611 0.00298069441 0.00102136494
v -0.00343205477 0.00300687691 -0.000478634378
v -0.00340833957 0.00294588995 -0.000478634378
v -0.00343452464 0.00291970745 0.00102136494
v -0.00338199059 0.00288599613 -0.000478634378
v -0.00340817194 0.00285981363 0.00102136494
v -0.00335304881 0.0028273093 -0.000478634378
v -0.00337923388 0.0028011268 0.00102136494
v -0.00332157756 0.00276994123 -0.000478634378
v -0.00334776263 0.00274375849 0.00102136494
v -0.00328763644 0.00271400088 -0.000478634378
v -0.00331381778 0.00268781814 0.00102136494
v -0.00325128506 0.00265959487 -0.000478634378
v -0.0032774664 0.00263341214 0.00102136494
v -0.00321259419 0.0026068266 -0.000478634378
v -0.00323877553 0.00258064386 0.00102136494
v -0.00317163835 0.00255579641 -0.000478634378
v -0.00319781969 0.00252961391 0.00102136494
v -0.00312849577 0.00250660186 -0.000478634378
v -0.00315468083 0.00248041912 0.00102136494
v -0.00308324839 0.00245933584 -0.000478634378
v -0.00310943346 0.00243315334 0.00102136494
v -0.00303598563 0.00241408893 -0.000478634378
v -0.00306216697 0.00238790642 0.00102136494
v -0.00298678945 0.00237094704 -0.000478634378
v -0.00301297079 0.0023447643 0.00102136494
v -0.00293576042 0.00232999213 -0.000478634378
v -0.00296194176 0.00230380939 0.00102136494
v -0.00288299168 0.00229130196 -0.000478634378
v -0.00290917302 0.00226511946 0.00102136494
v -0.00282858382 0.00225495058 -0.000478634378
v -0.00285476889 0.00222876808 0.00102136494
v -0.00277264486 0.00222100713 -0.000478634378
v -0.0027988262 0.0021948244 0.00102136494
v -0.00271527539 0.00218953588 -0.000478634378
v -0.00274146046 0.00216335314 0.00102136494
v -0.00265659089 0.00216059689 -0.000478634378
v -0.00268277223 0.00213441416 0.00102136494
v -0.00259669567 0.00213424512 -0.000478634378
v -0.00262287701 0.00210806262 0.00102136494
v -0.00253570895 0.00211053086 -0.000478634378
v -0.00256189029 0.00208434835 0.00102136494
v -0.00243710424 0.00204500742 0.00102136494
v -0.0024109229 0.00207119016 -0.000478634378
v -0.00230936031 0.00201669126 0.00102136494
v -0.00228317897 0.00204287376 -0.000478634378
v -0.0021796308 0.00199961476 0.00102136494
v -0.00215344946 0.00202579726 -0.000478634378
v -0.00204890664 0.00199390808 0.00102136494
v -0.00202272157 0.00202009082 -0.000478634378
v -0.00152226596 0.00202009082 -0.000478634378
v -0.0015484473 0.00199390808 0.00102136494
v -0.00141772314 0.0019882014 0.00102136494
v -0.00139153807 0.00201438414 -0.000478634378
v -0.00128799363 0.00197112514 0.00102136494
v -0.00126181229 0.00199730764 -0.000478634378
v -0.0011602497 0.00194280874 0.00102136494
v -0.00113406836 0.00196899124 -0.000478634378
v -0.00103546365 0.00190346804 0.00102136494
v -0.00100928231 0.00192965055 -0.000478634378
v -0.000948295637 0.0019059364 -0.000478634378
v -0.000974476978 0.00187975378 0.00102136494
v -0.00088840042 0.00187958463 -0.000478634378
v -0.00091458176 0.00185340201 0.00102136494
v -0.000829712197 0.00185064564 -0.000478634378
v -0.000855897262 0.00182446302 0.00102136494
v -0.000772346451 0.00181917439 -0.000478634378
v -0.000798527792 0.00179299177 0.00102136494
v -0.000716403767 0.00178523071 -0.000478634378
v -0.000742588833 0.0017590482 0.00102136494
v -0.000661999627 0.00174887944 -0.000478634378
v -0.000688180968 0.00172269682 0.00102136494
v -0.00060923089 0.00171018939 -0.000478634378
v -0.000635412231 0.00168400677 0.00102136494
v -0.000558201864 0.00166923448 -0.000478634378
v -0.000584383204 0.00164305186 0.00102136494
v -0.00050900568 0.00162609247 -0.000478634378
v -0.00053518702 0.00159990985 0.00102136494
v -0.000461739168 0.00158084556 -0.000478634378
v -0.000487924233 0.00155466294 0.00102136494
v -0.000416491792 0.00153357966 -0.000478634378
v -0.000442676857 0.00150739716 0.00102136494
v -0.00037335293 0.00148438499 -0.000478634378
v -0.00039953427 0.00145820237 0.00102136494
v -0.000332397089 0.00143335492 -0.000478634378
v -0.000358578429 0.0014071723 0.00102136494
v -0.000293706224 0.00138058665 -0.000478634378
v -0.000319887564 0.00135440403 0.00102136494
v -0.000257354841 0.00132618065 -0.000478634378
v -0.000283536181 0.00129999802 0.00102136494
v -0.000223409996 0.00127024029 -0.000478634378
v -0.000249595061 0.00124405767 0.00102136494
v -0.000191938743 0.0012128721 -0.000478634378
v -0.000218123809 0.00118668948 0.00102136494
v -0.000163000688 0.00115418527 -0.000478634378
v -0.000189182028 0.00112800265 0.00102136494
v -0.000136647985 0.00109429145 -0.000478634378
v -0.00016283305 0.00106810883 0.00102136494
v -0.000112936512 0.00103330461 -0.000478634378
v -0.000139117852 0.00100712199 0.00102136494
v -9.97750612e-05 0.000882335124 0.00102136494
v -7.3593721e-05 0.000908517744 -0.000478634378
v -7.14591297e-05 0.000754591601 0.00102136494
v -4.52777895e-05 0.000780774164 -0.000478634378
v -5.4382399e-05 0.000624863082 0.00102136494
v -2.82010606e-05 0.000651045702 -0.000478634378
v -4.86789795e-05 0.000494136591 0.00102136494
v -2.24939158e-05 0.000520319154 -0.000478634378
v 0.00107750611 -0.0156299099 -0.000478634378
v 0.00307750632 -0.0156299099 -0.000478634378
v -5.98548504e-05 -0.0263439789 -0.000478634378
v -4.07068583e-05 -0.0263618361 0.00102136494
v -0.00259222533 0.0249265004 0.00102136494
v -0.00261830981 0.0249242187 -0.000478634378
v -0.00257999892 0.0248336233 0.00102136494
v -0.00260578166 0.0248290766 -0.000478634378
v -0.00255972217 0.0247421656 0.00102136494
v -0.00258501316 0.0247353893 -0.000478634378
v -0.00253155152 0.0246528238 0.00102136494
v -0.00255615707 0.0246438682 -0.000478634378
v -0.00249570305 0.024566276 0.00102136494
v -0.00251943315 0.02455521 -0.000478634378
v -0.00245244871 0.0244831815 0.00102136494
v -0.00247512455 0.0244700909 -0.000478634378
v -0.00240211631 0.0244041737 0.00102136494
v -0.00242356281 0.0243891571 -0.000478634378
v -0.00234508584 0.0243298542 0.00102136494
v -0.00236514281 0.0243130233 -0.000478634378
v -0.00228179689 0.0242607873 0.00102136494
v -0.00230031158 0.0242422726 -0.000478634378
v -0.00221273 0.0241974983 0.00102136494
v -0.00222956087 0.0241774414 -0.000478634378
v -0.00213841046 0.0241404716 0.00102136494
v -0.00215343083 0.0241190232 -0.000478634378
v -0.00205940451 0.0240901373 0.00102136494
v -0.00207249518 0.0240674634 -0.000478634378
v -0.00197630818 0.0240468811 0.00102136494
v -0.00198737602 0.024023151 -0.000478634378
v -0.00188976212 0.0240110327 0.00102136494
v -0.00189871772 0.023986429 -0.000478634378
v -0.00180041848 0.023982862 0.00102136494
v -0.00180719479 0.0239575729 -0.000478634378
v -0.00170896261 0.0239625871 0.00102136494
v -0.00171350746 0.0239368025 -0.000478634378
v -0.00161608367 0.0239503589 0.00102136494
v -0.00161836727 0.0239242762 -0.000478634378
v -0.0015224932 0.0239462722 0.00102136494
v -0.0015224932 0.0239200909 -0.000478634378
v -0.00142890646 0.0239503589 0.00102136494
v -0.00142662285 0.0239242762 -0.000478634378
v -0.00133602752 0.0239625871 0.00102136494
v -0.00133148266 0.0239368025 -0.000478634378
v -0.00124457164 0.023982862 0.00102136494
v -0.00123779534 0.0239575729 -0.000478634378
v -0.001155228 0.0240110327 0.00102136494
v -0.00114627241 0.023986429 -0.000478634378
v -0.00106867834 0.0240468811 0.00102136494
v -0.00105761422 0.024023151 -0.000478634378
v -0.000985585735 0.0240901373 0.00102136494
v -0.000972495123 0.0240674634 -0.000478634378
v -0.000906579837 0.0241404716 0.00102136494
v -0.000891559466 0.0241190232 -0.000478634378
v -0.00083225657 0.0241974983 0.00102136494
v -0.000815429434 0.0241774414 -0.000478634378
v -0.000763189688 0.0242607873 0.00102136494
v -0.00074467872 0.0242422726 -0.000478634378
v -0.000699904456 0.0243298542 0.00102136494
v -0.000679847493 0.0243130233 -0.000478634378
v -0.000642873987 0.0244041737 0.00102136494
v -0.000621427491 0.0243891571 -0.000478634378
v -0.00059254159 0.0244831815 0.00102136494
v -0.000569865748 0.0244700909 -0.000478634378
v -0.000549287244 0.024566276 0.00102136494
v -0.000525557145 0.02455521 -0.000478634378
v -0.00051343505 0.0246528238 0.00102136494
v -0.000488833233 0.0246438682 -0.000478634378
v -0.000485268101 0.0247421656 0.00102136494
v -0.000459977105 0.0247353893 -0.000478634378
v -0.000464991346 0.0248336233 0.00102136494
v -0.000439204887 0.0248290766 -0.000478634378
v -0.000452764943 0.0249265004 0.00102136494
v -0.000426680461 0.0249242187 -0.000478634378
v -0.0004486783 0.0250200909 0.00102136494
v -0.000422493235 0.0250200909 -0.000478634378
v -0.000452764943 0.0251136795 0.00102136494
v -0.000426680461 0.0251159612 -0.000478634378
v -0.000464991346 0.0252065565 0.00102136494
v -0.000439204887 0.0252111033 -0.000478634378
v -0.000485268101 0.0252980143 0.00102136494
v -0.000459977105 0.0253047906 -0.000478634378
v -0.00051343505 0.0253873579 0.00102136494
v -0.000488833233 0.0253963135 -0.000478634378
v -0.000549287244 0.0254739057 0.00102136494
v -0.000525557145 0.0254849698 -0.000478634378
v -0.00059254159 0.0255569983 0.00102136494
v -0.000569865748 0.0255700909 -0.000478634378
v -0.000642873987 0.0256360061 0.00102136494
v -0.000621427491 0.0256510247 -0.000478634378
v -0.000699904456 0.0257103276 0.00102136494
v -0.000679847493 0.0257271565 -0.000478634378
v -0.000763189688 0.0257793944 0.00102136494
v -0.00074467872 0.0257979073 -0.000478634378
v -0.00083225657 0.0258426815 0.00102136494
v -0.000815429434 0.0258627385 -0.000478634378
v -0.000906579837 0.0258997101 0.00102136494
v -0.000891559466 0.0259211585 -0.000478634378
v -0.000985585735 0.0259500444 0.00102136494
v -0.000972495123 0.0259727184 -0.000478634378
v -0.00106867834 0.0259932987 0.00102136494
v -0.00105761422 0.0260170288 -0.000478634378
v -0.001155228 0.0260291491 0.00102136494
v -0.00114627241 0.0260537528 -0.000478634378
v -0.00124457164 0.0260573179 0.00102136494
v -0.00123779534 0.0260826088 -0.000478634378
v -0.00133602752 0.0260775946 0.00102136494
v -0.00133148266 0.0261033792 -0.000478634378
v -0.00142890646 0.026089821 0.00102136494
v -0.00142662285 0.0261159055 -0.000478634378
v -0.0015224932 0.0260939077 0.00102136494
v -0.0015224932 0.0261200909 -0.000478634378
v -0.00161608367 0.026089821 0.00102136494
v -0.00161836727 0.0261159055 -0.000478634378
v -0.00170896261 0.0260775946 0.00102136494
v -0.00171350746 0.0261033792 -0.000478634378
v -0.00180041848 0.0260573179 0.00102136494
v -0.00180719479 0.0260826088 -0.000478634378
v -0.00188976212 0.0260291491 0.00102136494
v -0.00189871772 0.0260537528 -0.000478634378
v -0.00197630818 0.0259932987 0.00102136494
v -0.00198737602 0.0260170288 -0.000478634378
v -0.00205940451 0.0259500444 0.00102136494
v -0.00207249518 0.0259727184 -0.000478634378
v -0.00213841046 0.0258997101 0.00102136494
v -0.00215343083 0.0259211585 -0.000478634378
v -0.00221273 0.0258426815 0.00102136494
v -0.00222956087 0.0258627385 -0.000478634378
v -0.00228179689 0.0257793944 0.00102136494
v -0.00230031158 0.0257979073 -0.000478634378
v -0.00234508584 0.0257103276 0.00102136494
v -0.00236514281 0.0257271565 -0.000478634378
v -0.00240211631 0.0256360061 0.00102136494
v -0.00242356281 0.0256510247 -0.000478634378
v -0.00245244871 0.0255569983 0.00102136494
v -0.00247512455 0.0255700909 -0.000478634378
v -0.00249570305 0.0254739057 0.00102136494
v -0.00251943315 0.0254849698 -0.000478634378
v -0.00253155152 0.0253873579 0.00102136494
v -0.00255615707 0.0253963135 -0.000478634378
v -0.00255972217 0.0252980143 0.00102136494
v -0.00258501316 0.0253047906 -0.000478634378
v -0.00257999892 0.0252065565 0.00102136494
v -0.00260578166 0.0252111033 -0.000478634378
v -0.00259222533 0.0251136795 0.00102136494
v -0.00261830981 0.0251159612 -0.000478634378
v -0.00259631197 0.0250200909 0.00102136494
v -0.00262249331 0.0250200909 -0.000478634378
v -4.07068583e-05 0.0264020171 0.00102136494
v -5.98548504e-05 0.0263841599 -0.000478634378
v -0.000163972989 0.0265233647 0.00102136494
v -0.000181526557 0.0265039392 -0.000478634378
v -0.000297140941 0.0266337562 0.00102136494
v -0.000312973425 0.0266129058 -0.000478634378
v -0.000439234689 0.0267323889 0.00102136494
v -0.00045323433 0.0267102625 -0.000478634378
v -0.000589226082 0.0268185418 0.00102136494
v -0.000601284846 0.0267953016 -0.000478634378
v -0.000746019825 0.0268915873 0.00102136494
v -0.000756052032 0.0268674027 -0.000478634378
v -0.000908468559 0.0269509945 0.00102136494
v -0.000916403427 0.0269260425 -0.000478634378
v -0.00107539503 0.0269963294 0.00102136494
v -0.00108117296 0.0269707926 -0.000478634378
v -0.0012455812 0.0270272605 0.00102136494
v -0.00124915747 0.027001325 -0.000478634378
v -0.00141778274 0.0270435661 0.00102136494
v -0.00141913502 0.0270174183 -0.000478634378
v -0.00159074797 0.0270451233 0.00102136494
v -0.00158986507 0.027018955 -0.000478634378
v -0.00176321773 0.0270319227 0.00102136494
v -0.00176010712 0.0270059258 -0.000478634378
v -0.00193392916 0.0270040613 0.00102136494
v -0.00192861317 0.0269784238 -0.000478634378
v -0.00210164557 0.0269617401 0.00102136494
v -0.00209416146 0.0269366484 -0.000478634378
v -0.00226514111 0.0269052684 0.00102136494
v -0.00225554476 0.0268809069 -0.000478634378
v -0.00242322381 0.0268350579 0.00102136494
v -0.00241158227 0.0268116035 -0.000478634378
v -0.00257474254 0.0267516207 0.00102136494
v -0.00256114523 0.0267292447 -0.000478634378
v -0.0027185909 0.0266555641 0.00102136494
v -0.00270313467 0.0266344287 -0.000478634378
v -0.00285372208 0.0265475884 0.00102136494
v -0.00283652241 0.02652785 -0.000478634378
v -0.0029791526 0.0264284797 0.00102136494
v -0.00296033244 0.0264102798 -0.000478634378
v -0.00309396978 0.0262991078 0.00102136494
v -0.00307366322 0.0262825806 -0.000478634378
v -0.00319733168 0.0261604153 0.00102136494
v -0.00317568774 0.0261456799 -0.000478634378
v -0.00328848581 0.0260134116 0.00102136494
v -0.00326566841 0.0260005761 -0.000478634378
v -0.00336677278 0.0258591697 0.00102136494
v -0.0033429421 0.0258483253 -0.000478634378
v -0.00343161891 0.0256988108 0.00102136494
v -0.00340695004 0.0256900396 -0.000478634378
v -0.00348255108 0.0255335066 0.00102136494
v -0.00345722283 0.0255268719 -0.000478634378
v -0.00351919676 0.0253644604 0.00102136494
v -0.0034933954 0.0253600106 -0.000478634378
v -0.00354129518 0.0251929052 0.00102136494
v -0.00351520698 0.0251906719 -0.000478634378
v -0.00354867871 0.0250200909 0.00102136494
v -0.00352249364 0.0250200909 -0.000478634378
v -0.000426680461 -0.0248840377 -0.000478634378
v -0.000422493235 -0.0249799099 -0.000478634378
v -0.000426680461 -0.0250757802 -0.000478634378
v -0.00126181229 -0.00995712634 -0.000478634378
v -0.00139153807 -0.00997420307 -0.000478634378
v -0.00207249518 -0.0240272824 -0.000478634378
v -0.00198737602 -0.02398297 -0.000478634378
v -0.000488833233 -0.0253561325 -0.000478634378
v -0.000459977105 -0.0252646096 -0.000478634378
v -0.000439204887 -0.0251709223 -0.000478634378
v -0.000525557145 -0.0254447889 -0.000478634378
v -0.000569865748 -0.0255299099 -0.000478634378
v -0.000621427491 -0.0256108437 -0.000478634378
v -0.000948295637 -0.00986575522 -0.000478634378
v -0.00100928231 -0.00988946948 -0.000478634378
v -0.00113406836 -0.00992881041 -0.000478634378
v -4.52777895e-05 -0.00874059275 -0.000478634378
v -7.3593721e-05 -0.00886833668 -0.000478634378
v -0.000112936512 -0.00899312366 -0.000478634378
v -0.00142662285 -0.0238840953 -0.000478634378
v -0.00133148266 -0.0238966215 -0.000478634378
v -0.00123779534 -0.0239173919 -0.000478634378
v -0.000525557145 -0.024515029 -0.000478634378
v -0.000488833233 -0.0246036872 -0.000478634378
v -0.00338199059 -0.0108458148 -0.000478634378
v -0.00340833957 -0.0109057091 -0.000478634378
v -0.000679847493 -0.0256869756 -0.000478634378
v -0.00074467872 -0.0257577263 -0.000478634378
v -0.000181526557 -0.0264637582 -0.000478634378
v -0.000815429434 -0.0258225575 -0.000478634378
v -0.000312973425 -0.0265727248 -0.000478634378
v -0.000891559466 -0.0258809775 -0.000478634378
v -0.00045323433 -0.0266700815 -0.000478634378
v -0.000972495123 -0.0259325374 -0.000478634378
v -0.000601284846 -0.0267551206 -0.000478634378
v -0.00105761422 -0.0259768479 -0.000478634378
v -0.000756052032 -0.0268272217 -0.000478634378
v -0.00114627241 -0.0260135718 -0.000478634378
v -0.00114627241 -0.023946248 -0.000478634378
v -0.00105761422 -0.02398297 -0.000478634378
v -0.000972495123 -0.0240272824 -0.000478634378
v -0.000891559466 -0.0240788423 -0.000478634378
v -0.000815429434 -0.0241372604 -0.000478634378
v -0.00074467872 -0.0242020916 -0.000478634378
v -0.000679847493 -0.0242728423 -0.000478634378
v -0.000459977105 -0.0246952083 -0.000478634378
v -0.000439204887 -0.0247888956 -0.000478634378
v -2.24939158e-05 -0.00848013815 -0.000478634378
v -2.82010606e-05 -0.00861086417 -0.000478634378
v -0.00152226596 -0.00997990929 -0.000478634378
v -0.00202272157 -0.00997990929 -0.000478634378
v -0.00215344946 -0.00998561643 -0.000478634378
v -0.00343205477 -0.0109666958 -0.000478634378
v -0.00347139384 -0.0110914828 -0.000478634378
v -0.00349971349 -0.0112192258 -0.000478634378
v -0.0035167865 -0.0113489544 -0.000478634378
v -0.00352249364 -0.0114796814 -0.000478634378
v -0.00352249364 -0.0249799099 -0.000478634378
v -0.00230031158 -0.0242020916 -0.000478634378
v -0.00189871772 -0.023946248 -0.000478634378
v -0.00180719479 -0.0239173919 -0.000478634378
v -0.00171350746 -0.0238966215 -0.000478634378
v -0.000621427491 -0.0243489761 -0.000478634378
v -0.000569865748 -0.0244299099 -0.000478634378
v -0.000416491792 -0.00949339848 -0.000478634378
v -0.000461739168 -0.00954066403 -0.000478634378
v -0.00050900568 -0.00958591141 -0.000478634378
v -0.000558201864 -0.00962905306 -0.000478634378
v -0.00262249331 -0.0249799099 -0.000478634378
v -0.00261830981 -0.0248840377 -0.000478634378
v -0.00255615707 -0.0246036872 -0.000478634378
v -0.00251943315 -0.024515029 -0.000478634378
v -0.00247512455 -0.0244299099 -0.000478634378
v -0.00222956087 -0.0241372604 -0.000478634378
v -0.00215343083 -0.0240788423 -0.000478634378
v -0.00161836727 -0.0238840953 -0.000478634378
v -0.0015224932 -0.0238799099 -0.000478634378
v -0.000293706224 -0.00934040546 -0.000478634378
v -0.000332397089 -0.00939317327 -0.000478634378
v -0.00037335293 -0.00944420416 -0.000478634378
v -0.00228317897 -0.0100026922 -0.000478634378
v -0.0024109229 -0.0100310091 -0.000478634378
v -0.00253570895 -0.01007035 -0.000478634378
v -0.00259669567 -0.0100940643 -0.000478634378
v -0.00265659089 -0.0101204161 -0.000478634378
v -0.00271527539 -0.010149355 -0.000478634378
v -0.00260578166 -0.0247888956 -0.000478634378
v -0.00258501316 -0.0246952083 -0.000478634378
v -0.00242356281 -0.0243489761 -0.000478634378
v -0.00236514281 -0.0242728423 -0.000478634378
v -0.00060923089 -0.00967000797 -0.000478634378
v -0.000661999627 -0.00970869791 -0.000478634378
v -0.000716403767 -0.00974504929 -0.000478634378
v -0.00328763644 -0.01067382 -0.000478634378
v -0.00332157756 -0.0107297599 -0.000478634378
v -0.00335304881 -0.0107871285 -0.000478634378
v -0.00261830981 -0.0250757802 -0.000478634378
v -0.00351520698 -0.0251504909 -0.000478634378
v -0.00260578166 -0.0251709223 -0.000478634378
v -0.0034933954 -0.0253198296 -0.000478634378
v -0.00258501316 -0.0252646096 -0.000478634378
v -0.00345722283 -0.0254866909 -0.000478634378
v -0.00255615707 -0.0253561325 -0.000478634378
v -0.00340695004 -0.0256498586 -0.000478634378
v -0.00251943315 -0.0254447889 -0.000478634378
v -0.0033429421 -0.0258081444 -0.000478634378
v -0.00247512455 -0.0255299099 -0.000478634378
v -0.00326566841 -0.0259603951 -0.000478634378
v -0.00242356281 -0.0256108437 -0.000478634378
v -0.00317568774 -0.0261054989 -0.000478634378
v -0.00236514281 -0.0256869756 -0.000478634378
v -0.00307366322 -0.0262423996 -0.000478634378
v -0.00230031158 -0.0257577263 -0.000478634378
v -0.00296033244 -0.0263700988 -0.000478634378
v -0.00222956087 -0.0258225575 -0.000478634378
v -0.00283652241 -0.026487669 -0.000478634378
v -0.00215343083 -0.0258809775 -0.000478634378
v -0.00270313467 -0.0265942477 -0.000478634378
v -0.00207249518 -0.0259325374 -0.000478634378
v -0.00256114523 -0.0266890638 -0.000478634378
v -0.00198737602 -0.0259768479 -0.000478634378
v -0.00241158227 -0.0267714225 -0.000478634378
v -0.00189871772 -0.0260135718 -0.000478634378
v -0.00225554476 -0.0268407259 -0.000478634378
v -0.00180719479 -0.0260424279 -0.000478634378
v -0.00209416146 -0.0268964674 -0.000478634378
v -0.00171350746 -0.0260631982 -0.000478634378
v -0.00192861317 -0.0269382428 -0.000478634378
v -0.00161836727 -0.0260757245 -0.000478634378
v -0.00176010712 -0.0269657448 -0.000478634378
v -0.0015224932 -0.0260799099 -0.000478634378
v -0.00158986507 -0.026978774 -0.000478634378
v -0.00142662285 -0.0260757245 -0.000478634378
v -0.00141913502 -0.0269772373 -0.000478634378
v -0.00133148266 -0.0260631982 -0.000478634378
v -0.00124915747 -0.0269611441 -0.000478634378
v -0.00123779534 -0.0260424279 -0.000478634378
v -0.00108117296 -0.0269306116 -0.000478634378
v -0.000916403427 -0.0268858615 -0.000478634378
v -0.000191938743 -0.00917269103 -0.000478634378
v -0.000223409996 -0.00923005864 -0.000478634378
v -0.000257354841 -0.00928599946 -0.000478634378
v -0.000136647985 -0.00905411039 -0.000478634378
v -0.000163000688 -0.00911400374 -0.000478634378
v -0.000772346451 -0.0097789932 -0.000478634378
v -0.000829712197 -0.00981046446 -0.000478634378
v -0.00088840042 -0.00983940344 -0.000478634378
v -0.00277264486 -0.0101808263 -0.000478634378
v -0.00282858382 -0.0102147693 -0.000478634378
v -0.00288299168 -0.0102511207 -0.000478634378
v -0.00317163835 -0.0105156153 -0.000478634378
v -0.00321259419 -0.0105666453 -0.000478634378
v -0.00325128506 -0.0106194131 -0.000478634378
v -0.00293576042 -0.0102898106 -0.000478634378
v -0.00298678945 -0.0103307655 -0.000478634378
v -0.00303598563 -0.0103739081 -0.000478634378
v -0.00308324839 -0.0104191545 -0.000478634378
v -0.00312849577 -0.0104664201 -0.000478634378
v -0.00354867871 -0.0249799099 0.00102136494
v -0.00354129518 -0.0251527242 0.00102136494
v -0.00351919676 -0.0253242794 0.00102136494
v -0.00348255108 -0.0254933257 0.00102136494
v -0.00343161891 -0.0256586298 0.00102136494
v -0.00336677278 -0.0258189887 0.00102136494
v -0.00328848581 -0.0259732306 0.00102136494
v -0.00319733168 -0.0261202343 0.00102136494
v -0.00309396978 -0.0262589268 0.00102136494
v -0.0029791526 -0.0263882987 0.00102136494
v -0.00285372208 -0.0265074074 0.00102136494
v -0.0027185909 -0.0266153831 0.00102136494
v -0.00257474254 -0.0267114397 0.00102136494
v -0.00242322381 -0.0267948769 0.00102136494
v -0.00226514111 -0.0268650874 0.00102136494
v -0.00210164557 -0.0269215591 0.00102136494
v -0.00193392916 -0.0269638803 0.00102136494
v -0.00176321773 -0.0269917417 0.00102136494
v -0.00159074797 -0.0270049423 0.00102136494
v -0.00141778274 -0.0270033851 0.00102136494
v -0.0012455812 -0.0269870795 0.00102136494
v -0.00107539503 -0.0269561484 0.00102136494
v -0.000908468559 -0.0269108135 0.00102136494
v -0.000746019825 -0.0268514063 0.00102136494
v -0.000589226082 -0.0267783608 0.00102136494
v -0.000439234689 -0.0266922079 0.00102136494
v -0.000297140941 -0.0265935753 0.00102136494
v -0.000163972989 -0.0264831837 0.00102136494
v -0.00354867871 -0.0114534982 0.00102136494
v -0.00204890664 -0.00995372701 0.00102136494
v -0.0015484473 -0.00995372701 0.00102136494
v -0.0021796308 -0.00995943323 0.00102136494
v -0.00230936031 -0.00997650996 0.00102136494
v -0.00243710424 -0.0100048259 0.00102136494
v -0.00256189029 -0.0100441668 0.00102136494
v -0.00262287701 -0.0100678811 0.00102136494
v -0.00268277223 -0.0100942329 0.00102136494
v -0.00274146046 -0.0101231718 0.00102136494
v -0.0027988262 -0.0101546431 0.00102136494
v -0.00285476889 -0.010188587 0.00102136494
v -0.00290917302 -0.0102249384 0.00102136494
v -0.00296194176 -0.0102636283 0.00102136494
v -0.00301297079 -0.0103045832 0.00102136494
v -0.00306216697 -0.0103477249 0.00102136494
v -0.00310943346 -0.0103929723 0.00102136494
v -0.00315468083 -0.0104402378 0.00102136494
v -0.00319781969 -0.0104894331 0.00102136494
v -0.00323877553 -0.010540463 0.00102136494
v -0.0032774664 -0.0105932308 0.00102136494
v -0.00331381778 -0.0106476368 0.00102136494
v -0.00334776263 -0.0107035777 0.00102136494
v -0.00337923388 -0.0107609453 0.00102136494
v -0.00340817194 -0.0108196326 0.00102136494
v -0.00343452464 -0.0108795259 0.00102136494
v -0.00345823611 -0.0109405126 0.00102136494
v -0.0034975789 -0.0110652996 0.00102136494
v -0.00352589483 -0.0111930436 0.00102136494
v -0.00354297156 -0.0113227721 0.00102136494
v -4.86789795e-05 -0.00845395494 0.00102136494
v -0.00259222533 -0.0250734985 0.00102136494
v -0.00257999892 -0.0251663756 0.00102136494
v -0.00255972217 -0.0252578333 0.00102136494
v -0.00253155152 -0.0253471769 0.00102136494
v -0.00249570305 -0.0254337247 0.00102136494
v -0.00245244871 -0.0255168173 0.00102136494
v -0.00240211631 -0.0255958252 0.00102136494
v -0.00234508584 -0.0256701466 0.00102136494
v -0.00228179689 -0.0257392135 0.00102136494
v -0.00221273 -0.0258025005 0.00102136494
v -0.00213841046 -0.0258595292 0.00102136494
v -0.00205940451 -0.0259098634 0.00102136494
v -0.00197630818 -0.0259531178 0.00102136494
v -0.00188976212 -0.0259889681 0.00102136494
v -0.00180041848 -0.0260171369 0.00102136494
v -0.00170896261 -0.0260374136 0.00102136494
v -0.00161608367 -0.02604964 0.00102136494
v -0.0015224932 -0.0260537267 0.00102136494
v -0.00142890646 -0.02604964 0.00102136494
v -0.00133602752 -0.0260374136 0.00102136494
v -0.00124457164 -0.0260171369 0.00102136494
v -0.001155228 -0.0259889681 0.00102136494
v -0.00106867834 -0.0259531178 0.00102136494
v -0.000985585735 -0.0259098634 0.00102136494
v -0.000906579837 -0.0258595292 0.00102136494
v -0.00083225657 -0.0258025005 0.00102136494
v -0.000763189688 -0.0257392135 0.00102136494
v -0.000699904456 -0.0256701466 0.00102136494
v -0.000642873987 -0.0255958252 0.00102136494
v -0.00059254159 -0.0255168173 0.00102136494
v -0.000549287244 -0.0254337247 0.00102136494
v -0.00051343505 -0.0253471769 0.00102136494
v -0.000485268101 -0.0252578333 0.00102136494
v -0.000464991346 -0.0251663756 0.00102136494
v -0.000452764943 -0.0250734985 0.00102136494
v -0.0004486783 -0.0249799099 0.00102136494
v -0.000452764943 -0.0248863194 0.00102136494
v -0.000464991346 -0.0247934423 0.00102136494
v -0.000485268101 -0.0247019846 0.00102136494
v -0.00051343505 -0.0246126428 0.00102136494
v -0.000549287244 -0.024526095 0.00102136494
v -0.00059254159 -0.0244430006 0.00102136494
v -0.000642873987 -0.0243639927 0.00102136494
v -0.000699904456 -0.0242896732 0.00102136494
v -0.000763189688 -0.0242206063 0.00102136494
v -0.00083225657 -0.0241573174 0.00102136494
v -0.000906579837 -0.0241002906 0.00102136494
v -0.000985585735 -0.0240499564 0.00102136494
v -0.00106867834 -0.0240067001 0.00102136494
v -0.001155228 -0.0239708517 0.00102136494
v -0.00124457164 -0.023942681 0.00102136494
v -0.00133602752 -0.0239224061 0.00102136494
v -0.00142890646 -0.0239101779 0.00102136494
v -0.0015224932 -0.0239060912 0.00102136494
v -0.00161608367 -0.0239101779 0.00102136494
v -0.00170896261 -0.0239224061 0.00102136494
v -0.00180041848 -0.023942681 0.00102136494
v -0.00188976212 -0.0239708517 0.00102136494
v -0.00197630818 -0.0240067001 0.00102136494
v -0.00205940451 -0.0240499564 0.00102136494
v -0.00213841046 -0.0241002906 0.00102136494
v -0.00221273 -0.0241573174 0.00102136494
v -0.00228179689 -0.0242206063 0.00102136494
v -0.00234508584 -0.0242896732 0.00102136494
v -0.00240211631 -0.0243639927 0.00102136494
v -0.00245244871 -0.0244430006 0.00102136494
v -0.00249570305 -0.024526095 0.00102136494
v -0.00253155152 -0.0246126428 0.00102136494
v -0.00255972217 -0.0247019846 0.00102136494
v -0.00257999892 -0.0247934423 0.00102136494
v -0.00259222533 -0.0248863194 0.00102136494
v -0.00259631197 -0.0249799099 0.00102136494
v -9.97750612e-05 -0.00884215347 0.00102136494
v -0.000139117852 -0.00896694046 0.00102136494
v -0.00016283305 -0.00902792718 0.00102136494
v -0.00128799363 -0.00993094407 0.00102136494
v -0.0011602497 -0.00990262721 0.00102136494
v -0.00103546365 -0.00986328721 0.00102136494
v -0.00141772314 -0.00994801987 0.00102136494
v -0.00053518702 -0.00955972821 0.00102136494
v -0.000487924233 -0.00951448176 0.00102136494
v -7.14591297e-05 -0.00871441048 0.00102136494
v -5.4382399e-05 -0.0085846819 0.00102136494
v -0.000688180968 -0.00968251564 0.00102136494
v -0.000635412231 -0.0096438257 0.00102136494
v -0.000584383204 -0.00960287079 0.00102136494
v -0.000442676857 -0.00946721621 0.00102136494
v -0.00039953427 -0.00941802096 0.00102136494
v -0.000358578429 -0.009366991 0.00102136494
v -0.000319887564 -0.00931422319 0.00102136494
v -0.000283536181 -0.00925981719 0.00102136494
v -0.000249595061 -0.00920387637 0.00102136494
v -0.000218123809 -0.00914650876 0.00102136494
v -0.000189182028 -0.00908782147 0.00102136494
v -0.000855897262 -0.00978428219 0.00102136494
v -0.000798527792 -0.00975281093 0.00102136494
v -0.000742588833 -0.00971886702 0.00102136494
v -0.000974476978 -0.00983957294 0.00102136494
v -0.00091458176 -0.00981322117 0.00102136494
f 1 3 2
f 2 3 4
f 1 5 3
f 3 5 6
f 4 7 2
f 2 7 8
f 3 6 4
f 4 6 7
f 9 11 10
f 10 11 12
f 11 13 12
f 12 13 14
f 15 17 16
f 15 18 17
f 17 18 19
f 18 20 19
f 19 20 21
f 20 22 21
f 21 22 23
f 22 24 23
f 23 24 25
f 24 26 25
f 25 26 27
f 26 28 27
f 27 28 29
f 28 30 29
f 29 30 31
f 30 32 31
f 31 32 33
f 32 34 33
f 35 37 36
f 35 38 37
f 37 38 39
f 38 40 39
f 39 40 41
f 40 42 41
f 41 42 43
f 42 44 43
f 43 44 45
f 44 46 45
f 45 46 47
f 46 48 47
f 47 48 49
f 48 50 49
f 49 50 51
f 50 52 51
f 51 52 53
f 52 54 53
f 55 57 56
f 55 58 57
f 57 58 59
f 58 60 59
f 59 60 61
f 60 62 61
f 61 62 63
f 62 64 63
f 64 65 63
f 63 65 66
f 65 67 66
f 66 67 68
f 67 69 68
f 68 69 70
f 69 71 70
f 70 71 72
f 71 73 72
f 72 73 74
f 73 75 74
f 74 75 76
f 75 77 76
f 76 77 78
f 77 79 78
f 78 79 80
f 79 81 80
f 80 81 82
f 81 83 82
f 82 83 84
f 83 85 84
f 84 85 86
f 85 87 86
f 86 87 88
f 87 89 88
f 88 89 90
f 89 91 90
f 90 91 92
f 91 93 92
f 92 93 94
f 93 95 94
f 94 95 96
f 95 97 96
f 96 97 98
f 97 99 98
f 98 99 100
f 99 101 100
f 100 101 102
f 101 103 102
f 102 103 104
f 104 103 105
f 103 106 105
f 105 106 107
f 106 108 107
f 107 108 109
f 108 110 109
f 109 110 111
f 110 112 111
f 113 115 114
f 113 116 115
f 115 116 117
f 116 118 117
f 117 118 119
f 118 120 119
f 119 120 121
f 120 122 121
f 122 123 121
f 121 123 124
f 123 125 124
f 124 125 126
f 125 127 126
f 126 127 128
f 127 129 128
f 128 129 130
f 129 131 130
f 130 131 132
f 131 133 132
f 132 133 134
f 133 135 134
f 134 135 136
f 135 137 136
f 136 137 138
f 137 139 138
f 138 139 140
f 139 141 140
f 140 141 142
f 141 143 142
f 142 143 144
f 143 145 144
f 144 145 146
f 145 147 146
f 146 147 148
f 147 149 148
f 148 149 150
f 149 151 150
f 150 151 152
f 151 153 152
f 152 153 154
f 153 155 154
f 154 155 156
f 155 157 156
f 156 157 158
f 157 159 158
f 158 159 160
f 159 161 160
f 160 161 162
f 162 161 163
f 161 164 163
f 163 164 165
f 164 166 165
f 165 166 167
f 166 168 167
f 167 168 169
f 168 170 169
f 10 171 9
f 9 171 172
f 35 36 173
f 173 36 174
f 175 177 176
f 176 177 178
f 177 179 178
f 178 179 180
f 179 181 180
f 180 181 182
f 181 183 182
f 182 183 184
f 183 185 184
f 184 185 186
f 185 187 186
f 186 187 188
f 187 189 188
f 188 189 190
f 189 191 190
f 190 191 192
f 191 193 192
f 192 193 194
f 193 195 194
f 194 195 196
f 195 197 196
f 196 197 198
f 197 199 198
f 198 199 200
f 199 201 200
f 200 201 202
f 201 203 202
f 202 203 204
f 203 205 204
f 204 205 206
f 205 207 206
f 206 207 208
f 207 209 208
f 208 209 210
f 209 211 210
f 210 211 212
f 211 213 212
f 212 213 214
f 213 215 214
f 214 215 216
f 215 217 216
f 216 217 218
f 217 219 218
f 218 219 220
f 219 221 220
f 220 221 222
f 221 223 222
f 222 223 224
f 223 225 224
f 224 225 226
f 225 227 226
f 226 227 228
f 227 229 228
f 228 229 230
f 229 231 230
f 230 231 232
f 231 233 232
f 232 233 234
f 233 235 234
f 234 235 236
f 235 237 236
f 236 237 238
f 237 239 238
f 238 239 240
f 239 241 240
f 240 241 242
f 241 243 242
f 242 243 244
f 243 245 244
f 244 245 246
f 245 247 246
f 246 247 248
f 247 249 248
f 248 249 250
f 249 251 250
f 250 251 252
f 251 253 252
f 252 253 254
f 253 255 254
f 254 255 256
f 255 257 256
f 256 257 258
f 257 259 258
f 258 259 260
f 259 261 260
f 260 261 262
f 261 263 262
f 262 263 264
f 263 265 264
f 264 265 266
f 265 267 266
f 266 267 268
f 267 269 268
f 268 269 270
f 269 271 270
f 270 271 272
f 271 273 272
f 272 273 274
f 273 275 274
f 274 275 276
f 275 277 276
f 276 277 278
f 277 279 278
f 278 279 280
f 279 281 280
f 280 281 282
f 281 283 282
f 282 283 284
f 283 285 284
f 284 285 286
f 285 287 286
f 286 287 288
f 287 289 288
f 288 289 290
f 289 291 290
f 290 291 292
f 291 293 292
f 292 293 294
f 293 295 294
f 294 295 296
f 295 297 296
f 296 297 298
f 297 299 298
f 298 299 300
f 299 301 300
f 300 301 302
f 301 303 302
f 302 303 304
f 303 305 304
f 304 305 306
f 305 307 306
f 306 307 308
f 307 309 308
f 308 309 310
f 309 311 310
f 310 311 312
f 311 313 312
f 312 313 314
f 313 315 314
f 314 315 316
f 315 317 316
f 316 317 318
f 317 175 318
f 318 175 176
f 13 53 54
f 172 11 9
f 53 8 16
f 16 8 15
f 11 172 13
f 13 172 53
f 172 5 53
f 53 5 8
f 5 1 8
f 8 1 2
f 33 34 319
f 319 34 320
f 320 321 319
f 320 322 321
f 321 322 323
f 322 324 323
f 323 324 325
f 324 326 325
f 325 326 327
f 326 328 327
f 327 328 329
f 328 330 329
f 329 330 331
f 330 332 331
f 331 332 333
f 332 334 333
f 333 334 335
f 334 336 335
f 335 336 337
f 336 338 337
f 337 338 339
f 338 340 339
f 339 340 341
f 340 342 341
f 341 342 343
f 342 344 343
f 343 344 345
f 344 346 345
f 345 346 347
f 346 348 347
f 347 348 349
f 348 350 349
f 349 350 351
f 350 352 351
f 351 352 353
f 352 354 353
f 353 354 355
f 354 356 355
f 355 356 357
f 356 358 357
f 357 358 359
f 358 360 359
f 359 360 361
f 360 362 361
f 361 362 363
f 362 364 363
f 363 364 365
f 364 366 365
f 365 366 367
f 366 368 367
f 367 368 369
f 368 370 369
f 369 370 371
f 370 372 371
f 371 372 373
f 372 374 373
f 373 374 375
f 374 376 375
f 377 35 378
f 378 35 379
f 6 376 7
f 116 6 118
f 171 381 380
f 382 14 383
f 6 5 118
f 118 5 120
f 5 122 120
f 34 242 244
f 384 385 173
f 173 385 35
f 385 386 35
f 35 386 379
f 384 173 387
f 387 173 388
f 173 389 388
f 390 171 391
f 391 171 392
f 171 380 392
f 110 6 112
f 112 6 113
f 6 116 113
f 393 172 394
f 394 172 395
f 396 14 397
f 397 14 398
f 399 35 400
f 5 166 164
f 401 171 402
f 234 18 15
f 250 34 248
f 248 34 246
f 34 244 246
f 389 173 403
f 403 173 404
f 173 405 404
f 404 405 406
f 405 407 406
f 406 407 408
f 407 409 408
f 408 409 410
f 409 411 410
f 410 411 412
f 411 413 412
f 412 413 414
f 398 14 415
f 415 14 416
f 14 13 416
f 416 13 417
f 13 418 417
f 418 13 419
f 419 13 420
f 13 54 420
f 420 54 421
f 400 35 422
f 422 35 423
f 35 377 423
f 99 6 101
f 101 6 103
f 139 5 141
f 141 5 143
f 5 145 143
f 170 172 424
f 424 172 425
f 172 393 425
f 381 171 426
f 426 171 427
f 171 428 427
f 402 171 429
f 429 171 430
f 171 431 430
f 242 34 240
f 240 34 238
f 34 32 238
f 238 32 236
f 214 216 7
f 7 216 218
f 264 266 320
f 320 266 322
f 266 268 322
f 322 268 324
f 268 270 324
f 324 270 326
f 270 272 326
f 431 171 432
f 432 171 433
f 171 14 433
f 433 14 434
f 14 435 434
f 383 14 436
f 436 14 437
f 14 438 437
f 421 54 439
f 439 54 440
f 54 52 440
f 440 52 50
f 35 399 38
f 38 399 40
f 399 42 40
f 133 5 135
f 135 5 137
f 5 139 137
f 441 172 442
f 442 172 443
f 172 444 443
f 26 236 28
f 28 236 30
f 236 32 30
f 226 8 224
f 224 8 222
f 8 7 222
f 222 7 220
f 7 218 220
f 214 7 212
f 212 7 210
f 7 208 210
f 184 186 376
f 376 186 188
f 434 446 445
f 447 434 448
f 448 434 449
f 435 14 450
f 450 14 451
f 14 382 451
f 438 14 452
f 452 14 453
f 14 396 453
f 145 5 147
f 147 5 149
f 5 151 149
f 5 172 166
f 166 172 168
f 172 170 168
f 454 172 455
f 455 172 456
f 172 441 456
f 428 171 457
f 457 171 458
f 171 459 458
f 459 171 460
f 460 171 461
f 171 462 461
f 18 234 20
f 20 234 22
f 234 236 22
f 22 236 24
f 236 26 24
f 234 15 232
f 232 15 230
f 15 8 230
f 230 8 228
f 8 226 228
f 208 7 206
f 206 7 204
f 7 202 204
f 196 7 194
f 194 7 192
f 7 376 192
f 192 376 190
f 376 188 190
f 264 320 262
f 262 320 260
f 320 258 260
f 258 320 256
f 256 320 254
f 320 34 254
f 254 34 252
f 34 250 252
f 446 434 463
f 463 434 464
f 434 447 464
f 449 434 465
f 465 434 466
f 434 435 466
f 376 6 55
f 55 6 58
f 6 60 58
f 65 6 67
f 67 6 69
f 103 6 106
f 106 6 108
f 6 110 108
f 151 5 153
f 153 5 155
f 5 157 155
f 157 5 159
f 159 5 161
f 5 164 161
f 202 7 200
f 200 7 198
f 7 196 198
f 42 399 44
f 44 399 46
f 399 440 46
f 46 440 48
f 440 50 48
f 60 6 62
f 62 6 64
f 6 65 64
f 127 5 129
f 129 5 131
f 5 133 131
f 444 172 467
f 467 172 468
f 172 469 468
f 470 171 471
f 471 171 472
f 171 401 472
f 445 473 434
f 434 473 474
f 473 475 474
f 474 475 476
f 475 477 476
f 476 477 478
f 477 479 478
f 478 479 480
f 479 481 480
f 480 481 482
f 481 483 482
f 482 483 484
f 483 485 484
f 484 485 486
f 485 487 486
f 486 487 488
f 487 489 488
f 488 489 490
f 489 491 490
f 490 491 492
f 491 493 492
f 492 493 494
f 493 495 494
f 494 495 496
f 495 497 496
f 496 497 498
f 497 499 498
f 498 499 500
f 499 501 500
f 500 501 502
f 501 503 502
f 502 503 504
f 503 505 504
f 504 505 506
f 505 507 506
f 506 507 508
f 507 509 508
f 508 509 510
f 509 511 510
f 510 511 512
f 511 513 512
f 512 513 514
f 513 414 514
f 514 414 515
f 414 413 515
f 516 172 517
f 517 172 518
f 172 454 518
f 184 376 182
f 182 376 180
f 376 178 180
f 326 272 328
f 328 272 330
f 272 274 330
f 330 274 332
f 274 276 332
f 332 276 334
f 276 278 334
f 334 278 336
f 278 280 336
f 336 280 338
f 280 282 338
f 338 282 340
f 282 284 340
f 340 284 342
f 284 286 342
f 342 286 344
f 286 288 344
f 344 288 346
f 288 290 346
f 346 290 348
f 290 292 348
f 348 292 350
f 292 294 350
f 350 294 352
f 294 296 352
f 352 296 354
f 296 298 354
f 354 298 356
f 298 300 356
f 356 300 358
f 300 302 358
f 358 302 360
f 302 304 360
f 360 304 362
f 304 306 362
f 362 306 364
f 306 308 364
f 364 308 366
f 308 310 366
f 366 310 368
f 310 312 368
f 368 312 370
f 312 314 370
f 370 314 372
f 314 316 372
f 372 316 374
f 316 318 374
f 374 318 376
f 318 176 376
f 376 176 178
f 93 6 95
f 95 6 97
f 6 99 97
f 122 5 123
f 123 5 125
f 5 127 125
f 395 172 519
f 519 172 520
f 172 516 520
f 469 172 521
f 521 172 522
f 172 171 522
f 522 171 523
f 171 390 523
f 462 171 524
f 524 171 525
f 171 526 525
f 69 6 71
f 71 6 73
f 6 75 73
f 527 171 528
f 528 171 529
f 171 470 529
f 87 6 89
f 89 6 91
f 6 93 91
f 75 6 77
f 77 6 79
f 6 81 79
f 526 171 530
f 530 171 531
f 171 532 531
f 532 171 533
f 533 171 534
f 171 527 534
f 81 6 83
f 83 6 85
f 6 87 85
f 55 56 376
f 376 56 375
f 434 536 535
f 434 474 536
f 536 474 537
f 474 476 537
f 537 476 538
f 476 478 538
f 538 478 539
f 478 480 539
f 539 480 540
f 480 482 540
f 540 482 541
f 482 484 541
f 541 484 542
f 484 486 542
f 542 486 543
f 486 488 543
f 543 488 544
f 488 490 544
f 544 490 545
f 490 492 545
f 545 492 546
f 492 494 546
f 546 494 547
f 494 496 547
f 547 496 548
f 496 498 548
f 548 498 549
f 498 500 549
f 549 500 550
f 500 502 550
f 550 502 551
f 502 504 551
f 551 504 552
f 504 506 552
f 552 506 553
f 506 508 553
f 553 508 554
f 508 510 554
f 554 510 555
f 510 512 555
f 555 512 556
f 512 514 556
f 556 514 557
f 514 515 557
f 557 515 558
f 515 413 558
f 558 413 559
f 413 411 559
f 559 411 560
f 411 409 560
f 560 409 561
f 409 407 561
f 561 407 562
f 407 405 562
f 562 405 174
f 405 173 174
f 12 14 10
f 10 14 171
f 563 433 535
f 535 433 434
f 427 564 426
f 426 564 565
f 427 566 564
f 427 428 566
f 566 428 567
f 428 457 567
f 567 457 568
f 457 458 568
f 568 458 569
f 458 459 569
f 459 460 569
f 569 460 570
f 460 461 570
f 570 461 571
f 461 462 571
f 571 462 572
f 462 524 572
f 572 524 573
f 524 525 573
f 573 525 574
f 525 526 574
f 574 526 575
f 526 530 575
f 575 530 576
f 530 531 576
f 576 531 577
f 531 532 577
f 577 532 578
f 532 533 578
f 578 533 579
f 533 534 579
f 579 534 580
f 534 527 580
f 580 527 581
f 527 528 581
f 581 528 582
f 528 529 582
f 582 529 583
f 529 470 583
f 583 470 584
f 470 471 584
f 584 471 585
f 471 472 585
f 585 472 586
f 472 401 586
f 586 401 587
f 401 402 587
f 587 402 588
f 402 429 588
f 588 429 589
f 589 429 590
f 429 430 590
f 590 430 591
f 430 431 591
f 591 431 592
f 431 432 592
f 592 432 563
f 432 433 563
f 424 593 170
f 170 593 169
f 594 595 473
f 473 595 475
f 595 596 475
f 475 596 477
f 596 597 477
f 477 597 479
f 597 598 479
f 479 598 481
f 598 599 481
f 481 599 483
f 599 600 483
f 483 600 485
f 600 601 485
f 485 601 487
f 601 602 487
f 487 602 489
f 602 603 489
f 489 603 491
f 603 604 491
f 491 604 493
f 604 605 493
f 493 605 495
f 605 606 495
f 495 606 497
f 606 607 497
f 497 607 499
f 607 608 499
f 499 608 501
f 608 609 501
f 501 609 503
f 609 610 503
f 503 610 505
f 610 611 505
f 505 611 507
f 611 612 507
f 507 612 509
f 612 613 509
f 509 613 511
f 613 614 511
f 511 614 513
f 614 615 513
f 513 615 414
f 615 616 414
f 414 616 412
f 616 617 412
f 412 617 410
f 617 618 410
f 410 618 408
f 618 619 408
f 408 619 406
f 619 620 406
f 406 620 404
f 620 621 404
f 404 621 403
f 621 622 403
f 403 622 389
f 622 623 389
f 389 623 388
f 623 624 388
f 388 624 387
f 624 625 387
f 387 625 384
f 625 626 384
f 384 626 385
f 626 627 385
f 385 627 386
f 627 628 386
f 386 628 379
f 628 629 379
f 379 629 378
f 629 630 378
f 378 630 377
f 630 631 377
f 377 631 423
f 631 632 423
f 423 632 422
f 632 633 422
f 422 633 400
f 633 634 400
f 400 634 399
f 634 635 399
f 399 635 440
f 635 636 440
f 440 636 439
f 636 637 439
f 439 637 421
f 637 638 421
f 421 638 420
f 638 639 420
f 420 639 419
f 639 640 419
f 419 640 418
f 640 641 418
f 418 641 417
f 641 642 417
f 417 642 416
f 642 643 416
f 416 643 415
f 643 644 415
f 415 644 398
f 644 645 398
f 398 645 397
f 645 646 397
f 397 646 396
f 646 647 396
f 396 647 453
f 647 648 453
f 453 648 452
f 648 649 452
f 452 649 438
f 649 650 438
f 438 650 437
f 650 651 437
f 437 651 436
f 651 652 436
f 436 652 383
f 652 653 383
f 383 653 382
f 653 654 382
f 382 654 451
f 654 655 451
f 451 655 450
f 655 656 450
f 450 656 435
f 656 657 435
f 435 657 466
f 657 658 466
f 466 658 465
f 658 659 465
f 465 659 449
f 659 660 449
f 449 660 448
f 660 661 448
f 448 661 447
f 661 662 447
f 447 662 464
f 662 663 464
f 464 663 463
f 663 664 463
f 463 664 446
f 664 665 446
f 446 665 445
f 665 594 445
f 445 594 473
f 113 114 112
f 112 114 111
f 661 535 662
f 662 535 663
f 375 175 317
f 627 36 628
f 259 257 319
f 319 257 255
f 658 563 659
f 245 33 247
f 628 36 629
f 629 36 630
f 36 631 630
f 631 36 632
f 632 36 633
f 36 37 633
f 633 37 634
f 247 33 249
f 249 33 251
f 33 319 251
f 251 319 253
f 319 255 253
f 174 625 624
f 43 634 41
f 41 634 39
f 634 37 39
f 563 535 659
f 659 535 660
f 535 661 660
f 51 635 49
f 49 635 47
f 635 634 47
f 47 634 45
f 634 43 45
f 174 36 625
f 625 36 626
f 36 627 626
f 259 319 261
f 261 319 263
f 319 321 263
f 263 321 265
f 321 323 265
f 265 323 267
f 323 325 267
f 267 325 269
f 325 327 269
f 269 327 271
f 327 329 271
f 271 329 273
f 317 315 375
f 375 315 373
f 315 313 373
f 373 313 371
f 313 311 371
f 371 311 369
f 311 309 369
f 369 309 367
f 309 307 367
f 367 307 365
f 307 305 365
f 365 305 363
f 305 303 363
f 363 303 361
f 303 301 361
f 361 301 359
f 301 299 359
f 359 299 357
f 299 297 357
f 357 297 355
f 297 295 355
f 355 295 353
f 295 293 353
f 353 293 351
f 293 291 351
f 351 291 349
f 291 289 349
f 349 289 347
f 289 287 347
f 347 287 345
f 287 285 345
f 345 285 343
f 285 283 343
f 343 283 341
f 283 281 341
f 341 281 339
f 281 279 339
f 339 279 337
f 279 277 337
f 337 277 335
f 277 275 335
f 335 275 333
f 275 273 333
f 333 273 331
f 273 329 331
f 189 56 191
f 563 655 654
f 616 560 617
f 560 561 617
f 617 561 618
f 561 562 618
f 618 562 619
f 562 174 619
f 619 174 620
f 174 621 620
f 621 174 622
f 622 174 623
f 174 624 623
f 191 56 193
f 193 56 195
f 56 197 195
f 235 33 237
f 237 33 239
f 649 563 650
f 650 563 651
f 655 563 656
f 656 563 657
f 563 658 657
f 175 375 177
f 177 375 179
f 375 181 179
f 239 33 241
f 241 33 243
f 33 245 243
f 651 563 652
f 652 563 653
f 563 654 653
f 560 616 559
f 559 616 558
f 616 615 558
f 558 615 557
f 615 614 557
f 557 614 556
f 614 613 556
f 556 613 555
f 613 612 555
f 555 612 554
f 612 611 554
f 554 611 553
f 611 610 553
f 553 610 552
f 610 609 552
f 552 609 551
f 609 608 551
f 551 608 550
f 608 607 550
f 550 607 549
f 607 606 549
f 549 606 548
f 606 605 548
f 548 605 547
f 605 604 547
f 547 604 546
f 604 603 546
f 546 603 545
f 603 602 545
f 545 602 544
f 602 601 544
f 544 601 543
f 601 600 543
f 543 600 542
f 600 599 542
f 542 599 541
f 599 598 541
f 541 598 540
f 598 597 540
f 540 597 539
f 597 596 539
f 539 596 538
f 596 595 538
f 538 595 537
f 595 594 537
f 537 594 536
f 594 665 536
f 536 665 535
f 665 664 535
f 535 664 663
f 51 53 635
f 635 53 636
f 53 637 636
f 574 648 573
f 33 235 31
f 31 235 29
f 235 27 29
f 181 375 183
f 183 375 185
f 375 56 185
f 185 56 187
f 56 189 187
f 637 53 638
f 638 53 639
f 53 16 639
f 639 16 640
f 197 56 199
f 199 56 201
f 56 203 201
f 229 227 16
f 16 227 225
f 203 56 205
f 205 56 207
f 56 57 207
f 66 207 63
f 211 167 213
f 213 167 215
f 167 217 215
f 566 648 564
f 229 16 231
f 231 16 233
f 16 17 233
f 233 17 19
f 588 648 587
f 587 648 586
f 63 207 61
f 61 207 59
f 207 57 59
f 644 666 645
f 645 666 646
f 666 667 646
f 646 667 668
f 649 648 563
f 563 648 592
f 648 591 592
f 669 646 670
f 670 646 671
f 648 569 570
f 591 648 590
f 590 648 589
f 648 588 589
f 648 647 564
f 564 647 565
f 647 646 565
f 565 646 672
f 646 669 672
f 673 646 674
f 573 648 572
f 572 648 571
f 648 570 571
f 27 235 25
f 25 235 23
f 235 233 23
f 23 233 21
f 233 19 21
f 68 100 66
f 66 100 102
f 167 211 165
f 165 211 163
f 211 162 163
f 675 666 642
f 642 666 643
f 666 644 643
f 640 16 641
f 641 16 642
f 16 676 642
f 642 676 675
f 569 648 568
f 568 648 567
f 648 566 567
f 586 648 585
f 585 648 584
f 648 583 584
f 119 211 117
f 117 211 115
f 211 209 115
f 115 209 114
f 209 207 114
f 114 207 111
f 207 66 111
f 111 66 109
f 66 107 109
f 72 96 70
f 162 211 160
f 160 211 158
f 211 156 158
f 676 16 593
f 593 16 169
f 16 167 169
f 677 646 678
f 678 646 679
f 646 673 679
f 674 646 680
f 680 646 681
f 646 682 681
f 107 66 105
f 105 66 104
f 66 102 104
f 150 211 148
f 148 211 146
f 211 144 146
f 144 211 142
f 142 211 140
f 211 138 140
f 217 167 219
f 219 167 221
f 167 16 221
f 221 16 223
f 16 225 223
f 682 646 683
f 683 646 684
f 646 685 684
f 577 648 576
f 576 648 575
f 648 574 575
f 68 70 100
f 100 70 98
f 70 96 98
f 138 211 136
f 136 211 134
f 211 132 134
f 132 211 130
f 130 211 128
f 211 126 128
f 126 211 124
f 124 211 121
f 211 119 121
f 685 646 686
f 686 646 687
f 646 668 687
f 688 646 689
f 689 646 690
f 646 677 690
f 76 92 74
f 156 211 154
f 154 211 152
f 211 150 152
f 583 648 582
f 582 648 581
f 648 580 581
f 72 74 96
f 96 74 94
f 74 92 94
f 671 646 691
f 691 646 692
f 646 688 692
f 580 648 579
f 579 648 578
f 648 577 578
f 76 78 92
f 92 78 90
f 78 80 90
f 90 80 88
f 88 80 86
f 80 82 86
f 86 82 84
f 424 676 593
f 424 425 676
f 676 425 675
f 425 393 675
f 675 393 666
f 393 394 666
f 666 394 667
f 394 395 667
f 395 519 667
f 667 519 668
f 519 520 668
f 668 520 687
f 520 516 687
f 687 516 686
f 516 517 686
f 686 517 685
f 517 518 685
f 685 518 684
f 518 454 684
f 684 454 683
f 454 455 683
f 683 455 682
f 455 456 682
f 682 456 681
f 456 441 681
f 681 441 680
f 441 442 680
f 680 442 674
f 442 443 674
f 674 443 673
f 443 444 673
f 673 444 679
f 444 467 679
f 679 467 678
f 467 468 678
f 678 468 677
f 468 469 677
f 677 469 690
f 469 521 690
f 690 521 689
f 521 522 689
f 689 522 688
f 522 523 688
f 688 523 692
f 523 390 692
f 692 390 691
f 390 391 691
f 691 391 671
f 671 391 670
f 391 392 670
f 670 392 669
f 392 380 669
f 669 380 672
f 380 381 672
f 672 381 565
f 381 426 565
