# Generated MicroDuck mesh; do not edit by hand.
# Source: microduck_rl/src/mjlab_microduck/robot/microduck/assets/bearing_roll.stl
# Source repository: https://github.com/pollen-robotics/microduck_rl.git@5946fd9cdbc58956424420153e51975af3b30d77
# Source SHA-256: 2b30cbdb110c5cca7092a9b2658c9e899e294bf2df71635828858e1d1a20abfe
# License: Creative Commons BY-SA-NC; see ../Licenses/ATTRIBUTION.json.
# Modified: exported MuJoCo-compiled mesh geometry in Tuanjie coordinates.
# Transform: (x,y,z) -> (-y,z,x); triangle winding reversed.
o bearing_roll
v 0.00786191784 0.0116607957 0.00242612557
v 0.00793069415 0.01166985 0.00242612557
v 0.00799999945 0.0108776912 0.00242612557
v 0.00799999945 0.0116728758 0.00242612557
v 0.00806930475 0.01166985 0.00242612557
v 0.00766394148 0.0115983738 0.00242612557
v 0.00772803137 0.0116249211 0.00242612557
v 0.00779419066 0.0116457809 0.00242612557
v 0.00748886587 0.0114868386 0.00242612557
v 0.00754390145 0.0115290685 0.00242612557
v 0.00760240899 0.0115663419 0.00242612557
v 0.00734862359 0.0113337906 0.00242612557
v 0.00739085348 0.0113888262 0.00242612557
v 0.0074377195 0.0114399726 0.00242612557
v 0.00725277187 0.0111496607 0.00242612557
v 0.00727931829 0.0112137515 0.00242612557
v 0.0073113502 0.011275284 0.00242612557
v 0.00720784115 0.0109469965 0.00242612557
v 0.00721689733 0.0110157738 0.00242612557
v 0.00723191211 0.0110835005 0.00242612557
v 0.00721689733 0.0107396096 0.00242612557
v 0.00720784115 0.0108083868 0.00242612557
v 0.00720481621 0.0108776912 0.00242612557
v 0.00727931829 0.0105416318 0.00242612557
v 0.00725277187 0.0106057227 0.00242612557
v 0.00723191211 0.0106718829 0.00242612557
v 0.00739085348 0.0103665572 0.00242612557
v 0.00734862359 0.0104215927 0.00242612557
v 0.0073113502 0.0104800994 0.00242612557
v 0.00754390145 0.0102263149 0.00242612557
v 0.00748886587 0.0102685448 0.00242612557
v 0.0074377195 0.0103154117 0.00242612557
v 0.00772803137 0.0101304622 0.00242612557
v 0.00766394148 0.0101570096 0.00242612557
v 0.00760240899 0.0101890415 0.00242612557
v 0.00793069415 0.0100855334 0.00242612557
v 0.00786191784 0.0100945877 0.00242612557
v 0.00779419066 0.0101096025 0.00242612557
v 0.00813808292 0.0100945877 0.00242612557
v 0.00806930475 0.0100855334 0.00242612557
v 0.00799999945 0.0100825075 0.00242612557
v 0.00833605975 0.0101570096 0.00242612557
v 0.00827196985 0.0101304622 0.00242612557
v 0.0082058087 0.0101096025 0.00242612557
v 0.00851113535 0.0102685448 0.00242612557
v 0.00845609978 0.0102263149 0.00242612557
v 0.00839759223 0.0101890415 0.00242612557
v 0.00865137763 0.0104215927 0.00242612557
v 0.00860914588 0.0103665572 0.00242612557
v 0.00856227987 0.0103154117 0.00242612557
v 0.00874722935 0.0106057227 0.00242612557
v 0.00872068107 0.0105416318 0.00242612557
v 0.00868864916 0.0104800994 0.00242612557
v 0.00879215822 0.0108083868 0.00242612557
v 0.0087831039 0.0107396096 0.00242612557
v 0.00876808912 0.0106718829 0.00242612557
v 0.0087831039 0.0110157738 0.00242612557
v 0.00879215822 0.0109469965 0.00242612557
v 0.00879518501 0.0108776912 0.00242612557
v 0.00872068107 0.0112137515 0.00242612557
v 0.00874722935 0.0111496607 0.00242612557
v 0.00876808912 0.0110835005 0.00242612557
v 0.00860914588 0.0113888262 0.00242612557
v 0.00865137763 0.0113337906 0.00242612557
v 0.00868864916 0.011275284 0.00242612557
v 0.00845609978 0.0115290685 0.00242612557
v 0.00851113535 0.0114868386 0.00242612557
v 0.00856227987 0.0114399726 0.00242612557
v 0.00827196985 0.0116249211 0.00242612557
v 0.00833605975 0.0115983738 0.00242612557
v 0.00839759223 0.0115663419 0.00242612557
v 0.00813808292 0.0116607957 0.00242612557
v 0.0082058087 0.0116457809 0.00242612557
v 0.00799999945 0.0117776915 0.000426125276
v 0.00792155974 0.0117742671 0.000426125276
v 0.00784371607 0.0117640188 0.000426125276
v 0.0077670631 0.011747025 0.000426125276
v 0.0076921829 0.011723415 0.000426125276
v 0.00761964405 0.0116933687 0.000426125276
v 0.00754999975 0.0116571151 0.000426125276
v 0.00748378085 0.011614929 0.000426125276
v 0.00742149213 0.0115671316 0.000426125276
v 0.00736360485 0.0115140881 0.000426125276
v 0.00731056044 0.0114562009 0.000426125276
v 0.0072627631 0.0113939103 0.000426125276
v 0.00722057791 0.0113276923 0.000426125276
v 0.00718432339 0.011258048 0.000426125276
v 0.00715427706 0.0111855101 0.000426125276
v 0.00713066803 0.011110629 0.000426125276
v 0.00711367326 0.0110339746 0.000426125276
v 0.00710342498 0.0109561319 0.000426125276
v 0.00709999958 0.0108776912 0.000426125276
v 0.00710342498 0.0107992515 0.000426125276
v 0.00711367326 0.0107214078 0.000426125276
v 0.00713066803 0.0106447544 0.000426125276
v 0.00715427706 0.0105698733 0.000426125276
v 0.00718432339 0.0104973353 0.000426125276
v 0.00722057791 0.010427692 0.000426125276
v 0.0072627631 0.0103614731 0.000426125276
v 0.00731056044 0.0102991825 0.000426125276
v 0.00736360485 0.0102412952 0.000426125276
v 0.00742149213 0.0101882517 0.000426125276
v 0.00748378085 0.0101404544 0.000426125276
v 0.00754999975 0.0100982692 0.000426125276
v 0.00761964405 0.0100620147 0.000426125276
v 0.0076921829 0.0100319684 0.000426125276
v 0.0077670631 0.0100083584 0.000426125276
v 0.00784371607 0.00999136455 0.000426125276
v 0.00792155974 0.00998111628 0.000426125276
v 0.00799999945 0.00997769181 0.000426125276
v 0.00807844102 0.00998111628 0.000426125276
v 0.00815628283 0.00999136455 0.000426125276
v 0.00823293626 0.0100083584 0.000426125276
v 0.00830781832 0.0100319684 0.000426125276
v 0.00838035718 0.0100620147 0.000426125276
v 0.00844999962 0.0100982692 0.000426125276
v 0.00851621851 0.0101404544 0.000426125276
v 0.00857850909 0.0101882517 0.000426125276
v 0.00863639638 0.0102412952 0.000426125276
v 0.00868944079 0.0102991825 0.000426125276
v 0.00873723626 0.0103614731 0.000426125276
v 0.00877942331 0.010427692 0.000426125276
v 0.00881567784 0.0104973353 0.000426125276
v 0.00884572417 0.0105698733 0.000426125276
v 0.00886933319 0.0106447544 0.000426125276
v 0.0088863261 0.0107214078 0.000426125276
v 0.00889657438 0.0107992515 0.000426125276
v 0.00889999978 0.0108776912 0.000426125276
v 0.00889657438 0.0109561319 0.000426125276
v 0.0088863261 0.0110339746 0.000426125276
v 0.00886933319 0.011110629 0.000426125276
v 0.00884572417 0.0111855101 0.000426125276
v 0.00881567784 0.011258048 0.000426125276
v 0.00877942331 0.0113276923 0.000426125276
v 0.00873723626 0.0113939103 0.000426125276
v 0.00868944079 0.0114562009 0.000426125276
v 0.00863639638 0.0115140881 0.000426125276
v 0.00857850909 0.0115671316 0.000426125276
v 0.00851621851 0.011614929 0.000426125276
v 0.00844999962 0.0116571151 0.000426125276
v 0.00838035718 0.0116933687 0.000426125276
v 0.00830781832 0.011723415 0.000426125276
v 0.00823293626 0.011747025 0.000426125276
v 0.00815628283 0.0117640188 0.000426125276
v 0.00807844102 0.0117742671 0.000426125276
v -0.00813808199 0.0116607957 0.00242612557
v -0.00806930475 0.01166985 0.00242612557
v -0.00800000038 0.0108776912 0.00242612557
v -0.00800000038 0.0116728758 0.00242612557
v -0.00793069508 0.01166985 0.00242612557
v -0.00833605975 0.0115983738 0.00242612557
v -0.00827196892 0.0116249211 0.00242612557
v -0.0082058087 0.0116457809 0.00242612557
v -0.00851113442 0.0114868386 0.00242612557
v -0.00845609885 0.0115290685 0.00242612557
v -0.00839759223 0.0115663419 0.00242612557
v -0.0086513767 0.0113337906 0.00242612557
v -0.00860914681 0.0113888262 0.00242612557
v -0.0085622808 0.0114399726 0.00242612557
v -0.00874722935 0.0111496607 0.00242612557
v -0.008720682 0.0112137515 0.00242612557
v -0.00868865009 0.011275284 0.00242612557
v -0.00879215822 0.0109469965 0.00242612557
v -0.0087831039 0.0110157738 0.00242612557
v -0.00876808912 0.0110835005 0.00242612557
v -0.0087831039 0.0107396096 0.00242612557
v -0.00879215822 0.0108083868 0.00242612557
v -0.00879518408 0.0108776912 0.00242612557
v -0.008720682 0.0105416318 0.00242612557
v -0.00874722935 0.0106057227 0.00242612557
v -0.00876808912 0.0106718829 0.00242612557
v -0.00860914681 0.0103665572 0.00242612557
v -0.0086513767 0.0104215927 0.00242612557
v -0.00868865009 0.0104800994 0.00242612557
v -0.00845609885 0.0102263149 0.00242612557
v -0.00851113442 0.0102685448 0.00242612557
v -0.0085622808 0.0103154117 0.00242612557
v -0.00827196892 0.0101304622 0.00242612557
v -0.00833605975 0.0101570096 0.00242612557
v -0.00839759223 0.0101890415 0.00242612557
v -0.00806930475 0.0100855334 0.00242612557
v -0.00813808199 0.0100945877 0.00242612557
v -0.0082058087 0.0101096025 0.00242612557
v -0.00786191784 0.0100945877 0.00242612557
v -0.00793069508 0.0100855334 0.00242612557
v -0.00800000038 0.0100825075 0.00242612557
v -0.00766394055 0.0101570096 0.00242612557
v -0.00772803044 0.0101304622 0.00242612557
v -0.00779419066 0.0101096025 0.00242612557
v -0.00748886494 0.0102685448 0.00242612557
v -0.00754390052 0.0102263149 0.00242612557
v -0.00760240713 0.0101890415 0.00242612557
v -0.00734862266 0.0104215927 0.00242612557
v -0.00739085255 0.0103665572 0.00242612557
v -0.0074377195 0.0103154117 0.00242612557
v -0.00725277094 0.0106057227 0.00242612557
v -0.00727931736 0.0105416318 0.00242612557
v -0.00731134927 0.0104800994 0.00242612557
v -0.00720784115 0.0108083868 0.00242612557
v -0.00721689546 0.0107396096 0.00242612557
v -0.00723191025 0.0106718829 0.00242612557
v -0.00721689546 0.0110157738 0.00242612557
v -0.00720784115 0.0109469965 0.00242612557
v -0.00720481528 0.0108776912 0.00242612557
v -0.00727931736 0.0112137515 0.00242612557
v -0.00725277094 0.0111496607 0.00242612557
v -0.00723191025 0.0110835005 0.00242612557
v -0.00739085255 0.0113888262 0.00242612557
v -0.00734862266 0.0113337906 0.00242612557
v -0.00731134927 0.011275284 0.00242612557
v -0.00754390052 0.0115290685 0.00242612557
v -0.00748886494 0.0114868386 0.00242612557
v -0.0074377195 0.0114399726 0.00242612557
v -0.00772803044 0.0116249211 0.00242612557
v -0.00766394055 0.0115983738 0.00242612557
v -0.00760240713 0.0115663419 0.00242612557
v -0.00786191784 0.0116607957 0.00242612557
v -0.00779419066 0.0116457809 0.00242612557
v 0.00899999961 0.0188776907 0.000426125276
v 0.00899999961 0.0188776907 -0.000573873927
v 0.00921788998 0.0188681781 -0.000573873927
v 0.00921788998 0.0188681781 0.000426125276
v 0.00943412073 0.0188397113 -0.000573873927
v 0.00943412073 0.0188397113 0.000426125276
v 0.00964704715 0.0187925063 -0.000573873927
v 0.00964704715 0.0187925063 0.000426125276
v 0.00985505059 0.0187269226 -0.000573873927
v 0.00985505059 0.0187269226 0.000426125276
v 0.010056546 0.0186434612 -0.000573873927
v 0.010056546 0.0186434612 0.000426125276
v 0.0102500003 0.0185427554 -0.000573873927
v 0.0102500003 0.0185427554 0.000426125276
v 0.0104339402 0.0184255708 -0.000573873927
v 0.0104339402 0.0184255708 0.000426125276
v 0.0106069688 0.0182928033 -0.000573873927
v 0.0106069688 0.0182928033 0.000426125276
v 0.0107677672 0.0181454588 -0.000573873927
v 0.0107677672 0.0181454588 0.000426125276
v 0.0109151118 0.0179846603 -0.000573873927
v 0.0109151118 0.0179846603 0.000426125276
v 0.0110478792 0.0178116318 -0.000573873927
v 0.0110478792 0.0178116318 0.000426125276
v 0.0111650638 0.0176276919 -0.000573873927
v 0.0111650638 0.0176276919 0.000426125276
v 0.0112657696 0.0174342375 -0.000573873927
v 0.0112657696 0.0174342375 0.000426125276
v 0.011349231 0.0172327422 -0.000573873927
v 0.011349231 0.0172327422 0.000426125276
v 0.0114148147 0.0170247387 -0.000573873927
v 0.0114148147 0.0170247387 0.000426125276
v 0.0114620198 0.0168118123 -0.000573873927
v 0.0114620198 0.0168118123 0.000426125276
v 0.0114904866 0.0165955815 -0.000573873927
v 0.0114904866 0.0165955815 0.000426125276
v 0.0114999991 0.0163776912 -0.000573873927
v 0.0114999991 0.0163776912 0.000426125276
v 0.0114999991 0.0138276918 0.000426125276
v 0.0114999991 -0.012072308 -0.000573873927
v 0.0114999991 -0.018622309 -0.000573873927
v 0.0114999991 -0.018622309 0.000426125276
v 0.0114999991 -0.012072308 0.000426125276
v 0.0114999991 0.0019276914 0.000426125276
v 0.0114999991 0.0123276915 0.000426125276
v 0.0114904866 -0.0188401993 -0.000573873927
v 0.0114904866 -0.0188401993 0.000426125276
v 0.0114620198 -0.0190564301 -0.000573873927
v 0.0114620198 -0.0190564301 0.000426125276
v 0.0114148147 -0.0192693565 -0.000573873927
v 0.0114148147 -0.0192693565 0.000426125276
v 0.011349231 -0.01947736 -0.000573873927
v 0.011349231 -0.01947736 0.000426125276
v 0.0112657696 -0.0196788553 -0.000573873927
v 0.0112657696 -0.0196788553 0.000426125276
v 0.0111650638 -0.0198723096 -0.000573873927
v 0.0111650638 -0.0198723096 0.000426125276
v 0.0110478792 -0.0200562496 -0.000573873927
v 0.0110478792 -0.0200562496 0.000426125276
v 0.0109151118 -0.0202292781 -0.000573873927
v 0.0109151118 -0.0202292781 0.000426125276
v 0.0107677672 -0.0203900766 -0.000573873927
v 0.0107677672 -0.0203900766 0.000426125276
v 0.0106069688 -0.0205374211 -0.000573873927
v 0.0106069688 -0.0205374211 0.000426125276
v 0.0104339402 -0.0206701886 -0.000573873927
v 0.0104339402 -0.0206701886 0.000426125276
v 0.0102500003 -0.0207873732 -0.000573873927
v 0.0102500003 -0.0207873732 0.000426125276
v 0.010056546 -0.020888079 -0.000573873927
v 0.010056546 -0.020888079 0.000426125276
v 0.00985505059 -0.0209715404 -0.000573873927
v 0.00985505059 -0.0209715404 0.000426125276
v 0.00964704715 -0.0210371241 -0.000573873927
v 0.00964704715 -0.0210371241 0.000426125276
v 0.00943412073 -0.0210843291 -0.000573873927
v 0.00943412073 -0.0210843291 0.000426125276
v 0.00921788998 -0.0211127959 -0.000573873927
v 0.00921788998 -0.0211127959 0.000426125276
v 0.00899999961 -0.0211223084 -0.000573873927
v 0.00899999961 -0.0211223084 0.000426125276
v 3.85704857e-10 -0.0211223084 0.000426125276
v 3.85704857e-10 -0.0211223084 -0.000573873927
v -0.00699999975 -0.0211223084 0.000426125276
v -0.00899999961 -0.0211223084 -0.000573873927
v -0.00899999961 -0.0211223084 0.000426125276
v -0.00921788905 -0.0211127959 -0.000573873927
v -0.00921788905 -0.0211127959 0.000426125276
v -0.00943412073 -0.0210843291 -0.000573873927
v -0.00943412073 -0.0210843291 0.000426125276
v -0.00964704808 -0.0210371241 -0.000573873927
v -0.00964704808 -0.0210371241 0.000426125276
v -0.00985505059 -0.0209715404 -0.000573873927
v -0.00985505059 -0.0209715404 0.000426125276
v -0.010056546 -0.020888079 -0.000573873927
v -0.010056546 -0.020888079 0.000426125276
v -0.0102500003 -0.0207873732 -0.000573873927
v -0.0102500003 -0.0207873732 0.000426125276
v -0.0104339411 -0.0206701886 -0.000573873927
v -0.0104339411 -0.0206701886 0.000426125276
v -0.0106069688 -0.0205374211 -0.000573873927
v -0.0106069688 -0.0205374211 0.000426125276
v -0.0107677672 -0.0203900766 -0.000573873927
v -0.0107677672 -0.0203900766 0.000426125276
v -0.0109151108 -0.0202292781 -0.000573873927
v -0.0109151108 -0.0202292781 0.000426125276
v -0.0110478802 -0.0200562496 -0.000573873927
v -0.0110478802 -0.0200562496 0.000426125276
v -0.0111650629 -0.0198723096 -0.000573873927
v -0.0111650629 -0.0198723096 0.000426125276
v -0.0112657696 -0.0196788553 -0.000573873927
v -0.0112657696 -0.0196788553 0.000426125276
v -0.011349231 -0.01947736 -0.000573873927
v -0.011349231 -0.01947736 0.000426125276
v -0.0114148147 -0.0192693565 -0.000573873927
v -0.0114148147 -0.0192693565 0.000426125276
v -0.0114620188 -0.0190564301 -0.000573873927
v -0.0114620188 -0.0190564301 0.000426125276
v -0.0114904866 -0.0188401993 -0.000573873927
v -0.0114904866 -0.0188401993 0.000426125276
v -0.0115 -0.018622309 -0.000573873927
v -0.0115 -0.018622309 0.000426125276
v -0.0115 0.0163776912 0.000426125276
v -0.0115 0.0163776912 -0.000573873927
v -0.0114904866 0.0165955815 -0.000573873927
v -0.0114904866 0.0165955815 0.000426125276
v -0.0114620188 0.0168118123 -0.000573873927
v -0.0114620188 0.0168118123 0.000426125276
v -0.0114148147 0.0170247387 -0.000573873927
v -0.0114148147 0.0170247387 0.000426125276
v -0.011349231 0.0172327422 -0.000573873927
v -0.011349231 0.0172327422 0.000426125276
v -0.0112657696 0.0174342375 -0.000573873927
v -0.0112657696 0.0174342375 0.000426125276
v -0.0111650629 0.0176276919 -0.000573873927
v -0.0111650629 0.0176276919 0.000426125276
v -0.0110478802 0.0178116318 -0.000573873927
v -0.0110478802 0.0178116318 0.000426125276
v -0.0109151108 0.0179846603 -0.000573873927
v -0.0109151108 0.0179846603 0.000426125276
v -0.0107677672 0.0181454588 -0.000573873927
v -0.0107677672 0.0181454588 0.000426125276
v -0.0106069688 0.0182928033 -0.000573873927
v -0.0106069688 0.0182928033 0.000426125276
v -0.0104339411 0.0184255708 -0.000573873927
v -0.0104339411 0.0184255708 0.000426125276
v -0.0102500003 0.0185427554 -0.000573873927
v -0.0102500003 0.0185427554 0.000426125276
v -0.010056546 0.0186434612 -0.000573873927
v -0.010056546 0.0186434612 0.000426125276
v -0.00985505059 0.0187269226 -0.000573873927
v -0.00985505059 0.0187269226 0.000426125276
v -0.00964704808 0.0187925063 -0.000573873927
v -0.00964704808 0.0187925063 0.000426125276
v -0.00943412073 0.0188397113 -0.000573873927
v -0.00943412073 0.0188397113 0.000426125276
v -0.00921788905 0.0188681781 -0.000573873927
v -0.00921788905 0.0188681781 0.000426125276
v -0.00899999961 0.0188776907 -0.000573873927
v -0.00899999961 0.0188776907 0.000426125276
v -0.00800000038 0.0117776915 0.000426125276
v -0.00807844009 0.0117742671 0.000426125276
v -0.00815628376 0.0117640188 0.000426125276
v -0.00823293719 0.011747025 0.000426125276
v -0.00830781832 0.011723415 0.000426125276
v -0.00838035624 0.0116933687 0.000426125276
v -0.00844999962 0.0116571151 0.000426125276
v -0.00851621851 0.011614929 0.000426125276
v -0.00857850909 0.0115671316 0.000426125276
v -0.00863639638 0.0115140881 0.000426125276
v -0.00868943986 0.0114562009 0.000426125276
v -0.00873723719 0.0113939103 0.000426125276
v -0.00877942331 0.0113276923 0.000426125276
v -0.00881567691 0.011258048 0.000426125276
v -0.00884572323 0.0111855101 0.000426125276
v -0.00886933319 0.011110629 0.000426125276
v -0.00888632704 0.0110339746 0.000426125276
v -0.00889657531 0.0109561319 0.000426125276
v -0.00889999978 0.0108776912 0.000426125276
v -0.00889657531 0.0107992515 0.000426125276
v -0.00888632704 0.0107214078 0.000426125276
v -0.00886933319 0.0106447544 0.000426125276
v -0.00884572323 0.0105698733 0.000426125276
v -0.00881567691 0.0104973353 0.000426125276
v -0.00877942331 0.010427692 0.000426125276
v -0.00873723719 0.0103614731 0.000426125276
v -0.00868943986 0.0102991825 0.000426125276
v -0.00863639638 0.0102412952 0.000426125276
v -0.00857850909 0.0101882517 0.000426125276
v -0.00851621851 0.0101404544 0.000426125276
v -0.00844999962 0.0100982692 0.000426125276
v -0.00838035624 0.0100620147 0.000426125276
v -0.00830781832 0.0100319684 0.000426125276
v -0.00823293719 0.0100083584 0.000426125276
v -0.00815628376 0.00999136455 0.000426125276
v -0.00807844009 0.00998111628 0.000426125276
v -0.00800000038 0.00997769181 0.000426125276
v -0.00792155974 0.00998111628 0.000426125276
v -0.007843717 0.00999136455 0.000426125276
v -0.00776706217 0.0100083584 0.000426125276
v -0.00769218104 0.0100319684 0.000426125276
v -0.00761964312 0.0100620147 0.000426125276
v -0.00754999975 0.0100982692 0.000426125276
v -0.00748378085 0.0101404544 0.000426125276
v -0.0074214912 0.0101882517 0.000426125276
v -0.00736360392 0.0102412952 0.000426125276
v -0.00731055951 0.0102991825 0.000426125276
v -0.0072627631 0.0103614731 0.000426125276
v -0.00722057698 0.010427692 0.000426125276
v -0.00718432246 0.0104973353 0.000426125276
v -0.00715427613 0.0105698733 0.000426125276
v -0.00713066617 0.0106447544 0.000426125276
v -0.00711367233 0.0107214078 0.000426125276
v -0.00710342405 0.0107992515 0.000426125276
v -0.00709999958 0.0108776912 0.000426125276
v -0.00710342405 0.0109561319 0.000426125276
v -0.00711367233 0.0110339746 0.000426125276
v -0.00713066617 0.011110629 0.000426125276
v -0.00715427613 0.0111855101 0.000426125276
v -0.00718432246 0.011258048 0.000426125276
v -0.00722057698 0.0113276923 0.000426125276
v -0.0072627631 0.0113939103 0.000426125276
v -0.00731055951 0.0114562009 0.000426125276
v -0.00736360392 0.0115140881 0.000426125276
v -0.0074214912 0.0115671316 0.000426125276
v -0.00748378085 0.011614929 0.000426125276
v -0.00754999975 0.0116571151 0.000426125276
v -0.00761964312 0.0116933687 0.000426125276
v -0.00769218104 0.011723415 0.000426125276
v -0.00776706217 0.011747025 0.000426125276
v -0.007843717 0.0117640188 0.000426125276
v -0.00792155974 0.0117742671 0.000426125276
v -0.0079041291 -0.0202181228 -0.000573873927
v -0.00800000038 -0.02022231 -0.000573873927
v 0.00809587166 -0.0202181228 -0.000573873927
v 0.00799999945 -0.02022231 -0.000573873927
v 0.00970706716 0.0150350425 -0.000573873927
v 0.0096309334 0.0149766244 -0.000573873927
v 0.00954999961 0.0149250636 -0.000573873927
v 0.00946488045 0.0148807531 -0.000573873927
v 0.00937622227 0.0148440301 -0.000573873927
v 0.00809893198 0.0152467573 -0.000573873927
v 0.0080473721 0.015327692 -0.000573873927
v 0.00401487434 0.0119876154 -0.000573873927
v 0.00324919121 0.0123047717 -0.000573873927
v 0.00796633773 0.0155014694 -0.000573873927
v 0.00164965761 0.0127333654 -0.000573873927
v 0.00245878147 0.0125539871 -0.000573873927
v 0.0092847012 0.0148151731 -0.000573873927
v 0.00919101201 0.0147944037 -0.000573873927
v 0.00909587182 0.0147818774 -0.000573873927
v 0.00727742212 0.00948417373 -0.000573873927
v 0.00899999961 0.014777692 -0.000573873927
v 0.00890412927 0.0147818774 -0.000573873927
v 0.005448977 0.0111596361 -0.000573873927
v 0.00829293393 0.0150350425 -0.000573873927
v 0.00475000078 0.0116049331 -0.000573873927
v 0.00822218321 0.0150998747 -0.000573873927
v 0.00815735012 0.0151706254 -0.000573873927
v 0.00800306164 0.0154128121 -0.000573873927
v 0.00790418498 0.0159735624 -0.000573873927
v 0.00791671127 0.0160687044 -0.000573873927
v 3.85704857e-10 0.0188776907 -0.000573873927
v 0.00815735012 0.0165847577 -0.000573873927
v 0.00822218321 0.0166555084 -0.000573873927
v 0.0100999996 0.015877692 -0.000573873927
v 0.0100958142 0.0159735624 -0.000573873927
v 0.010083288 0.0160687044 -0.000573873927
v 0.0100958142 0.0157818198 -0.000573873927
v 0.010083288 0.0156866778 -0.000573873927
v 0.0100625176 0.0155929904 -0.000573873927
v 0.00880898722 0.0147944037 -0.000573873927
v 0.00871529989 0.0148151731 -0.000573873927
v 0.00671751471 0.0100952061 -0.000573873927
v 0.00793748163 0.0155929904 -0.000573873927
v 3.85704857e-10 0.0128776915 -0.000573873927
v 0.000827979704 0.0128415413 -0.000573873927
v 0.00829293393 0.0167203397 -0.000573873927
v 0.00836906582 0.0167787578 -0.000573873927
v 0.00844999962 0.0168303195 -0.000573873927
v 0.00853512064 0.01687463 -0.000573873927
v 0.00862377696 0.0169113539 -0.000573873927
v 0.00871529989 0.01694021 -0.000573873927
v 0.00880898722 0.0169609804 -0.000573873927
v 0.00917629525 0.000918910431 -0.000573873927
v 0.00935567357 0.00172803365 -0.000573873927
v 0.00946385041 0.00254971185 -0.000573873927
v 0.00892707892 0.000128499974 -0.000573873927
v 0.00860992447 -0.000637181976 -0.000573873927
v 0.00822724216 -0.00137230847 -0.000573873927
v 0.0100336615 0.0155014694 -0.000573873927
v 0.00999693759 0.0154128121 -0.000573873927
v 0.00995262712 0.015327692 -0.000573873927
v 0.00990106724 0.0152467573 -0.000573873927
v 0.00778194563 0.00882666744 -0.000573873927
v 0.00822724216 0.00812769122 -0.000573873927
v 0.00860992447 0.00739256479 -0.000573873927
v 0.00892707892 0.00662688306 -0.000573873927
v 0.00917629525 0.00583647238 -0.000573873927
v 0.00935567357 0.00502734911 -0.000573873927
v 0.00946385041 0.00420567114 -0.000573873927
v 0.00950000063 0.00337769138 -0.000573873927
v 0.00862377696 0.0148440301 -0.000573873927
v 0.00853512064 0.0148807531 -0.000573873927
v 0.00610648328 0.0106551135 -0.000573873927
v 0.00844999962 0.0149250636 -0.000573873927
v 0.00836906582 0.0149766244 -0.000573873927
v 0.00791671127 0.0156866778 -0.000573873927
v 0.00790418498 0.0157818198 -0.000573873927
v 0.00789999962 0.015877692 -0.000573873927
v 0.00793748163 0.0161623918 -0.000573873927
v 0.00796633773 0.0162539128 -0.000573873927
v 0.00800306164 0.016342571 -0.000573873927
v 0.0080473721 0.016427692 -0.000573873927
v 0.00809893198 0.0165086258 -0.000573873927
v 0.0098426491 0.0151706254 -0.000573873927
v 0.00977781788 0.0150998747 -0.000573873927
v 0.00778194563 -0.00207128469 -0.000573873927
v 0.00727742212 -0.00272879098 -0.000573873927
v 0.00671751471 -0.00333982287 -0.000573873927
v 0.0092847012 0.01694021 -0.000573873927
v 0.00919101201 0.0169609804 -0.000573873927
v 0.00909587182 0.0169735048 -0.000573873927
v 0.00899999961 0.016977692 -0.000573873927
v 0.00890412927 0.0169735048 -0.000573873927
v 0.00977781788 0.0166555084 -0.000573873927
v 0.00970706716 0.0167203397 -0.000573873927
v 0.0096309334 0.0167787578 -0.000573873927
v 0.00954999961 0.0168303195 -0.000573873927
v 0.00946488045 0.01687463 -0.000573873927
v 0.00937622227 0.0169113539 -0.000573873927
v 0.0100625176 0.0161623918 -0.000573873927
v 0.0100336615 0.0162539128 -0.000573873927
v 0.00999693759 0.016342571 -0.000573873927
v 0.00995262712 0.016427692 -0.000573873927
v 0.00990106724 0.0165086258 -0.000573873927
v 0.0098426491 0.0165847577 -0.000573873927
v 0.00610648328 -0.00389973074 -0.000573873927
v 0.005448977 -0.00440425286 -0.000573873927
v 0.00475000078 -0.00484954985 -0.000573873927
v 0.00401487434 -0.00523223216 -0.000573873927
v 0.00324919121 -0.00554938847 -0.000573873927
v 3.85704857e-10 -0.012072308 -0.000573873927
v 0.00245878147 -0.00579860387 -0.000573873927
v 0.00164965761 -0.00597798219 -0.000573873927
v -0.00970706623 0.0167203397 -0.000573873927
v -0.00963093434 0.0167787578 -0.000573873927
v -0.0115 -0.012072308 -0.000573873927
v -0.00977781694 0.0150998747 -0.000573873927
v -0.0098426491 0.0151706254 -0.000573873927
v -0.0100336615 0.0155014694 -0.000573873927
v -0.0100625185 0.0155929904 -0.000573873927
v -0.00954999961 0.0149250636 -0.000573873927
v -0.00946488045 0.0148807531 -0.000573873927
v -0.00937622227 0.0148440301 -0.000573873927
v -0.00890412834 0.0169735048 -0.000573873927
v -0.00880898722 0.0169609804 -0.000573873927
v -0.00871529896 0.01694021 -0.000573873927
v -0.00862377789 0.0169113539 -0.000573873927
v -0.0085351197 0.01687463 -0.000573873927
v -0.00844999962 0.0168303195 -0.000573873927
v -0.00836906582 0.0167787578 -0.000573873927
v -0.00829293393 0.0167203397 -0.000573873927
v -0.00822218228 0.0166555084 -0.000573873927
v -0.00909587182 0.0147818774 -0.000573873927
v -0.00919101294 0.0147944037 -0.000573873927
v -0.0092847012 0.0148151731 -0.000573873927
v -0.00963093434 0.0149766244 -0.000573873927
v -0.00970706623 0.0150350425 -0.000573873927
v -0.010083288 0.0156866778 -0.000573873927
v -0.0100958142 0.0157818198 -0.000573873927
v -0.0100999996 0.015877692 -0.000573873927
v -0.00954999961 0.0168303195 -0.000573873927
v -0.00946488045 0.01687463 -0.000573873927
v -0.00937622227 0.0169113539 -0.000573873927
v -0.0092847012 0.01694021 -0.000573873927
v -0.00919101294 0.0169609804 -0.000573873927
v -0.00544897607 0.0111596361 -0.000573873927
v -0.00829293393 0.0150350425 -0.000573873927
v -0.00836906582 0.0149766244 -0.000573873927
v 0.000827979704 -0.0060861581 -0.000573873927
v 3.85704857e-10 -0.00612230832 -0.000573873927
v -0.000827978889 -0.0060861581 -0.000573873927
v -0.00990106724 0.0152467573 -0.000573873927
v -0.00995262805 0.015327692 -0.000573873927
v -0.00999693852 0.0154128121 -0.000573873927
v -0.0100958142 0.0159735624 -0.000573873927
v -0.010083288 0.0160687044 -0.000573873927
v -0.0100625185 0.0161623918 -0.000573873927
v -0.0100336615 0.0162539128 -0.000573873927
v -0.00999693852 0.016342571 -0.000573873927
v -0.00995262805 0.016427692 -0.000573873927
v -0.00990106724 0.0165086258 -0.000573873927
v -0.0098426491 0.0165847577 -0.000573873927
v -0.00977781694 0.0166555084 -0.000573873927
v -0.00610648235 0.0106551135 -0.000573873927
v -0.00610648235 -0.00389973074 -0.000573873927
v -0.00671751378 -0.00333982287 -0.000573873927
v -0.00727742212 -0.00272879098 -0.000573873927
v -0.00778194377 -0.00207128469 -0.000573873927
v -0.00909587182 0.0169735048 -0.000573873927
v -0.00899999961 0.016977692 -0.000573873927
v -0.00800306164 0.0154128121 -0.000573873927
v -0.00164965692 0.0127333654 -0.000573873927
v -0.00796633866 0.0155014694 -0.000573873927
v -0.000827978889 0.0128415413 -0.000573873927
v -0.00793748163 0.0155929904 -0.000573873927
v -0.00791671127 0.0156866778 -0.000573873927
v -0.00790418591 0.0157818198 -0.000573873927
v -0.00822218228 0.0150998747 -0.000573873927
v -0.00474999985 0.0116049331 -0.000573873927
v -0.00815735105 0.0151706254 -0.000573873927
v -0.00844999962 0.0149250636 -0.000573873927
v -0.0085351197 0.0148807531 -0.000573873927
v -0.00671751378 0.0100952061 -0.000573873927
v -0.00862377789 0.0148440301 -0.000573873927
v -0.00727742212 0.00948417373 -0.000573873927
v -0.00871529896 0.0148151731 -0.000573873927
v -0.00778194377 0.00882666744 -0.000573873927
v -0.00880898722 0.0147944037 -0.000573873927
v -0.00890412834 0.0147818774 -0.000573873927
v -0.00946384948 0.00420567114 -0.000573873927
v -0.00935567357 0.00502734911 -0.000573873927
v -0.00899999961 0.014777692 -0.000573873927
v -0.00917629525 0.00583647238 -0.000573873927
v -0.00892707985 0.00662688306 -0.000573873927
v -0.00860992447 0.00739256479 -0.000573873927
v -0.00822724123 0.00812769122 -0.000573873927
v -0.00401487341 -0.00523223216 -0.000573873927
v -0.00474999985 -0.00484954985 -0.000573873927
v -0.00544897607 -0.00440425286 -0.000573873927
v -0.00822724123 -0.00137230847 -0.000573873927
v -0.00860992447 -0.000637181976 -0.000573873927
v -0.00892707985 0.000128499974 -0.000573873927
v -0.00917629525 0.000918910431 -0.000573873927
v -0.00935567357 0.00172803365 -0.000573873927
v -0.00946384948 0.00254971185 -0.000573873927
v -0.00949999969 0.00337769138 -0.000573873927
v -0.00815735105 0.0165847577 -0.000573873927
v -0.00809893291 0.0165086258 -0.000573873927
v -0.0080473721 0.016427692 -0.000573873927
v -0.00793748163 0.0161623918 -0.000573873927
v -0.00791671127 0.0160687044 -0.000573873927
v -0.00790418591 0.0159735624 -0.000573873927
v -0.00789999962 0.015877692 -0.000573873927
v -0.00809893291 0.0152467573 -0.000573873927
v -0.00401487341 0.0119876154 -0.000573873927
v -0.0080473721 0.015327692 -0.000573873927
v -0.00324919121 0.0123047717 -0.000573873927
v -0.00245878054 0.0125539871 -0.000573873927
v -0.00800306164 0.016342571 -0.000573873927
v -0.00796633866 0.0162539128 -0.000573873927
v -0.00164965692 -0.00597798219 -0.000573873927
v -0.00245878054 -0.00579860387 -0.000573873927
v -0.00324919121 -0.00554938847 -0.000573873927
v 0.00762377912 -0.0201559719 -0.000573873927
v 0.00753512094 -0.020119248 -0.000573873927
v 0.00709893228 -0.0184913743 -0.000573873927
v 0.0070473724 -0.01857231 -0.000573873927
v 0.00700306194 -0.0186574291 -0.000573873927
v 0.0079041291 -0.0202181228 -0.000573873927
v 0.00780898752 -0.0202055983 -0.000573873927
v 0.00771530019 -0.020184828 -0.000573873927
v 0.00744999992 -0.0200749375 -0.000573873927
v 0.00736906612 -0.0200233757 -0.000573873927
v 0.00729293423 -0.0199649576 -0.000573873927
v 0.00690418715 -0.0192181803 -0.000573873927
v 0.00689999992 -0.01912231 -0.000573873927
v 0.00690418715 -0.0190264378 -0.000573873927
v 0.00846488029 -0.0181253701 -0.000573873927
v 0.00854999945 -0.0181696806 -0.000573873927
v 0.00903366134 -0.0194985308 -0.000573873927
v 0.00899693929 -0.019587189 -0.000573873927
v 0.00691671157 -0.0189312957 -0.000573873927
v 0.00693748193 -0.0188376084 -0.000573873927
v 0.00696633803 -0.0187460873 -0.000573873927
v 0.0079041291 -0.0180264954 -0.000573873927
v 0.00799999945 -0.01802231 -0.000573873927
v 0.00809587166 -0.0180264954 -0.000573873927
v 0.00819101371 -0.0180390198 -0.000573873927
v 0.00828470103 -0.0180597901 -0.000573873927
v 0.0083762221 -0.0180886481 -0.000573873927
v 0.00722218351 -0.0199001264 -0.000573873927
v 0.00715735229 -0.0198293757 -0.000573873927
v 0.00709893228 -0.0197532438 -0.000573873927
v 0.0070473724 -0.01967231 -0.000573873927
v 0.00700306194 -0.019587189 -0.000573873927
v 0.00696633803 -0.0194985308 -0.000573873927
v 0.00715735229 -0.0184152424 -0.000573873927
v 0.00722218351 -0.0183444917 -0.000573873927
v 0.00729293423 -0.0182796605 -0.000573873927
v 0.00863093324 -0.0182212424 -0.000573873927
v 0.008707067 -0.0182796605 -0.000573873927
v 0.00877781771 -0.0183444917 -0.000573873927
v 0.00895262696 -0.01967231 -0.000573873927
v 0.00890106708 -0.0197532438 -0.000573873927
v 0.00693748193 -0.0194070097 -0.000573873927
v 0.00691671157 -0.0193133224 -0.000573873927
v 0.00736906612 -0.0182212424 -0.000573873927
v 0.00744999992 -0.0181696806 -0.000573873927
v 0.00753512094 -0.0181253701 -0.000573873927
v 0.00906251743 -0.0194070097 -0.000573873927
v 0.00908328779 -0.0193133224 -0.000573873927
v 0.00909581408 -0.0192181803 -0.000573873927
v 0.00884264894 -0.0198293757 -0.000573873927
v 0.00877781771 -0.0199001264 -0.000573873927
v 0.008707067 -0.0199649576 -0.000573873927
v 0.00863093324 -0.0200233757 -0.000573873927
v 0.00854999945 -0.0200749375 -0.000573873927
v 0.00846488029 -0.020119248 -0.000573873927
v 0.0083762221 -0.0201559719 -0.000573873927
v 0.00884264894 -0.0184152424 -0.000573873927
v 0.00890106708 -0.0184913743 -0.000573873927
v 0.00895262696 -0.01857231 -0.000573873927
v 0.00899693929 -0.0186574291 -0.000573873927
v 0.00903366134 -0.0187460873 -0.000573873927
v 0.00828470103 -0.020184828 -0.000573873927
v 0.00819101371 -0.0202055983 -0.000573873927
v 0.00762377912 -0.0180886481 -0.000573873927
v 0.00771530019 -0.0180597901 -0.000573873927
v 0.00780898752 -0.0180390198 -0.000573873927
v 0.00909999944 -0.01912231 -0.000573873927
v 0.00909581408 -0.0190264378 -0.000573873927
v 0.00908328779 -0.0189312957 -0.000573873927
v 0.00906251743 -0.0188376084 -0.000573873927
v -0.00884264894 -0.0184152424 -0.000573873927
v -0.00877781771 -0.0183444917 -0.000573873927
v -0.00855000038 -0.0181696806 -0.000573873927
v -0.00846488029 -0.0181253701 -0.000573873927
v -0.00809587166 -0.0202181228 -0.000573873927
v -0.00819101278 -0.0202055983 -0.000573873927
v -0.00828470103 -0.020184828 -0.000573873927
v -0.00800000038 -0.01802231 -0.000573873927
v -0.00809587166 -0.0180264954 -0.000573873927
v -0.00819101278 -0.0180390198 -0.000573873927
v -0.00870706607 -0.0182796605 -0.000573873927
v -0.00863093417 -0.0182212424 -0.000573873927
v -0.0083762221 -0.0180886481 -0.000573873927
v -0.00828470103 -0.0180597901 -0.000573873927
v -0.00762377726 -0.0180886481 -0.000573873927
v -0.00753511908 -0.0181253701 -0.000573873927
v -0.00722218258 -0.0199001264 -0.000573873927
v -0.0072929333 -0.0199649576 -0.000573873927
v -0.0079041291 -0.0180264954 -0.000573873927
v -0.00780898659 -0.0180390198 -0.000573873927
v -0.00771529833 -0.0180597901 -0.000573873927
v -0.00696633803 -0.0187460873 -0.000573873927
v -0.006937481 -0.0188376084 -0.000573873927
v -0.00736906519 -0.0200233757 -0.000573873927
v -0.00744999992 -0.0200749375 -0.000573873927
v -0.00753511908 -0.020119248 -0.000573873927
v -0.00762377726 -0.0201559719 -0.000573873927
v -0.00771529833 -0.020184828 -0.000573873927
v -0.00780898659 -0.0202055983 -0.000573873927
v -0.00910000037 -0.01912231 -0.000573873927
v -0.00909581408 -0.0190264378 -0.000573873927
v -0.00908328872 -0.0189312957 -0.000573873927
v -0.00906251837 -0.0188376084 -0.000573873927
v -0.00903366227 -0.0187460873 -0.000573873927
v -0.00899693836 -0.0186574291 -0.000573873927
v -0.00895262789 -0.01857231 -0.000573873927
v -0.00890106708 -0.0184913743 -0.000573873927
v -0.00744999992 -0.0181696806 -0.000573873927
v -0.00736906519 -0.0182212424 -0.000573873927
v -0.0072929333 -0.0182796605 -0.000573873927
v -0.00722218258 -0.0183444917 -0.000573873927
v -0.00715735042 -0.0184152424 -0.000573873927
v -0.00709893228 -0.0184913743 -0.000573873927
v -0.00704737147 -0.01857231 -0.000573873927
v -0.00700306101 -0.0186574291 -0.000573873927
v -0.00691671064 -0.0189312957 -0.000573873927
v -0.00690418528 -0.0190264378 -0.000573873927
v -0.00689999992 -0.01912231 -0.000573873927
v -0.00690418528 -0.0192181803 -0.000573873927
v -0.00691671064 -0.0193133224 -0.000573873927
v -0.006937481 -0.0194070097 -0.000573873927
v -0.00704737147 -0.01967231 -0.000573873927
v -0.00709893228 -0.0197532438 -0.000573873927
v -0.00715735042 -0.0198293757 -0.000573873927
v -0.0083762221 -0.0201559719 -0.000573873927
v -0.00846488029 -0.020119248 -0.000573873927
v -0.00855000038 -0.0200749375 -0.000573873927
v -0.00863093417 -0.0200233757 -0.000573873927
v -0.00870706607 -0.0199649576 -0.000573873927
v -0.00877781771 -0.0199001264 -0.000573873927
v -0.00884264894 -0.0198293757 -0.000573873927
v -0.00890106708 -0.0197532438 -0.000573873927
v -0.00895262789 -0.01967231 -0.000573873927
v -0.00696633803 -0.0194985308 -0.000573873927
v -0.00700306101 -0.019587189 -0.000573873927
v -0.00906251837 -0.0194070097 -0.000573873927
v -0.00903366227 -0.0194985308 -0.000573873927
v -0.00899693836 -0.019587189 -0.000573873927
v -0.00909581408 -0.0192181803 -0.000573873927
v -0.00908328872 -0.0193133224 -0.000573873927
v 0.00899999961 0.014777692 0.000426125276
v 0.00909587182 0.0147818774 0.000426125276
v 0.00919101201 0.0147944037 0.000426125276
v 0.0092847012 0.0148151731 0.000426125276
v 0.00937622227 0.0148440301 0.000426125276
v 0.00946488045 0.0148807531 0.000426125276
v 0.00954999961 0.0149250636 0.000426125276
v 0.0096309334 0.0149766244 0.000426125276
v 0.00970706716 0.0150350425 0.000426125276
v 0.00977781788 0.0150998747 0.000426125276
v 0.0098426491 0.0151706254 0.000426125276
v 0.00990106724 0.0152467573 0.000426125276
v 0.00995262712 0.015327692 0.000426125276
v 0.00999693759 0.0154128121 0.000426125276
v 0.0100336615 0.0155014694 0.000426125276
v 0.0100625176 0.0155929904 0.000426125276
v 0.010083288 0.0156866778 0.000426125276
v 0.0100958142 0.0157818198 0.000426125276
v 0.0100999996 0.015877692 0.000426125276
v 0.0100958142 0.0159735624 0.000426125276
v 0.010083288 0.0160687044 0.000426125276
v 0.0100625176 0.0161623918 0.000426125276
v 0.0100336615 0.0162539128 0.000426125276
v 0.00999693759 0.016342571 0.000426125276
v 0.00995262712 0.016427692 0.000426125276
v 0.00990106724 0.0165086258 0.000426125276
v 0.0098426491 0.0165847577 0.000426125276
v 0.00977781788 0.0166555084 0.000426125276
v 0.00970706716 0.0167203397 0.000426125276
v 0.0096309334 0.0167787578 0.000426125276
v 0.00954999961 0.0168303195 0.000426125276
v 0.00946488045 0.01687463 0.000426125276
v 0.00937622227 0.0169113539 0.000426125276
v 0.0092847012 0.01694021 0.000426125276
v 0.00919101201 0.0169609804 0.000426125276
v 0.00909587182 0.0169735048 0.000426125276
v 0.00899999961 0.016977692 0.000426125276
v 0.00890412927 0.0169735048 0.000426125276
v 0.00880898722 0.0169609804 0.000426125276
v 0.00871529989 0.01694021 0.000426125276
v 0.00862377696 0.0169113539 0.000426125276
v 0.00853512064 0.01687463 0.000426125276
v 0.00844999962 0.0168303195 0.000426125276
v 0.00836906582 0.0167787578 0.000426125276
v 0.00829293393 0.0167203397 0.000426125276
v 0.00822218321 0.0166555084 0.000426125276
v 0.00815735012 0.0165847577 0.000426125276
v 0.00809893198 0.0165086258 0.000426125276
v 0.0080473721 0.016427692 0.000426125276
v 0.00800306164 0.016342571 0.000426125276
v 0.00796633773 0.0162539128 0.000426125276
v 0.00793748163 0.0161623918 0.000426125276
v 0.00791671127 0.0160687044 0.000426125276
v 0.00790418498 0.0159735624 0.000426125276
v 0.00789999962 0.015877692 0.000426125276
v 0.00790418498 0.0157818198 0.000426125276
v 0.00791671127 0.0156866778 0.000426125276
v 0.00793748163 0.0155929904 0.000426125276
v 0.00796633773 0.0155014694 0.000426125276
v 0.00800306164 0.0154128121 0.000426125276
v 0.0080473721 0.015327692 0.000426125276
v 0.00809893198 0.0152467573 0.000426125276
v 0.00815735012 0.0151706254 0.000426125276
v 0.00822218321 0.0150998747 0.000426125276
v 0.00829293393 0.0150350425 0.000426125276
v 0.00836906582 0.0149766244 0.000426125276
v 0.00844999962 0.0149250636 0.000426125276
v 0.00853512064 0.0148807531 0.000426125276
v 0.00862377696 0.0148440301 0.000426125276
v 0.00871529989 0.0148151731 0.000426125276
v 0.00880898722 0.0147944037 0.000426125276
v 0.00890412927 0.0147818774 0.000426125276
v -0.00324919121 0.0123047717 0.000426125276
v -0.00699999975 0.0123276915 0.000426125276
v -0.00699999975 0.0138276918 0.000426125276
v 0.00899999961 0.0123276915 0.000426125276
v 0.000827979704 0.0128415413 0.000426125276
v 3.85704857e-10 0.0128776915 0.000426125276
v 3.85704857e-10 0.0138276918 0.000426125276
v 0.00884264894 -0.0198293757 0.000426125276
v 0.00890106708 -0.0197532438 0.000426125276
v 0.00899999961 -0.0206723083 0.000426125276
v 0.0070473724 -0.01857231 0.000426125276
v 0.00700306194 -0.0186574291 0.000426125276
v 3.85704857e-10 -0.012072308 0.000426125276
v 0.00899693929 -0.0186574291 0.000426125276
v 0.00895262696 -0.01857231 0.000426125276
v 0.00899999961 -0.012072308 0.000426125276
v 0.00890106708 -0.0184913743 0.000426125276
v 0.00884264894 -0.0184152424 0.000426125276
v 0.00877781771 -0.0183444917 0.000426125276
v 0.008707067 -0.0182796605 0.000426125276
v 0.00863093324 -0.0182212424 0.000426125276
v 0.00854999945 -0.0181696806 0.000426125276
v 0.00846488029 -0.0181253701 0.000426125276
v 0.0083762221 -0.0180886481 0.000426125276
v 0.00828470103 -0.0180597901 0.000426125276
v 0.00819101371 -0.0180390198 0.000426125276
v 0.00809587166 -0.0180264954 0.000426125276
v 0.00799999945 -0.01802231 0.000426125276
v 0.0079041291 -0.0180264954 0.000426125276
v 0.00753512094 -0.0181253701 0.000426125276
v 0.00744999992 -0.0181696806 0.000426125276
v 0.00722218351 -0.0183444917 0.000426125276
v 0.00715735229 -0.0184152424 0.000426125276
v 0.00709893228 -0.0184913743 0.000426125276
v 0.00690418715 -0.0190264378 0.000426125276
v 0.00689999992 -0.01912231 0.000426125276
v 3.85704857e-10 -0.0206723083 0.000426125276
v 0.00690418715 -0.0192181803 0.000426125276
v 0.00691671157 -0.0193133224 0.000426125276
v 0.00700306194 -0.019587189 0.000426125276
v 0.0070473724 -0.01967231 0.000426125276
v 0.00736906612 -0.0200233757 0.000426125276
v 0.00729293423 -0.0199649576 0.000426125276
v 0.00722218351 -0.0199001264 0.000426125276
v 0.00744999992 -0.0200749375 0.000426125276
v 0.00753512094 -0.020119248 0.000426125276
v 0.00762377912 -0.0201559719 0.000426125276
v 0.00877781771 -0.0199001264 0.000426125276
v 0.00696633803 -0.0187460873 0.000426125276
v 0.00693748193 -0.0188376084 0.000426125276
v 0.00691671157 -0.0189312957 0.000426125276
v 0.00846488029 -0.020119248 0.000426125276
v 0.00854999945 -0.0200749375 0.000426125276
v 0.00736906612 -0.0182212424 0.000426125276
v 0.00729293423 -0.0182796605 0.000426125276
v 0.00709893228 -0.0197532438 0.000426125276
v 0.00715735229 -0.0198293757 0.000426125276
v 0.00819101371 -0.0202055983 0.000426125276
v 0.00809587166 -0.0202181228 0.000426125276
v 0.00799999945 -0.02022231 0.000426125276
v 0.00863093324 -0.0200233757 0.000426125276
v 0.008707067 -0.0199649576 0.000426125276
v 0.00693748193 -0.0194070097 0.000426125276
v 0.00696633803 -0.0194985308 0.000426125276
v 0.00771530019 -0.020184828 0.000426125276
v 0.00780898752 -0.0202055983 0.000426125276
v 0.0079041291 -0.0202181228 0.000426125276
v 0.00780898752 -0.0180390198 0.000426125276
v 0.00771530019 -0.0180597901 0.000426125276
v 0.00762377912 -0.0180886481 0.000426125276
v 0.00828470103 -0.020184828 0.000426125276
v 0.0083762221 -0.0201559719 0.000426125276
v 0.00895262696 -0.01967231 0.000426125276
v 0.00899693929 -0.019587189 0.000426125276
v 0.0092999991 -0.0206723083 0.000426125276
v 0.00903366134 -0.0194985308 0.000426125276
v 0.00906251743 -0.0194070097 0.000426125276
v 0.00908328779 -0.0193133224 0.000426125276
v 0.00909581408 -0.0192181803 0.000426125276
v 0.00903366134 -0.0187460873 0.000426125276
v 0.0092999991 -0.012072308 0.000426125276
v 0.00906251743 -0.0188376084 0.000426125276
v 0.00909999944 -0.01912231 0.000426125276
v 0.00909581408 -0.0190264378 0.000426125276
v 0.00908328779 -0.0189312957 0.000426125276
v 0.00164965761 0.0127333654 0.000426125276
v 0.00899999961 0.0138276918 0.000426125276
v 0.00245878147 0.0125539871 0.000426125276
v 0.00917629525 0.00583647238 0.000426125276
v 0.00778194563 0.00882666744 0.000426125276
v 0.00727742212 0.00948417373 0.000426125276
v 0.00822724216 0.00812769122 0.000426125276
v 0.00860992447 0.00739256479 0.000426125276
v 0.00324919121 0.0123047717 0.000426125276
v 0.00892707892 0.00662688306 0.000426125276
v 0.00671751471 0.0100952061 0.000426125276
v 0.005448977 0.0111596361 0.000426125276
v 0.00610648328 0.0106551135 0.000426125276
v 0.00401487434 0.0119876154 0.000426125276
v 0.00475000078 0.0116049331 0.000426125276
v 0.0108000003 0.0019276914 0.000426125276
v 0.00946385041 0.00254971185 0.000426125276
v 0.00950000063 0.00337769138 0.000426125276
v 0.00935567357 0.00172803365 0.000426125276
v 0.0108000003 -0.012072308 0.000426125276
v 0.00822724216 -0.00137230847 0.000426125276
v 0.00860992447 -0.000637181976 0.000426125276
v 0.00892707892 0.000128499974 0.000426125276
v 0.00917629525 0.000918910431 0.000426125276
v 0.00245878147 -0.00579860387 0.000426125276
v 0.00324919121 -0.00554938847 0.000426125276
v 0.00401487434 -0.00523223216 0.000426125276
v 0.00475000078 -0.00484954985 0.000426125276
v 0.00164965761 -0.00597798219 0.000426125276
v 0.000827979704 -0.0060861581 0.000426125276
v 0.005448977 -0.00440425286 0.000426125276
v 0.00610648328 -0.00389973074 0.000426125276
v 0.00671751471 -0.00333982287 0.000426125276
v 0.00727742212 -0.00272879098 0.000426125276
v 0.00778194563 -0.00207128469 0.000426125276
v -0.00245878054 -0.00579860387 0.000426125276
v -0.00164965692 -0.00597798219 0.000426125276
v -0.000827978889 -0.0060861581 0.000426125276
v 3.85704857e-10 -0.00612230832 0.000426125276
v -0.00671751378 -0.00333982287 0.000426125276
v -0.00610648235 -0.00389973074 0.000426125276
v -0.00699999975 -0.012072308 0.000426125276
v -0.00544897607 -0.00440425286 0.000426125276
v -0.00474999985 -0.00484954985 0.000426125276
v -0.00401487341 -0.00523223216 0.000426125276
v -0.00324919121 -0.00554938847 0.000426125276
v -0.00935567357 0.00172803365 0.000426125276
v -0.00917629525 0.000918910431 0.000426125276
v -0.00930000003 -0.012072308 0.000426125276
v -0.00892707985 0.000128499974 0.000426125276
v -0.00860992447 -0.000637181976 0.000426125276
v -0.00822724123 -0.00137230847 0.000426125276
v -0.00778194377 -0.00207128469 0.000426125276
v -0.00727742212 -0.00272879098 0.000426125276
v -0.00946384948 0.00420567114 0.000426125276
v -0.00949999969 0.00337769138 0.000426125276
v -0.0115 0.0019276914 0.000426125276
v -0.00946384948 0.00254971185 0.000426125276
v -0.0115 -0.012072308 0.000426125276
v -0.00930000003 0.0123276915 0.000426125276
v -0.00671751378 0.0100952061 0.000426125276
v -0.00822724123 0.00812769122 0.000426125276
v -0.00778194377 0.00882666744 0.000426125276
v -0.00727742212 0.00948417373 0.000426125276
v -0.00892707985 0.00662688306 0.000426125276
v -0.00917629525 0.00583647238 0.000426125276
v -0.00935567357 0.00502734911 0.000426125276
v -0.00860992447 0.00739256479 0.000426125276
v -0.00610648235 0.0106551135 0.000426125276
v -0.00544897607 0.0111596361 0.000426125276
v -0.00401487341 0.0119876154 0.000426125276
v -0.00474999985 0.0116049331 0.000426125276
v -0.000827978889 0.0128415413 0.000426125276
v -0.00164965692 0.0127333654 0.000426125276
v -0.00245878054 0.0125539871 0.000426125276
v 0.0108000003 0.0138276918 0.000426125276
v 0.0092999991 0.0138276918 0.000426125276
v 3.85704857e-10 0.0188776907 0.000426125276
v -0.00919101294 0.0147944037 0.000426125276
v -0.00909587182 0.0147818774 0.000426125276
v -0.00930000003 0.0138276918 0.000426125276
v -0.00899999961 0.014777692 0.000426125276
v -0.00890412834 0.0147818774 0.000426125276
v -0.0085351197 0.0148807531 0.000426125276
v -0.00844999962 0.0149250636 0.000426125276
v -0.00880898722 0.0147944037 0.000426125276
v -0.00871529896 0.0148151731 0.000426125276
v -0.00862377789 0.0148440301 0.000426125276
v -0.00836906582 0.0149766244 0.000426125276
v -0.00829293393 0.0150350425 0.000426125276
v -0.00822218228 0.0150998747 0.000426125276
v -0.00815735105 0.0151706254 0.000426125276
v -0.00809893291 0.0152467573 0.000426125276
v -0.0080473721 0.015327692 0.000426125276
v -0.00793748163 0.0161623918 0.000426125276
v -0.00699999975 0.0188776907 0.000426125276
v -0.00791671127 0.0160687044 0.000426125276
v -0.00790418591 0.0159735624 0.000426125276
v -0.00796633866 0.0162539128 0.000426125276
v -0.00800306164 0.016342571 0.000426125276
v -0.0080473721 0.016427692 0.000426125276
v -0.00800306164 0.0154128121 0.000426125276
v -0.00796633866 0.0155014694 0.000426125276
v -0.00793748163 0.0155929904 0.000426125276
v -0.00791671127 0.0156866778 0.000426125276
v -0.00790418591 0.0157818198 0.000426125276
v -0.00789999962 0.015877692 0.000426125276
v -0.00809893291 0.0165086258 0.000426125276
v -0.00815735105 0.0165847577 0.000426125276
v -0.00822218228 0.0166555084 0.000426125276
v -0.00829293393 0.0167203397 0.000426125276
v -0.00836906582 0.0167787578 0.000426125276
v -0.00844999962 0.0168303195 0.000426125276
v -0.00880898722 0.0169609804 0.000426125276
v -0.00890412834 0.0169735048 0.000426125276
v -0.00899999961 0.016977692 0.000426125276
v -0.00909587182 0.0169735048 0.000426125276
v -0.0085351197 0.01687463 0.000426125276
v -0.00862377789 0.0169113539 0.000426125276
v -0.00871529896 0.01694021 0.000426125276
v -0.00954999961 0.0149250636 0.000426125276
v -0.00946488045 0.0148807531 0.000426125276
v -0.00937622227 0.0148440301 0.000426125276
v -0.0092847012 0.0148151731 0.000426125276
v -0.00990106724 0.0152467573 0.000426125276
v -0.0098426491 0.0151706254 0.000426125276
v -0.0115 0.0138276918 0.000426125276
v -0.0092847012 0.01694021 0.000426125276
v -0.00937622227 0.0169113539 0.000426125276
v -0.00919101294 0.0169609804 0.000426125276
v -0.0100336615 0.0155014694 0.000426125276
v -0.00999693852 0.0154128121 0.000426125276
v -0.00995262805 0.015327692 0.000426125276
v -0.00977781694 0.0150998747 0.000426125276
v -0.00970706623 0.0150350425 0.000426125276
v -0.00963093434 0.0149766244 0.000426125276
v -0.00977781694 0.0166555084 0.000426125276
v -0.00970706623 0.0167203397 0.000426125276
v -0.00963093434 0.0167787578 0.000426125276
v -0.00954999961 0.0168303195 0.000426125276
v -0.00946488045 0.01687463 0.000426125276
v -0.0100999996 0.015877692 0.000426125276
v -0.0100958142 0.0159735624 0.000426125276
v -0.010083288 0.0160687044 0.000426125276
v -0.0100958142 0.0157818198 0.000426125276
v -0.010083288 0.0156866778 0.000426125276
v -0.0100625185 0.0155929904 0.000426125276
v -0.0100625185 0.0161623918 0.000426125276
v -0.0100336615 0.0162539128 0.000426125276
v -0.00999693852 0.016342571 0.000426125276
v -0.00995262805 0.016427692 0.000426125276
v -0.00990106724 0.0165086258 0.000426125276
v -0.0098426491 0.0165847577 0.000426125276
v -0.00930000003 -0.0206723083 0.000426125276
v -0.00846488029 -0.020119248 0.000426125276
v -0.00855000038 -0.0200749375 0.000426125276
v -0.00863093417 -0.0200233757 0.000426125276
v -0.00819101278 -0.0180390198 0.000426125276
v -0.00828470103 -0.0180597901 0.000426125276
v -0.0083762221 -0.0201559719 0.000426125276
v -0.00828470103 -0.020184828 0.000426125276
v -0.00819101278 -0.0202055983 0.000426125276
v -0.00809587166 -0.0202181228 0.000426125276
v -0.00800000038 -0.02022231 0.000426125276
v -0.00699999975 -0.0206723083 0.000426125276
v -0.0079041291 -0.0202181228 0.000426125276
v -0.00780898659 -0.0202055983 0.000426125276
v -0.00753511908 -0.0181253701 0.000426125276
v -0.00762377726 -0.0180886481 0.000426125276
v -0.00771529833 -0.0180597901 0.000426125276
v -0.00780898659 -0.0180390198 0.000426125276
v -0.0079041291 -0.0180264954 0.000426125276
v -0.00800000038 -0.01802231 0.000426125276
v -0.00809587166 -0.0180264954 0.000426125276
v -0.0083762221 -0.0180886481 0.000426125276
v -0.00846488029 -0.0181253701 0.000426125276
v -0.00855000038 -0.0181696806 0.000426125276
v -0.00863093417 -0.0182212424 0.000426125276
v -0.00870706607 -0.0182796605 0.000426125276
v -0.00877781771 -0.0183444917 0.000426125276
v -0.00771529833 -0.020184828 0.000426125276
v -0.00762377726 -0.0201559719 0.000426125276
v -0.00753511908 -0.020119248 0.000426125276
v -0.00709893228 -0.0184913743 0.000426125276
v -0.00704737147 -0.01857231 0.000426125276
v -0.00700306101 -0.0186574291 0.000426125276
v -0.00715735042 -0.0184152424 0.000426125276
v -0.00722218258 -0.0183444917 0.000426125276
v -0.0072929333 -0.0182796605 0.000426125276
v -0.00736906519 -0.0182212424 0.000426125276
v -0.00744999992 -0.0181696806 0.000426125276
v -0.00744999992 -0.0200749375 0.000426125276
v -0.00736906519 -0.0200233757 0.000426125276
v -0.0072929333 -0.0199649576 0.000426125276
v -0.00722218258 -0.0199001264 0.000426125276
v -0.00715735042 -0.0198293757 0.000426125276
v -0.00709893228 -0.0197532438 0.000426125276
v -0.00895262789 -0.01857231 0.000426125276
v -0.00899693836 -0.0186574291 0.000426125276
v -0.00884264894 -0.0184152424 0.000426125276
v -0.00890106708 -0.0184913743 0.000426125276
v -0.00903366227 -0.0187460873 0.000426125276
v -0.00906251837 -0.0188376084 0.000426125276
v -0.00908328872 -0.0189312957 0.000426125276
v -0.00909581408 -0.0190264378 0.000426125276
v -0.00910000037 -0.01912231 0.000426125276
v -0.00909581408 -0.0192181803 0.000426125276
v -0.00908328872 -0.0193133224 0.000426125276
v -0.00906251837 -0.0194070097 0.000426125276
v -0.00903366227 -0.0194985308 0.000426125276
v -0.00899693836 -0.019587189 0.000426125276
v -0.00895262789 -0.01967231 0.000426125276
v -0.00890106708 -0.0197532438 0.000426125276
v -0.00884264894 -0.0198293757 0.000426125276
v -0.00877781771 -0.0199001264 0.000426125276
v -0.00870706607 -0.0199649576 0.000426125276
v -0.00696633803 -0.0187460873 0.000426125276
v -0.00704737147 -0.01967231 0.000426125276
v -0.00700306101 -0.019587189 0.000426125276
v -0.00696633803 -0.0194985308 0.000426125276
v -0.006937481 -0.0194070097 0.000426125276
v -0.00691671064 -0.0193133224 0.000426125276
v -0.00690418528 -0.0192181803 0.000426125276
v -0.00689999992 -0.01912231 0.000426125276
v -0.00690418528 -0.0190264378 0.000426125276
v -0.00691671064 -0.0189312957 0.000426125276
v -0.006937481 -0.0188376084 0.000426125276
v -0.0115 0.0123276915 0.000426125276
v 0.0092999991 0.0123276915 0.000426125276
v 0.00935567357 0.00502734911 0.000426125276
v 0.0108000003 0.0123276915 0.000426125276
v 0.00946385041 0.00420567114 0.000426125276
f 1 3 2
f 2 3 4
f 3 5 4
f 6 3 7
f 7 3 8
f 3 1 8
f 9 3 10
f 10 3 11
f 3 6 11
f 12 3 13
f 13 3 14
f 3 9 14
f 15 3 16
f 16 3 17
f 3 12 17
f 18 3 19
f 19 3 20
f 3 15 20
f 21 3 22
f 22 3 23
f 3 18 23
f 24 3 25
f 25 3 26
f 3 21 26
f 27 3 28
f 28 3 29
f 3 24 29
f 30 3 31
f 31 3 32
f 3 27 32
f 33 3 34
f 34 3 35
f 3 30 35
f 36 3 37
f 37 3 38
f 3 33 38
f 39 3 40
f 40 3 41
f 3 36 41
f 42 3 43
f 43 3 44
f 3 39 44
f 45 3 46
f 46 3 47
f 3 42 47
f 48 3 49
f 49 3 50
f 3 45 50
f 51 3 52
f 52 3 53
f 3 48 53
f 54 3 55
f 55 3 56
f 3 51 56
f 57 3 58
f 58 3 59
f 3 54 59
f 60 3 61
f 61 3 62
f 3 57 62
f 63 3 64
f 64 3 65
f 3 60 65
f 66 3 67
f 67 3 68
f 3 63 68
f 69 3 70
f 70 3 71
f 3 66 71
f 5 3 72
f 72 3 73
f 3 69 73
f 74 75 2
f 2 75 1
f 75 76 1
f 1 76 8
f 76 77 8
f 8 77 7
f 77 78 7
f 7 78 6
f 78 79 6
f 6 79 11
f 79 80 11
f 11 80 10
f 80 81 10
f 10 81 9
f 81 82 9
f 9 82 14
f 82 83 14
f 14 83 13
f 83 84 13
f 13 84 12
f 84 85 12
f 12 85 17
f 85 86 17
f 17 86 16
f 86 87 16
f 16 87 15
f 87 88 15
f 15 88 20
f 88 89 20
f 20 89 19
f 89 90 19
f 19 90 18
f 90 91 18
f 18 91 23
f 91 92 23
f 23 92 22
f 92 93 22
f 22 93 21
f 93 94 21
f 21 94 26
f 94 95 26
f 26 95 25
f 95 96 25
f 25 96 24
f 96 97 24
f 24 97 29
f 97 98 29
f 29 98 28
f 98 99 28
f 28 99 27
f 99 100 27
f 27 100 32
f 100 101 32
f 32 101 31
f 101 102 31
f 31 102 30
f 102 103 30
f 30 103 35
f 103 104 35
f 35 104 34
f 104 105 34
f 34 105 33
f 105 106 33
f 33 106 38
f 106 107 38
f 38 107 37
f 107 108 37
f 37 108 36
f 108 109 36
f 36 109 41
f 109 110 41
f 41 110 40
f 110 111 40
f 40 111 39
f 111 112 39
f 39 112 44
f 112 113 44
f 44 113 43
f 113 114 43
f 43 114 42
f 114 115 42
f 42 115 47
f 115 116 47
f 47 116 46
f 116 117 46
f 46 117 45
f 117 118 45
f 45 118 50
f 118 119 50
f 50 119 49
f 119 120 49
f 49 120 48
f 120 121 48
f 48 121 53
f 121 122 53
f 53 122 52
f 122 123 52
f 52 123 51
f 123 124 51
f 51 124 56
f 124 125 56
f 56 125 55
f 125 126 55
f 55 126 54
f 126 127 54
f 54 127 59
f 127 128 59
f 59 128 58
f 128 129 58
f 58 129 57
f 129 130 57
f 57 130 62
f 130 131 62
f 62 131 61
f 131 132 61
f 61 132 60
f 132 133 60
f 60 133 65
f 133 134 65
f 65 134 64
f 134 135 64
f 64 135 63
f 135 136 63
f 63 136 68
f 136 137 68
f 68 137 67
f 137 138 67
f 67 138 66
f 138 139 66
f 66 139 71
f 139 140 71
f 71 140 70
f 140 141 70
f 70 141 69
f 141 142 69
f 69 142 73
f 142 143 73
f 73 143 72
f 143 144 72
f 72 144 5
f 144 145 5
f 5 145 4
f 145 74 4
f 4 74 2
f 146 148 147
f 147 148 149
f 148 150 149
f 151 148 152
f 152 148 153
f 148 146 153
f 154 148 155
f 155 148 156
f 148 151 156
f 157 148 158
f 158 148 159
f 148 154 159
f 160 148 161
f 161 148 162
f 148 157 162
f 163 148 164
f 164 148 165
f 148 160 165
f 166 148 167
f 167 148 168
f 148 163 168
f 169 148 170
f 170 148 171
f 148 166 171
f 172 148 173
f 173 148 174
f 148 169 174
f 175 148 176
f 176 148 177
f 148 172 177
f 178 148 179
f 179 148 180
f 148 175 180
f 181 148 182
f 182 148 183
f 148 178 183
f 184 148 185
f 185 148 186
f 148 181 186
f 187 148 188
f 188 148 189
f 148 184 189
f 190 148 191
f 191 148 192
f 148 187 192
f 193 148 194
f 194 148 195
f 148 190 195
f 196 148 197
f 197 148 198
f 148 193 198
f 199 148 200
f 200 148 201
f 148 196 201
f 202 148 203
f 203 148 204
f 148 199 204
f 205 148 206
f 206 148 207
f 148 202 207
f 208 148 209
f 209 148 210
f 148 205 210
f 211 148 212
f 212 148 213
f 148 208 213
f 214 148 215
f 215 148 216
f 148 211 216
f 150 148 217
f 217 148 218
f 148 214 218
f 219 221 220
f 219 222 221
f 221 222 223
f 222 224 223
f 223 224 225
f 224 226 225
f 225 226 227
f 226 228 227
f 227 228 229
f 228 230 229
f 229 230 231
f 230 232 231
f 231 232 233
f 232 234 233
f 233 234 235
f 234 236 235
f 235 236 237
f 236 238 237
f 237 238 239
f 238 240 239
f 239 240 241
f 240 242 241
f 241 242 243
f 242 244 243
f 243 244 245
f 244 246 245
f 245 246 247
f 246 248 247
f 247 248 249
f 248 250 249
f 249 250 251
f 250 252 251
f 251 252 253
f 252 254 253
f 253 254 255
f 254 256 255
f 257 255 256
f 258 260 259
f 260 258 261
f 261 258 262
f 258 255 262
f 262 255 263
f 255 257 263
f 260 264 259
f 260 265 264
f 264 265 266
f 265 267 266
f 266 267 268
f 267 269 268
f 268 269 270
f 269 271 270
f 270 271 272
f 271 273 272
f 272 273 274
f 273 275 274
f 274 275 276
f 275 277 276
f 276 277 278
f 277 279 278
f 278 279 280
f 279 281 280
f 280 281 282
f 281 283 282
f 282 283 284
f 283 285 284
f 284 285 286
f 285 287 286
f 286 287 288
f 287 289 288
f 288 289 290
f 289 291 290
f 290 291 292
f 291 293 292
f 292 293 294
f 293 295 294
f 294 295 296
f 295 297 296
f 296 297 298
f 297 299 298
f 299 300 298
f 298 300 301
f 300 302 301
f 301 302 303
f 302 304 303
f 304 305 303
f 304 306 305
f 305 306 307
f 306 308 307
f 307 308 309
f 308 310 309
f 309 310 311
f 310 312 311
f 311 312 313
f 312 314 313
f 313 314 315
f 314 316 315
f 315 316 317
f 316 318 317
f 317 318 319
f 318 320 319
f 319 320 321
f 320 322 321
f 321 322 323
f 322 324 323
f 323 324 325
f 324 326 325
f 325 326 327
f 326 328 327
f 327 328 329
f 328 330 329
f 329 330 331
f 330 332 331
f 331 332 333
f 332 334 333
f 333 334 335
f 334 336 335
f 335 336 337
f 336 338 337
f 337 338 339
f 338 340 339
f 341 343 342
f 341 344 343
f 343 344 345
f 344 346 345
f 345 346 347
f 346 348 347
f 347 348 349
f 348 350 349
f 349 350 351
f 350 352 351
f 351 352 353
f 352 354 353
f 353 354 355
f 354 356 355
f 355 356 357
f 356 358 357
f 357 358 359
f 358 360 359
f 359 360 361
f 360 362 361
f 361 362 363
f 362 364 363
f 363 364 365
f 364 366 365
f 365 366 367
f 366 368 367
f 367 368 369
f 368 370 369
f 369 370 371
f 370 372 371
f 371 372 373
f 372 374 373
f 373 374 375
f 374 376 375
f 375 376 377
f 376 378 377
f 379 380 147
f 147 380 146
f 380 381 146
f 146 381 153
f 381 382 153
f 153 382 152
f 382 383 152
f 152 383 151
f 383 384 151
f 151 384 156
f 384 385 156
f 156 385 155
f 385 386 155
f 155 386 154
f 386 387 154
f 154 387 159
f 387 388 159
f 159 388 158
f 388 389 158
f 158 389 157
f 389 390 157
f 157 390 162
f 390 391 162
f 162 391 161
f 391 392 161
f 161 392 160
f 392 393 160
f 160 393 165
f 393 394 165
f 165 394 164
f 394 395 164
f 164 395 163
f 395 396 163
f 163 396 168
f 396 397 168
f 168 397 167
f 397 398 167
f 167 398 166
f 398 399 166
f 166 399 171
f 399 400 171
f 171 400 170
f 400 401 170
f 170 401 169
f 401 402 169
f 169 402 174
f 402 403 174
f 174 403 173
f 403 404 173
f 173 404 172
f 404 405 172
f 172 405 177
f 405 406 177
f 177 406 176
f 406 407 176
f 176 407 175
f 407 408 175
f 175 408 180
f 408 409 180
f 180 409 179
f 409 410 179
f 179 410 178
f 410 411 178
f 178 411 183
f 411 412 183
f 183 412 182
f 412 413 182
f 182 413 181
f 413 414 181
f 181 414 186
f 414 415 186
f 186 415 185
f 415 416 185
f 185 416 184
f 416 417 184
f 184 417 189
f 417 418 189
f 189 418 188
f 418 419 188
f 188 419 187
f 419 420 187
f 187 420 192
f 420 421 192
f 192 421 191
f 421 422 191
f 191 422 190
f 422 423 190
f 190 423 195
f 423 424 195
f 195 424 194
f 424 425 194
f 194 425 193
f 425 426 193
f 193 426 198
f 426 427 198
f 198 427 197
f 427 428 197
f 197 428 196
f 428 429 196
f 196 429 201
f 429 430 201
f 201 430 200
f 430 431 200
f 200 431 199
f 431 432 199
f 199 432 204
f 432 433 204
f 204 433 203
f 433 434 203
f 203 434 202
f 434 435 202
f 202 435 207
f 435 436 207
f 207 436 206
f 436 437 206
f 206 437 205
f 437 438 205
f 205 438 210
f 438 439 210
f 210 439 209
f 439 440 209
f 209 440 208
f 440 441 208
f 208 441 213
f 441 442 213
f 213 442 212
f 442 443 212
f 212 443 211
f 443 444 211
f 211 444 216
f 444 445 216
f 216 445 215
f 445 446 215
f 215 446 214
f 446 447 214
f 214 447 218
f 447 448 218
f 218 448 217
f 448 449 217
f 217 449 150
f 449 450 150
f 150 450 149
f 450 379 149
f 149 379 147
f 451 303 452
f 453 298 454
f 258 456 455
f 456 258 457
f 457 258 458
f 258 459 458
f 460 462 461
f 461 462 463
f 464 466 465
f 459 258 467
f 467 258 468
f 258 469 468
f 470 472 471
f 473 475 474
f 474 475 476
f 475 462 476
f 476 462 477
f 462 460 477
f 463 466 461
f 461 466 478
f 466 464 478
f 479 481 480
f 481 483 482
f 484 485 255
f 255 485 486
f 484 255 487
f 487 255 488
f 255 489 488
f 472 470 490
f 490 470 491
f 470 492 491
f 493 464 494
f 494 464 495
f 464 465 495
f 483 481 496
f 496 481 497
f 481 220 497
f 497 220 498
f 220 499 498
f 499 220 500
f 500 220 501
f 220 502 501
f 503 504 258
f 258 504 505
f 503 258 506
f 506 258 507
f 258 508 507
f 489 255 509
f 509 255 510
f 255 258 510
f 510 258 511
f 258 512 511
f 471 469 470
f 470 469 513
f 469 514 513
f 514 469 515
f 515 469 516
f 469 517 516
f 517 469 518
f 518 469 519
f 469 258 519
f 519 258 520
f 258 505 520
f 491 492 521
f 521 492 522
f 492 523 522
f 522 523 524
f 523 473 524
f 524 473 525
f 473 474 525
f 493 494 526
f 526 494 527
f 494 481 527
f 527 481 528
f 481 479 528
f 480 481 529
f 529 481 530
f 481 531 530
f 531 481 532
f 532 481 533
f 481 482 533
f 512 258 534
f 534 258 535
f 258 455 535
f 508 258 536
f 536 258 537
f 258 538 537
f 539 540 225
f 225 540 223
f 540 541 223
f 223 541 221
f 541 542 221
f 221 542 220
f 542 543 220
f 220 543 502
f 544 545 239
f 239 545 237
f 545 546 237
f 237 546 235
f 546 547 235
f 235 547 233
f 547 548 233
f 233 548 231
f 548 549 231
f 231 549 229
f 549 539 229
f 229 539 227
f 539 225 227
f 486 550 255
f 255 550 253
f 550 551 253
f 253 551 251
f 551 552 251
f 251 552 249
f 552 553 249
f 249 553 247
f 553 554 247
f 247 554 245
f 554 555 245
f 245 555 243
f 555 544 243
f 243 544 241
f 544 239 241
f 538 258 556
f 556 258 557
f 258 558 557
f 558 258 559
f 559 258 560
f 258 561 560
f 560 561 562
f 561 563 562
f 564 361 565
f 566 568 567
f 569 342 570
f 571 572 566
f 566 572 573
f 574 377 575
f 575 377 576
f 377 577 576
f 577 377 578
f 578 377 579
f 377 481 579
f 579 481 580
f 580 481 581
f 481 582 581
f 583 566 584
f 584 566 585
f 566 573 585
f 571 566 586
f 586 566 587
f 566 567 587
f 570 342 588
f 588 342 589
f 342 590 589
f 361 363 565
f 565 363 591
f 363 365 591
f 591 365 592
f 365 367 592
f 592 367 593
f 367 369 593
f 593 369 594
f 369 371 594
f 594 371 595
f 371 373 595
f 596 598 597
f 563 561 599
f 599 561 600
f 561 601 600
f 568 566 602
f 602 566 603
f 566 342 603
f 603 342 604
f 342 569 604
f 590 342 605
f 605 342 606
f 342 343 606
f 606 343 607
f 343 345 607
f 607 345 608
f 345 347 608
f 608 347 609
f 347 349 609
f 609 349 610
f 349 351 610
f 610 351 611
f 351 353 611
f 611 353 612
f 353 355 612
f 612 355 613
f 355 357 613
f 613 357 564
f 357 359 564
f 564 359 361
f 596 614 598
f 615 566 616
f 616 566 617
f 566 618 617
f 373 375 595
f 595 375 619
f 375 377 619
f 619 377 620
f 377 574 620
f 621 623 622
f 622 623 624
f 623 625 624
f 624 625 494
f 625 626 494
f 494 626 627
f 597 628 596
f 596 628 629
f 628 630 629
f 598 614 631
f 631 614 632
f 614 633 632
f 632 633 634
f 633 635 634
f 634 635 636
f 635 637 636
f 636 637 638
f 637 639 638
f 640 642 641
f 641 642 643
f 643 642 644
f 644 642 645
f 642 639 645
f 645 639 646
f 639 637 646
f 647 566 648
f 648 566 649
f 566 615 649
f 618 566 650
f 650 566 651
f 566 652 651
f 652 566 653
f 653 566 654
f 566 655 654
f 655 566 656
f 656 566 640
f 566 583 640
f 640 583 642
f 582 481 657
f 657 481 658
f 481 659 658
f 660 481 661
f 661 481 662
f 481 494 662
f 662 494 663
f 494 627 663
f 630 664 629
f 629 664 665
f 664 666 665
f 665 666 667
f 666 621 667
f 667 621 668
f 621 622 668
f 659 481 669
f 669 481 670
f 481 660 670
f 601 561 671
f 671 561 672
f 561 566 672
f 672 566 673
f 566 647 673
f 674 301 675
f 676 677 561
f 561 677 678
f 454 298 679
f 679 298 680
f 298 301 680
f 680 301 681
f 301 674 681
f 675 301 682
f 682 301 683
f 301 684 683
f 685 301 686
f 686 301 687
f 258 689 688
f 690 280 691
f 692 561 693
f 693 561 694
f 561 678 694
f 695 258 696
f 696 258 697
f 258 698 697
f 698 258 699
f 699 258 700
f 258 688 700
f 684 301 701
f 701 301 702
f 301 703 702
f 703 301 704
f 704 301 705
f 301 706 705
f 676 561 707
f 707 561 708
f 561 709 708
f 689 258 710
f 710 258 711
f 258 712 711
f 280 282 691
f 691 282 713
f 282 284 713
f 713 284 714
f 284 286 714
f 706 301 715
f 715 301 716
f 301 685 716
f 709 561 717
f 717 561 718
f 561 719 718
f 280 690 278
f 278 690 276
f 690 720 276
f 276 720 274
f 720 721 274
f 274 721 272
f 721 722 272
f 286 288 714
f 714 288 723
f 288 290 723
f 723 290 724
f 290 292 724
f 724 292 725
f 292 294 725
f 725 294 726
f 294 296 726
f 726 296 727
f 296 298 727
f 727 298 728
f 298 729 728
f 712 258 730
f 730 258 731
f 258 259 731
f 731 259 732
f 732 259 733
f 259 734 733
f 729 298 735
f 735 298 736
f 298 453 736
f 719 561 737
f 737 561 738
f 561 258 738
f 738 258 739
f 258 695 739
f 272 722 270
f 270 722 268
f 722 740 268
f 268 740 266
f 740 741 266
f 266 741 264
f 741 742 264
f 264 742 259
f 742 743 259
f 259 743 734
f 744 566 745
f 566 747 746
f 452 303 748
f 748 303 749
f 303 750 749
f 751 752 566
f 566 752 753
f 745 566 754
f 754 566 755
f 566 746 755
f 747 566 756
f 756 566 757
f 566 753 757
f 561 759 758
f 760 301 761
f 751 566 762
f 762 566 763
f 566 561 763
f 763 561 764
f 561 758 764
f 765 561 766
f 766 561 301
f 561 692 301
f 301 692 687
f 761 301 767
f 767 301 768
f 301 769 768
f 769 301 770
f 770 301 771
f 301 303 771
f 771 303 772
f 303 451 772
f 773 337 774
f 337 339 774
f 774 339 775
f 775 339 776
f 339 777 776
f 777 339 778
f 778 339 779
f 339 566 779
f 779 566 780
f 566 744 780
f 759 561 781
f 781 561 782
f 561 783 782
f 783 561 784
f 784 561 785
f 561 786 785
f 786 561 787
f 787 561 788
f 561 765 788
f 766 301 789
f 789 301 790
f 301 791 790
f 791 301 792
f 792 301 793
f 301 794 793
f 795 301 796
f 796 301 797
f 301 760 797
f 750 303 798
f 798 303 799
f 303 305 799
f 799 305 800
f 305 307 800
f 800 307 801
f 307 309 801
f 801 309 802
f 309 311 802
f 802 311 803
f 311 313 803
f 803 313 804
f 313 315 804
f 804 315 805
f 315 317 805
f 805 317 806
f 794 301 807
f 807 301 808
f 301 795 808
f 809 810 325
f 325 810 323
f 810 811 323
f 323 811 321
f 811 806 321
f 321 806 319
f 806 317 319
f 337 773 335
f 335 773 333
f 773 812 333
f 333 812 331
f 812 813 331
f 331 813 329
f 813 809 329
f 329 809 327
f 809 325 327
f 814 815 471
f 471 815 469
f 815 816 469
f 469 816 468
f 816 817 468
f 468 817 467
f 817 818 467
f 467 818 459
f 818 819 459
f 459 819 458
f 819 820 458
f 458 820 457
f 820 821 457
f 457 821 456
f 821 822 456
f 456 822 455
f 822 823 455
f 455 823 535
f 823 824 535
f 535 824 534
f 824 825 534
f 534 825 512
f 825 826 512
f 512 826 511
f 826 827 511
f 511 827 510
f 827 828 510
f 510 828 509
f 828 829 509
f 509 829 489
f 829 830 489
f 489 830 488
f 830 831 488
f 488 831 487
f 831 832 487
f 487 832 484
f 832 833 484
f 484 833 485
f 833 834 485
f 485 834 486
f 834 835 486
f 486 835 550
f 835 836 550
f 550 836 551
f 836 837 551
f 551 837 552
f 837 838 552
f 552 838 553
f 838 839 553
f 553 839 554
f 839 840 554
f 554 840 555
f 840 841 555
f 555 841 544
f 841 842 544
f 544 842 545
f 842 843 545
f 545 843 546
f 843 844 546
f 546 844 547
f 844 845 547
f 547 845 548
f 845 846 548
f 548 846 549
f 846 847 549
f 549 847 539
f 847 848 539
f 539 848 540
f 848 849 540
f 540 849 541
f 849 850 541
f 541 850 542
f 850 851 542
f 542 851 543
f 851 852 543
f 543 852 502
f 852 853 502
f 502 853 501
f 853 854 501
f 501 854 500
f 854 855 500
f 500 855 499
f 855 856 499
f 499 856 498
f 856 857 498
f 498 857 497
f 857 858 497
f 497 858 496
f 858 859 496
f 496 859 483
f 859 860 483
f 483 860 482
f 860 861 482
f 482 861 533
f 861 862 533
f 533 862 532
f 862 863 532
f 532 863 531
f 863 864 531
f 531 864 530
f 864 865 530
f 530 865 529
f 865 866 529
f 529 866 480
f 866 867 480
f 480 867 479
f 867 868 479
f 479 868 528
f 868 869 528
f 528 869 527
f 869 870 527
f 527 870 526
f 870 871 526
f 526 871 493
f 871 872 493
f 493 872 464
f 872 873 464
f 464 873 478
f 873 874 478
f 478 874 461
f 874 875 461
f 461 875 460
f 875 876 460
f 460 876 477
f 876 877 477
f 477 877 476
f 877 878 476
f 476 878 474
f 878 879 474
f 474 879 525
f 879 880 525
f 525 880 524
f 880 881 524
f 524 881 522
f 881 882 522
f 522 882 521
f 882 883 521
f 521 883 491
f 883 884 491
f 491 884 490
f 884 885 490
f 490 885 472
f 885 814 472
f 472 814 471
f 886 888 887
f 145 889 74
f 890 892 891
f 893 895 894
f 896 898 897
f 899 901 900
f 900 901 902
f 902 901 903
f 903 901 904
f 901 905 904
f 905 901 906
f 906 901 907
f 901 908 907
f 908 901 909
f 909 901 910
f 901 911 910
f 911 901 912
f 912 901 913
f 901 914 913
f 915 898 916
f 917 898 918
f 918 898 919
f 898 896 919
f 920 922 921
f 921 922 923
f 922 924 923
f 925 922 926
f 927 928 922
f 922 928 929
f 927 922 930
f 930 922 931
f 922 932 931
f 893 933 895
f 897 898 934
f 934 898 935
f 898 922 935
f 935 922 936
f 922 920 936
f 937 895 938
f 916 898 939
f 939 898 940
f 898 917 940
f 926 922 941
f 941 922 942
f 922 929 942
f 943 944 895
f 895 944 945
f 938 895 946
f 946 895 947
f 895 933 947
f 924 922 948
f 948 922 949
f 922 925 949
f 932 922 950
f 950 922 951
f 922 895 951
f 951 895 952
f 895 945 952
f 914 901 953
f 953 901 954
f 901 898 954
f 954 898 955
f 898 915 955
f 943 895 956
f 956 895 957
f 895 937 957
f 894 895 958
f 958 895 959
f 895 960 959
f 959 960 961
f 961 960 962
f 962 960 963
f 960 964 963
f 899 965 901
f 901 965 966
f 965 967 966
f 964 960 968
f 968 960 969
f 960 966 969
f 969 966 970
f 966 967 970
f 890 971 892
f 972 892 889
f 889 892 973
f 892 971 973
f 83 82 973
f 973 82 81
f 116 974 117
f 74 889 75
f 75 889 76
f 889 973 76
f 76 973 77
f 973 78 77
f 78 973 79
f 79 973 80
f 973 81 80
f 117 974 118
f 118 974 119
f 974 120 119
f 975 109 108
f 976 104 103
f 975 977 109
f 109 977 110
f 110 977 111
f 977 978 111
f 136 889 137
f 137 889 138
f 889 139 138
f 83 973 84
f 84 973 85
f 973 86 85
f 130 889 131
f 131 889 132
f 889 133 132
f 142 889 143
f 143 889 144
f 889 145 144
f 86 973 87
f 87 973 88
f 973 979 88
f 104 976 105
f 105 976 106
f 976 975 106
f 106 975 107
f 975 108 107
f 111 978 112
f 112 978 113
f 978 980 113
f 113 980 114
f 980 974 114
f 114 974 115
f 974 116 115
f 120 974 121
f 121 974 122
f 974 123 122
f 123 974 124
f 124 974 125
f 974 126 125
f 126 974 127
f 127 974 128
f 974 889 128
f 128 889 129
f 889 130 129
f 139 889 140
f 140 889 141
f 889 142 141
f 981 99 98
f 133 889 134
f 134 889 135
f 889 136 135
f 982 983 92
f 92 983 93
f 983 94 93
f 94 983 95
f 95 983 96
f 983 981 96
f 96 981 97
f 981 98 97
f 99 981 100
f 100 981 101
f 981 976 101
f 101 976 102
f 976 103 102
f 979 984 88
f 88 984 89
f 984 985 89
f 89 985 90
f 985 982 90
f 90 982 91
f 982 92 91
f 986 988 987
f 987 989 986
f 986 989 990
f 989 966 990
f 991 901 992
f 992 901 993
f 901 966 993
f 993 966 994
f 966 989 994
f 995 901 996
f 996 901 997
f 901 998 997
f 995 999 901
f 901 999 898
f 999 1000 898
f 998 901 1001
f 1001 901 1002
f 901 1003 1002
f 1003 901 1004
f 1004 901 1005
f 901 991 1005
f 1006 898 1007
f 1007 898 1008
f 1008 898 1009
f 898 1000 1009
f 1010 1012 1011
f 1011 1012 1013
f 1012 1014 1013
f 1014 1012 1015
f 1015 1012 1016
f 1012 1006 1016
f 1017 1019 1018
f 1018 1019 1020
f 1019 1021 1020
f 1021 1019 1022
f 1022 1019 1023
f 1019 1012 1023
f 1023 1012 1024
f 1012 1010 1024
f 1025 1027 1026
f 1026 1027 1028
f 1028 1027 1017
f 1027 1029 1017
f 1017 1029 1019
f 1029 340 1019
f 447 887 448
f 448 887 449
f 887 450 449
f 382 1030 383
f 383 1030 384
f 384 1030 385
f 1030 386 385
f 386 1030 387
f 387 1030 388
f 1030 389 388
f 425 1031 426
f 431 430 1031
f 1031 430 429
f 444 887 445
f 445 887 446
f 887 447 446
f 1032 1033 415
f 415 1033 416
f 420 1034 421
f 426 1031 427
f 427 1031 428
f 1031 429 428
f 1030 393 392
f 1035 410 1036
f 1036 410 1037
f 410 409 1037
f 416 1033 417
f 417 1033 418
f 1033 1034 418
f 418 1034 419
f 1034 420 419
f 421 1034 422
f 422 1034 423
f 1034 1031 423
f 423 1031 424
f 1031 425 424
f 441 887 442
f 442 887 443
f 887 444 443
f 379 1030 380
f 380 1030 381
f 1030 382 381
f 389 1030 390
f 390 1030 391
f 1030 392 391
f 1037 406 405
f 410 1035 411
f 411 1035 412
f 1035 1038 412
f 412 1038 413
f 1038 1032 413
f 413 1032 414
f 1032 415 414
f 431 1031 432
f 432 1031 433
f 1031 434 433
f 435 887 436
f 436 887 437
f 887 438 437
f 393 1030 394
f 394 1030 395
f 1030 396 395
f 402 401 1037
f 1037 401 400
f 406 1037 407
f 407 1037 408
f 1037 409 408
f 396 1030 397
f 397 1030 398
f 1030 1037 398
f 398 1037 399
f 1037 400 399
f 402 1037 403
f 403 1037 404
f 1037 405 404
f 438 887 439
f 439 887 440
f 887 441 440
f 434 1031 435
f 435 1031 887
f 1031 1039 887
f 887 1039 1040
f 886 887 1041
f 1041 887 1042
f 887 1040 1042
f 891 892 1043
f 1043 892 1044
f 892 888 1044
f 1044 888 1045
f 888 886 1045
f 219 849 222
f 849 848 222
f 222 848 224
f 848 847 224
f 818 1046 819
f 819 1046 820
f 1046 821 820
f 821 1046 822
f 822 1046 823
f 1046 824 823
f 840 839 238
f 238 839 838
f 824 1046 825
f 825 1046 826
f 1046 827 826
f 827 1046 828
f 828 1046 829
f 1046 830 829
f 224 847 226
f 226 847 228
f 847 846 228
f 228 846 230
f 846 845 230
f 230 845 232
f 845 844 232
f 232 844 234
f 844 843 234
f 234 843 236
f 843 842 236
f 236 842 238
f 842 841 238
f 238 841 840
f 238 835 834
f 830 1046 831
f 831 1046 832
f 1046 238 832
f 832 238 833
f 238 834 833
f 835 238 836
f 836 238 837
f 238 838 837
f 814 1047 815
f 815 1047 816
f 1047 817 816
f 860 859 1048
f 1048 859 858
f 219 856 855
f 871 892 872
f 875 892 876
f 876 892 877
f 892 972 880
f 880 972 881
f 972 882 881
f 882 972 883
f 883 972 884
f 972 885 884
f 860 1048 861
f 861 1048 862
f 1048 863 862
f 872 892 873
f 873 892 874
f 892 875 874
f 877 892 878
f 878 892 879
f 892 880 879
f 849 219 850
f 850 219 851
f 219 852 851
f 219 1048 856
f 856 1048 857
f 1048 858 857
f 867 892 868
f 852 219 853
f 853 219 854
f 219 855 854
f 868 892 869
f 869 892 870
f 892 871 870
f 1048 867 866
f 863 1048 864
f 864 1048 865
f 1048 866 865
f 960 289 287
f 289 960 291
f 291 960 293
f 960 295 293
f 990 966 281
f 281 966 283
f 966 960 283
f 283 960 285
f 960 287 285
f 269 267 281
f 281 267 265
f 281 279 275
f 275 279 277
f 269 281 271
f 271 281 273
f 281 275 273
f 246 244 240
f 240 244 242
f 246 240 248
f 248 240 250
f 240 252 250
f 252 240 254
f 254 240 256
f 240 238 256
f 1049 1051 1050
f 1050 1051 1052
f 1051 1053 1052
f 888 1055 1054
f 1056 888 1057
f 1057 888 1058
f 888 1054 1058
f 1055 888 1059
f 1059 888 1060
f 888 1061 1060
f 1061 888 1062
f 1062 888 1063
f 888 1064 1063
f 1065 1067 1066
f 1066 1067 1068
f 1065 1066 1069
f 1069 1066 1070
f 1066 1071 1070
f 1064 888 1072
f 1072 888 1073
f 888 1074 1073
f 1074 888 1075
f 1075 888 1076
f 888 1077 1076
f 1071 1066 1078
f 1078 1066 1079
f 1066 1080 1079
f 1080 1066 1081
f 1081 1066 1082
f 1066 1083 1082
f 1084 378 1085
f 1085 378 1086
f 378 376 1086
f 1086 376 1087
f 1083 1066 1088
f 1088 1066 1089
f 1066 378 1089
f 1089 378 1090
f 378 1084 1090
f 1091 1051 1092
f 1092 1051 1093
f 1093 1051 1094
f 1051 1049 1094
f 1095 1097 1096
f 372 370 1098
f 1098 370 1099
f 1087 376 1100
f 1100 376 1098
f 376 374 1098
f 1098 374 372
f 1101 1097 1102
f 1102 1097 1103
f 1097 1095 1103
f 1096 1097 1104
f 1104 1097 1105
f 1097 1106 1105
f 1107 1108 358
f 358 1108 360
f 1108 1109 360
f 360 1109 362
f 1109 1110 362
f 362 1110 364
f 1110 1111 364
f 364 1111 366
f 1111 1099 366
f 366 1099 368
f 1099 370 368
f 1112 1113 341
f 341 1113 1114
f 1112 341 1115
f 1115 341 1116
f 341 1097 1116
f 1116 1097 1117
f 1097 1101 1117
f 1114 1118 341
f 341 1118 344
f 1118 1119 344
f 344 1119 346
f 1119 1120 346
f 346 1120 348
f 1120 1121 348
f 348 1121 350
f 1121 1122 350
f 350 1122 352
f 1122 1123 352
f 352 1123 354
f 1123 1107 354
f 354 1107 356
f 1107 358 356
f 316 1124 318
f 318 1124 320
f 326 1124 328
f 328 1124 330
f 1124 332 330
f 320 1124 322
f 322 1124 324
f 1124 326 324
f 332 1124 334
f 334 1124 336
f 1124 338 336
f 1124 310 308
f 310 1124 312
f 312 1124 314
f 1124 316 314
f 302 1124 304
f 304 1124 306
f 1124 308 306
f 1125 1126 1124
f 1124 1126 1127
f 1019 1129 1128
f 1125 1124 1130
f 1130 1124 1131
f 1124 1132 1131
f 1133 1135 1134
f 1134 1135 1136
f 1135 1137 1136
f 1138 1012 1139
f 1139 1012 1140
f 1012 1141 1140
f 1141 1012 1142
f 1142 1012 1143
f 1012 1019 1143
f 1143 1019 1144
f 1019 1128 1144
f 1129 1019 1145
f 1145 1019 1146
f 1019 1147 1146
f 1147 1019 1148
f 1148 1019 1149
f 1019 1150 1149
f 1137 1135 1151
f 1151 1135 1152
f 1135 1153 1152
f 1154 1155 1012
f 1012 1155 1156
f 1154 1012 1157
f 1157 1012 1158
f 1012 1159 1158
f 1159 1012 1160
f 1160 1012 1161
f 1012 1138 1161
f 1153 1135 1162
f 1162 1135 1163
f 1135 1164 1163
f 1164 1135 1165
f 1165 1135 1166
f 1135 1167 1166
f 1019 1169 1168
f 1150 1019 1170
f 1170 1019 1171
f 1019 1168 1171
f 1169 1019 1172
f 1172 1019 1173
f 1019 1174 1173
f 338 1124 340
f 340 1124 1019
f 1124 1175 1019
f 1019 1175 1174
f 1175 1124 1176
f 1176 1124 1177
f 1124 1178 1177
f 1178 1124 1179
f 1179 1124 1180
f 1124 1181 1180
f 1181 1124 1182
f 1182 1124 1183
f 1124 1184 1183
f 1184 1124 1185
f 1185 1124 1186
f 1124 1127 1186
f 1006 1012 898
f 898 1012 1187
f 1012 1156 1187
f 1167 1135 1188
f 1188 1135 1189
f 1135 922 1189
f 1189 922 1190
f 922 1191 1190
f 1191 922 1192
f 1192 922 1193
f 922 1194 1193
f 1194 922 1195
f 1195 922 1196
f 922 898 1196
f 1196 898 1197
f 898 1187 1197
f 867 1048 892
f 892 1048 888
f 1048 1066 888
f 888 1066 1077
f 1066 1068 1077
f 1106 1097 1091
f 1091 1097 1051
f 1097 1198 1051
f 1051 1198 1030
f 1198 1027 1030
f 1030 1027 1037
f 1027 1025 1037
f 1053 1051 1056
f 1056 1051 888
f 1051 1030 888
f 888 1030 887
f 1030 379 887
f 887 379 450
f 885 972 814
f 814 972 1047
f 972 889 1047
f 1047 889 1199
f 889 974 1199
f 1199 974 1200
f 817 1047 818
f 818 1047 1046
f 1047 1199 1046
f 1046 1199 1201
f 1199 1200 1201
f 1201 1200 986
f 1200 1202 986
f 986 1202 988
f 238 1046 256
f 256 1046 257
f 1046 1201 257
f 257 1201 263
f 1201 986 263
f 263 986 262
f 986 990 262
f 262 990 261
f 990 281 261
f 261 281 260
f 281 265 260
f 295 960 297
f 297 960 299
f 960 895 299
f 299 895 300
f 895 922 300
f 300 922 302
f 922 1135 302
f 302 1135 1124
f 1135 1133 1124
f 1124 1133 1132
f 342 1097 341
f 340 1029 339
f 339 1029 566
f 1029 1027 566
f 566 1027 342
f 1027 1198 342
f 342 1198 1097
f 220 481 219
f 219 481 1048
f 481 377 1048
f 1048 377 1066
f 377 378 1066
f 1009 1000 600
f 600 1000 599
f 1000 999 599
f 599 999 563
f 999 995 563
f 563 995 562
f 995 996 562
f 562 996 560
f 996 997 560
f 560 997 559
f 997 998 559
f 559 998 558
f 998 1001 558
f 558 1001 557
f 1001 1002 557
f 557 1002 556
f 1002 1003 556
f 556 1003 538
f 1003 1004 538
f 538 1004 537
f 1004 1005 537
f 537 1005 536
f 1005 991 536
f 536 991 508
f 991 992 508
f 508 992 507
f 992 993 507
f 507 993 506
f 993 994 506
f 506 994 503
f 994 989 503
f 503 989 504
f 989 987 504
f 504 987 505
f 987 988 505
f 505 988 520
f 988 1202 520
f 520 1202 519
f 1202 1200 519
f 519 1200 518
f 1200 974 518
f 518 974 517
f 974 980 517
f 517 980 516
f 980 978 516
f 516 978 515
f 978 977 515
f 515 977 514
f 977 975 514
f 514 975 513
f 975 976 513
f 513 976 470
f 976 981 470
f 470 981 492
f 981 983 492
f 492 983 523
f 983 982 523
f 523 982 473
f 982 985 473
f 473 985 475
f 985 984 475
f 475 984 462
f 984 979 462
f 462 979 463
f 979 973 463
f 463 973 466
f 973 971 466
f 466 971 465
f 971 890 465
f 465 890 495
f 890 891 495
f 495 891 494
f 891 1043 494
f 494 1043 624
f 1043 1044 624
f 624 1044 622
f 1044 1045 622
f 622 1045 668
f 1045 886 668
f 668 886 667
f 886 1041 667
f 667 1041 665
f 1041 1042 665
f 665 1042 629
f 1042 1040 629
f 629 1040 596
f 1040 1039 596
f 596 1039 614
f 1039 1031 614
f 614 1031 633
f 1031 1034 633
f 633 1034 635
f 1034 1033 635
f 635 1033 637
f 1033 1032 637
f 637 1032 646
f 1032 1038 646
f 646 1038 645
f 1038 1035 645
f 645 1035 644
f 1035 1036 644
f 644 1036 643
f 1036 1037 643
f 643 1037 641
f 1037 1025 641
f 641 1025 640
f 1025 1026 640
f 640 1026 656
f 1026 1028 656
f 656 1028 655
f 1028 1017 655
f 655 1017 654
f 1017 1018 654
f 654 1018 653
f 1018 1020 653
f 653 1020 652
f 1020 1021 652
f 652 1021 651
f 1021 1022 651
f 651 1022 650
f 1022 1023 650
f 650 1023 618
f 1023 1024 618
f 618 1024 617
f 1024 1010 617
f 617 1010 616
f 1010 1011 616
f 616 1011 615
f 1011 1013 615
f 615 1013 649
f 1013 1014 649
f 649 1014 648
f 1014 1015 648
f 648 1015 647
f 1015 1016 647
f 647 1016 673
f 1016 1006 673
f 673 1006 672
f 1006 1007 672
f 672 1007 671
f 1007 1008 671
f 671 1008 601
f 1008 1009 601
f 601 1009 600
f 1052 1053 642
f 642 1053 639
f 1053 1056 639
f 639 1056 638
f 1056 1057 638
f 638 1057 636
f 1057 1058 636
f 636 1058 634
f 1058 1054 634
f 634 1054 632
f 1054 1055 632
f 632 1055 631
f 1055 1059 631
f 631 1059 598
f 1059 1060 598
f 598 1060 597
f 1060 1061 597
f 597 1061 628
f 1061 1062 628
f 628 1062 630
f 1062 1063 630
f 630 1063 664
f 1063 1064 664
f 664 1064 666
f 1064 1072 666
f 666 1072 621
f 1072 1073 621
f 621 1073 623
f 1073 1074 623
f 623 1074 625
f 1074 1075 625
f 625 1075 626
f 1075 1076 626
f 626 1076 627
f 1076 1077 627
f 627 1077 663
f 1077 1068 663
f 663 1068 662
f 1068 1067 662
f 662 1067 661
f 1067 1065 661
f 661 1065 660
f 1065 1069 660
f 660 1069 670
f 1069 1070 670
f 670 1070 669
f 1070 1071 669
f 669 1071 659
f 1071 1078 659
f 659 1078 658
f 1078 1079 658
f 658 1079 657
f 1079 1080 657
f 657 1080 582
f 1080 1081 582
f 582 1081 581
f 1081 1082 581
f 581 1082 580
f 1082 1083 580
f 580 1083 579
f 1083 1088 579
f 579 1088 578
f 1088 1089 578
f 578 1089 577
f 1089 1090 577
f 577 1090 576
f 1090 1084 576
f 576 1084 575
f 1084 1085 575
f 575 1085 574
f 1085 1086 574
f 574 1086 620
f 1086 1087 620
f 620 1087 619
f 1087 1100 619
f 619 1100 595
f 1100 1098 595
f 595 1098 594
f 1098 1099 594
f 594 1099 593
f 1099 1111 593
f 593 1111 592
f 1111 1110 592
f 592 1110 591
f 1110 1109 591
f 591 1109 565
f 1109 1108 565
f 565 1108 564
f 1108 1107 564
f 564 1107 613
f 1107 1123 613
f 613 1123 612
f 1123 1122 612
f 612 1122 611
f 1122 1121 611
f 611 1121 610
f 1121 1120 610
f 610 1120 609
f 1120 1119 609
f 609 1119 608
f 1119 1118 608
f 608 1118 607
f 1118 1114 607
f 607 1114 606
f 1114 1113 606
f 606 1113 605
f 1113 1112 605
f 605 1112 590
f 1112 1115 590
f 590 1115 589
f 1115 1116 589
f 589 1116 588
f 1116 1117 588
f 588 1117 570
f 1117 1101 570
f 570 1101 569
f 1101 1102 569
f 569 1102 604
f 1102 1103 604
f 604 1103 603
f 1103 1095 603
f 603 1095 602
f 1095 1096 602
f 602 1096 568
f 1096 1104 568
f 568 1104 567
f 1104 1105 567
f 567 1105 587
f 1105 1106 587
f 587 1106 586
f 1106 1091 586
f 586 1091 571
f 1091 1092 571
f 571 1092 572
f 1092 1093 572
f 572 1093 573
f 1093 1094 573
f 573 1094 585
f 1094 1049 585
f 585 1049 584
f 1049 1050 584
f 584 1050 583
f 1050 1052 583
f 583 1052 642
f 945 944 454
f 454 944 453
f 944 943 453
f 453 943 736
f 943 956 736
f 736 956 735
f 956 957 735
f 735 957 729
f 957 937 729
f 729 937 728
f 937 938 728
f 728 938 727
f 938 946 727
f 727 946 726
f 946 947 726
f 726 947 725
f 947 933 725
f 725 933 724
f 933 893 724
f 724 893 723
f 893 894 723
f 723 894 714
f 894 958 714
f 714 958 713
f 958 959 713
f 713 959 691
f 959 961 691
f 691 961 690
f 961 962 690
f 690 962 720
f 962 963 720
f 720 963 721
f 963 964 721
f 721 964 722
f 964 968 722
f 722 968 740
f 968 969 740
f 740 969 741
f 969 970 741
f 741 970 742
f 970 967 742
f 742 967 743
f 967 965 743
f 743 965 734
f 965 899 734
f 734 899 733
f 899 900 733
f 733 900 732
f 900 902 732
f 732 902 731
f 902 903 731
f 731 903 730
f 903 904 730
f 730 904 712
f 904 905 712
f 712 905 711
f 905 906 711
f 711 906 710
f 906 907 710
f 710 907 689
f 907 908 689
f 689 908 688
f 908 909 688
f 688 909 700
f 909 910 700
f 700 910 699
f 910 911 699
f 699 911 698
f 911 912 698
f 698 912 697
f 912 913 697
f 697 913 696
f 913 914 696
f 696 914 695
f 914 953 695
f 695 953 739
f 953 954 739
f 739 954 738
f 954 955 738
f 738 955 737
f 955 915 737
f 737 915 719
f 915 916 719
f 719 916 718
f 916 939 718
f 718 939 717
f 939 940 717
f 717 940 709
f 940 917 709
f 709 917 708
f 917 918 708
f 708 918 707
f 918 919 707
f 707 919 676
f 919 896 676
f 676 896 677
f 896 897 677
f 677 897 678
f 897 934 678
f 678 934 694
f 934 935 694
f 694 935 693
f 935 936 693
f 693 936 692
f 936 920 692
f 692 920 687
f 920 921 687
f 687 921 686
f 921 923 686
f 686 923 685
f 923 924 685
f 685 924 716
f 924 948 716
f 716 948 715
f 948 949 715
f 715 949 706
f 949 925 706
f 706 925 705
f 925 926 705
f 705 926 704
f 926 941 704
f 704 941 703
f 941 942 703
f 703 942 702
f 942 929 702
f 702 929 701
f 929 928 701
f 701 928 684
f 928 927 684
f 684 927 683
f 927 930 683
f 683 930 682
f 930 931 682
f 682 931 675
f 931 932 675
f 675 932 674
f 932 950 674
f 674 950 681
f 950 951 681
f 681 951 680
f 951 952 680
f 680 952 679
f 952 945 679
f 679 945 454
f 1134 1136 452
f 452 1136 451
f 1136 1137 451
f 451 1137 772
f 1137 1151 772
f 772 1151 771
f 1151 1152 771
f 771 1152 770
f 1152 1153 770
f 770 1153 769
f 1153 1162 769
f 769 1162 768
f 1162 1163 768
f 768 1163 767
f 1163 1164 767
f 767 1164 761
f 1164 1165 761
f 761 1165 760
f 1165 1166 760
f 760 1166 797
f 1166 1167 797
f 797 1167 796
f 1167 1188 796
f 796 1188 795
f 1188 1189 795
f 795 1189 808
f 1189 1190 808
f 808 1190 807
f 1190 1191 807
f 807 1191 794
f 1191 1192 794
f 794 1192 793
f 1192 1193 793
f 793 1193 792
f 1193 1194 792
f 792 1194 791
f 1194 1195 791
f 791 1195 790
f 1195 1196 790
f 790 1196 789
f 1196 1197 789
f 789 1197 766
f 1197 1187 766
f 766 1187 765
f 1187 1156 765
f 765 1156 788
f 1156 1155 788
f 788 1155 787
f 1155 1154 787
f 787 1154 786
f 1154 1157 786
f 786 1157 785
f 1157 1158 785
f 785 1158 784
f 1158 1159 784
f 784 1159 783
f 1159 1160 783
f 783 1160 782
f 1160 1161 782
f 782 1161 781
f 1161 1138 781
f 781 1138 759
f 1138 1139 759
f 759 1139 758
f 1139 1140 758
f 758 1140 764
f 1140 1141 764
f 764 1141 763
f 1141 1142 763
f 763 1142 762
f 1142 1143 762
f 762 1143 751
f 1143 1144 751
f 751 1144 752
f 1144 1128 752
f 752 1128 753
f 1128 1129 753
f 753 1129 757
f 1129 1145 757
f 757 1145 756
f 1145 1146 756
f 756 1146 747
f 1146 1147 747
f 747 1147 746
f 1147 1148 746
f 746 1148 755
f 1148 1149 755
f 755 1149 754
f 1149 1150 754
f 754 1150 745
f 1150 1170 745
f 745 1170 744
f 1170 1171 744
f 744 1171 780
f 1171 1168 780
f 780 1168 779
f 1168 1169 779
f 779 1169 778
f 1169 1172 778
f 778 1172 777
f 1172 1173 777
f 777 1173 776
f 1173 1174 776
f 776 1174 775
f 1174 1175 775
f 775 1175 774
f 1175 1176 774
f 774 1176 773
f 1176 1177 773
f 773 1177 812
f 1177 1178 812
f 812 1178 813
f 1178 1179 813
f 813 1179 809
f 1179 1180 809
f 809 1180 810
f 1180 1181 810
f 810 1181 811
f 1181 1182 811
f 811 1182 806
f 1182 1183 806
f 806 1183 805
f 1183 1184 805
f 805 1184 804
f 1184 1185 804
f 804 1185 803
f 1185 1186 803
f 803 1186 802
f 1186 1127 802
f 802 1127 801
f 1127 1126 801
f 801 1126 800
f 1126 1125 800
f 800 1125 799
f 1125 1130 799
f 799 1130 798
f 1130 1131 798
f 798 1131 750
f 1131 1132 750
f 750 1132 749
f 1132 1133 749
f 749 1133 748
f 1133 1134 748
f 748 1134 452
