# Generated MicroDuck mesh; do not edit by hand.
# Source: microduck_rl/src/mjlab_microduck/robot/microduck/assets/lens.stl
# Source repository: https://github.com/pollen-robotics/microduck_rl.git@5946fd9cdbc58956424420153e51975af3b30d77
# Source SHA-256: 1549b2dad784d1a4c505c1ca62bffce6ca4e9b22c9273b37d6cda1c8bf2ca127
# License: Creative Commons BY-SA-NC; see ../Licenses/ATTRIBUTION.json.
# Modified: exported MuJoCo-compiled mesh geometry in Tuanjie coordinates.
# Transform: (x,y,z) -> (-y,z,x); triangle winding reversed.
o lens
v -8.80046449e-19 -0.00853420235 1.23085638e-19
v -0.00120972842 -0.00848162547 0.00010583752
v -0.00119590072 -0.00848162547 0.000210869563
v -0.00121434941 -0.00848162547 1.23085638e-19
v -0.00114111521 -0.00848162547 0.000415331946
v -0.00110057427 -0.00848162547 0.000513206236
v -0.00117297145 -0.00848162547 0.000314296747
v -0.000994736794 -0.00848162547 0.000696522184
v -0.000930245616 -0.00848162547 0.000780568749
v -0.00105165737 -0.00848162547 0.000607174705
v -0.000780568749 -0.00848162547 0.000930245616
v -0.000696522184 -0.00848162547 0.000994736794
v -0.000858674699 -0.00848162547 0.000858674699
v -0.000513206236 -0.00848162547 0.00110057427
v -0.000415331946 -0.00848162547 0.00114111521
v -0.000607174705 -0.00848162547 0.00105165737
v -0.000210869563 -0.00848162547 0.00119590072
v -0.00010583752 -0.00848162547 0.00120972842
v -0.000314296747 -0.00848162547 0.00117297145
v 0.00010583752 -0.00848162547 0.00120972842
v 0.000210869563 -0.00848162547 0.00119590072
v -4.57896633e-19 -0.00848162547 0.00121434941
v 0.000415331946 -0.00848162547 0.00114111521
v 0.000513206236 -0.00848162547 0.00110057427
v 0.000314296747 -0.00848162547 0.00117297145
v 0.000696522184 -0.00848162547 0.000994736794
v 0.000780568749 -0.00848162547 0.000930245616
v 0.000607174705 -0.00848162547 0.00105165737
v 0.000930245616 -0.00848162547 0.000780568749
v 0.000994736794 -0.00848162547 0.000696522184
v 0.000858674699 -0.00848162547 0.000858674699
v 0.00110057427 -0.00848162547 0.000513206236
v 0.00114111521 -0.00848162547 0.000415331946
v 0.00105165737 -0.00848162547 0.000607174705
v 0.00119590072 -0.00848162547 0.000210869563
v 0.00120972842 -0.00848162547 0.00010583752
v 0.00117297145 -0.00848162547 0.000314296747
v 0.00120972842 -0.00848162547 -0.00010583752
v 0.00119590072 -0.00848162547 -0.000210869563
v 0.00121434941 -0.00848162547 7.12922516e-19
v 0.00114111521 -0.00848162547 -0.000415331946
v 0.00110057427 -0.00848162547 -0.000513206236
v 0.00117297145 -0.00848162547 -0.000314296747
v 0.000994736794 -0.00848162547 -0.000696522184
v 0.000930245616 -0.00848162547 -0.000780568749
v 0.00105165737 -0.00848162547 -0.000607174705
v 0.000780568749 -0.00848162547 -0.000930245616
v 0.000696522184 -0.00848162547 -0.000994736794
v 0.000858674699 -0.00848162547 -0.000858674699
v 0.000513206236 -0.00848162547 -0.00110057427
v 0.000415331946 -0.00848162547 -0.00114111521
v 0.000607174705 -0.00848162547 -0.00105165737
v 0.000210869563 -0.00848162547 -0.00119590072
v 0.00010583752 -0.00848162547 -0.00120972842
v 0.000314296747 -0.00848162547 -0.00117297145
v -0.00010583752 -0.00848162547 -0.00120972842
v -0.000210869563 -0.00848162547 -0.00119590072
v 8.22892043e-19 -0.00848162547 -0.00121434941
v -0.000415331946 -0.00848162547 -0.00114111521
v -0.000513206236 -0.00848162547 -0.00110057427
v -0.000314296747 -0.00848162547 -0.00117297145
v -0.000696522184 -0.00848162547 -0.000994736794
v -0.000780568749 -0.00848162547 -0.000930245616
v -0.000607174705 -0.00848162547 -0.00105165737
v -0.000930245616 -0.00848162547 -0.000780568749
v -0.000994736794 -0.00848162547 -0.000696522184
v -0.000858674699 -0.00848162547 -0.000858674699
v -0.00110057427 -0.00848162547 -0.000513206236
v -0.00114111521 -0.00848162547 -0.000415331946
v -0.00105165737 -0.00848162547 -0.000607174705
v -0.00119590072 -0.00848162547 -0.000210869563
v -0.00120972842 -0.00848162547 -0.00010583752
v -0.00117297145 -0.00848162547 -0.000314296747
v -0.00241040299 -0.00832428969 0.000210882936
v -0.00238285097 -0.00832428969 0.000420160912
v -0.00233716401 -0.00832428969 0.000626241206
v -0.00227368996 -0.00832428969 0.000827555428
v -0.00219291169 -0.00832428969 0.00102257147
v -0.0020954439 -0.00832428969 0.00120980514
v -0.0019820286 -0.00832428969 0.00138783141
v -0.00185352901 -0.00832428969 0.00155529554
v -0.00171092281 -0.00832428969 0.00171092281
v -0.00155529554 -0.00832428969 0.00185352901
v -0.00138783141 -0.00832428969 0.0019820286
v -0.00120980514 -0.00832428969 0.0020954439
v -0.00102257147 -0.00832428969 0.00219291169
v -0.000827555428 -0.00832428969 0.00227368996
v -0.000626241206 -0.00832428969 0.00233716401
v -0.000420160912 -0.00832428969 0.00238285097
v -0.000210882936 -0.00832428969 0.00241040299
v -8.92781825e-19 -0.00832428969 0.00241961027
v 0.000210882936 -0.00832428969 0.00241040299
v 0.000420160912 -0.00832428969 0.00238285097
v 0.000626241206 -0.00832428969 0.00233716401
v 0.000827555428 -0.00832428969 0.00227368996
v 0.00102257147 -0.00832428969 0.00219291169
v 0.00120980514 -0.00832428969 0.0020954439
v 0.00138783141 -0.00832428969 0.0019820286
v 0.00155529554 -0.00832428969 0.00185352901
v 0.00171092281 -0.00832428969 0.00171092281
v 0.00185352901 -0.00832428969 0.00155529554
v 0.0019820286 -0.00832428969 0.00138783141
v 0.0020954439 -0.00832428969 0.00120980514
v 0.00219291169 -0.00832428969 0.00102257147
v 0.00227368996 -0.00832428969 0.000827555428
v 0.00233716401 -0.00832428969 0.000626241206
v 0.00238285097 -0.00832428969 0.000420160912
v 0.00241040299 -0.00832428969 0.000210882936
v 0.00241961027 -0.00832428969 1.29834496e-18
v 0.00241040299 -0.00832428969 -0.000210882936
v 0.00238285097 -0.00832428969 -0.000420160912
v 0.00233716401 -0.00832428969 -0.000626241206
v 0.00227368996 -0.00832428969 -0.000827555428
v 0.00219291169 -0.00832428969 -0.00102257147
v 0.0020954439 -0.00832428969 -0.00120980514
v 0.0019820286 -0.00832428969 -0.00138783141
v 0.00185352901 -0.00832428969 -0.00155529554
v 0.00171092281 -0.00832428969 -0.00171092281
v 0.00155529554 -0.00832428969 -0.00185352901
v 0.00138783141 -0.00832428969 -0.0019820286
v 0.00120980514 -0.00832428969 -0.0020954439
v 0.00102257147 -0.00832428969 -0.00219291169
v 0.000827555428 -0.00832428969 -0.00227368996
v 0.000626241206 -0.00832428969 -0.00233716401
v 0.000420160912 -0.00832428969 -0.00238285097
v 0.000210882936 -0.00832428969 -0.00241040299
v 1.65920985e-18 -0.00832428969 -0.00241961027
v -0.000210882936 -0.00832428969 -0.00241040299
v -0.000420160912 -0.00832428969 -0.00238285097
v -0.000626241206 -0.00832428969 -0.00233716401
v -0.000827555428 -0.00832428969 -0.00227368996
v -0.00102257147 -0.00832428969 -0.00219291169
v -0.00120980514 -0.00832428969 -0.0020954439
v -0.00138783141 -0.00832428969 -0.0019820286
v -0.00155529554 -0.00832428969 -0.00185352901
v -0.00171092281 -0.00832428969 -0.00171092281
v -0.00185352901 -0.00832428969 -0.00155529554
v -0.0019820286 -0.00832428969 -0.00138783141
v -0.0020954439 -0.00832428969 -0.00120980514
v -0.00219291169 -0.00832428969 -0.00102257147
v -0.00227368996 -0.00832428969 -0.000827555428
v -0.00233716401 -0.00832428969 -0.000626241206
v -0.00238285097 -0.00832428969 -0.000420160912
v -0.00241040299 -0.00832428969 -0.000210882936
v -0.00241961027 -0.00832428969 1.23085638e-19
v -0.00359303737 -0.00806337036 0.000314350036
v -0.00355196744 -0.00806337036 0.000626307679
v -0.00348386471 -0.00806337036 0.000933498726
v -0.00338924793 -0.00806337036 0.0012335853
v -0.00326883676 -0.00806337036 0.00152428355
v -0.00312354765 -0.00806337036 0.00180338114
v -0.00295448652 -0.00806337036 0.00206875382
v -0.00276294025 -0.00806337036 0.00231838203
v -0.0025503661 -0.00806337036 0.0025503661
v -0.00231838203 -0.00806337036 0.00276294025
v -0.00206875382 -0.00806337036 0.00295448652
v -0.00180338114 -0.00806337036 0.00312354765
v -0.00152428355 -0.00806337036 0.00326883676
v -0.0012335853 -0.00806337036 0.00338924793
v -0.000933498726 -0.00806337036 0.00348386471
v -0.000626307679 -0.00806337036 0.00355196744
v -0.000314350036 -0.00806337036 0.00359303737
v -1.32113296e-18 -0.00806337036 0.00360676227
v 0.000314350036 -0.00806337036 0.00359303737
v 0.000626307679 -0.00806337036 0.00355196744
v 0.000933498726 -0.00806337036 0.00348386471
v 0.0012335853 -0.00806337036 0.00338924793
v 0.00152428355 -0.00806337036 0.00326883676
v 0.00180338114 -0.00806337036 0.00312354765
v 0.00206875382 -0.00806337036 0.00295448652
v 0.00231838203 -0.00806337036 0.00276294025
v 0.0025503661 -0.00806337036 0.0025503661
v 0.00276294025 -0.00806337036 0.00231838203
v 0.00295448652 -0.00806337036 0.00206875382
v 0.00312354765 -0.00806337036 0.00180338114
v 0.00326883676 -0.00806337036 0.00152428355
v 0.00338924793 -0.00806337036 0.0012335853
v 0.00348386471 -0.00806337036 0.000933498726
v 0.00355196744 -0.00806337036 0.000626307679
v 0.00359303737 -0.00806337036 0.000314350036
v 0.00360676227 -0.00806337036 1.87497154e-18
v 0.00359303737 -0.00806337036 -0.000314350036
v 0.00355196744 -0.00806337036 -0.000626307679
v 0.00348386471 -0.00806337036 -0.000933498726
v 0.00338924793 -0.00806337036 -0.0012335853
v 0.00326883676 -0.00806337036 -0.00152428355
v 0.00312354765 -0.00806337036 -0.00180338114
v 0.00295448652 -0.00806337036 -0.00206875382
v 0.00276294025 -0.00806337036 -0.00231838203
v 0.0025503661 -0.00806337036 -0.0025503661
v 0.00231838203 -0.00806337036 -0.00276294025
v 0.00206875382 -0.00806337036 -0.00295448652
v 0.00180338114 -0.00806337036 -0.00312354765
v 0.00152428355 -0.00806337036 -0.00326883676
v 0.0012335853 -0.00806337036 -0.00338924793
v 0.000933498726 -0.00806337036 -0.00348386471
v 0.000626307679 -0.00806337036 -0.00355196744
v 0.000314350036 -0.00806337036 -0.00359303737
v 2.4829619e-18 -0.00806337036 -0.00360676227
v -0.000314350036 -0.00806337036 -0.00359303737
v -0.000626307679 -0.00806337036 -0.00355196744
v -0.000933498726 -0.00806337036 -0.00348386471
v -0.0012335853 -0.00806337036 -0.00338924793
v -0.00152428355 -0.00806337036 -0.00326883676
v -0.00180338114 -0.00806337036 -0.00312354765
v -0.00206875382 -0.00806337036 -0.00295448652
v -0.00231838203 -0.00806337036 -0.00276294025
v -0.0025503661 -0.00806337036 -0.0025503661
v -0.00276294025 -0.00806337036 -0.00231838203
v -0.00295448652 -0.00806337036 -0.00206875382
v -0.00312354765 -0.00806337036 -0.00180338114
v -0.00326883676 -0.00806337036 -0.00152428355
v -0.00338924793 -0.00806337036 -0.0012335853
v -0.00348386471 -0.00806337036 -0.000933498726
v -0.00355196744 -0.00806337036 -0.000626307679
v -0.00359303737 -0.00806337036 -0.000314350036
v -0.00360676227 -0.00806337036 1.23085638e-19
v -0.00474878075 -0.00770081999 0.000415464485
v -0.00469450001 -0.00770081999 0.000827767013
v -0.00460449141 -0.00770081999 0.0012337697
v -0.00447943993 -0.00770081999 0.00163038273
v -0.00432029692 -0.00770081999 0.00201458763
v -0.00412827404 -0.00770081999 0.00238346006
v -0.00390483253 -0.00770081999 0.00273419311
v -0.00365167274 -0.00770081999 0.00306411716
v -0.00337072159 -0.00770081999 0.00337072159
v -0.00306411716 -0.00770081999 0.00365167274
v -0.00273419311 -0.00770081999 0.00390483253
v -0.00238346006 -0.00770081999 0.00412827404
v -0.00201458763 -0.00770081999 0.00432029692
v -0.00163038273 -0.00770081999 0.00447943993
v -0.0012337697 -0.00770081999 0.00460449141
v -0.000827767013 -0.00770081999 0.00469450001
v -0.000415464485 -0.00770081999 0.00474878075
v -1.73974405e-18 -0.00770081999 0.00476692012
v 0.000415464485 -0.00770081999 0.00474878075
v 0.000827767013 -0.00770081999 0.00469450001
v 0.0012337697 -0.00770081999 0.00460449141
v 0.00163038273 -0.00770081999 0.00447943993
v 0.00201458763 -0.00770081999 0.00432029692
v 0.00238346006 -0.00770081999 0.00412827404
v 0.00273419311 -0.00770081999 0.00390483253
v 0.00306411716 -0.00770081999 0.00365167274
v 0.00337072159 -0.00770081999 0.00337072159
v 0.00365167274 -0.00770081999 0.00306411716
v 0.00390483253 -0.00770081999 0.00273419311
v 0.00412827404 -0.00770081999 0.00238346006
v 0.00432029692 -0.00770081999 0.00201458763
v 0.00447943993 -0.00770081999 0.00163038273
v 0.00460449141 -0.00770081999 0.0012337697
v 0.00469450001 -0.00770081999 0.000827767013
v 0.00474878075 -0.00770081999 0.000415464485
v 0.00476692012 -0.00770081999 2.43848647e-18
v 0.00474878075 -0.00770081999 -0.000415464485
v 0.00469450001 -0.00770081999 -0.000827767013
v 0.00460449141 -0.00770081999 -0.0012337697
v 0.00447943993 -0.00770081999 -0.00163038273
v 0.00432029692 -0.00770081999 -0.00201458763
v 0.00412827404 -0.00770081999 -0.00238346006
v 0.00390483253 -0.00770081999 -0.00273419311
v 0.00365167274 -0.00770081999 -0.00306411716
v 0.00337072159 -0.00770081999 -0.00337072159
v 0.00306411716 -0.00770081999 -0.00365167274
v 0.00273419311 -0.00770081999 -0.00390483253
v 0.00238346006 -0.00770081999 -0.00412827404
v 0.00201458763 -0.00770081999 -0.00432029692
v 0.00163038273 -0.00770081999 -0.00447943993
v 0.0012337697 -0.00770081999 -0.00460449141
v 0.000827767013 -0.00770081999 -0.00469450001
v 0.000415464485 -0.00770081999 -0.00474878075
v 3.28798338e-18 -0.00770081999 -0.00476692012
v -0.000415464485 -0.00770081999 -0.00474878075
v -0.000827767013 -0.00770081999 -0.00469450001
v -0.0012337697 -0.00770081999 -0.00460449141
v -0.00163038273 -0.00770081999 -0.00447943993
v -0.00201458763 -0.00770081999 -0.00432029692
v -0.00238346006 -0.00770081999 -0.00412827404
v -0.00273419311 -0.00770081999 -0.00390483253
v -0.00306411716 -0.00770081999 -0.00365167274
v -0.00337072159 -0.00770081999 -0.00337072159
v -0.00365167274 -0.00770081999 -0.00306411716
v -0.00390483253 -0.00770081999 -0.00273419311
v -0.00412827404 -0.00770081999 -0.00238346006
v -0.00432029692 -0.00770081999 -0.00201458763
v -0.00447943993 -0.00770081999 -0.00163038273
v -0.00460449141 -0.00770081999 -0.0012337697
v -0.00469450001 -0.00770081999 -0.000827767013
v -0.00474878075 -0.00770081999 -0.000415464485
v -0.00476692012 -0.00770081999 1.23085638e-19
v -0.00586898299 -0.00723935524 0.000513469451
v -0.00580189796 -0.00723935524 0.00102303119
v -0.00569065707 -0.00723935524 0.00152480695
v -0.00553610642 -0.00723935524 0.00201497809
v -0.00533942319 -0.00723935524 0.00248981384
v -0.00510210358 -0.00723935524 0.00294570066
v -0.00482595339 -0.00723935524 0.00337916915
v -0.00451307558 -0.00723935524 0.00378691987
v -0.00416585011 -0.00723935524 0.00416585011
v -0.00378691987 -0.00723935524 0.00451307558
v -0.00337916915 -0.00723935524 0.00482595339
v -0.00294570066 -0.00723935524 0.00510210358
v -0.00248981384 -0.00723935524 0.00533942319
v -0.00201497809 -0.00723935524 0.00553610642
v -0.00152480695 -0.00723935524 0.00569065707
v -0.00102303119 -0.00723935524 0.00580189796
v -0.000513469451 -0.00723935524 0.00586898299
v -2.14548214e-18 -0.00723935524 0.00589140132
v 0.000513469451 -0.00723935524 0.00586898299
v 0.00102303119 -0.00723935524 0.00580189796
v 0.00152480695 -0.00723935524 0.00569065707
v 0.00201497809 -0.00723935524 0.00553610642
v 0.00248981384 -0.00723935524 0.00533942319
v 0.00294570066 -0.00723935524 0.00510210358
v 0.00337916915 -0.00723935524 0.00482595339
v 0.00378691987 -0.00723935524 0.00451307558
v 0.00416585011 -0.00723935524 0.00416585011
v 0.00451307558 -0.00723935524 0.00378691987
v 0.00482595339 -0.00723935524 0.00337916915
v 0.00510210358 -0.00723935524 0.00294570066
v 0.00533942319 -0.00723935524 0.00248981384
v 0.00553610642 -0.00723935524 0.00201497809
v 0.00569065707 -0.00723935524 0.00152480695
v 0.00580189796 -0.00723935524 0.00102303119
v 0.00586898299 -0.00723935524 0.000513469451
v 0.00589140132 -0.00723935524 2.98467238e-18
v 0.00586898299 -0.00723935524 -0.000513469451
v 0.00580189796 -0.00723935524 -0.00102303119
v 0.00569065707 -0.00723935524 -0.00152480695
v 0.00553610642 -0.00723935524 -0.00201497809
v 0.00533942319 -0.00723935524 -0.00248981384
v 0.00510210358 -0.00723935524 -0.00294570066
v 0.00482595339 -0.00723935524 -0.00337916915
v 0.00451307558 -0.00723935524 -0.00378691987
v 0.00416585011 -0.00723935524 -0.00416585011
v 0.00378691987 -0.00723935524 -0.00451307558
v 0.00337916915 -0.00723935524 -0.00482595339
v 0.00294570066 -0.00723935524 -0.00510210358
v 0.00248981384 -0.00723935524 -0.00533942319
v 0.00201497809 -0.00723935524 -0.00553610642
v 0.00152480695 -0.00723935524 -0.00569065707
v 0.00102303119 -0.00723935524 -0.00580189796
v 0.000513469451 -0.00723935524 -0.00586898299
v 4.06824879e-18 -0.00723935524 -0.00589140132
v -0.000513469451 -0.00723935524 -0.00586898299
v -0.00102303119 -0.00723935524 -0.00580189796
v -0.00152480695 -0.00723935524 -0.00569065707
v -0.00201497809 -0.00723935524 -0.00553610642
v -0.00248981384 -0.00723935524 -0.00533942319
v -0.00294570066 -0.00723935524 -0.00510210358
v -0.00337916915 -0.00723935524 -0.00482595339
v -0.00378691987 -0.00723935524 -0.00451307558
v -0.00416585011 -0.00723935524 -0.00416585011
v -0.00451307558 -0.00723935524 -0.00378691987
v -0.00482595339 -0.00723935524 -0.00337916915
v -0.00510210358 -0.00723935524 -0.00294570066
v -0.00533942319 -0.00723935524 -0.00248981384
v -0.00553610642 -0.00723935524 -0.00201497809
v -0.00569065707 -0.00723935524 -0.00152480695
v -0.00580189796 -0.00723935524 -0.00102303119
v -0.00586898299 -0.00723935524 -0.000513469451
v -0.00589140132 -0.00723935524 1.23085638e-19
v -0.00694526033 -0.0066824262 0.000607631519
v -0.006865873 -0.0066824262 0.00121063867
v -0.00673423195 -0.0066824262 0.00180443202
v -0.00655133976 -0.0066824262 0.00238449266
v -0.00631858781 -0.0066824262 0.00294640567
v -0.00603774749 -0.0066824262 0.00348589499
v -0.00571095617 -0.0066824262 0.00399885466
v -0.00534070097 -0.0066824262 0.00448138034
v -0.00492980005 -0.0066824262 0.00492980005
v -0.00448138034 -0.0066824262 0.00534070097
v -0.00399885466 -0.0066824262 0.00571095617
v -0.00348589499 -0.0066824262 0.00603774749
v -0.00294640567 -0.0066824262 0.00631858781
v -0.00238449266 -0.0066824262 0.00655133976
v -0.00180443202 -0.0066824262 0.00673423195
v -0.00121063867 -0.0066824262 0.006865873
v -0.000607631519 -0.0066824262 0.00694526033
v -2.53531065e-18 -0.0066824262 0.00697178999
v 0.000607631519 -0.0066824262 0.00694526033
v 0.00121063867 -0.0066824262 0.006865873
v 0.00180443202 -0.0066824262 0.00673423195
v 0.00238449266 -0.0066824262 0.00655133976
v 0.00294640567 -0.0066824262 0.00631858781
v 0.00348589499 -0.0066824262 0.00603774749
v 0.00399885466 -0.0066824262 0.00571095617
v 0.00448138034 -0.0066824262 0.00534070097
v 0.00492980005 -0.0066824262 0.00492980005
v 0.00534070097 -0.0066824262 0.00448138034
v 0.00571095617 -0.0066824262 0.00399885466
v 0.00603774749 -0.0066824262 0.00348589499
v 0.00631858781 -0.0066824262 0.00294640567
v 0.00655133976 -0.0066824262 0.00238449266
v 0.00673423195 -0.0066824262 0.00180443202
v 0.006865873 -0.0066824262 0.00121063867
v 0.00694526033 -0.0066824262 0.000607631519
v 0.00697178999 -0.0066824262 3.50944155e-18
v 0.00694526033 -0.0066824262 -0.000607631519
v 0.006865873 -0.0066824262 -0.00121063867
v 0.00673423195 -0.0066824262 -0.00180443202
v 0.00655133976 -0.0066824262 -0.00238449266
v 0.00631858781 -0.0066824262 -0.00294640567
v 0.00603774749 -0.0066824262 -0.00348589499
v 0.00571095617 -0.0066824262 -0.00399885466
v 0.00534070097 -0.0066824262 -0.00448138034
v 0.00492980005 -0.0066824262 -0.00492980005
v 0.00448138034 -0.0066824262 -0.00534070097
v 0.00399885466 -0.0066824262 -0.00571095617
v 0.00348589499 -0.0066824262 -0.00603774749
v 0.00294640567 -0.0066824262 -0.00631858781
v 0.00238449266 -0.0066824262 -0.00655133976
v 0.00180443202 -0.0066824262 -0.00673423195
v 0.00121063867 -0.0066824262 -0.006865873
v 0.000607631519 -0.0066824262 -0.00694526033
v 4.81791885e-18 -0.0066824262 -0.00697178999
v -0.000607631519 -0.0066824262 -0.00694526033
v -0.00121063867 -0.0066824262 -0.006865873
v -0.00180443202 -0.0066824262 -0.00673423195
v -0.00238449266 -0.0066824262 -0.00655133976
v -0.00294640567 -0.0066824262 -0.00631858781
v -0.00348589499 -0.0066824262 -0.00603774749
v -0.00399885466 -0.0066824262 -0.00571095617
v -0.00448138034 -0.0066824262 -0.00534070097
v -0.00492980005 -0.0066824262 -0.00492980005
v -0.00534070097 -0.0066824262 -0.00448138034
v -0.00571095617 -0.0066824262 -0.00399885466
v -0.00603774749 -0.0066824262 -0.00348589499
v -0.00631858781 -0.0066824262 -0.00294640567
v -0.00655133976 -0.0066824262 -0.00238449266
v -0.00673423195 -0.0066824262 -0.00180443202
v -0.006865873 -0.0066824262 -0.00121063867
v -0.00694526033 -0.0066824262 -0.000607631519
v -0.00697178999 -0.0066824262 1.23085638e-19
v -0.00796955731 -0.00603420334 0.000697245938
v -0.00787846185 -0.00603420334 0.00138918543
v -0.00772740645 -0.00603420334 0.00207055244
v -0.00751754083 -0.00603420334 0.00273616123
v -0.00725046219 -0.00603420334 0.00338094612
v -0.00692820316 -0.00603420334 0.00400000019
v -0.00655321637 -0.00603420334 0.00458861142
v -0.0061283554 -0.00603420334 0.00514230086
v -0.00565685425 -0.00603420334 0.00565685425
v -0.00514230086 -0.00603420334 0.0061283554
v -0.00458861142 -0.00603420334 0.00655321637
v -0.00400000019 -0.00603420334 0.00692820316
v -0.00338094612 -0.00603420334 0.00725046219
v -0.00273616123 -0.00603420334 0.00751754083
v -0.00207055244 -0.00603420334 0.00772740645
v -0.00138918543 -0.00603420334 0.00787846185
v -0.000697245938 -0.00603420334 0.00796955731
v -5.83866138e-18 -0.00603420334 0.00800000038
v 0.000697245938 -0.00603420334 0.00796955731
v 0.00138918543 -0.00603420334 0.00787846185
v 0.00207055244 -0.00603420334 0.00772740645
v 0.00273616123 -0.00603420334 0.00751754083
v 0.00338094612 -0.00603420334 0.00725046219
v 0.00400000019 -0.00603420334 0.00692820316
v 0.00458861142 -0.00603420334 0.00655321637
v 0.00514230086 -0.00603420334 0.0061283554
v 0.00565685425 -0.00603420334 0.00565685425
v 0.0061283554 -0.00603420334 0.00514230086
v 0.00655321637 -0.00603420334 0.00458861142
v 0.00692820316 -0.00603420334 0.00400000019
v 0.00725046219 -0.00603420334 0.00338094612
v 0.00751754083 -0.00603420334 0.00273616123
v 0.00772740645 -0.00603420334 0.00207055244
v 0.00787846185 -0.00603420334 0.00138918543
v 0.00796955731 -0.00603420334 0.000697245938
v 0.00800000038 -0.00603420334 1.88663718e-17
v 0.00796955731 -0.00603420334 -0.000697245938
v 0.00787846185 -0.00603420334 -0.00138918543
v 0.00772740645 -0.00603420334 -0.00207055244
v 0.00751754083 -0.00603420334 -0.00273616123
v 0.00725046219 -0.00603420334 -0.00338094612
v 0.00692820316 -0.00603420334 -0.00400000019
v 0.00655321637 -0.00603420334 -0.00458861142
v 0.0061283554 -0.00603420334 -0.00514230086
v 0.00565685425 -0.00603420334 -0.00565685425
v 0.00514230086 -0.00603420334 -0.0061283554
v 0.00458861142 -0.00603420334 -0.00655321637
v 0.00400000019 -0.00603420334 -0.00692820316
v 0.00338094612 -0.00603420334 -0.00725046219
v 0.00273616123 -0.00603420334 -0.00751754083
v 0.00207055244 -0.00603420334 -0.00772740645
v 0.00138918543 -0.00603420334 -0.00787846185
v 0.000697245938 -0.00603420334 -0.00796955731
v 2.98715533e-17 -0.00603420334 -0.00800000038
v -0.000697245938 -0.00603420334 -0.00796955731
v -0.00138918543 -0.00603420334 -0.00787846185
v -0.00207055244 -0.00603420334 -0.00772740645
v -0.00273616123 -0.00603420334 -0.00751754083
v -0.00338094612 -0.00603420334 -0.00725046219
v -0.00400000019 -0.00603420334 -0.00692820316
v -0.00458861142 -0.00603420334 -0.00655321637
v -0.00514230086 -0.00603420334 -0.0061283554
v -0.00565685425 -0.00603420334 -0.00565685425
v -0.0061283554 -0.00603420334 -0.00514230086
v -0.00655321637 -0.00603420334 -0.00458861142
v -0.00692820316 -0.00603420334 -0.00400000019
v -0.00725046219 -0.00603420334 -0.00338094612
v -0.00751754083 -0.00603420334 -0.00273616123
v -0.00772740645 -0.00603420334 -0.00207055244
v -0.00787846185 -0.00603420334 -0.00138918543
v -0.00796955731 -0.00603420334 -0.000697245938
v -0.00800000038 -0.00603420334 -1.83634923e-18
v 0.00579999993 0.0103857964 1.23085638e-19
v 0.00577792944 0.00298579666 0.000505503325
v 0.00577792944 0.0103857964 0.000505503325
v 0.00571188517 0.00298579666 0.00100715947
v 0.00571188517 0.0103857964 0.00100715947
v 0.00560237002 0.00298579666 0.00150115043
v 0.00560237002 0.0103857964 0.00150115043
v 0.00545021705 0.00298579666 0.00198371685
v 0.00545021705 0.0103857964 0.00198371685
v 0.00525658531 0.00298579666 0.00245118584
v 0.00525658531 0.0103857964 0.00245118584
v 0.00502294721 0.00298579666 0.00289999996
v 0.00502294721 0.0103857964 0.00289999996
v 0.00475108204 0.00298579666 0.00332674338
v 0.00475108204 0.0103857964 0.00332674338
v 0.00444305781 0.00298579666 0.00372816809
v 0.00444305781 0.0103857964 0.00372816809
v 0.00410121912 0.00298579666 0.00410121912
v 0.00410121912 0.0103857964 0.00410121912
v 0.00372816809 0.00298579666 0.00444305781
v 0.00372816809 0.0103857964 0.00444305781
v 0.00332674338 0.00298579666 0.00475108204
v 0.00332674338 0.0103857964 0.00475108204
v 0.00289999996 0.00298579666 0.00502294721
v 0.00289999996 0.0103857964 0.00502294721
v 0.00245118584 0.00298579666 0.00525658531
v 0.00245118584 0.0103857964 0.00525658531
v 0.00198371685 0.00298579666 0.00545021705
v 0.00198371685 0.0103857964 0.00545021705
v 0.00150115043 0.00298579666 0.00560237002
v 0.00150115043 0.0103857964 0.00560237002
v 0.00100715947 0.00298579666 0.00571188517
v 0.00100715947 0.0103857964 0.00571188517
v 0.000505503325 0.00298579666 0.00577792944
v 0.000505503325 0.0103857964 0.00577792944
v -1.28148359e-19 0.00298579666 0.00579999993
v -1.28148359e-19 0.0103857964 0.00579999993
v -0.000505503325 0.00298579666 0.00577792944
v -0.000505503325 0.0103857964 0.00577792944
v -0.00100715947 0.00298579666 0.00571188517
v -0.00100715947 0.0103857964 0.00571188517
v -0.00150115043 0.00298579666 0.00560237002
v -0.00150115043 0.0103857964 0.00560237002
v -0.00198371685 0.00298579666 0.00545021705
v -0.00198371685 0.0103857964 0.00545021705
v -0.00245118584 0.00298579666 0.00525658531
v -0.00245118584 0.0103857964 0.00525658531
v -0.00289999996 0.00298579666 0.00502294721
v -0.00289999996 0.0103857964 0.00502294721
v -0.00332674338 0.00298579666 0.00475108204
v -0.00332674338 0.0103857964 0.00475108204
v -0.00372816809 0.00298579666 0.00444305781
v -0.00372816809 0.0103857964 0.00444305781
v -0.00410121912 0.00298579666 0.00410121912
v -0.00410121912 0.0103857964 0.00410121912
v -0.00444305781 0.00298579666 0.00372816809
v -0.00444305781 0.0103857964 0.00372816809
v -0.00475108204 0.00298579666 0.00332674338
v -0.00475108204 0.0103857964 0.00332674338
v -0.00502294721 0.00298579666 0.00289999996
v -0.00502294721 0.0103857964 0.00289999996
v -0.00525658531 0.00298579666 0.00245118584
v -0.00525658531 0.0103857964 0.00245118584
v -0.00545021705 0.00298579666 0.00198371685
v -0.00545021705 0.0103857964 0.00198371685
v -0.00560237002 0.00298579666 0.00150115043
v -0.00560237002 0.0103857964 0.00150115043
v -0.00571188517 0.00298579666 0.00100715947
v -0.00571188517 0.0103857964 0.00100715947
v -0.00577792944 0.00298579666 0.000505503325
v -0.00577792944 0.0103857964 0.000505503325
v -0.00579999993 0.00298579666 3.40909834e-18
v -0.00579999993 0.0103857964 3.40909834e-18
v -0.00577792944 0.00298579666 -0.000505503325
v -0.00577792944 0.0103857964 -0.000505503325
v -0.00571188517 0.00298579666 -0.00100715947
v -0.00571188517 0.0103857964 -0.00100715947
v -0.00560237002 0.00298579666 -0.00150115043
v -0.00560237002 0.0103857964 -0.00150115043
v -0.00545021705 0.00298579666 -0.00198371685
v -0.00545021705 0.0103857964 -0.00198371685
v -0.00525658531 0.00298579666 -0.00245118584
v -0.00525658531 0.0103857964 -0.00245118584
v -0.00502294721 0.00298579666 -0.00289999996
v -0.00502294721 0.0103857964 -0.00289999996
v -0.00475108204 0.00298579666 -0.00332674338
v -0.00475108204 0.0103857964 -0.00332674338
v -0.00444305781 0.00298579666 -0.00372816809
v -0.00444305781 0.0103857964 -0.00372816809
v -0.00410121912 0.00298579666 -0.00410121912
v -0.00410121912 0.0103857964 -0.00410121912
v -0.00372816809 0.00298579666 -0.00444305781
v -0.00372816809 0.0103857964 -0.00444305781
v -0.00332674338 0.00298579666 -0.00475108204
v -0.00332674338 0.0103857964 -0.00475108204
v -0.00289999996 0.00298579666 -0.00502294721
v -0.00289999996 0.0103857964 -0.00502294721
v -0.00245118584 0.00298579666 -0.00525658531
v -0.00245118584 0.0103857964 -0.00525658531
v -0.00198371685 0.00298579666 -0.00545021705
v -0.00198371685 0.0103857964 -0.00545021705
v -0.00150115043 0.00298579666 -0.00560237002
v -0.00150115043 0.0103857964 -0.00560237002
v -0.00100715947 0.00298579666 -0.00571188517
v -0.00100715947 0.0103857964 -0.00571188517
v -0.000505503325 0.00298579666 -0.00577792944
v -0.000505503325 0.0103857964 -0.00577792944
v -7.98803189e-18 0.00298579666 -0.00579999993
v -7.98803189e-18 0.0103857964 -0.00579999993
v 0.000505503325 0.00298579666 -0.00577792944
v 0.000505503325 0.0103857964 -0.00577792944
v 0.00100715947 0.00298579666 -0.00571188517
v 0.00100715947 0.0103857964 -0.00571188517
v 0.00150115043 0.00298579666 -0.00560237002
v 0.00150115043 0.0103857964 -0.00560237002
v 0.00198371685 0.00298579666 -0.00545021705
v 0.00198371685 0.0103857964 -0.00545021705
v 0.00245118584 0.00298579666 -0.00525658531
v 0.00245118584 0.0103857964 -0.00525658531
v 0.00289999996 0.00298579666 -0.00502294721
v 0.00289999996 0.0103857964 -0.00502294721
v 0.00332674338 0.00298579666 -0.00475108204
v 0.00332674338 0.0103857964 -0.00475108204
v 0.00372816809 0.00298579666 -0.00444305781
v 0.00372816809 0.0103857964 -0.00444305781
v 0.00410121912 0.00298579666 -0.00410121912
v 0.00410121912 0.0103857964 -0.00410121912
v 0.00444305781 0.00298579666 -0.00372816809
v 0.00444305781 0.0103857964 -0.00372816809
v 0.00475108204 0.00298579666 -0.00332674338
v 0.00475108204 0.0103857964 -0.00332674338
v 0.00502294721 0.00298579666 -0.00289999996
v 0.00502294721 0.0103857964 -0.00289999996
v 0.00525658531 0.00298579666 -0.00245118584
v 0.00525658531 0.0103857964 -0.00245118584
v 0.00545021705 0.00298579666 -0.00198371685
v 0.00545021705 0.0103857964 -0.00198371685
v 0.00560237002 0.00298579666 -0.00150115043
v 0.00560237002 0.0103857964 -0.00150115043
v 0.00571188517 0.00298579666 -0.00100715947
v 0.00571188517 0.0103857964 -0.00100715947
v 0.00577792944 0.00298579666 -0.000505503325
v 0.00577792944 0.0103857964 -0.000505503325
v 0.00579999993 0.00298579666 -1.29750465e-18
v 0.00680000009 0.00298579666 1.23085638e-19
v 0.00677412376 -0.000334203534 0.000592659053
v 0.00677412376 0.00298579666 0.000592659053
v 0.00669669267 -0.000334203534 0.00118080759
v 0.00669669267 0.00298579666 0.00118080759
v 0.00656829542 -0.000334203534 0.00175996951
v 0.00656829542 0.00298579666 0.00175996951
v 0.00638990989 -0.000334203534 0.00232573692
v 0.00638990989 0.00298579666 0.00232573692
v 0.00616289303 -0.000334203534 0.00287380419
v 0.00616289303 0.00298579666 0.00287380419
v 0.0058889729 -0.000334203534 0.00340000005
v 0.0058889729 0.00298579666 0.00340000005
v 0.0055702338 -0.000334203534 0.0039003198
v 0.0055702338 0.00298579666 0.0039003198
v 0.0052091023 -0.000334203534 0.00437095575
v 0.0052091023 0.00298579666 0.00437095575
v 0.00480832625 -0.000334203534 0.00480832625
v 0.00480832625 0.00298579666 0.00480832625
v 0.00437095575 -0.000334203534 0.0052091023
v 0.00437095575 0.00298579666 0.0052091023
v 0.0039003198 -0.000334203534 0.0055702338
v 0.0039003198 0.00298579666 0.0055702338
v 0.00340000005 -0.000334203534 0.0058889729
v 0.00340000005 0.00298579666 0.0058889729
v 0.00287380419 -0.000334203534 0.00616289303
v 0.00287380419 0.00298579666 0.00616289303
v 0.00232573692 -0.000334203534 0.00638990989
v 0.00232573692 0.00298579666 0.00638990989
v 0.00175996951 -0.000334203534 0.00656829542
v 0.00175996951 0.00298579666 0.00656829542
v 0.00118080759 -0.000334203534 0.00669669267
v 0.00118080759 0.00298579666 0.00669669267
v 0.000592659053 -0.000334203534 0.00677412376
v 0.000592659053 0.00298579666 0.00677412376
v 1.55128586e-19 -0.000334203534 0.00680000009
v 1.55128586e-19 0.00298579666 0.00680000009
v -0.000592659053 -0.000334203534 0.00677412376
v -0.000592659053 0.00298579666 0.00677412376
v -0.00118080759 -0.000334203534 0.00669669267
v -0.00118080759 0.00298579666 0.00669669267
v -0.00175996951 -0.000334203534 0.00656829542
v -0.00175996951 0.00298579666 0.00656829542
v -0.00232573692 -0.000334203534 0.00638990989
v -0.00232573692 0.00298579666 0.00638990989
v -0.00287380419 -0.000334203534 0.00616289303
v -0.00287380419 0.00298579666 0.00616289303
v -0.00340000005 -0.000334203534 0.0058889729
v -0.00340000005 0.00298579666 0.0058889729
v -0.0039003198 -0.000334203534 0.0055702338
v -0.0039003198 0.00298579666 0.0055702338
v -0.00437095575 -0.000334203534 0.0052091023
v -0.00437095575 0.00298579666 0.0052091023
v -0.00480832625 -0.000334203534 0.00480832625
v -0.00480832625 0.00298579666 0.00480832625
v -0.0052091023 -0.000334203534 0.00437095575
v -0.0052091023 0.00298579666 0.00437095575
v -0.0055702338 -0.000334203534 0.0039003198
v -0.0055702338 0.00298579666 0.0039003198
v -0.0058889729 -0.000334203534 0.00340000005
v -0.0058889729 0.00298579666 0.00340000005
v -0.00616289303 -0.000334203534 0.00287380419
v -0.00616289303 0.00298579666 0.00287380419
v -0.00638990989 -0.000334203534 0.00232573692
v -0.00638990989 0.00298579666 0.00232573692
v -0.00656829542 -0.000334203534 0.00175996951
v -0.00656829542 0.00298579666 0.00175996951
v -0.00669669267 -0.000334203534 0.00118080759
v -0.00669669267 0.00298579666 0.00118080759
v -0.00677412376 -0.000334203534 0.000592659053
v -0.00677412376 0.00298579666 0.000592659053
v -0.00680000009 -0.000334203534 3.97565212e-18
v -0.00680000009 0.00298579666 3.97565212e-18
v -0.00677412376 -0.000334203534 -0.000592659053
v -0.00677412376 0.00298579666 -0.000592659053
v -0.00669669267 -0.000334203534 -0.00118080759
v -0.00669669267 0.00298579666 -0.00118080759
v -0.00656829542 -0.000334203534 -0.00175996951
v -0.00656829542 0.00298579666 -0.00175996951
v -0.00638990989 -0.000334203534 -0.00232573692
v -0.00638990989 0.00298579666 -0.00232573692
v -0.00616289303 -0.000334203534 -0.00287380419
v -0.00616289303 0.00298579666 -0.00287380419
v -0.0058889729 -0.000334203534 -0.00340000005
v -0.0058889729 0.00298579666 -0.00340000005
v -0.0055702338 -0.000334203534 -0.0039003198
v -0.0055702338 0.00298579666 -0.0039003198
v -0.0052091023 -0.000334203534 -0.00437095575
v -0.0052091023 0.00298579666 -0.00437095575
v -0.00480832625 -0.000334203534 -0.00480832625
v -0.00480832625 0.00298579666 -0.00480832625
v -0.00437095575 -0.000334203534 -0.0052091023
v -0.00437095575 0.00298579666 -0.0052091023
v -0.0039003198 -0.000334203534 -0.0055702338
v -0.0039003198 0.00298579666 -0.0055702338
v -0.00340000005 -0.000334203534 -0.0058889729
v -0.00340000005 0.00298579666 -0.0058889729
v -0.00287380419 -0.000334203534 -0.00616289303
v -0.00287380419 0.00298579666 -0.00616289303
v -0.00232573692 -0.000334203534 -0.00638990989
v -0.00232573692 0.00298579666 -0.00638990989
v -0.00175996951 -0.000334203534 -0.00656829542
v -0.00175996951 0.00298579666 -0.00656829542
v -0.00118080759 -0.000334203534 -0.00669669267
v -0.00118080759 0.00298579666 -0.00669669267
v -0.000592659053 -0.000334203534 -0.00677412376
v -0.000592659053 0.00298579666 -0.00677412376
v -9.05990742e-18 -0.000334203534 -0.00680000009
v -9.05990742e-18 0.00298579666 -0.00680000009
v 0.000592659053 -0.000334203534 -0.00677412376
v 0.000592659053 0.00298579666 -0.00677412376
v 0.00118080759 -0.000334203534 -0.00669669267
v 0.00118080759 0.00298579666 -0.00669669267
v 0.00175996951 -0.000334203534 -0.00656829542
v 0.00175996951 0.00298579666 -0.00656829542
v 0.00232573692 -0.000334203534 -0.00638990989
v 0.00232573692 0.00298579666 -0.00638990989
v 0.00287380419 -0.000334203534 -0.00616289303
v 0.00287380419 0.00298579666 -0.00616289303
v 0.00340000005 -0.000334203534 -0.0058889729
v 0.00340000005 0.00298579666 -0.0058889729
v 0.0039003198 -0.000334203534 -0.0055702338
v 0.0039003198 0.00298579666 -0.0055702338
v 0.00437095575 -0.000334203534 -0.0052091023
v 0.00437095575 0.00298579666 -0.0052091023
v 0.00480832625 -0.000334203534 -0.00480832625
v 0.00480832625 0.00298579666 -0.00480832625
v 0.0052091023 -0.000334203534 -0.00437095575
v 0.0052091023 0.00298579666 -0.00437095575
v 0.0055702338 -0.000334203534 -0.0039003198
v 0.0055702338 0.00298579666 -0.0039003198
v 0.0058889729 -0.000334203534 -0.00340000005
v 0.0058889729 0.00298579666 -0.00340000005
v 0.00616289303 -0.000334203534 -0.00287380419
v 0.00616289303 0.00298579666 -0.00287380419
v 0.00638990989 -0.000334203534 -0.00232573692
v 0.00638990989 0.00298579666 -0.00232573692
v 0.00656829542 -0.000334203534 -0.00175996951
v 0.00656829542 0.00298579666 -0.00175996951
v 0.00669669267 -0.000334203534 -0.00118080759
v 0.00669669267 0.00298579666 -0.00118080759
v 0.00677412376 -0.000334203534 -0.000592659053
v 0.00677412376 0.00298579666 -0.000592659053
v 0.00680000009 -0.000334203534 -1.54243407e-18
v 0.00423499988 -0.000334203534 0.00733523536
v 0.00357957673 -0.000334203534 0.00767642679
v 0.00289691053 -0.000334203534 0.00795919634
v 0.00219219737 -0.000334203534 0.00818139128
v 0.00147080002 -0.000334203534 0.00834132172
v 0.000738209113 -0.000334203534 0.00843776949
v 6.28201075e-19 -0.000334203534 0.00846999977
v -0.000738209113 -0.000334203534 0.00843776949
v -0.00147080002 -0.000334203534 0.00834132172
v -0.00219219737 -0.000334203534 0.00818139128
v -0.00289691053 -0.000334203534 0.00795919634
v -0.00357957673 -0.000334203534 0.00767642679
v -0.00423499988 -0.000334203534 0.00733523536
v -0.00485819252 -0.000334203534 0.00693821767
v -0.00544441119 -0.000334203534 0.00648839632
v -0.00598919438 -0.000334203534 0.00598919438
v -0.00648839632 -0.000334203534 0.00544441119
v -0.00693821767 -0.000334203534 0.00485819252
v -0.00733523536 -0.000334203534 0.00423499988
v -0.00767642679 -0.000334203534 0.00357957673
v -0.00795919634 -0.000334203534 0.00289691053
v -0.00818139128 -0.000334203534 0.00219219737
v -0.00834132172 -0.000334203534 0.00147080002
v -0.00843776949 -0.000334203534 0.000738209113
v -0.00846999977 -0.000334203534 4.92179702e-18
v -0.00843776949 -0.000334203534 -0.000738209113
v -0.00834132172 -0.000334203534 -0.00147080002
v -0.00818139128 -0.000334203534 -0.00219219737
v -0.00795919634 -0.000334203534 -0.00289691053
v -0.00767642679 -0.000334203534 -0.00357957673
v -0.00733523536 -0.000334203534 -0.00423499988
v -0.00693821767 -0.000334203534 -0.00485819252
v -0.00648839632 -0.000334203534 -0.00544441119
v -0.00598919438 -0.000334203534 -0.00598919438
v -0.00544441119 -0.000334203534 -0.00648839632
v -0.00485819252 -0.000334203534 -0.00693821767
v -0.00423499988 -0.000334203534 -0.00733523536
v -0.00357957673 -0.000334203534 -0.00767642679
v -0.00289691053 -0.000334203534 -0.00795919634
v -0.00219219737 -0.000334203534 -0.00818139128
v -0.00147080002 -0.000334203534 -0.00834132172
v -0.000738209113 -0.000334203534 -0.00843776949
v -1.08499395e-17 -0.000334203534 -0.00846999977
v 0.000738209113 -0.000334203534 -0.00843776949
v 0.00147080002 -0.000334203534 -0.00834132172
v 0.00219219737 -0.000334203534 -0.00818139128
v 0.00289691053 -0.000334203534 -0.00795919634
v 0.00357957673 -0.000334203534 -0.00767642679
v 0.00423499988 -0.000334203534 -0.00733523536
v 0.00485819252 -0.000334203534 -0.00693821767
v 0.00544441119 -0.000334203534 -0.00648839632
v 0.00598919438 -0.000334203534 -0.00598919438
v 0.00648839632 -0.000334203534 -0.00544441119
v 0.00693821767 -0.000334203534 -0.00485819252
v 0.00733523536 -0.000334203534 -0.00423499988
v 0.00767642679 -0.000334203534 -0.00357957673
v 0.00795919634 -0.000334203534 -0.00289691053
v 0.00818139128 -0.000334203534 -0.00219219737
v 0.00834132172 -0.000334203534 -0.00147080002
v 0.00843776949 -0.000334203534 -0.000738209113
v 0.00846999977 -0.000334203534 1.23085638e-19
v 0.00843776949 -0.000334203534 0.000738209113
v 0.00834132172 -0.000334203534 0.00147080002
v 0.00818139128 -0.000334203534 0.00219219737
v 0.00795919634 -0.000334203534 0.00289691053
v 0.00767642679 -0.000334203534 0.00357957673
v 0.00733523536 -0.000334203534 0.00423499988
v 0.00693821767 -0.000334203534 0.00485819252
v 0.00648839632 -0.000334203534 0.00544441119
v 0.00598919438 -0.000334203534 0.00598919438
v 0.00544441119 -0.000334203534 0.00648839632
v 0.00485819252 -0.000334203534 0.00693821767
v 0.00843776949 -0.00603420334 0.000738209113
v 0.00834132172 -0.00603420334 0.00147080002
v 0.00818139128 -0.00603420334 0.00219219737
v 0.00795919634 -0.00603420334 0.00289691053
v 0.00767642679 -0.00603420334 0.00357957673
v 0.00733523536 -0.00603420334 0.00423499988
v 0.00693821767 -0.00603420334 0.00485819252
v 0.00648839632 -0.00603420334 0.00544441119
v 0.00598919438 -0.00603420334 0.00598919438
v 0.00544441119 -0.00603420334 0.00648839632
v 0.00485819252 -0.00603420334 0.00693821767
v 0.00423499988 -0.00603420334 0.00733523536
v 0.00357957673 -0.00603420334 0.00767642679
v 0.00289691053 -0.00603420334 0.00795919634
v 0.00219219737 -0.00603420334 0.00818139128
v 0.00147080002 -0.00603420334 0.00834132172
v 0.000738209113 -0.00603420334 0.00843776949
v 6.28201075e-19 -0.00603420334 0.00846999977
v -0.000738209113 -0.00603420334 0.00843776949
v -0.00147080002 -0.00603420334 0.00834132172
v -0.00219219737 -0.00603420334 0.00818139128
v -0.00289691053 -0.00603420334 0.00795919634
v -0.00357957673 -0.00603420334 0.00767642679
v -0.00423499988 -0.00603420334 0.00733523536
v -0.00485819252 -0.00603420334 0.00693821767
v -0.00544441119 -0.00603420334 0.00648839632
v -0.00598919438 -0.00603420334 0.00598919438
v -0.00648839632 -0.00603420334 0.00544441119
v -0.00693821767 -0.00603420334 0.00485819252
v -0.00733523536 -0.00603420334 0.00423499988
v -0.00767642679 -0.00603420334 0.00357957673
v -0.00795919634 -0.00603420334 0.00289691053
v -0.00818139128 -0.00603420334 0.00219219737
v -0.00834132172 -0.00603420334 0.00147080002
v -0.00843776949 -0.00603420334 0.000738209113
v -0.00846999977 -0.00603420334 4.92179702e-18
v -0.00843776949 -0.00603420334 -0.000738209113
v -0.00834132172 -0.00603420334 -0.00147080002
v -0.00818139128 -0.00603420334 -0.00219219737
v -0.00795919634 -0.00603420334 -0.00289691053
v -0.00767642679 -0.00603420334 -0.00357957673
v -0.00733523536 -0.00603420334 -0.00423499988
v -0.00693821767 -0.00603420334 -0.00485819252
v -0.00648839632 -0.00603420334 -0.00544441119
v -0.00598919438 -0.00603420334 -0.00598919438
v -0.00544441119 -0.00603420334 -0.00648839632
v -0.00485819252 -0.00603420334 -0.00693821767
v -0.00423499988 -0.00603420334 -0.00733523536
v -0.00357957673 -0.00603420334 -0.00767642679
v -0.00289691053 -0.00603420334 -0.00795919634
v -0.00219219737 -0.00603420334 -0.00818139128
v -0.00147080002 -0.00603420334 -0.00834132172
v -0.000738209113 -0.00603420334 -0.00843776949
v -1.08499395e-17 -0.00603420334 -0.00846999977
v 0.000738209113 -0.00603420334 -0.00843776949
v 0.00147080002 -0.00603420334 -0.00834132172
v 0.00219219737 -0.00603420334 -0.00818139128
v 0.00289691053 -0.00603420334 -0.00795919634
v 0.00357957673 -0.00603420334 -0.00767642679
v 0.00423499988 -0.00603420334 -0.00733523536
v 0.00485819252 -0.00603420334 -0.00693821767
v 0.00544441119 -0.00603420334 -0.00648839632
v 0.00598919438 -0.00603420334 -0.00598919438
v 0.00648839632 -0.00603420334 -0.00544441119
v 0.00693821767 -0.00603420334 -0.00485819252
v 0.00733523536 -0.00603420334 -0.00423499988
v 0.00767642679 -0.00603420334 -0.00357957673
v 0.00795919634 -0.00603420334 -0.00289691053
v 0.00818139128 -0.00603420334 -0.00219219737
v 0.00834132172 -0.00603420334 -0.00147080002
v 0.00843776949 -0.00603420334 -0.000738209113
v 0.00846999977 -0.00603420334 -1.95146589e-18
v -1.75575889e-18 0.0103857964 1.23085638e-19
f 1 3 2
f 4 1 2
f 1 6 5
f 7 1 5
f 3 1 7
f 1 9 8
f 10 1 8
f 6 1 10
f 1 12 11
f 13 1 11
f 9 1 13
f 1 15 14
f 16 1 14
f 12 1 16
f 1 18 17
f 19 1 17
f 15 1 19
f 1 21 20
f 22 1 20
f 18 1 22
f 1 24 23
f 25 1 23
f 21 1 25
f 1 27 26
f 28 1 26
f 24 1 28
f 1 30 29
f 31 1 29
f 27 1 31
f 1 33 32
f 34 1 32
f 30 1 34
f 1 36 35
f 37 1 35
f 33 1 37
f 1 39 38
f 40 1 38
f 36 1 40
f 1 42 41
f 43 1 41
f 39 1 43
f 1 45 44
f 46 1 44
f 42 1 46
f 1 48 47
f 49 1 47
f 45 1 49
f 1 51 50
f 52 1 50
f 48 1 52
f 1 54 53
f 55 1 53
f 51 1 55
f 1 57 56
f 58 1 56
f 54 1 58
f 1 60 59
f 61 1 59
f 57 1 61
f 1 63 62
f 64 1 62
f 60 1 64
f 1 66 65
f 67 1 65
f 63 1 67
f 1 69 68
f 70 1 68
f 66 1 70
f 1 72 71
f 73 1 71
f 69 1 73
f 72 1 4
f 4 2 74
f 74 2 75
f 2 3 75
f 75 3 76
f 3 7 76
f 76 7 77
f 7 5 77
f 77 5 78
f 5 6 78
f 78 6 79
f 6 10 79
f 79 10 80
f 10 8 80
f 80 8 81
f 8 9 81
f 81 9 82
f 9 13 82
f 82 13 83
f 13 11 83
f 83 11 84
f 11 12 84
f 84 12 85
f 12 16 85
f 85 16 86
f 16 14 86
f 86 14 87
f 14 15 87
f 87 15 88
f 15 19 88
f 88 19 89
f 19 17 89
f 89 17 90
f 17 18 90
f 90 18 91
f 18 22 91
f 91 22 92
f 22 20 92
f 92 20 93
f 20 21 93
f 93 21 94
f 21 25 94
f 94 25 95
f 25 23 95
f 95 23 96
f 23 24 96
f 96 24 97
f 24 28 97
f 97 28 98
f 28 26 98
f 98 26 99
f 26 27 99
f 99 27 100
f 27 31 100
f 100 31 101
f 31 29 101
f 101 29 102
f 29 30 102
f 102 30 103
f 30 34 103
f 103 34 104
f 34 32 104
f 104 32 105
f 32 33 105
f 105 33 106
f 33 37 106
f 106 37 107
f 37 35 107
f 107 35 108
f 35 36 108
f 108 36 109
f 36 40 109
f 109 40 110
f 40 38 110
f 110 38 111
f 38 39 111
f 111 39 112
f 39 43 112
f 112 43 113
f 43 41 113
f 113 41 114
f 41 42 114
f 114 42 115
f 42 46 115
f 115 46 116
f 46 44 116
f 116 44 117
f 44 45 117
f 117 45 118
f 45 49 118
f 118 49 119
f 49 47 119
f 119 47 120
f 47 48 120
f 120 48 121
f 48 52 121
f 121 52 122
f 52 50 122
f 122 50 123
f 50 51 123
f 123 51 124
f 51 55 124
f 124 55 125
f 55 53 125
f 125 53 126
f 53 54 126
f 126 54 127
f 54 58 127
f 127 58 128
f 58 56 128
f 128 56 129
f 56 57 129
f 129 57 130
f 57 61 130
f 130 61 131
f 61 59 131
f 131 59 132
f 59 60 132
f 132 60 133
f 60 64 133
f 133 64 134
f 64 62 134
f 134 62 135
f 62 63 135
f 135 63 136
f 63 67 136
f 136 67 137
f 67 65 137
f 137 65 138
f 65 66 138
f 138 66 139
f 66 70 139
f 139 70 140
f 70 68 140
f 140 68 141
f 68 69 141
f 141 69 142
f 69 73 142
f 142 73 143
f 73 71 143
f 143 71 144
f 71 72 144
f 144 72 145
f 72 4 145
f 145 4 74
f 145 74 146
f 146 74 147
f 74 75 147
f 147 75 148
f 75 76 148
f 148 76 149
f 76 77 149
f 149 77 150
f 77 78 150
f 150 78 151
f 78 79 151
f 151 79 152
f 79 80 152
f 152 80 153
f 80 81 153
f 153 81 154
f 81 82 154
f 154 82 155
f 82 83 155
f 155 83 156
f 83 84 156
f 156 84 157
f 84 85 157
f 157 85 158
f 85 86 158
f 158 86 159
f 86 87 159
f 159 87 160
f 87 88 160
f 160 88 161
f 88 89 161
f 161 89 162
f 89 90 162
f 162 90 163
f 90 91 163
f 163 91 164
f 91 92 164
f 164 92 165
f 92 93 165
f 165 93 166
f 93 94 166
f 166 94 167
f 94 95 167
f 167 95 168
f 95 96 168
f 168 96 169
f 96 97 169
f 169 97 170
f 97 98 170
f 170 98 171
f 98 99 171
f 171 99 172
f 99 100 172
f 172 100 173
f 100 101 173
f 173 101 174
f 101 102 174
f 174 102 175
f 102 103 175
f 175 103 176
f 103 104 176
f 176 104 177
f 104 105 177
f 177 105 178
f 105 106 178
f 178 106 179
f 106 107 179
f 179 107 180
f 107 108 180
f 180 108 181
f 108 109 181
f 181 109 182
f 109 110 182
f 182 110 183
f 110 111 183
f 183 111 184
f 111 112 184
f 184 112 185
f 112 113 185
f 185 113 186
f 113 114 186
f 186 114 187
f 114 115 187
f 187 115 188
f 115 116 188
f 188 116 189
f 116 117 189
f 189 117 190
f 117 118 190
f 190 118 191
f 118 119 191
f 191 119 192
f 119 120 192
f 192 120 193
f 120 121 193
f 193 121 194
f 121 122 194
f 194 122 195
f 122 123 195
f 195 123 196
f 123 124 196
f 196 124 197
f 124 125 197
f 197 125 198
f 125 126 198
f 198 126 199
f 126 127 199
f 199 127 200
f 127 128 200
f 200 128 201
f 128 129 201
f 201 129 202
f 129 130 202
f 202 130 203
f 130 131 203
f 203 131 204
f 131 132 204
f 204 132 205
f 132 133 205
f 205 133 206
f 133 134 206
f 206 134 207
f 134 135 207
f 207 135 208
f 135 136 208
f 208 136 209
f 136 137 209
f 209 137 210
f 137 138 210
f 210 138 211
f 138 139 211
f 211 139 212
f 139 140 212
f 212 140 213
f 140 141 213
f 213 141 214
f 141 142 214
f 214 142 215
f 142 143 215
f 215 143 216
f 143 144 216
f 216 144 217
f 144 145 217
f 217 145 146
f 217 146 218
f 218 146 219
f 146 147 219
f 219 147 220
f 147 148 220
f 220 148 221
f 148 149 221
f 221 149 222
f 149 150 222
f 222 150 223
f 150 151 223
f 223 151 224
f 151 152 224
f 224 152 225
f 152 153 225
f 225 153 226
f 153 154 226
f 226 154 227
f 154 155 227
f 227 155 228
f 155 156 228
f 228 156 229
f 156 157 229
f 229 157 230
f 157 158 230
f 230 158 231
f 158 159 231
f 231 159 232
f 159 160 232
f 232 160 233
f 160 161 233
f 233 161 234
f 161 162 234
f 234 162 235
f 162 163 235
f 235 163 236
f 163 164 236
f 236 164 237
f 164 165 237
f 237 165 238
f 165 166 238
f 238 166 239
f 166 167 239
f 239 167 240
f 167 168 240
f 240 168 241
f 168 169 241
f 241 169 242
f 169 170 242
f 242 170 243
f 170 171 243
f 243 171 244
f 171 172 244
f 244 172 245
f 172 173 245
f 245 173 246
f 173 174 246
f 246 174 247
f 174 175 247
f 247 175 248
f 175 176 248
f 248 176 249
f 176 177 249
f 249 177 250
f 177 178 250
f 250 178 251
f 178 179 251
f 251 179 252
f 179 180 252
f 252 180 253
f 180 181 253
f 253 181 254
f 181 182 254
f 254 182 255
f 182 183 255
f 255 183 256
f 183 184 256
f 256 184 257
f 184 185 257
f 257 185 258
f 185 186 258
f 258 186 259
f 186 187 259
f 259 187 260
f 187 188 260
f 260 188 261
f 188 189 261
f 261 189 262
f 189 190 262
f 262 190 263
f 190 191 263
f 263 191 264
f 191 192 264
f 264 192 265
f 192 193 265
f 265 193 266
f 193 194 266
f 266 194 267
f 194 195 267
f 267 195 268
f 195 196 268
f 268 196 269
f 196 197 269
f 269 197 270
f 197 198 270
f 270 198 271
f 198 199 271
f 271 199 272
f 199 200 272
f 272 200 273
f 200 201 273
f 273 201 274
f 201 202 274
f 274 202 275
f 202 203 275
f 275 203 276
f 203 204 276
f 276 204 277
f 204 205 277
f 277 205 278
f 205 206 278
f 278 206 279
f 206 207 279
f 279 207 280
f 207 208 280
f 280 208 281
f 208 209 281
f 281 209 282
f 209 210 282
f 282 210 283
f 210 211 283
f 283 211 284
f 211 212 284
f 284 212 285
f 212 213 285
f 285 213 286
f 213 214 286
f 286 214 287
f 214 215 287
f 287 215 288
f 215 216 288
f 288 216 289
f 216 217 289
f 289 217 218
f 289 218 290
f 290 218 291
f 218 219 291
f 291 219 292
f 219 220 292
f 292 220 293
f 220 221 293
f 293 221 294
f 221 222 294
f 294 222 295
f 222 223 295
f 295 223 296
f 223 224 296
f 296 224 297
f 224 225 297
f 297 225 298
f 225 226 298
f 298 226 299
f 226 227 299
f 299 227 300
f 227 228 300
f 300 228 301
f 228 229 301
f 301 229 302
f 229 230 302
f 302 230 303
f 230 231 303
f 303 231 304
f 231 232 304
f 304 232 305
f 232 233 305
f 305 233 306
f 233 234 306
f 306 234 307
f 234 235 307
f 307 235 308
f 235 236 308
f 308 236 309
f 236 237 309
f 309 237 310
f 237 238 310
f 310 238 311
f 238 239 311
f 311 239 312
f 239 240 312
f 312 240 313
f 240 241 313
f 313 241 314
f 241 242 314
f 314 242 315
f 242 243 315
f 315 243 316
f 243 244 316
f 316 244 317
f 244 245 317
f 317 245 318
f 245 246 318
f 318 246 319
f 246 247 319
f 319 247 320
f 247 248 320
f 320 248 321
f 248 249 321
f 321 249 322
f 249 250 322
f 322 250 323
f 250 251 323
f 323 251 324
f 251 252 324
f 324 252 325
f 252 253 325
f 325 253 326
f 253 254 326
f 326 254 327
f 254 255 327
f 327 255 328
f 255 256 328
f 328 256 329
f 256 257 329
f 329 257 330
f 257 258 330
f 330 258 331
f 258 259 331
f 331 259 332
f 259 260 332
f 332 260 333
f 260 261 333
f 333 261 334
f 261 262 334
f 334 262 335
f 262 263 335
f 335 263 336
f 263 264 336
f 336 264 337
f 264 265 337
f 337 265 338
f 265 266 338
f 338 266 339
f 266 267 339
f 339 267 340
f 267 268 340
f 340 268 341
f 268 269 341
f 341 269 342
f 269 270 342
f 342 270 343
f 270 271 343
f 343 271 344
f 271 272 344
f 344 272 345
f 272 273 345
f 345 273 346
f 273 274 346
f 346 274 347
f 274 275 347
f 347 275 348
f 275 276 348
f 348 276 349
f 276 277 349
f 349 277 350
f 277 278 350
f 350 278 351
f 278 279 351
f 351 279 352
f 279 280 352
f 352 280 353
f 280 281 353
f 353 281 354
f 281 282 354
f 354 282 355
f 282 283 355
f 355 283 356
f 283 284 356
f 356 284 357
f 284 285 357
f 357 285 358
f 285 286 358
f 358 286 359
f 286 287 359
f 359 287 360
f 287 288 360
f 360 288 361
f 288 289 361
f 361 289 290
f 361 290 362
f 362 290 363
f 290 291 363
f 363 291 364
f 291 292 364
f 364 292 365
f 292 293 365
f 365 293 366
f 293 294 366
f 366 294 367
f 294 295 367
f 367 295 368
f 295 296 368
f 368 296 369
f 296 297 369
f 369 297 370
f 297 298 370
f 370 298 371
f 298 299 371
f 371 299 372
f 299 300 372
f 372 300 373
f 300 301 373
f 373 301 374
f 301 302 374
f 374 302 375
f 302 303 375
f 375 303 376
f 303 304 376
f 376 304 377
f 304 305 377
f 377 305 378
f 305 306 378
f 378 306 379
f 306 307 379
f 379 307 380
f 307 308 380
f 380 308 381
f 308 309 381
f 381 309 382
f 309 310 382
f 382 310 383
f 310 311 383
f 383 311 384
f 311 312 384
f 384 312 385
f 312 313 385
f 385 313 386
f 313 314 386
f 386 314 387
f 314 315 387
f 387 315 388
f 315 316 388
f 388 316 389
f 316 317 389
f 389 317 390
f 317 318 390
f 390 318 391
f 318 319 391
f 391 319 392
f 319 320 392
f 392 320 393
f 320 321 393
f 393 321 394
f 321 322 394
f 394 322 395
f 322 323 395
f 395 323 396
f 323 324 396
f 396 324 397
f 324 325 397
f 397 325 398
f 325 326 398
f 398 326 399
f 326 327 399
f 399 327 400
f 327 328 400
f 400 328 401
f 328 329 401
f 401 329 402
f 329 330 402
f 402 330 403
f 330 331 403
f 403 331 404
f 331 332 404
f 404 332 405
f 332 333 405
f 405 333 406
f 333 334 406
f 406 334 407
f 334 335 407
f 407 335 408
f 335 336 408
f 408 336 409
f 336 337 409
f 409 337 410
f 337 338 410
f 410 338 411
f 338 339 411
f 411 339 412
f 339 340 412
f 412 340 413
f 340 341 413
f 413 341 414
f 341 342 414
f 414 342 415
f 342 343 415
f 415 343 416
f 343 344 416
f 416 344 417
f 344 345 417
f 417 345 418
f 345 346 418
f 418 346 419
f 346 347 419
f 419 347 420
f 347 348 420
f 420 348 421
f 348 349 421
f 421 349 422
f 349 350 422
f 422 350 423
f 350 351 423
f 423 351 424
f 351 352 424
f 424 352 425
f 352 353 425
f 425 353 426
f 353 354 426
f 426 354 427
f 354 355 427
f 427 355 428
f 355 356 428
f 428 356 429
f 356 357 429
f 429 357 430
f 357 358 430
f 430 358 431
f 358 359 431
f 431 359 432
f 359 360 432
f 432 360 433
f 360 361 433
f 433 361 362
f 433 362 434
f 434 362 435
f 362 363 435
f 435 363 436
f 363 364 436
f 436 364 437
f 364 365 437
f 437 365 438
f 365 366 438
f 438 366 439
f 366 367 439
f 439 367 440
f 367 368 440
f 440 368 441
f 368 369 441
f 441 369 442
f 369 370 442
f 442 370 443
f 370 371 443
f 443 371 444
f 371 372 444
f 444 372 445
f 372 373 445
f 445 373 446
f 373 374 446
f 446 374 447
f 374 375 447
f 447 375 448
f 375 376 448
f 448 376 449
f 376 377 449
f 449 377 450
f 377 378 450
f 450 378 451
f 378 379 451
f 451 379 452
f 379 380 452
f 452 380 453
f 380 381 453
f 453 381 454
f 381 382 454
f 454 382 455
f 382 383 455
f 455 383 456
f 383 384 456
f 456 384 457
f 384 385 457
f 457 385 458
f 385 386 458
f 458 386 459
f 386 387 459
f 459 387 460
f 387 388 460
f 460 388 461
f 388 389 461
f 461 389 462
f 389 390 462
f 462 390 463
f 390 391 463
f 463 391 464
f 391 392 464
f 464 392 465
f 392 393 465
f 465 393 466
f 393 394 466
f 466 394 467
f 394 395 467
f 467 395 468
f 395 396 468
f 468 396 469
f 396 397 469
f 469 397 470
f 397 398 470
f 470 398 471
f 398 399 471
f 471 399 472
f 399 400 472
f 472 400 473
f 400 401 473
f 473 401 474
f 401 402 474
f 474 402 475
f 402 403 475
f 475 403 476
f 403 404 476
f 476 404 477
f 404 405 477
f 477 405 478
f 405 406 478
f 478 406 479
f 406 407 479
f 479 407 480
f 407 408 480
f 480 408 481
f 408 409 481
f 481 409 482
f 409 410 482
f 482 410 483
f 410 411 483
f 483 411 484
f 411 412 484
f 484 412 485
f 412 413 485
f 485 413 486
f 413 414 486
f 486 414 487
f 414 415 487
f 487 415 488
f 415 416 488
f 488 416 489
f 416 417 489
f 489 417 490
f 417 418 490
f 490 418 491
f 418 419 491
f 491 419 492
f 419 420 492
f 492 420 493
f 420 421 493
f 493 421 494
f 421 422 494
f 494 422 495
f 422 423 495
f 495 423 496
f 423 424 496
f 496 424 497
f 424 425 497
f 497 425 498
f 425 426 498
f 498 426 499
f 426 427 499
f 499 427 500
f 427 428 500
f 500 428 501
f 428 429 501
f 501 429 502
f 429 430 502
f 502 430 503
f 430 431 503
f 503 431 504
f 431 432 504
f 504 432 505
f 432 433 505
f 505 433 434
f 506 508 507
f 507 508 509
f 508 510 509
f 509 510 511
f 510 512 511
f 511 512 513
f 512 514 513
f 513 514 515
f 514 516 515
f 515 516 517
f 516 518 517
f 517 518 519
f 518 520 519
f 519 520 521
f 520 522 521
f 521 522 523
f 522 524 523
f 523 524 525
f 524 526 525
f 525 526 527
f 526 528 527
f 527 528 529
f 528 530 529
f 529 530 531
f 530 532 531
f 531 532 533
f 532 534 533
f 533 534 535
f 534 536 535
f 535 536 537
f 536 538 537
f 537 538 539
f 538 540 539
f 539 540 541
f 540 542 541
f 541 542 543
f 542 544 543
f 543 544 545
f 544 546 545
f 545 546 547
f 546 548 547
f 547 548 549
f 548 550 549
f 549 550 551
f 550 552 551
f 551 552 553
f 552 554 553
f 553 554 555
f 554 556 555
f 555 556 557
f 556 558 557
f 557 558 559
f 558 560 559
f 559 560 561
f 560 562 561
f 561 562 563
f 562 564 563
f 563 564 565
f 564 566 565
f 565 566 567
f 566 568 567
f 567 568 569
f 568 570 569
f 569 570 571
f 570 572 571
f 571 572 573
f 572 574 573
f 573 574 575
f 574 576 575
f 575 576 577
f 576 578 577
f 577 578 579
f 578 580 579
f 579 580 581
f 580 582 581
f 581 582 583
f 582 584 583
f 583 584 585
f 584 586 585
f 585 586 587
f 586 588 587
f 587 588 589
f 588 590 589
f 589 590 591
f 590 592 591
f 591 592 593
f 592 594 593
f 593 594 595
f 594 596 595
f 595 596 597
f 596 598 597
f 597 598 599
f 598 600 599
f 599 600 601
f 600 602 601
f 601 602 603
f 602 604 603
f 603 604 605
f 604 606 605
f 605 606 607
f 606 608 607
f 607 608 609
f 608 610 609
f 609 610 611
f 610 612 611
f 611 612 613
f 612 614 613
f 613 614 615
f 614 616 615
f 615 616 617
f 616 618 617
f 617 618 619
f 618 620 619
f 619 620 621
f 620 622 621
f 621 622 623
f 622 624 623
f 623 624 625
f 624 626 625
f 625 626 627
f 626 628 627
f 627 628 629
f 628 630 629
f 629 630 631
f 630 632 631
f 631 632 633
f 632 634 633
f 633 634 635
f 634 636 635
f 635 636 637
f 636 638 637
f 637 638 639
f 638 640 639
f 639 640 641
f 640 642 641
f 641 642 643
f 642 644 643
f 643 644 645
f 644 646 645
f 645 646 647
f 646 648 647
f 647 648 649
f 648 506 649
f 649 506 507
f 650 652 651
f 651 652 653
f 652 654 653
f 653 654 655
f 654 656 655
f 655 656 657
f 656 658 657
f 657 658 659
f 658 660 659
f 659 660 661
f 660 662 661
f 661 662 663
f 662 664 663
f 663 664 665
f 664 666 665
f 665 666 667
f 666 668 667
f 667 668 669
f 668 670 669
f 669 670 671
f 670 672 671
f 671 672 673
f 672 674 673
f 673 674 675
f 674 676 675
f 675 676 677
f 676 678 677
f 677 678 679
f 678 680 679
f 679 680 681
f 680 682 681
f 681 682 683
f 682 684 683
f 683 684 685
f 684 686 685
f 685 686 687
f 686 688 687
f 687 688 689
f 688 690 689
f 689 690 691
f 690 692 691
f 691 692 693
f 692 694 693
f 693 694 695
f 694 696 695
f 695 696 697
f 696 698 697
f 697 698 699
f 698 700 699
f 699 700 701
f 700 702 701
f 701 702 703
f 702 704 703
f 703 704 705
f 704 706 705
f 705 706 707
f 706 708 707
f 707 708 709
f 708 710 709
f 709 710 711
f 710 712 711
f 711 712 713
f 712 714 713
f 713 714 715
f 714 716 715
f 715 716 717
f 716 718 717
f 717 718 719
f 718 720 719
f 719 720 721
f 720 722 721
f 721 722 723
f 722 724 723
f 723 724 725
f 724 726 725
f 725 726 727
f 726 728 727
f 727 728 729
f 728 730 729
f 729 730 731
f 730 732 731
f 731 732 733
f 732 734 733
f 733 734 735
f 734 736 735
f 735 736 737
f 736 738 737
f 737 738 739
f 738 740 739
f 739 740 741
f 740 742 741
f 741 742 743
f 742 744 743
f 743 744 745
f 744 746 745
f 745 746 747
f 746 748 747
f 747 748 749
f 748 750 749
f 749 750 751
f 750 752 751
f 751 752 753
f 752 754 753
f 753 754 755
f 754 756 755
f 755 756 757
f 756 758 757
f 757 758 759
f 758 760 759
f 759 760 761
f 760 762 761
f 761 762 763
f 762 764 763
f 763 764 765
f 764 766 765
f 765 766 767
f 766 768 767
f 767 768 769
f 768 770 769
f 769 770 771
f 770 772 771
f 771 772 773
f 772 774 773
f 773 774 775
f 774 776 775
f 775 776 777
f 776 778 777
f 777 778 779
f 778 780 779
f 779 780 781
f 780 782 781
f 781 782 783
f 782 784 783
f 783 784 785
f 784 786 785
f 785 786 787
f 786 788 787
f 787 788 789
f 788 790 789
f 789 790 791
f 790 792 791
f 791 792 793
f 792 650 793
f 793 650 651
f 523 525 668
f 668 525 670
f 525 527 670
f 670 527 672
f 527 529 672
f 672 529 674
f 529 531 674
f 674 531 676
f 531 533 676
f 676 533 678
f 533 535 678
f 678 535 680
f 535 537 680
f 680 537 682
f 537 539 682
f 682 539 684
f 539 541 684
f 684 541 686
f 541 543 686
f 686 543 688
f 543 545 688
f 688 545 690
f 545 547 690
f 690 547 692
f 547 549 692
f 692 549 694
f 549 551 694
f 694 551 696
f 551 553 696
f 696 553 698
f 553 555 698
f 698 555 700
f 555 557 700
f 700 557 702
f 557 559 702
f 702 559 704
f 559 561 704
f 704 561 706
f 561 563 706
f 706 563 708
f 563 565 708
f 708 565 710
f 565 567 710
f 710 567 712
f 567 569 712
f 712 569 714
f 569 571 714
f 714 571 716
f 571 573 716
f 716 573 718
f 573 575 718
f 718 575 720
f 575 577 720
f 720 577 722
f 577 579 722
f 722 579 724
f 579 581 724
f 724 581 726
f 581 583 726
f 726 583 728
f 583 585 728
f 728 585 730
f 585 587 730
f 730 587 732
f 587 589 732
f 732 589 734
f 589 591 734
f 734 591 736
f 591 593 736
f 736 593 738
f 593 595 738
f 738 595 740
f 595 597 740
f 740 597 742
f 597 599 742
f 742 599 744
f 599 601 744
f 744 601 746
f 601 603 746
f 746 603 748
f 603 605 748
f 748 605 750
f 605 607 750
f 750 607 752
f 607 609 752
f 752 609 754
f 609 611 754
f 754 611 756
f 611 613 756
f 756 613 758
f 613 615 758
f 758 615 760
f 615 617 760
f 760 617 762
f 617 619 762
f 762 619 764
f 619 621 764
f 764 621 766
f 621 623 766
f 766 623 768
f 623 625 768
f 768 625 770
f 625 627 770
f 770 627 772
f 627 629 772
f 772 629 774
f 629 631 774
f 774 631 776
f 631 633 776
f 776 633 778
f 633 635 778
f 778 635 780
f 635 637 780
f 780 637 782
f 637 639 782
f 782 639 784
f 639 641 784
f 784 641 786
f 641 643 786
f 786 643 788
f 643 645 788
f 788 645 790
f 645 647 790
f 790 647 792
f 647 649 792
f 792 649 650
f 649 507 650
f 650 507 652
f 507 509 652
f 652 509 654
f 509 511 654
f 654 511 656
f 511 513 656
f 656 513 658
f 513 515 658
f 658 515 660
f 515 517 660
f 660 517 662
f 517 519 662
f 662 519 664
f 519 521 664
f 664 521 666
f 521 523 666
f 666 523 668
f 673 675 794
f 794 675 795
f 675 677 795
f 795 677 796
f 677 679 796
f 796 679 797
f 679 681 797
f 797 681 798
f 681 683 798
f 798 683 799
f 683 685 799
f 799 685 800
f 685 687 800
f 800 687 801
f 687 689 801
f 801 689 802
f 689 691 802
f 802 691 803
f 691 693 803
f 803 693 804
f 693 695 804
f 804 695 805
f 695 697 805
f 805 697 806
f 697 699 806
f 806 699 807
f 699 701 807
f 807 701 808
f 701 703 808
f 808 703 809
f 703 705 809
f 809 705 810
f 705 707 810
f 810 707 811
f 707 709 811
f 811 709 812
f 709 711 812
f 812 711 813
f 711 713 813
f 813 713 814
f 713 715 814
f 814 715 815
f 715 717 815
f 815 717 816
f 717 719 816
f 816 719 817
f 719 721 817
f 817 721 818
f 721 723 818
f 818 723 819
f 723 725 819
f 819 725 820
f 725 727 820
f 820 727 821
f 727 729 821
f 821 729 822
f 729 731 822
f 822 731 823
f 731 733 823
f 823 733 824
f 733 735 824
f 824 735 825
f 735 737 825
f 825 737 826
f 737 739 826
f 826 739 827
f 739 741 827
f 827 741 828
f 741 743 828
f 828 743 829
f 743 745 829
f 829 745 830
f 745 747 830
f 830 747 831
f 747 749 831
f 831 749 832
f 749 751 832
f 832 751 833
f 751 753 833
f 833 753 834
f 753 755 834
f 834 755 835
f 755 757 835
f 835 757 836
f 757 759 836
f 836 759 837
f 759 761 837
f 837 761 838
f 761 763 838
f 838 763 839
f 763 765 839
f 839 765 840
f 765 767 840
f 840 767 841
f 767 769 841
f 841 769 842
f 769 771 842
f 842 771 843
f 771 773 843
f 843 773 844
f 773 775 844
f 844 775 845
f 775 777 845
f 845 777 846
f 777 779 846
f 846 779 847
f 779 781 847
f 847 781 848
f 781 783 848
f 848 783 849
f 783 785 849
f 849 785 850
f 785 787 850
f 850 787 851
f 787 789 851
f 851 789 852
f 789 791 852
f 852 791 853
f 791 793 853
f 853 793 854
f 793 651 854
f 854 651 855
f 651 653 855
f 855 653 856
f 653 655 856
f 856 655 857
f 655 657 857
f 857 657 858
f 657 659 858
f 858 659 859
f 659 661 859
f 859 661 860
f 661 663 860
f 860 663 861
f 663 665 861
f 861 665 862
f 665 667 862
f 862 667 863
f 667 669 863
f 863 669 864
f 669 671 864
f 864 671 865
f 671 673 865
f 865 673 794
f 854 855 866
f 866 855 867
f 855 856 867
f 867 856 868
f 856 857 868
f 868 857 869
f 857 858 869
f 869 858 870
f 858 859 870
f 870 859 871
f 859 860 871
f 871 860 872
f 860 861 872
f 872 861 873
f 861 862 873
f 873 862 874
f 862 863 874
f 874 863 875
f 863 864 875
f 875 864 876
f 864 865 876
f 876 865 877
f 865 794 877
f 877 794 878
f 794 795 878
f 878 795 879
f 795 796 879
f 879 796 880
f 796 797 880
f 880 797 881
f 797 798 881
f 881 798 882
f 798 799 882
f 882 799 883
f 799 800 883
f 883 800 884
f 800 801 884
f 884 801 885
f 801 802 885
f 885 802 886
f 802 803 886
f 886 803 887
f 803 804 887
f 887 804 888
f 804 805 888
f 888 805 889
f 805 806 889
f 889 806 890
f 806 807 890
f 890 807 891
f 807 808 891
f 891 808 892
f 808 809 892
f 892 809 893
f 809 810 893
f 893 810 894
f 810 811 894
f 894 811 895
f 811 812 895
f 895 812 896
f 812 813 896
f 896 813 897
f 813 814 897
f 897 814 898
f 814 815 898
f 898 815 899
f 815 816 899
f 899 816 900
f 816 817 900
f 900 817 901
f 817 818 901
f 901 818 902
f 818 819 902
f 902 819 903
f 819 820 903
f 903 820 904
f 820 821 904
f 904 821 905
f 821 822 905
f 905 822 906
f 822 823 906
f 906 823 907
f 823 824 907
f 907 824 908
f 824 825 908
f 908 825 909
f 825 826 909
f 909 826 910
f 826 827 910
f 910 827 911
f 827 828 911
f 911 828 912
f 828 829 912
f 912 829 913
f 829 830 913
f 913 830 914
f 830 831 914
f 914 831 915
f 831 832 915
f 915 832 916
f 832 833 916
f 916 833 917
f 833 834 917
f 917 834 918
f 834 835 918
f 918 835 919
f 835 836 919
f 919 836 920
f 836 837 920
f 920 837 921
f 837 838 921
f 921 838 922
f 838 839 922
f 922 839 923
f 839 840 923
f 923 840 924
f 840 841 924
f 924 841 925
f 841 842 925
f 925 842 926
f 842 843 926
f 926 843 927
f 843 844 927
f 927 844 928
f 844 845 928
f 928 845 929
f 845 846 929
f 929 846 930
f 846 847 930
f 930 847 931
f 847 848 931
f 931 848 932
f 848 849 932
f 932 849 933
f 849 850 933
f 933 850 934
f 850 851 934
f 934 851 935
f 851 852 935
f 935 852 936
f 852 853 936
f 936 853 937
f 853 854 937
f 937 854 866
f 482 483 924
f 924 483 923
f 483 484 923
f 923 484 922
f 484 485 922
f 922 485 921
f 485 486 921
f 921 486 920
f 486 487 920
f 920 487 919
f 487 488 919
f 919 488 918
f 488 489 918
f 918 489 917
f 489 490 917
f 917 490 916
f 490 491 916
f 916 491 915
f 491 492 915
f 915 492 914
f 492 493 914
f 914 493 913
f 493 494 913
f 913 494 912
f 494 495 912
f 912 495 911
f 495 496 911
f 911 496 910
f 496 497 910
f 910 497 909
f 497 498 909
f 909 498 908
f 498 499 908
f 908 499 907
f 499 500 907
f 907 500 906
f 500 501 906
f 906 501 905
f 501 502 905
f 905 502 904
f 502 503 904
f 904 503 903
f 503 504 903
f 903 504 902
f 504 505 902
f 902 505 901
f 505 434 901
f 901 434 900
f 434 435 900
f 900 435 899
f 435 436 899
f 899 436 898
f 436 437 898
f 898 437 897
f 437 438 897
f 897 438 896
f 438 439 896
f 896 439 895
f 439 440 895
f 895 440 894
f 440 441 894
f 894 441 893
f 441 442 893
f 893 442 892
f 442 443 892
f 892 443 891
f 443 444 891
f 891 444 890
f 444 445 890
f 890 445 889
f 445 446 889
f 889 446 888
f 446 447 888
f 888 447 887
f 447 448 887
f 887 448 886
f 448 449 886
f 886 449 885
f 449 450 885
f 885 450 884
f 450 451 884
f 884 451 883
f 451 452 883
f 883 452 882
f 452 453 882
f 882 453 881
f 453 454 881
f 881 454 880
f 454 455 880
f 880 455 879
f 455 456 879
f 879 456 878
f 456 457 878
f 878 457 877
f 457 458 877
f 877 458 876
f 458 459 876
f 876 459 875
f 459 460 875
f 875 460 874
f 460 461 874
f 874 461 873
f 461 462 873
f 873 462 872
f 462 463 872
f 872 463 871
f 463 464 871
f 871 464 870
f 464 465 870
f 870 465 869
f 465 466 869
f 869 466 868
f 466 467 868
f 868 467 867
f 467 468 867
f 867 468 866
f 468 469 866
f 866 469 937
f 469 470 937
f 937 470 936
f 470 471 936
f 936 471 935
f 471 472 935
f 935 472 934
f 472 473 934
f 934 473 933
f 473 474 933
f 933 474 932
f 474 475 932
f 932 475 931
f 475 476 931
f 931 476 930
f 476 477 930
f 930 477 929
f 477 478 929
f 929 478 928
f 478 479 928
f 928 479 927
f 479 480 927
f 927 480 926
f 480 481 926
f 926 481 925
f 481 482 925
f 925 482 924
f 646 938 648
f 648 938 506
f 938 508 506
f 640 938 642
f 642 938 644
f 938 646 644
f 634 938 636
f 636 938 638
f 938 640 638
f 628 938 630
f 630 938 632
f 938 634 632
f 622 938 624
f 624 938 626
f 938 628 626
f 616 938 618
f 618 938 620
f 938 622 620
f 610 938 612
f 612 938 614
f 938 616 614
f 604 938 606
f 606 938 608
f 938 610 608
f 598 938 600
f 600 938 602
f 938 604 602
f 592 938 594
f 594 938 596
f 938 598 596
f 586 938 588
f 588 938 590
f 938 592 590
f 580 938 582
f 582 938 584
f 938 586 584
f 574 938 576
f 576 938 578
f 938 580 578
f 568 938 570
f 570 938 572
f 938 574 572
f 562 938 564
f 564 938 566
f 938 568 566
f 556 938 558
f 558 938 560
f 938 562 560
f 550 938 552
f 552 938 554
f 938 556 554
f 544 938 546
f 546 938 548
f 938 550 548
f 538 938 540
f 540 938 542
f 938 544 542
f 532 938 534
f 534 938 536
f 938 538 536
f 526 938 528
f 528 938 530
f 938 532 530
f 520 938 522
f 522 938 524
f 938 526 524
f 514 938 516
f 516 938 518
f 938 520 518
f 508 938 510
f 510 938 512
f 938 514 512
