# Generated MicroDuck mesh; do not edit by hand.
# Source: microduck_rl/src/mjlab_microduck/robot/microduck/assets/neck.stl
# Source repository: https://github.com/pollen-robotics/microduck_rl.git@5946fd9cdbc58956424420153e51975af3b30d77
# Source SHA-256: ee5d4cbc51f64c43cd9c15f82709be93b5bd3f080013726d1d39c329c85050b9
# License: Creative Commons BY-SA-NC; see ../Licenses/ATTRIBUTION.json.
# Modified: exported MuJoCo-compiled mesh geometry in Tuanjie coordinates.
# Transform: (x,y,z) -> (-y,z,x); triangle winding reversed.
o neck
v 0.00135437783 0.00789976958 -0.00100000005
v 0.00134999689 0.00799999852 -0.00100000005
v -0.0013543776 0.00789976958 -0.00100000005
v 0.00344202318 0.00865961146 -0.00100000005
v 0.00349592813 0.00857499894 -0.00100000005
v 0.00491421297 0.00941421371 -0.00100000005
v -0.00349592767 0.00857499894 -0.00100000005
v -0.00344202272 0.00865961146 -0.00100000005
v -0.0047855787 0.00953208935 -0.00100000005
v -0.00364562473 -0.00810023025 -0.00100000005
v -0.00364999822 -0.00800000038 -0.00100000005
v -0.00549999997 -0.00800000038 -0.00100000005
v -0.00364562473 -0.00789977144 -0.00100000005
v -0.00201399229 0.00904225279 -0.00100000005
v -0.00192500267 0.0089959288 -0.00100000005
v 0.00135437783 0.00810022745 -0.00100000005
v -0.00184038642 0.00894202385 -0.00100000005
v -0.00176079187 0.00888094958 -0.00100000005
v -0.00155797217 0.00865961146 -0.00100000005
v -0.00150407467 0.00857499894 -0.00100000005
v -0.00145774696 0.00848601107 -0.00100000005
v -0.00141935411 0.00839332212 -0.00100000005
v -0.00138918671 0.00829764176 -0.00100000005
v 0.00161904481 0.00873920415 -0.00100000005
v -0.00350000313 0.0100000007 -0.00100000005
v 0.0015579724 0.00865961146 -0.00100000005
v 0.00150406745 0.00857499894 -0.00100000005
v -0.00168682996 0.00881317165 -0.00100000005
v -0.00161905203 0.00873920415 -0.00100000005
v -0.00136746827 0.00819969457 -0.00100000005
v -0.0013543776 0.00810022745 -0.00100000005
v -0.00135000411 0.00799999852 -0.00100000005
v -0.00358064822 0.00839332212 -0.00100000005
v -0.00531261787 0.00884523522 -0.00100000005
v -0.00361081562 0.00829764176 -0.00100000005
v -0.00537938252 0.00868404005 -0.00100000005
v -0.00363252661 0.00819969457 -0.00100000005
v -0.00464715436 0.00963830482 -0.00100000005
v -0.00338095031 0.00873920415 -0.00100000005
v -0.00449999794 0.00973205175 -0.00100000005
v 0.0013674685 0.00819969457 -0.00100000005
v -0.00220235786 0.00911081303 -0.00100000005
v -0.00210667751 0.00908064563 -0.00100000005
v 0.00503208861 0.00928557571 -0.00100000005
v 0.00354225584 0.00848601107 -0.00100000005
v 0.00513830408 0.00914715137 -0.00100000005
v 0.00523204729 0.00899999868 -0.00100000005
v 0.00358064868 0.00839332212 -0.00100000005
v 0.00531261787 0.00884523522 -0.00100000005
v 0.00361081609 0.00829764176 -0.00100000005
v 0.00537938252 0.00868404005 -0.00100000005
v 0.00543184951 0.00851763692 -0.00100000005
v 0.00363252708 0.00819969457 -0.00100000005
v 0.0054696165 0.00834729616 -0.00100000005
v 0.0036456252 0.00810022745 -0.00100000005
v 0.00549238548 0.00817431044 -0.00100000005
v 0.00549999997 0.00799999852 -0.00100000005
v 0.00364999869 0.00799999852 -0.00100000005
v 0.0036456252 0.00789976958 -0.00100000005
v 0.00363252708 0.0078003048 -0.00100000005
v 0.00361081609 0.0077023576 -0.00100000005
v 0.00358064868 0.00760667725 -0.00100000005
v -0.00138918671 -0.00829764269 -0.00100000005
v -0.00141935411 -0.00839332398 -0.00100000005
v 0.00349999615 -0.0100000007 -0.00100000005
v -0.00549999997 0.00799999852 -0.00100000005
v -0.00364999822 0.00799999852 -0.00100000005
v -0.00549239293 0.00817431044 -0.00100000005
v -0.00364562473 0.00810022745 -0.00100000005
v -0.0054696165 0.00834729616 -0.00100000005
v -0.00543184951 0.00851763692 -0.00100000005
v -0.00491421297 0.00941421371 -0.00100000005
v -0.00503208861 0.00928557571 -0.00100000005
v -0.00354225538 0.00848601107 -0.00100000005
v -0.00513830408 0.00914715137 -0.00100000005
v -0.00523205474 0.00899999868 -0.00100000005
v -0.00434523448 0.00981261488 -0.00100000005
v -0.00331317238 0.00881317165 -0.00100000005
v -0.00418404117 0.00987938326 -0.00100000005
v -0.00323920301 0.00888094958 -0.00100000005
v -0.00401763991 0.00993185025 -0.00100000005
v -0.00315961591 0.00894202385 -0.00100000005
v -0.00384729705 0.00996961351 -0.00100000005
v -0.00289332471 0.00908064563 -0.00100000005
v -0.00279764435 0.00911081303 -0.00100000005
v 0.00354225584 0.0075139883 -0.00100000005
v 0.00349592813 0.00742500043 -0.00100000005
v 0.00549999997 -0.00800000038 -0.00100000005
v 0.0019250029 -0.00899592973 -0.00100000005
v -0.0013543776 -0.00789977144 -0.00100000005
v 0.0020139853 -0.00904225465 -0.00100000005
v 0.00210667797 -0.00908064749 -0.00100000005
v 0.00184038666 -0.00894202571 -0.00100000005
v 0.0017607921 -0.00888095237 -0.00100000005
v 0.00168683019 -0.00881317351 -0.00100000005
v 0.00161904481 -0.00873920694 -0.00100000005
v 0.0015579724 -0.00865961332 -0.00100000005
v 0.00150406745 -0.0085750008 -0.00100000005
v 0.00145774719 -0.008486012 -0.00100000005
v 0.00141935435 -0.00839332398 -0.00100000005
v 0.00138918695 -0.00829764269 -0.00100000005
v -0.00192500267 -0.00700407149 -0.00100000005
v -0.00184038642 -0.00705797551 -0.00100000005
v 0.00134999689 -0.00800000038 -0.00100000005
v -0.00176079187 -0.00711904885 -0.00100000005
v -0.00155797217 -0.00734038791 -0.00100000005
v -0.00150407467 -0.00742500043 -0.00100000005
v -0.00145774696 -0.00751398923 -0.00100000005
v -0.00141935411 -0.00760667725 -0.00100000005
v -0.00367430947 0.00999238994 -0.00100000005
v -0.00307499967 0.0089959288 -0.00100000005
v -0.00298600993 0.00904225279 -0.00100000005
v 0.00184038666 0.00894202385 -0.00100000005
v 0.0019250029 0.0089959288 -0.00100000005
v 0.0020139853 0.00904225279 -0.00100000005
v 0.00478557125 0.00953208935 -0.00100000005
v 0.00464715436 0.00963830482 -0.00100000005
v 0.00338095077 0.00873920415 -0.00100000005
v 0.00449999794 0.00973205175 -0.00100000005
v 0.00331317284 0.00881317165 -0.00100000005
v 0.00434523448 0.00981261488 -0.00100000005
v 0.00323920348 0.00888094958 -0.00100000005
v -0.00168682996 -0.00718682772 -0.00100000005
v -0.00161905203 -0.00726079429 -0.00100000005
v 0.0013674685 -0.00819969643 -0.00100000005
v 0.00135437783 -0.00810023025 -0.00100000005
v -0.00136746827 -0.0078003048 -0.00100000005
v -0.00138918671 -0.00770235853 -0.00100000005
v 0.00358064868 -0.00839332398 -0.00100000005
v 0.00531261787 -0.00884523708 -0.00100000005
v 0.00361081609 -0.00829764269 -0.00100000005
v 0.00537938252 -0.00868404098 -0.00100000005
v 0.00363252708 -0.00819969643 -0.00100000005
v 0.00338095077 -0.00873920694 -0.00100000005
v 0.00464715436 -0.00963830482 -0.00100000005
v 0.00344202318 -0.00865961332 -0.00100000005
v 0.00478557125 -0.00953208935 -0.00100000005
v 0.00349592813 -0.0085750008 -0.00100000005
v -0.00145774696 -0.008486012 -0.00100000005
v -0.00150407467 -0.0085750008 -0.00100000005
v -0.00155797217 -0.00865961332 -0.00100000005
v -0.00269969902 0.00913252775 -0.00100000005
v -0.00260022632 0.009145624 -0.00100000005
v -0.00250000111 0.00914999936 -0.00100000005
v -0.00239976845 0.009145624 -0.00100000005
v -0.0023003032 0.00913252775 -0.00100000005
v 0.00168683019 0.00881317165 -0.00100000005
v 0.0017607921 0.00888094958 -0.00100000005
v -0.00141935411 0.00760667725 -0.00100000005
v -0.00145774696 0.0075139883 -0.00100000005
v 0.00141935435 0.00760667725 -0.00100000005
v 0.00364999869 -0.00800000038 -0.00100000005
v 0.00549238548 -0.0081743123 -0.00100000005
v 0.0036456252 -0.00810023025 -0.00100000005
v 0.0054696165 -0.00834729709 -0.00100000005
v 0.00543184951 -0.00851763878 -0.00100000005
v 0.00491421297 -0.00941421464 -0.00100000005
v 0.00503208861 -0.00928557571 -0.00100000005
v 0.00354225584 -0.008486012 -0.00100000005
v 0.00513830408 -0.00914715324 -0.00100000005
v 0.00523204729 -0.00900000054 -0.00100000005
v 0.00239976891 -0.00914562494 -0.00100000005
v 0.00250000157 -0.00915000122 -0.00100000005
v 0.00260022678 -0.00914562494 -0.00100000005
v 0.00138918695 0.00829764176 -0.00100000005
v 0.00141935435 0.00839332212 -0.00100000005
v 0.00145774719 0.00848601107 -0.00100000005
v 0.00349999615 0.0100000007 -0.00100000005
v 0.00239976891 0.009145624 -0.00100000005
v 0.00250000157 0.00914999936 -0.00100000005
v -0.00363252661 -0.0078003048 -0.00100000005
v -0.00361081562 -0.00770235853 -0.00100000005
v -0.00358064822 -0.00760667725 -0.00100000005
v -0.00354225538 -0.00751398923 -0.00100000005
v -0.00349592767 -0.00742500043 -0.00100000005
v -0.00344202272 -0.00734038791 -0.00100000005
v -0.00338095031 -0.00726079429 -0.00100000005
v 0.0013674685 -0.0078003048 -0.00100000005
v -0.00220235786 -0.0068891854 -0.00100000005
v 0.00135437783 -0.00789977144 -0.00100000005
v -0.00210667751 -0.00691935373 -0.00100000005
v -0.00201399229 -0.00695774658 -0.00100000005
v 0.00145774719 -0.00751398923 -0.00100000005
v -0.0023003032 -0.00686747162 -0.00100000005
v 0.00141935435 -0.00760667725 -0.00100000005
v 0.00138918695 -0.00770235853 -0.00100000005
v -0.00239976845 -0.00685437629 -0.00100000005
v -0.00250000111 -0.00685000001 -0.00100000005
v -0.00260022632 -0.00685437629 -0.00100000005
v -0.00239976845 0.00685437536 -0.00100000005
v 0.0015579724 0.00734038604 -0.00100000005
v -0.0023003032 0.00686747162 -0.00100000005
v 0.00150406745 0.00742500043 -0.00100000005
v 0.00145774719 0.0075139883 -0.00100000005
v 0.00315960892 -0.00894202571 -0.00100000005
v 0.00384729751 -0.00996961631 -0.00100000005
v 0.00401763991 -0.00993185211 -0.00100000005
v 0.00210667797 0.00908064563 -0.00100000005
v 0.00220235833 0.00911081303 -0.00100000005
v 0.00230030366 0.00913252775 -0.00100000005
v 0.00260022678 0.009145624 -0.00100000005
v 0.00269969204 0.00913252775 -0.00100000005
v 0.00279764482 0.00911081303 -0.00100000005
v -0.00331317238 -0.00718682772 -0.00100000005
v -0.00323920301 -0.00711904885 -0.00100000005
v -0.00315961591 -0.00705797551 -0.00100000005
v -0.00307499967 -0.00700407149 -0.00100000005
v -0.00298600993 -0.00695774658 -0.00100000005
v -0.00289332471 -0.00691935373 -0.00100000005
v 0.00358064868 -0.00760667725 -0.00100000005
v 0.00361081609 -0.00770235853 -0.00100000005
v -0.00344202272 0.00734038604 -0.00100000005
v -0.00349592767 0.00742500043 -0.00100000005
v -0.00354225538 0.0075139883 -0.00100000005
v -0.00358064822 0.00760667725 -0.00100000005
v -0.00361081562 0.0077023576 -0.00100000005
v 0.00323920348 -0.00888095237 -0.00100000005
v 0.00418404117 -0.00987938605 -0.00100000005
v 0.00331317284 -0.00881317351 -0.00100000005
v 0.00434523448 -0.00981261674 -0.00100000005
v 0.00449999794 -0.00973205175 -0.00100000005
v 0.00367430993 -0.00999238994 -0.00100000005
v 0.00307500013 -0.00899592973 -0.00100000005
v 0.0029860104 -0.00904225465 -0.00100000005
v 0.00289332517 -0.00908064749 -0.00100000005
v -0.00161905203 -0.00873920694 -0.00100000005
v -0.00168682996 -0.00881317351 -0.00100000005
v -0.00176079187 -0.00888095237 -0.00100000005
v -0.00184038642 -0.00894202571 -0.00100000005
v -0.00192500267 -0.00899592973 -0.00100000005
v -0.00201399229 -0.00904225465 -0.00100000005
v 0.00150406745 -0.00742500043 -0.00100000005
v 0.0015579724 -0.00734038791 -0.00100000005
v 0.00338095077 -0.00726079429 -0.00100000005
v 0.00344202318 -0.00734038791 -0.00100000005
v 0.00349592813 -0.00742500043 -0.00100000005
v 0.00354225584 -0.00751398923 -0.00100000005
v 0.00363252708 -0.0078003048 -0.00100000005
v 0.0036456252 -0.00789977144 -0.00100000005
v -0.00363252661 0.0078003048 -0.00100000005
v -0.00364562473 0.00789976958 -0.00100000005
v -0.00150407467 0.00742500043 -0.00100000005
v -0.00155797217 0.00734038604 -0.00100000005
v 0.00230030366 -0.00913252961 -0.00100000005
v 0.00220235833 -0.00911081582 -0.00100000005
v -0.00354225538 -0.008486012 -0.00100000005
v -0.00503208861 -0.00928557571 -0.00100000005
v -0.00349592767 -0.0085750008 -0.00100000005
v -0.00491421297 -0.00941421464 -0.00100000005
v -0.00344202272 -0.00865961332 -0.00100000005
v -0.00361081562 -0.00829764269 -0.00100000005
v -0.00531261787 -0.00884523708 -0.00100000005
v -0.00358064822 -0.00839332398 -0.00100000005
v -0.00523205474 -0.00900000054 -0.00100000005
v -0.00513830408 -0.00914715324 -0.00100000005
v 0.00418404117 0.00987938326 -0.00100000005
v 0.00401763991 0.00993185025 -0.00100000005
v 0.00315960892 0.00894202385 -0.00100000005
v 0.00384729751 0.00996961351 -0.00100000005
v 0.00307500013 0.0089959288 -0.00100000005
v 0.00367430993 0.00999238994 -0.00100000005
v 0.0029860104 0.00904225279 -0.00100000005
v 0.00289332517 0.00908064563 -0.00100000005
v -0.00279764435 -0.0068891854 -0.00100000005
v -0.00269969902 -0.00686747162 -0.00100000005
v 0.00344202318 0.00734038604 -0.00100000005
v 0.00338095077 0.00726079335 -0.00100000005
v 0.00331317284 0.00718682772 -0.00100000005
v -0.00161905203 0.00726079335 -0.00100000005
v -0.00168682996 0.00718682772 -0.00100000005
v -0.00176079187 0.00711904792 -0.00100000005
v -0.00184038642 0.00705797551 -0.00100000005
v -0.00192500267 0.00700407056 -0.00100000005
v -0.00201399229 0.00695774658 -0.00100000005
v -0.00210667751 0.00691935373 -0.00100000005
v -0.00220235786 0.00688918447 -0.00100000005
v 0.00279764482 -0.00911081582 -0.00100000005
v 0.00269969204 -0.00913252961 -0.00100000005
v -0.00135000411 -0.00800000038 -0.00100000005
v -0.0013543776 -0.00810023025 -0.00100000005
v -0.00136746827 -0.00819969643 -0.00100000005
v -0.00350000313 -0.0100000007 -0.00100000005
v -0.00298600993 -0.00904225465 -0.00100000005
v -0.00367430947 -0.00999238994 -0.00100000005
v -0.00307499967 -0.00899592973 -0.00100000005
v -0.00384729705 -0.00996961631 -0.00100000005
v -0.00315961591 -0.00894202571 -0.00100000005
v -0.00401763991 -0.00993185211 -0.00100000005
v -0.00323920301 -0.00888095237 -0.00100000005
v -0.0047855787 -0.00953208935 -0.00100000005
v -0.00464715436 -0.00963830482 -0.00100000005
v -0.00338095031 -0.00873920694 -0.00100000005
v -0.00449999794 -0.00973205175 -0.00100000005
v -0.00331317238 -0.00881317351 -0.00100000005
v -0.00434523448 -0.00981261674 -0.00100000005
v -0.00418404117 -0.00987938605 -0.00100000005
v -0.00549239293 -0.0081743123 -0.00100000005
v -0.0054696165 -0.00834729709 -0.00100000005
v -0.00363252661 -0.00819969643 -0.00100000005
v -0.00543184951 -0.00851763878 -0.00100000005
v -0.00537938252 -0.00868404098 -0.00100000005
v 0.00161904481 -0.00726079429 -0.00100000005
v -0.00323920301 0.00711904792 -0.00100000005
v -0.00138918671 0.0077023576 -0.00100000005
v 0.00138918695 0.0077023576 -0.00100000005
v 0.0013674685 0.0078003048 -0.00100000005
v -0.00239976845 -0.00914562494 -0.00100000005
v -0.00250000111 -0.00915000122 -0.00100000005
v -0.00260022632 -0.00914562494 -0.00100000005
v -0.00269969902 -0.00913252961 -0.00100000005
v -0.00331317238 0.00718682772 -0.00100000005
v -0.00338095031 0.00726079335 -0.00100000005
v -0.00210667751 -0.00908064749 -0.00100000005
v -0.00220235786 -0.00911081582 -0.00100000005
v -0.0023003032 -0.00913252961 -0.00100000005
v -0.00279764435 -0.00911081582 -0.00100000005
v -0.00289332471 -0.00908064749 -0.00100000005
v 0.00184038666 0.00705797551 -0.00100000005
v 0.00168683019 -0.00718682772 -0.00100000005
v 0.0017607921 -0.00711904885 -0.00100000005
v 0.00184038666 -0.00705797551 -0.00100000005
v 0.0019250029 -0.00700407149 -0.00100000005
v 0.00307500013 -0.00700407149 -0.00100000005
v 0.00315960892 -0.00705797551 -0.00100000005
v 0.00315960892 0.00705797551 -0.00100000005
v 0.00323920348 -0.00711904885 -0.00100000005
v -0.00136746827 0.0078003048 -0.00100000005
v 0.00323920348 0.00711904792 -0.00100000005
v 0.00331317284 -0.00718682772 -0.00100000005
v -0.00250000111 0.00685000001 -0.00100000005
v -0.00260022632 0.00685437536 -0.00100000005
v -0.00269969902 0.00686747162 -0.00100000005
v -0.00279764435 0.00688918447 -0.00100000005
v -0.00289332471 0.00691935373 -0.00100000005
v -0.00298600993 0.00695774658 -0.00100000005
v -0.00307499967 0.00700407056 -0.00100000005
v -0.00315961591 0.00705797551 -0.00100000005
v 0.0020139853 -0.00695774658 -0.00100000005
v 0.00210667797 -0.00691935373 -0.00100000005
v 0.00220235833 -0.0068891854 -0.00100000005
v 0.00307500013 0.00700407056 -0.00100000005
v 0.0029860104 0.00695774658 -0.00100000005
v 0.00260022678 -0.00685437629 -0.00100000005
v 0.00289332517 0.00691935373 -0.00100000005
v 0.00279764482 0.00688918447 -0.00100000005
v 0.00269969204 0.00686747162 -0.00100000005
v 0.00260022678 0.00685437536 -0.00100000005
v 0.00250000157 -0.00685000001 -0.00100000005
v 0.00250000157 0.00685000001 -0.00100000005
v 0.00239976891 -0.00685437629 -0.00100000005
v 0.00239976891 0.00685437536 -0.00100000005
v 0.00230030366 0.00686747162 -0.00100000005
v 0.00279764482 -0.0068891854 -0.00100000005
v 0.00289332517 -0.00691935373 -0.00100000005
v 0.0029860104 -0.00695774658 -0.00100000005
v 0.00220235833 0.00688918447 -0.00100000005
v 0.00210667797 0.00691935373 -0.00100000005
v 0.0020139853 0.00695774658 -0.00100000005
v 0.00230030366 -0.00686747162 -0.00100000005
v 0.0019250029 0.00700407056 -0.00100000005
v 0.0017607921 0.00711904792 -0.00100000005
v 0.00168683019 0.00718682772 -0.00100000005
v 0.00161904481 0.00726079335 -0.00100000005
v 0.00269969204 -0.00686747162 -0.00100000005
v 0.00549999997 0.00799999852 0.00100000005
v 0.00364999869 0.00799999852 0.00100000005
v 0.00549238548 0.00817431044 0.00100000005
v 0.0036456252 0.00810022745 0.00100000005
v 0.0054696165 0.00834729616 0.00100000005
v 0.00363252708 0.00819969457 0.00100000005
v 0.00549999997 -0.00800000038 0.00100000005
v 0.00364999869 -0.00800000038 0.00100000005
v 0.0036456252 -0.00789977144 0.00100000005
v -0.00150407467 0.00857499894 0.00100000005
v -0.00155797217 0.00865961146 0.00100000005
v 0.00349999615 0.0100000007 0.00100000005
v -0.00150407467 0.00742500043 0.00100000005
v -0.00145774696 0.0075139883 0.00100000005
v 0.00135437783 0.00810022745 0.00100000005
v -0.00141935411 0.00760667725 0.00100000005
v -0.00138918671 0.0077023576 0.00100000005
v 0.0015579724 0.00865961146 0.00100000005
v 0.00150406745 0.00857499894 0.00100000005
v -0.00135000411 0.00799999852 0.00100000005
v 0.00145774719 0.00848601107 0.00100000005
v 0.00141935435 0.00839332212 0.00100000005
v -0.00364999822 0.00799999852 0.00100000005
v -0.00364562473 0.00789976958 0.00100000005
v -0.00549999997 0.00799999852 0.00100000005
v 0.00338095077 0.00873920415 0.00100000005
v 0.00464715436 0.00963830482 0.00100000005
v 0.00344202318 0.00865961146 0.00100000005
v 0.00478557125 0.00953208935 0.00100000005
v 0.00349592813 0.00857499894 0.00100000005
v -0.00192500267 0.00700407056 0.00100000005
v -0.00201399229 0.00695774658 0.00100000005
v -0.00210667751 0.00691935373 0.00100000005
v 0.0036456252 -0.00810023025 0.00100000005
v 0.00358064868 0.00839332212 0.00100000005
v 0.00531261787 0.00884523522 0.00100000005
v 0.00361081609 0.00829764176 0.00100000005
v 0.00537938252 0.00868404005 0.00100000005
v 0.00543184951 0.00851763692 0.00100000005
v 0.00491421297 0.00941421371 0.00100000005
v 0.00503208861 0.00928557571 0.00100000005
v 0.00354225584 0.00848601107 0.00100000005
v 0.00513830408 0.00914715137 0.00100000005
v 0.00523204729 0.00899999868 0.00100000005
v -0.00161905203 0.00873920415 0.00100000005
v -0.00168682996 0.00881317165 0.00100000005
v -0.00176079187 0.00888094958 0.00100000005
v -0.00350000313 0.0100000007 0.00100000005
v -0.00239976845 0.009145624 0.00100000005
v -0.00250000111 0.00914999936 0.00100000005
v -0.00184038642 0.00705797551 0.00100000005
v -0.00176079187 0.00711904792 0.00100000005
v -0.00168682996 0.00718682772 0.00100000005
v -0.00161905203 0.00726079335 0.00100000005
v -0.00155797217 0.00734038604 0.00100000005
v 0.0019250029 0.0089959288 0.00100000005
v 0.00184038666 0.00894202385 0.00100000005
v 0.0017607921 0.00888094958 0.00100000005
v -0.00136746827 0.0078003048 0.00100000005
v -0.0013543776 0.00789976958 0.00100000005
v 0.0013674685 0.00819969457 0.00100000005
v 0.00138918695 0.00829764176 0.00100000005
v -0.00364562473 0.00810022745 0.00100000005
v -0.00136746827 0.00819969457 0.00100000005
v 0.00220235833 0.00911081303 0.00100000005
v -0.0013543776 0.00810022745 0.00100000005
v 0.00210667797 0.00908064563 0.00100000005
v 0.0020139853 0.00904225279 0.00100000005
v -0.00260022632 0.009145624 0.00100000005
v -0.00269969902 0.00913252775 0.00100000005
v -0.00279764435 0.00911081303 0.00100000005
v -0.00344202272 0.00865961146 0.00100000005
v -0.00464715436 0.00963830482 0.00100000005
v -0.00338095031 0.00873920415 0.00100000005
v -0.00449999794 0.00973205175 0.00100000005
v -0.00331317238 0.00881317165 0.00100000005
v -0.00434523448 0.00981261488 0.00100000005
v -0.00323920301 0.00888094958 0.00100000005
v -0.00361081562 0.00829764176 0.00100000005
v -0.00531261787 0.00884523522 0.00100000005
v -0.00358064822 0.00839332212 0.00100000005
v -0.00523205474 0.00899999868 0.00100000005
v -0.00354225538 0.00848601107 0.00100000005
v 0.00168683019 0.00881317165 0.00100000005
v 0.00161904481 0.00873920415 0.00100000005
v 0.00315960892 0.00894202385 0.00100000005
v 0.00401763991 0.00993185025 0.00100000005
v 0.00323920348 0.00888094958 0.00100000005
v 0.00418404117 0.00987938326 0.00100000005
v 0.00331317284 0.00881317165 0.00100000005
v 0.00434523448 0.00981261488 0.00100000005
v 0.00449999794 0.00973205175 0.00100000005
v -0.00184038642 0.00894202385 0.00100000005
v -0.00192500267 0.0089959288 0.00100000005
v -0.00201399229 0.00904225279 0.00100000005
v -0.00210667751 0.00908064563 0.00100000005
v -0.00220235786 0.00911081303 0.00100000005
v -0.0023003032 0.00913252775 0.00100000005
v -0.00289332471 0.00908064563 0.00100000005
v -0.00298600993 0.00904225279 0.00100000005
v -0.00367430947 0.00999238994 0.00100000005
v -0.00307499967 0.0089959288 0.00100000005
v -0.00384729705 0.00996961351 0.00100000005
v -0.00315961591 0.00894202385 0.00100000005
v -0.00401763991 0.00993185025 0.00100000005
v -0.00418404117 0.00987938326 0.00100000005
v -0.00513830408 0.00914715137 0.00100000005
v -0.00503208861 0.00928557571 0.00100000005
v -0.00349592767 0.00857499894 0.00100000005
v -0.00491421297 0.00941421371 0.00100000005
v -0.0047855787 0.00953208935 0.00100000005
v -0.00549239293 0.00817431044 0.00100000005
v -0.0054696165 0.00834729616 0.00100000005
v -0.00363252661 0.00819969457 0.00100000005
v -0.00543184951 0.00851763692 0.00100000005
v -0.00537938252 0.00868404005 0.00100000005
v 0.00269969204 0.00913252775 0.00100000005
v 0.00260022678 0.009145624 0.00100000005
v 0.00250000157 0.00914999936 0.00100000005
v -0.00135000411 -0.00800000038 0.00100000005
v 0.00134999689 -0.00800000038 0.00100000005
v -0.0013543776 -0.00810023025 0.00100000005
v 0.00135437783 -0.00810023025 0.00100000005
v 0.0013674685 -0.00819969643 0.00100000005
v 0.0029860104 0.00904225279 0.00100000005
v 0.00289332517 0.00908064563 0.00100000005
v 0.00279764482 0.00911081303 0.00100000005
v 0.00239976891 0.009145624 0.00100000005
v 0.00230030366 0.00913252775 0.00100000005
v 0.00307500013 0.0089959288 0.00100000005
v 0.00367430993 0.00999238994 0.00100000005
v 0.00384729751 0.00996961351 0.00100000005
v -0.00138918671 0.00829764176 0.00100000005
v -0.00141935411 0.00839332212 0.00100000005
v -0.00145774696 0.00848601107 0.00100000005
v 0.00349592813 0.00742500043 0.00100000005
v 0.00354225584 0.0075139883 0.00100000005
v 0.00358064868 0.00760667725 0.00100000005
v 0.00361081609 0.0077023576 0.00100000005
v -0.00358064822 -0.00839332398 0.00100000005
v -0.00531261787 -0.00884523708 0.00100000005
v -0.00361081562 -0.00829764269 0.00100000005
v -0.00537938252 -0.00868404098 0.00100000005
v -0.00363252661 -0.00819969643 0.00100000005
v -0.00338095031 -0.00873920694 0.00100000005
v -0.00464715436 -0.00963830482 0.00100000005
v -0.00344202272 -0.00865961332 0.00100000005
v -0.0047855787 -0.00953208935 0.00100000005
v -0.00349592767 -0.0085750008 0.00100000005
v 0.0019250029 -0.00700407149 0.00100000005
v 0.00184038666 -0.00705797551 0.00100000005
v 0.0017607921 -0.00711904885 0.00100000005
v 0.00168683019 -0.00718682772 0.00100000005
v 0.00161904481 -0.00726079429 0.00100000005
v 0.0015579724 -0.00734038791 0.00100000005
v 0.00150406745 -0.00742500043 0.00100000005
v 0.00145774719 -0.00751398923 0.00100000005
v 0.00141935435 -0.00760667725 0.00100000005
v 0.00138918695 -0.00770235853 0.00100000005
v 0.00363252708 0.0078003048 0.00100000005
v 0.0036456252 0.00789976958 0.00100000005
v -0.00549999997 -0.00800000038 0.00100000005
v -0.00364999822 -0.00800000038 0.00100000005
v -0.00549239293 -0.0081743123 0.00100000005
v -0.00364562473 -0.00810023025 0.00100000005
v -0.0054696165 -0.00834729709 0.00100000005
v -0.00543184951 -0.00851763878 0.00100000005
v -0.00491421297 -0.00941421464 0.00100000005
v -0.00503208861 -0.00928557571 0.00100000005
v -0.00354225538 -0.008486012 0.00100000005
v -0.00513830408 -0.00914715324 0.00100000005
v -0.00523205474 -0.00900000054 0.00100000005
v 0.0013674685 -0.0078003048 0.00100000005
v 0.00135437783 -0.00789977144 0.00100000005
v -0.00350000313 -0.0100000007 0.00100000005
v -0.00260022632 -0.00914562494 0.00100000005
v -0.00250000111 -0.00915000122 0.00100000005
v -0.00145774696 -0.008486012 0.00100000005
v 0.00349999615 -0.0100000007 0.00100000005
v -0.00150407467 -0.0085750008 0.00100000005
v -0.00155797217 -0.00865961332 0.00100000005
v 0.00145774719 -0.008486012 0.00100000005
v -0.00141935411 -0.00839332398 0.00100000005
v -0.00363252661 0.0078003048 0.00100000005
v -0.00361081562 0.0077023576 0.00100000005
v -0.00358064822 0.00760667725 0.00100000005
v -0.00344202272 0.00734038604 0.00100000005
v -0.00349592767 0.00742500043 0.00100000005
v -0.00354225538 0.0075139883 0.00100000005
v 0.00358064868 -0.00760667725 0.00100000005
v 0.00354225584 -0.00751398923 0.00100000005
v 0.00338095077 0.00726079335 0.00100000005
v 0.00344202318 0.00734038604 0.00100000005
v -0.00315961591 -0.00894202571 0.00100000005
v -0.00384729705 -0.00996961631 0.00100000005
v -0.00401763991 -0.00993185211 0.00100000005
v -0.00184038642 -0.00894202571 0.00100000005
v -0.00176079187 -0.00888095237 0.00100000005
v 0.00134999689 0.00799999852 0.00100000005
v 0.00135437783 0.00789976958 0.00100000005
v -0.00220235786 0.00688918447 0.00100000005
v 0.0013674685 0.0078003048 0.00100000005
v 0.00145774719 0.0075139883 0.00100000005
v -0.0023003032 0.00686747162 0.00100000005
v 0.00141935435 0.00760667725 0.00100000005
v 0.00138918695 0.0077023576 0.00100000005
v -0.00338095031 0.00726079335 0.00100000005
v -0.00331317238 0.00718682772 0.00100000005
v -0.00323920301 0.00711904792 0.00100000005
v -0.00323920301 -0.00888095237 0.00100000005
v -0.00418404117 -0.00987938605 0.00100000005
v -0.00331317238 -0.00881317351 0.00100000005
v -0.00434523448 -0.00981261674 0.00100000005
v -0.00449999794 -0.00973205175 0.00100000005
v -0.00367430947 -0.00999238994 0.00100000005
v -0.00307499967 -0.00899592973 0.00100000005
v -0.00298600993 -0.00904225465 0.00100000005
v -0.00289332471 -0.00908064749 0.00100000005
v -0.00210667751 -0.00908064749 0.00100000005
v -0.00201399229 -0.00904225465 0.00100000005
v -0.00192500267 -0.00899592973 0.00100000005
v -0.00168682996 -0.00881317351 0.00100000005
v -0.00161905203 -0.00873920694 0.00100000005
v 0.00150406745 -0.0085750008 0.00100000005
v 0.0015579724 -0.00865961332 0.00100000005
v 0.00161904481 -0.00873920694 0.00100000005
v 0.00230030366 -0.00913252961 0.00100000005
v 0.00239976891 -0.00914562494 0.00100000005
v -0.00269969902 0.00686747162 0.00100000005
v -0.00260022632 0.00685437536 0.00100000005
v -0.00250000111 0.00685000001 0.00100000005
v -0.00239976845 0.00685437536 0.00100000005
v -0.00338095031 -0.00726079429 0.00100000005
v -0.00344202272 -0.00734038791 0.00100000005
v -0.00349592767 -0.00742500043 0.00100000005
v -0.00354225538 -0.00751398923 0.00100000005
v -0.00358064822 -0.00760667725 0.00100000005
v -0.00361081562 -0.00770235853 0.00100000005
v 0.00138918695 -0.00829764269 0.00100000005
v 0.00141935435 -0.00839332398 0.00100000005
v -0.00136746827 -0.00819969643 0.00100000005
v -0.00138918671 -0.00829764269 0.00100000005
v -0.00315961591 0.00705797551 0.00100000005
v -0.00307499967 0.00700407056 0.00100000005
v -0.00298600993 0.00695774658 0.00100000005
v -0.00289332471 0.00691935373 0.00100000005
v -0.00279764435 0.00688918447 0.00100000005
v 0.00150406745 0.00742500043 0.00100000005
v 0.0015579724 0.00734038604 0.00100000005
v 0.00363252708 -0.0078003048 0.00100000005
v 0.00361081609 -0.00770235853 0.00100000005
v 0.0017607921 0.00711904792 0.00100000005
v 0.00184038666 0.00705797551 0.00100000005
v -0.00363252661 -0.0078003048 0.00100000005
v -0.00364562473 -0.00789977144 0.00100000005
v -0.00279764435 -0.00911081582 0.00100000005
v -0.00269969902 -0.00913252961 0.00100000005
v 0.00184038666 -0.00894202571 0.00100000005
v 0.0019250029 -0.00899592973 0.00100000005
v -0.00136746827 -0.0078003048 0.00100000005
v 0.00220235833 -0.0068891854 0.00100000005
v -0.0013543776 -0.00789977144 0.00100000005
v 0.00210667797 -0.00691935373 0.00100000005
v 0.0020139853 -0.00695774658 0.00100000005
v -0.00145774696 -0.00751398923 0.00100000005
v 0.00230030366 -0.00686747162 0.00100000005
v -0.00141935411 -0.00760667725 0.00100000005
v -0.00138918671 -0.00770235853 0.00100000005
v 0.00168683019 0.00718682772 0.00100000005
v 0.00168683019 -0.00881317351 0.00100000005
v 0.0017607921 -0.00888095237 0.00100000005
v 0.00323920348 -0.00711904885 0.00100000005
v 0.00315960892 -0.00705797551 0.00100000005
v 0.00161904481 0.00726079335 0.00100000005
v 0.00323920348 0.00711904792 0.00100000005
v 0.00331317284 0.00718682772 0.00100000005
v -0.00161905203 -0.00726079429 0.00100000005
v -0.00155797217 -0.00734038791 0.00100000005
v -0.00239976845 -0.00914562494 0.00100000005
v -0.0023003032 -0.00913252961 0.00100000005
v -0.00220235786 -0.00911081582 0.00100000005
v 0.00354225584 -0.008486012 0.00100000005
v 0.00503208861 -0.00928557571 0.00100000005
v 0.00349592813 -0.0085750008 0.00100000005
v 0.00491421297 -0.00941421464 0.00100000005
v 0.00344202318 -0.00865961332 0.00100000005
v 0.00361081609 -0.00829764269 0.00100000005
v 0.00531261787 -0.00884523708 0.00100000005
v 0.00358064868 -0.00839332398 0.00100000005
v 0.00523204729 -0.00900000054 0.00100000005
v 0.00513830408 -0.00914715324 0.00100000005
v 0.00331317284 -0.00718682772 0.00100000005
v 0.0029860104 -0.00904225465 0.00100000005
v 0.00367430993 -0.00999238994 0.00100000005
v 0.00307500013 -0.00899592973 0.00100000005
v 0.00384729751 -0.00996961631 0.00100000005
v 0.00315960892 -0.00894202571 0.00100000005
v 0.00401763991 -0.00993185211 0.00100000005
v 0.00323920348 -0.00888095237 0.00100000005
v 0.00478557125 -0.00953208935 0.00100000005
v 0.00464715436 -0.00963830482 0.00100000005
v 0.00338095077 -0.00873920694 0.00100000005
v 0.00449999794 -0.00973205175 0.00100000005
v 0.00331317284 -0.00881317351 0.00100000005
v 0.00434523448 -0.00981261674 0.00100000005
v 0.00418404117 -0.00987938605 0.00100000005
v 0.00549238548 -0.0081743123 0.00100000005
v 0.0054696165 -0.00834729709 0.00100000005
v 0.00363252708 -0.00819969643 0.00100000005
v 0.00543184951 -0.00851763878 0.00100000005
v 0.00537938252 -0.00868404098 0.00100000005
v 0.00349592813 -0.00742500043 0.00100000005
v 0.00344202318 -0.00734038791 0.00100000005
v 0.00338095077 -0.00726079429 0.00100000005
v -0.00298600993 -0.00695774658 0.00100000005
v -0.00307499967 -0.00700407149 0.00100000005
v 0.0020139853 -0.00904225465 0.00100000005
v 0.00210667797 -0.00908064749 0.00100000005
v 0.00220235833 -0.00911081582 0.00100000005
v 0.00250000157 -0.00915000122 0.00100000005
v 0.00260022678 -0.00914562494 0.00100000005
v 0.00269969204 -0.00913252961 0.00100000005
v 0.00307500013 -0.00700407149 0.00100000005
v 0.0029860104 -0.00695774658 0.00100000005
v 0.00289332517 -0.00691935373 0.00100000005
v 0.00260022678 -0.00685437629 0.00100000005
v 0.00250000157 -0.00685000001 0.00100000005
v 0.00239976891 -0.00685437629 0.00100000005
v -0.00150407467 -0.00742500043 0.00100000005
v 0.00279764482 -0.00911081582 0.00100000005
v 0.00289332517 -0.00908064749 0.00100000005
v 0.00239976891 0.00685437536 0.00100000005
v -0.00168682996 -0.00718682772 0.00100000005
v 0.00220235833 0.00688918447 0.00100000005
v -0.00184038642 -0.00705797551 0.00100000005
v -0.00192500267 -0.00700407149 0.00100000005
v -0.00176079187 -0.00711904885 0.00100000005
v 0.00230030366 0.00686747162 0.00100000005
v 0.00250000157 0.00685000001 0.00100000005
v 0.00260022678 0.00685437536 0.00100000005
v 0.00269969204 0.00686747162 0.00100000005
v 0.00279764482 -0.0068891854 0.00100000005
v 0.00269969204 -0.00686747162 0.00100000005
v 0.00279764482 0.00688918447 0.00100000005
v 0.00289332517 0.00691935373 0.00100000005
v 0.0029860104 0.00695774658 0.00100000005
v 0.00307500013 0.00700407056 0.00100000005
v 0.00315960892 0.00705797551 0.00100000005
v -0.00250000111 -0.00685000001 0.00100000005
v -0.00260022632 -0.00685437629 0.00100000005
v -0.00269969902 -0.00686747162 0.00100000005
v -0.00315961591 -0.00705797551 0.00100000005
v -0.00323920301 -0.00711904885 0.00100000005
v -0.00331317238 -0.00718682772 0.00100000005
v -0.00279764435 -0.0068891854 0.00100000005
v -0.00289332471 -0.00691935373 0.00100000005
v -0.00239976845 -0.00685437629 0.00100000005
v 0.0019250029 0.00700407056 0.00100000005
v 0.0020139853 0.00695774658 0.00100000005
v -0.00201399229 -0.00695774658 0.00100000005
v -0.00210667751 -0.00691935373 0.00100000005
v 0.00210667797 0.00691935373 0.00100000005
v -0.00220235786 -0.0068891854 0.00100000005
v -0.0023003032 -0.00686747162 0.00100000005
f 1 3 2
f 4 6 5
f 7 9 8
f 10 12 11
f 11 12 13
f 14 16 15
f 15 16 17
f 16 18 17
f 16 20 19
f 20 16 21
f 21 16 22
f 16 23 22
f 24 26 25
f 25 26 27
f 18 16 28
f 28 16 29
f 16 19 29
f 23 16 30
f 30 16 31
f 16 2 31
f 31 2 32
f 2 3 32
f 33 35 34
f 34 35 36
f 35 37 36
f 9 38 8
f 8 38 39
f 38 40 39
f 41 16 42
f 42 16 43
f 16 14 43
f 6 44 5
f 5 44 45
f 44 46 45
f 46 47 45
f 45 47 48
f 47 49 48
f 48 49 50
f 49 51 50
f 51 52 50
f 50 52 53
f 52 54 53
f 53 54 55
f 54 56 55
f 56 57 55
f 55 57 58
f 57 59 58
f 59 57 60
f 60 57 61
f 57 62 61
f 63 65 64
f 66 68 67
f 67 68 69
f 68 70 69
f 69 70 37
f 70 71 37
f 37 71 36
f 9 7 72
f 72 7 73
f 7 74 73
f 73 74 75
f 74 33 75
f 75 33 76
f 33 34 76
f 40 77 39
f 39 77 78
f 77 79 78
f 78 79 80
f 79 81 80
f 80 81 82
f 81 83 82
f 84 25 85
f 62 57 86
f 86 57 87
f 57 88 87
f 89 91 90
f 90 91 92
f 89 90 93
f 93 90 94
f 90 95 94
f 95 90 96
f 96 90 97
f 90 98 97
f 98 90 99
f 99 90 100
f 90 101 100
f 102 104 103
f 103 104 105
f 106 104 107
f 107 104 108
f 104 109 108
f 83 110 82
f 82 110 111
f 110 25 111
f 111 25 112
f 25 84 112
f 113 25 114
f 114 25 115
f 6 4 116
f 116 4 117
f 4 118 117
f 117 118 119
f 118 120 119
f 119 120 121
f 120 122 121
f 105 104 123
f 123 104 124
f 104 106 124
f 101 90 125
f 125 90 126
f 90 127 126
f 126 127 104
f 127 128 104
f 104 128 109
f 129 131 130
f 130 131 132
f 131 133 132
f 134 136 135
f 135 136 137
f 136 138 137
f 64 65 139
f 139 65 140
f 65 141 140
f 85 25 142
f 142 25 143
f 25 144 143
f 144 25 145
f 145 25 146
f 25 42 146
f 24 25 147
f 147 25 148
f 25 113 148
f 149 151 150
f 88 153 152
f 152 153 154
f 153 155 154
f 154 155 133
f 155 156 133
f 133 156 132
f 137 138 157
f 157 138 158
f 138 159 158
f 158 159 160
f 159 129 160
f 160 129 161
f 129 130 161
f 162 163 65
f 65 163 164
f 41 42 165
f 165 42 166
f 42 25 166
f 166 25 167
f 25 27 167
f 168 170 169
f 13 12 171
f 171 12 172
f 12 173 172
f 173 12 174
f 174 12 175
f 12 66 175
f 175 66 176
f 66 177 176
f 178 180 179
f 179 180 181
f 180 104 181
f 181 104 182
f 104 102 182
f 183 185 184
f 184 185 179
f 185 186 179
f 179 186 178
f 187 188 66
f 66 188 189
f 190 192 191
f 191 192 193
f 151 194 150
f 195 197 196
f 115 25 198
f 198 25 199
f 25 168 199
f 199 168 200
f 168 169 200
f 170 168 201
f 201 168 202
f 168 203 202
f 177 66 204
f 204 66 205
f 66 206 205
f 206 66 207
f 207 66 208
f 66 209 208
f 88 211 210
f 66 213 212
f 213 66 214
f 214 66 215
f 66 216 215
f 195 217 197
f 197 217 218
f 217 219 218
f 218 219 220
f 219 134 220
f 220 134 221
f 134 135 221
f 196 222 195
f 195 222 223
f 222 65 223
f 223 65 224
f 65 225 224
f 141 65 226
f 226 65 227
f 65 228 227
f 228 65 229
f 229 65 230
f 65 231 230
f 183 184 232
f 232 184 233
f 184 187 233
f 234 88 235
f 235 88 236
f 236 88 237
f 88 210 237
f 211 88 238
f 238 88 239
f 88 152 239
f 216 66 240
f 240 66 241
f 66 67 241
f 194 193 150
f 150 193 242
f 193 243 242
f 162 65 244
f 244 65 245
f 65 92 245
f 246 248 247
f 247 248 249
f 248 250 249
f 251 253 252
f 252 253 254
f 253 246 254
f 254 246 255
f 246 247 255
f 121 122 256
f 256 122 257
f 122 258 257
f 257 258 259
f 258 260 259
f 259 260 261
f 260 262 261
f 261 262 168
f 262 263 168
f 168 263 203
f 209 66 264
f 264 66 265
f 66 189 265
f 87 88 266
f 266 88 267
f 88 234 267
f 267 234 268
f 243 193 269
f 269 193 270
f 193 271 270
f 271 193 272
f 272 193 273
f 193 274 273
f 274 193 275
f 275 193 276
f 193 192 276
f 225 65 277
f 277 65 278
f 65 164 278
f 90 92 279
f 279 92 280
f 92 65 280
f 280 65 281
f 65 63 281
f 282 284 283
f 283 284 285
f 284 286 285
f 285 286 287
f 286 288 287
f 287 288 289
f 249 250 290
f 290 250 291
f 250 292 291
f 291 292 293
f 292 294 293
f 293 294 295
f 294 289 295
f 295 289 296
f 289 288 296
f 12 10 297
f 297 10 298
f 10 299 298
f 298 299 300
f 299 251 300
f 300 251 301
f 251 252 301
f 187 66 233
f 233 66 302
f 66 303 302
f 149 304 151
f 151 304 305
f 304 306 305
f 307 282 308
f 308 282 309
f 282 310 309
f 303 66 311
f 311 66 312
f 66 212 312
f 231 65 313
f 313 65 314
f 65 282 314
f 314 282 315
f 282 307 315
f 310 282 316
f 316 282 317
f 282 283 317
f 318 319 302
f 319 318 320
f 320 318 321
f 318 322 321
f 323 325 324
f 324 325 326
f 1 306 3
f 3 306 327
f 306 304 327
f 268 234 328
f 328 234 325
f 234 329 325
f 325 329 326
f 190 302 330
f 330 302 331
f 302 332 331
f 332 302 333
f 333 302 334
f 302 335 334
f 335 302 336
f 336 302 337
f 302 303 337
f 322 318 338
f 338 318 339
f 318 340 339
f 341 343 342
f 342 343 344
f 343 345 344
f 345 343 346
f 346 343 347
f 343 348 347
f 347 348 349
f 348 350 349
f 349 350 351
f 350 352 351
f 353 325 354
f 354 325 355
f 325 323 355
f 352 350 356
f 356 350 357
f 350 358 357
f 340 318 359
f 359 318 350
f 318 360 350
f 350 360 358
f 318 302 361
f 361 302 362
f 302 190 362
f 362 190 363
f 190 191 363
f 341 325 343
f 343 325 364
f 325 353 364
f 365 367 366
f 366 367 368
f 367 369 368
f 368 369 370
f 371 373 372
f 374 376 375
f 377 379 378
f 378 379 380
f 379 381 380
f 382 384 383
f 383 384 385
f 384 386 385
f 387 389 388
f 390 392 391
f 391 392 393
f 392 394 393
f 395 396 379
f 379 396 397
f 372 398 371
f 399 401 400
f 400 401 402
f 401 370 402
f 402 370 403
f 370 369 403
f 393 394 404
f 404 394 405
f 394 406 405
f 405 406 407
f 406 399 407
f 407 399 408
f 399 400 408
f 375 376 409
f 409 376 410
f 376 411 410
f 412 414 413
f 395 379 415
f 415 379 416
f 379 417 416
f 417 379 418
f 418 379 419
f 379 377 419
f 420 384 421
f 421 384 422
f 381 379 423
f 423 379 424
f 379 425 424
f 424 425 384
f 425 426 384
f 384 426 386
f 387 427 389
f 428 430 429
f 429 430 431
f 430 384 431
f 431 384 432
f 384 420 432
f 414 412 433
f 433 412 434
f 412 435 434
f 436 438 437
f 437 438 439
f 438 440 439
f 439 440 441
f 440 442 441
f 443 445 444
f 444 445 446
f 445 447 446
f 422 384 448
f 448 384 449
f 384 382 449
f 450 452 451
f 451 452 453
f 452 454 453
f 453 454 455
f 454 390 455
f 455 390 456
f 390 391 456
f 411 376 457
f 457 376 458
f 376 459 458
f 459 376 460
f 460 376 461
f 376 412 461
f 461 412 462
f 412 413 462
f 435 412 463
f 463 412 464
f 412 465 464
f 464 465 466
f 465 467 466
f 466 467 468
f 467 469 468
f 468 469 442
f 469 470 442
f 442 470 441
f 446 447 471
f 471 447 472
f 447 473 472
f 472 473 474
f 473 436 474
f 474 436 475
f 436 437 475
f 389 427 476
f 476 427 477
f 427 478 477
f 477 478 479
f 478 443 479
f 479 443 480
f 443 444 480
f 481 376 482
f 482 376 483
f 484 486 485
f 485 486 487
f 486 488 487
f 489 376 490
f 490 376 491
f 376 481 491
f 483 376 492
f 492 376 493
f 376 429 493
f 489 494 376
f 376 494 495
f 494 450 495
f 495 450 496
f 450 451 496
f 428 429 497
f 497 429 498
f 429 376 498
f 498 376 499
f 376 374 499
f 500 365 501
f 501 365 502
f 365 503 502
f 504 506 505
f 505 506 507
f 506 508 507
f 509 511 510
f 510 511 512
f 511 513 512
f 514 484 515
f 515 484 516
f 484 517 516
f 517 484 518
f 518 484 519
f 484 520 519
f 520 484 521
f 521 484 522
f 484 523 522
f 503 365 524
f 524 365 525
f 365 366 525
f 526 528 527
f 527 528 529
f 528 530 529
f 529 530 508
f 530 531 508
f 508 531 507
f 512 513 532
f 532 513 533
f 513 534 533
f 533 534 535
f 534 504 535
f 535 504 536
f 504 505 536
f 523 484 537
f 537 484 538
f 484 485 538
f 539 541 540
f 542 544 543
f 543 544 545
f 546 547 542
f 388 389 548
f 548 389 549
f 389 550 549
f 551 552 526
f 526 552 389
f 552 553 389
f 389 553 550
f 554 371 555
f 371 365 556
f 556 365 557
f 365 500 557
f 558 560 559
f 543 562 561
f 379 397 563
f 563 397 564
f 397 565 564
f 564 565 566
f 567 569 568
f 568 569 565
f 569 570 565
f 565 570 566
f 551 526 571
f 571 526 572
f 526 573 572
f 558 574 560
f 560 574 575
f 574 576 575
f 575 576 577
f 576 509 577
f 577 509 578
f 509 510 578
f 559 579 558
f 558 579 580
f 579 539 580
f 580 539 581
f 539 582 581
f 583 543 584
f 584 543 585
f 543 561 585
f 562 543 586
f 586 543 587
f 543 545 587
f 546 542 588
f 588 542 589
f 542 590 589
f 591 543 592
f 593 526 594
f 594 526 595
f 526 596 595
f 597 526 598
f 598 526 599
f 599 526 600
f 600 526 601
f 526 602 601
f 488 486 603
f 603 486 604
f 486 605 604
f 604 605 546
f 605 606 546
f 546 606 547
f 573 526 607
f 607 526 608
f 526 609 608
f 609 526 610
f 610 526 611
f 526 593 611
f 567 568 612
f 612 568 613
f 568 596 613
f 373 371 614
f 614 371 615
f 371 554 615
f 616 526 617
f 602 526 618
f 618 526 619
f 526 527 619
f 582 539 620
f 620 539 621
f 539 540 621
f 542 623 622
f 624 626 625
f 625 626 627
f 626 484 627
f 627 484 628
f 484 514 628
f 629 631 630
f 630 631 625
f 631 632 625
f 625 632 624
f 616 633 526
f 590 542 634
f 634 542 635
f 542 622 635
f 636 556 637
f 596 526 613
f 613 526 638
f 526 633 638
f 639 641 640
f 640 641 556
f 641 642 556
f 541 539 643
f 643 539 644
f 539 543 644
f 644 543 645
f 543 583 645
f 646 648 647
f 647 648 649
f 648 650 649
f 651 653 652
f 652 653 654
f 653 646 654
f 654 646 655
f 646 647 655
f 636 656 556
f 543 658 657
f 657 658 659
f 658 660 659
f 659 660 661
f 660 662 661
f 661 662 663
f 649 650 664
f 664 650 665
f 650 666 665
f 665 666 667
f 666 668 667
f 667 668 669
f 668 663 669
f 669 663 670
f 663 662 670
f 371 398 671
f 671 398 672
f 398 673 672
f 672 673 674
f 673 651 674
f 674 651 675
f 651 652 675
f 555 371 676
f 676 371 677
f 371 556 677
f 677 556 678
f 556 656 678
f 679 617 680
f 623 542 681
f 681 542 682
f 542 543 682
f 682 543 683
f 543 591 683
f 592 543 684
f 684 543 685
f 543 686 685
f 637 556 687
f 687 556 688
f 556 689 688
f 690 556 691
f 691 556 692
f 556 642 692
f 692 642 630
f 642 693 630
f 630 693 629
f 686 543 694
f 694 543 695
f 543 657 695
f 696 697 641
f 698 700 699
f 697 696 701
f 701 696 699
f 696 702 699
f 699 702 698
f 696 641 703
f 703 641 704
f 641 705 704
f 689 556 706
f 706 556 707
f 556 690 707
f 705 641 708
f 708 641 709
f 641 710 709
f 710 641 711
f 711 641 712
f 641 639 712
f 713 617 714
f 714 617 715
f 680 617 716
f 716 617 717
f 617 526 717
f 717 526 718
f 526 597 718
f 715 617 719
f 719 617 720
f 617 679 720
f 713 721 617
f 617 721 722
f 721 723 722
f 700 698 724
f 724 698 725
f 698 726 725
f 725 726 727
f 726 723 727
f 727 723 728
f 723 721 728
f 539 284 282
f 539 579 284
f 284 579 286
f 579 559 286
f 286 559 288
f 559 560 288
f 288 560 296
f 560 575 296
f 296 575 295
f 575 577 295
f 295 577 293
f 577 578 293
f 293 578 291
f 578 510 291
f 291 510 290
f 510 512 290
f 290 512 249
f 512 532 249
f 249 532 247
f 532 533 247
f 247 533 255
f 533 535 255
f 255 535 254
f 535 536 254
f 254 536 252
f 536 505 252
f 252 505 301
f 505 507 301
f 301 507 300
f 507 531 300
f 300 531 298
f 531 530 298
f 298 530 297
f 530 528 297
f 297 528 12
f 528 526 12
f 563 564 2
f 2 564 1
f 564 566 1
f 1 566 306
f 566 570 306
f 306 570 305
f 570 569 305
f 305 569 151
f 569 567 151
f 151 567 194
f 567 612 194
f 194 612 193
f 612 613 193
f 193 613 191
f 613 638 191
f 191 638 363
f 638 633 363
f 363 633 362
f 633 616 362
f 362 616 361
f 616 617 361
f 361 617 318
f 617 722 318
f 318 722 360
f 722 723 360
f 360 723 358
f 723 726 358
f 358 726 357
f 726 698 357
f 357 698 356
f 698 702 356
f 356 702 352
f 702 696 352
f 352 696 351
f 696 703 351
f 351 703 349
f 703 704 349
f 349 704 347
f 704 705 347
f 347 705 346
f 705 708 346
f 346 708 345
f 708 709 345
f 345 709 344
f 709 710 344
f 344 710 342
f 710 711 342
f 342 711 341
f 711 712 341
f 341 712 325
f 712 639 325
f 325 639 328
f 639 640 328
f 328 640 268
f 640 556 268
f 268 556 267
f 556 557 267
f 267 557 266
f 557 500 266
f 266 500 87
f 500 501 87
f 87 501 86
f 501 502 86
f 86 502 62
f 502 503 62
f 62 503 61
f 503 524 61
f 61 524 60
f 524 525 60
f 60 525 59
f 525 366 59
f 59 366 58
f 366 368 58
f 58 368 55
f 368 370 55
f 55 370 53
f 370 401 53
f 53 401 50
f 401 399 50
f 50 399 48
f 399 406 48
f 48 406 45
f 406 394 45
f 45 394 5
f 394 392 5
f 5 392 4
f 392 390 4
f 4 390 118
f 390 454 118
f 118 454 120
f 454 452 120
f 120 452 122
f 452 450 122
f 122 450 258
f 450 494 258
f 258 494 260
f 494 489 260
f 260 489 262
f 489 490 262
f 262 490 263
f 490 491 263
f 263 491 203
f 491 481 203
f 203 481 202
f 481 482 202
f 202 482 201
f 482 483 201
f 201 483 170
f 483 492 170
f 170 492 169
f 492 493 169
f 169 493 200
f 493 429 200
f 200 429 199
f 429 431 199
f 199 431 198
f 431 432 198
f 198 432 115
f 432 420 115
f 115 420 114
f 420 421 114
f 114 421 113
f 421 422 113
f 113 422 148
f 422 448 148
f 148 448 147
f 448 449 147
f 147 449 24
f 449 382 24
f 24 382 26
f 382 383 26
f 26 383 27
f 383 385 27
f 27 385 167
f 385 386 167
f 167 386 166
f 386 426 166
f 166 426 165
f 426 425 165
f 165 425 41
f 425 379 41
f 41 379 16
f 379 563 16
f 16 563 2
f 485 487 104
f 104 487 126
f 487 488 126
f 126 488 125
f 488 603 125
f 125 603 101
f 603 604 101
f 101 604 100
f 604 546 100
f 100 546 99
f 546 588 99
f 99 588 98
f 588 589 98
f 98 589 97
f 589 590 97
f 97 590 96
f 590 634 96
f 96 634 95
f 634 635 95
f 95 635 94
f 635 622 94
f 94 622 93
f 622 623 93
f 93 623 89
f 623 681 89
f 89 681 91
f 681 682 91
f 91 682 92
f 682 683 92
f 92 683 245
f 683 591 245
f 245 591 244
f 591 592 244
f 244 592 162
f 592 684 162
f 162 684 163
f 684 685 163
f 163 685 164
f 685 686 164
f 164 686 278
f 686 694 278
f 278 694 277
f 694 695 277
f 277 695 225
f 695 657 225
f 225 657 224
f 657 659 224
f 224 659 223
f 659 661 223
f 223 661 195
f 661 663 195
f 195 663 217
f 663 668 217
f 217 668 219
f 668 666 219
f 219 666 134
f 666 650 134
f 134 650 136
f 650 648 136
f 136 648 138
f 648 646 138
f 138 646 159
f 646 653 159
f 159 653 129
f 653 651 129
f 129 651 131
f 651 673 131
f 131 673 133
f 673 398 133
f 133 398 154
f 398 372 154
f 154 372 152
f 372 373 152
f 152 373 239
f 373 614 239
f 239 614 238
f 614 615 238
f 238 615 211
f 615 554 211
f 211 554 210
f 554 555 210
f 210 555 237
f 555 676 237
f 237 676 236
f 676 677 236
f 236 677 235
f 677 678 235
f 235 678 234
f 678 656 234
f 234 656 329
f 656 636 329
f 329 636 326
f 636 637 326
f 326 637 324
f 637 687 324
f 324 687 323
f 687 688 323
f 323 688 355
f 688 689 355
f 355 689 354
f 689 706 354
f 354 706 353
f 706 707 353
f 353 707 364
f 707 690 364
f 364 690 343
f 690 691 343
f 343 691 348
f 691 692 348
f 348 692 350
f 692 630 350
f 350 630 359
f 630 625 359
f 359 625 340
f 625 627 340
f 340 627 339
f 627 628 339
f 339 628 338
f 628 514 338
f 338 514 322
f 514 515 322
f 322 515 321
f 515 516 321
f 321 516 320
f 516 517 320
f 320 517 319
f 517 518 319
f 319 518 302
f 518 519 302
f 302 519 233
f 519 520 233
f 233 520 232
f 520 521 232
f 232 521 183
f 521 522 183
f 183 522 185
f 522 523 185
f 185 523 186
f 523 537 186
f 186 537 178
f 537 538 178
f 178 538 180
f 538 485 180
f 180 485 104
f 527 529 11
f 11 529 10
f 529 508 10
f 10 508 299
f 508 506 299
f 299 506 251
f 506 504 251
f 251 504 253
f 504 534 253
f 253 534 246
f 534 513 246
f 246 513 248
f 513 511 248
f 248 511 250
f 511 509 250
f 250 509 292
f 509 576 292
f 292 576 294
f 576 574 294
f 294 574 289
f 574 558 289
f 289 558 287
f 558 580 287
f 287 580 285
f 580 581 285
f 285 581 283
f 581 582 283
f 283 582 317
f 582 620 317
f 317 620 316
f 620 621 316
f 316 621 310
f 621 540 310
f 310 540 309
f 540 541 309
f 309 541 308
f 541 643 308
f 308 643 307
f 643 644 307
f 307 644 315
f 644 645 315
f 315 645 314
f 645 583 314
f 314 583 313
f 583 584 313
f 313 584 231
f 584 585 231
f 231 585 230
f 585 561 230
f 230 561 229
f 561 562 229
f 229 562 228
f 562 586 228
f 228 586 227
f 586 587 227
f 227 587 226
f 587 545 226
f 226 545 141
f 545 544 141
f 141 544 140
f 544 542 140
f 140 542 139
f 542 547 139
f 139 547 64
f 547 606 64
f 64 606 63
f 606 605 63
f 63 605 281
f 605 486 281
f 281 486 280
f 486 484 280
f 280 484 279
f 484 626 279
f 279 626 90
f 626 624 90
f 90 624 127
f 624 632 127
f 127 632 128
f 632 631 128
f 128 631 109
f 631 629 109
f 109 629 108
f 629 693 108
f 108 693 107
f 693 642 107
f 107 642 106
f 642 641 106
f 106 641 124
f 641 697 124
f 124 697 123
f 697 701 123
f 123 701 105
f 701 699 105
f 105 699 103
f 699 700 103
f 103 700 102
f 700 724 102
f 102 724 182
f 724 725 182
f 182 725 181
f 725 727 181
f 181 727 179
f 727 728 179
f 179 728 184
f 728 721 184
f 184 721 187
f 721 713 187
f 187 713 188
f 713 714 188
f 188 714 189
f 714 715 189
f 189 715 265
f 715 719 265
f 265 719 264
f 719 720 264
f 264 720 209
f 720 679 209
f 209 679 208
f 679 680 208
f 208 680 207
f 680 716 207
f 207 716 206
f 716 717 206
f 206 717 205
f 717 718 205
f 205 718 204
f 718 597 204
f 204 597 177
f 597 598 177
f 177 598 176
f 598 599 176
f 176 599 175
f 599 600 175
f 175 600 174
f 600 601 174
f 174 601 173
f 601 602 173
f 173 602 172
f 602 618 172
f 172 618 171
f 618 619 171
f 171 619 13
f 619 527 13
f 13 527 11
f 387 388 67
f 67 388 241
f 388 548 241
f 241 548 240
f 548 549 240
f 240 549 216
f 549 550 216
f 216 550 215
f 550 553 215
f 215 553 214
f 553 552 214
f 214 552 213
f 552 551 213
f 213 551 212
f 551 571 212
f 212 571 312
f 571 572 312
f 312 572 311
f 572 573 311
f 311 573 303
f 573 607 303
f 303 607 337
f 607 608 337
f 337 608 336
f 608 609 336
f 336 609 335
f 609 610 335
f 335 610 334
f 610 611 334
f 334 611 333
f 611 593 333
f 333 593 332
f 593 594 332
f 332 594 331
f 594 595 331
f 331 595 330
f 595 596 330
f 330 596 190
f 596 568 190
f 190 568 192
f 568 565 192
f 192 565 276
f 565 397 276
f 276 397 275
f 397 396 275
f 275 396 274
f 396 395 274
f 274 395 273
f 395 415 273
f 273 415 272
f 415 416 272
f 272 416 271
f 416 417 271
f 271 417 270
f 417 418 270
f 270 418 269
f 418 419 269
f 269 419 243
f 419 377 243
f 243 377 242
f 377 378 242
f 242 378 150
f 378 380 150
f 150 380 149
f 380 381 149
f 149 381 304
f 381 423 304
f 304 423 327
f 423 424 327
f 327 424 3
f 424 384 3
f 3 384 32
f 384 430 32
f 32 430 31
f 430 428 31
f 31 428 30
f 428 497 30
f 30 497 23
f 497 498 23
f 23 498 22
f 498 499 22
f 22 499 21
f 499 374 21
f 21 374 20
f 374 375 20
f 20 375 19
f 375 409 19
f 19 409 29
f 409 410 29
f 29 410 28
f 410 411 28
f 28 411 18
f 411 457 18
f 18 457 17
f 457 458 17
f 17 458 15
f 458 459 15
f 15 459 14
f 459 460 14
f 14 460 43
f 460 461 43
f 43 461 42
f 461 462 42
f 42 462 146
f 462 413 146
f 146 413 145
f 413 414 145
f 145 414 144
f 414 433 144
f 144 433 143
f 433 434 143
f 143 434 142
f 434 435 142
f 142 435 85
f 435 463 85
f 85 463 84
f 463 464 84
f 84 464 112
f 464 466 112
f 112 466 111
f 466 468 111
f 111 468 82
f 468 442 82
f 82 442 80
f 442 440 80
f 80 440 78
f 440 438 78
f 78 438 39
f 438 436 39
f 39 436 8
f 436 473 8
f 8 473 7
f 473 447 7
f 7 447 74
f 447 445 74
f 74 445 33
f 445 443 33
f 33 443 35
f 443 478 35
f 35 478 37
f 478 427 37
f 37 427 69
f 427 387 69
f 69 387 67
f 539 282 543
f 543 282 65
f 389 68 66
f 389 476 68
f 68 476 70
f 476 477 70
f 70 477 71
f 477 479 71
f 71 479 36
f 479 480 36
f 36 480 34
f 480 444 34
f 34 444 76
f 444 446 76
f 76 446 75
f 446 471 75
f 75 471 73
f 471 472 73
f 73 472 72
f 472 474 72
f 72 474 9
f 474 475 9
f 9 475 38
f 475 437 38
f 38 437 40
f 437 439 40
f 40 439 77
f 439 441 77
f 77 441 79
f 441 470 79
f 79 470 81
f 470 469 81
f 81 469 83
f 469 467 83
f 83 467 110
f 467 465 110
f 110 465 25
f 465 412 25
f 376 168 412
f 412 168 25
f 389 66 526
f 526 66 12
f 376 261 168
f 376 495 261
f 261 495 259
f 495 496 259
f 259 496 257
f 496 451 257
f 257 451 256
f 451 453 256
f 256 453 121
f 453 455 121
f 121 455 119
f 455 456 119
f 119 456 117
f 456 391 117
f 117 391 116
f 391 393 116
f 116 393 6
f 393 404 6
f 6 404 44
f 404 405 44
f 44 405 46
f 405 407 46
f 46 407 47
f 407 408 47
f 47 408 49
f 408 400 49
f 49 400 51
f 400 402 51
f 51 402 52
f 402 403 52
f 52 403 54
f 403 369 54
f 54 369 56
f 369 367 56
f 56 367 57
f 367 365 57
f 371 88 365
f 365 88 57
f 371 153 88
f 371 671 153
f 153 671 155
f 671 672 155
f 155 672 156
f 672 674 156
f 156 674 132
f 674 675 132
f 132 675 130
f 675 652 130
f 130 652 161
f 652 654 161
f 161 654 160
f 654 655 160
f 160 655 158
f 655 647 158
f 158 647 157
f 647 649 157
f 157 649 137
f 649 664 137
f 137 664 135
f 664 665 135
f 135 665 221
f 665 667 221
f 221 667 220
f 667 669 220
f 220 669 218
f 669 670 218
f 218 670 197
f 670 662 197
f 197 662 196
f 662 660 196
f 196 660 222
f 660 658 222
f 222 658 65
f 658 543 65
