# Generated MicroDuck mesh; do not edit by hand.
# Source: microduck_rl/src/mjlab_microduck/robot/microduck/assets/noenoeil.stl
# Source repository: https://github.com/pollen-robotics/microduck_rl.git@5946fd9cdbc58956424420153e51975af3b30d77
# Source SHA-256: f5492d8291da053bb4cb3f6680f90507648c4cfe1ef59f92b7d8f53e980d279b
# License: Creative Commons BY-SA-NC; see ../Licenses/ATTRIBUTION.json.
# Modified: exported MuJoCo-compiled mesh geometry in Tuanjie coordinates.
# Transform: (x,y,z) -> (-y,z,x); triangle winding reversed.
o noenoeil
v -0.00147600949 0.008370867 0.00532872789
v -0.00164965773 0.00935567357 0.00532872789
v -0.000740823802 0.00846765563 0.00532872789
v -0.000827979529 0.00946385041 0.00532872789
v 8.06825733e-15 0.00850000046 0.00532872789
v 8.06503861e-15 0.00950000063 0.00532872789
v 0.000740823802 0.00846765563 0.00532872789
v 0.000827979529 0.00946385041 0.00532872789
v 0.00147600949 0.008370867 0.00532872789
v 0.00164965773 0.00935567357 0.00532872789
v 0.00147600949 0.008370867 0.00382872857
v 0.000740823802 0.00846765563 0.00382872857
v 8.06825733e-15 0.00850000046 0.00382872857
v -0.000740823802 0.00846765563 0.00382872857
v -0.00147600949 0.008370867 0.00382872857
v -0.00164965773 0.00935567357 0.00382872857
v -0.000827979529 0.00946385041 0.00382872857
v 8.06503861e-15 0.00950000063 0.00382872857
v 0.000827979529 0.00946385041 0.00382872857
v 0.00164965773 0.00935567357 0.00382872857
v 0.000627521367 -0.00717260176 -0.00217127241
v 0.000801832823 -0.00916499086 -0.00417127274
v 0.00125026691 -0.00709061557 -0.00217127241
v 0.00159756327 -0.00906023104 -0.00417127274
v 0.00186349708 -0.00695466576 -0.00217127241
v 0.00238113524 -0.00888651703 -0.00417127274
v 0.00246254494 -0.00676578702 -0.00217127241
v 0.00314658531 -0.0086451713 -0.00417127274
v 0.00304285157 -0.00652541639 -0.00217127241
v 0.00388808805 -0.00833803136 -0.00417127274
v 0.00359999994 -0.00623538299 -0.00217127241
v 0.0046000001 -0.00796743296 -0.00417127274
v 0.00412975019 -0.00589789497 -0.00217127241
v 0.00527690304 -0.00753619848 -0.00417127274
v 0.00462807063 -0.00551552 -0.00217127241
v 0.00591364596 -0.00704760896 -0.00417127274
v 0.00509116892 -0.00509116845 -0.00217127241
v 0.00650538225 -0.00650538271 -0.00417127274
v 0.00551552 -0.0046280711 -0.00217127241
v 0.00704760896 -0.00591364643 -0.00417127274
v 0.0058978945 -0.00412975112 -0.00217127241
v 0.00753619894 -0.00527690304 -0.00417127274
v 0.00623538299 -0.00359999971 -0.00217127241
v 0.00796743389 -0.0046000001 -0.00417127274
v 0.00652541593 -0.00304285088 -0.00217127241
v 0.00833803136 -0.00388808758 -0.00417127274
v 0.00676578702 -0.00246254564 -0.00217127241
v 0.00864517223 -0.00314658531 -0.00417127274
v 0.00695466576 -0.00186349673 -0.00217127241
v 0.00888651796 -0.00238113501 -0.00417127274
v 0.00709061604 -0.00125026738 -0.00217127241
v 0.00906023104 -0.00159756315 -0.00417127274
v 0.00717260176 -0.000627521775 -0.00217127241
v 0.00916499086 -0.000801831833 -0.00417127274
v 0.00719999988 -3.40054679e-10 -0.00217127241
v 0.0092000002 -3.40054679e-10 -0.00417127274
v 0.00717260176 0.000627521076 -0.00217127241
v 0.00916499086 0.000801832997 -0.00417127274
v 0.00709061604 0.00125026668 -0.00217127241
v 0.00906023104 0.00159756246 -0.00417127274
v 0.00695466576 0.00186349789 -0.00217127241
v 0.00888651796 0.00238113455 -0.00417127274
v 0.00676578702 0.00246254518 -0.00217127241
v 0.00864517223 0.00314658484 -0.00417127274
v 0.00652541593 0.00304285227 -0.00217127241
v 0.00833803136 0.00388808898 -0.00417127274
v 0.00623538299 0.0036000011 -0.00217127241
v 0.00796743389 0.00459999917 -0.00417127274
v 0.0058978945 0.00412975019 -0.00217127241
v 0.00753619894 0.00527690304 -0.00417127274
v 0.00551552 0.0046280711 -0.00217127241
v 0.00704760896 0.00591364643 -0.00417127274
v 0.00509116892 0.00509116938 -0.00217127241
v 0.00650538225 0.00650538271 -0.00417127274
v 0.00462807063 0.00551551906 -0.00217127241
v 0.00591364596 0.00704760803 -0.00417127274
v 0.00412975019 0.00589789404 -0.00217127241
v 0.00527690304 0.00753619848 -0.00417127274
v 0.00359999994 0.00623538299 -0.00217127241
v 0.0046000001 0.00796743482 -0.00417127274
v 0.00304285157 0.00652541546 -0.00217127241
v 0.00388808805 0.00833803229 -0.00417127274
v 0.00246254494 0.00676578609 -0.00217127241
v 0.00314658531 0.00864517316 -0.00417127274
v 0.00186349708 0.00695466576 -0.00217127241
v 0.00238113524 0.00888651796 -0.00417127274
v 0.00125026691 0.00709061651 -0.00217127241
v 0.00159756327 0.00906023197 -0.00417127274
v 0.000627521367 0.00717260269 -0.00217127241
v 0.000801832823 0.00916499086 -0.00417127274
v 8.07998535e-15 0.00720000034 -0.00217127241
v 8.08467114e-15 0.00920000114 -0.00417127274
v -0.000627521367 0.00717260269 -0.00217127241
v -0.000801832823 0.00916499086 -0.00417127274
v -0.00125026691 0.00709061651 -0.00217127241
v -0.00159756327 0.00906023197 -0.00417127274
v -0.00186349708 0.00695466576 -0.00217127241
v -0.00238113524 0.00888651796 -0.00417127274
v -0.00246254494 0.00676578609 -0.00217127241
v -0.00314658531 0.00864517316 -0.00417127274
v -0.00304285157 0.00652541546 -0.00217127241
v -0.00388808805 0.00833803229 -0.00417127274
v -0.00359999994 0.00623538299 -0.00217127241
v -0.0046000001 0.00796743482 -0.00417127274
v -0.00412975019 0.00589789404 -0.00217127241
v -0.00527690304 0.00753619848 -0.00417127274
v -0.00462807063 0.00551551906 -0.00217127241
v -0.00591364596 0.00704760803 -0.00417127274
v -0.00509116892 0.00509116938 -0.00217127241
v -0.00650538225 0.00650538271 -0.00417127274
v -0.00551552 0.0046280711 -0.00217127241
v -0.00704760896 0.00591364643 -0.00417127274
v -0.0058978945 0.00412975019 -0.00217127241
v -0.00753619894 0.00527690304 -0.00417127274
v -0.00623538299 0.0036000011 -0.00217127241
v -0.00796743389 0.00459999917 -0.00417127274
v -0.00652541593 0.00304285227 -0.00217127241
v -0.00833803136 0.00388808898 -0.00417127274
v -0.00676578702 0.00246254518 -0.00217127241
v -0.00864517223 0.00314658484 -0.00417127274
v -0.00695466576 0.00186349789 -0.00217127241
v -0.00888651796 0.00238113455 -0.00417127274
v -0.00709061604 0.00125026668 -0.00217127241
v -0.00906023104 0.00159756246 -0.00417127274
v -0.00717260176 0.000627521076 -0.00217127241
v -0.00916499086 0.000801832997 -0.00417127274
v -0.00719999988 -3.40054679e-10 -0.00217127241
v -0.0092000002 -3.40054679e-10 -0.00417127274
v -0.00717260176 -0.000627521775 -0.00217127241
v -0.00916499086 -0.000801831833 -0.00417127274
v -0.00709061604 -0.00125026738 -0.00217127241
v -0.00906023104 -0.00159756315 -0.00417127274
v -0.00695466576 -0.00186349673 -0.00217127241
v -0.00888651796 -0.00238113501 -0.00417127274
v -0.00676578702 -0.00246254564 -0.00217127241
v -0.00864517223 -0.00314658531 -0.00417127274
v -0.00652541593 -0.00304285088 -0.00217127241
v -0.00833803136 -0.00388808758 -0.00417127274
v -0.00623538299 -0.00359999971 -0.00217127241
v -0.00796743389 -0.0046000001 -0.00417127274
v -0.0058978945 -0.00412975112 -0.00217127241
v -0.00753619894 -0.00527690304 -0.00417127274
v -0.00551552 -0.0046280711 -0.00217127241
v -0.00704760896 -0.00591364643 -0.00417127274
v -0.00509116892 -0.00509116845 -0.00217127241
v -0.00650538225 -0.00650538271 -0.00417127274
v -0.00462807063 -0.00551552 -0.00217127241
v -0.00591364596 -0.00704760896 -0.00417127274
v -0.00412975019 -0.00589789497 -0.00217127241
v -0.00527690304 -0.00753619848 -0.00417127274
v -0.00359999994 -0.00623538299 -0.00217127241
v -0.0046000001 -0.00796743296 -0.00417127274
v -0.00304285157 -0.00652541639 -0.00217127241
v -0.00388808805 -0.00833803136 -0.00417127274
v -0.00246254494 -0.00676578702 -0.00217127241
v -0.00314658531 -0.0086451713 -0.00417127274
v -0.00186349708 -0.00695466576 -0.00217127241
v -0.00238113524 -0.00888651703 -0.00417127274
v -0.00125026691 -0.00709061557 -0.00217127241
v -0.00159756327 -0.00906023104 -0.00417127274
v -0.000627521367 -0.00717260176 -0.00217127241
v -0.000801832823 -0.00916499086 -0.00417127274
v 8.06311584e-15 -0.00720000034 -0.00217127241
v 8.06086273e-15 -0.00919999927 -0.00417127274
v -0.00798738748 -0.00290717022 0.00532872789
v -0.00798738748 -0.00290717022 0.00382872857
v -0.00770361628 -0.00359225483 0.00532872789
v -0.00770361628 -0.00359225483 0.00382872857
v -0.007361216 -0.00424999977 0.00532872789
v -0.007361216 -0.00424999977 0.00382872857
v -0.00696279248 -0.00487539964 0.00532872789
v -0.00696279248 -0.00487539964 0.00382872857
v -0.00651137764 -0.00546369469 0.00532872789
v -0.00651137764 -0.00546369469 0.00382872857
v 8.05944226e-15 0.0150000006 -0.00367127173
v 0.00126375828 0.0144448243 -0.00417127274
v 0.00130733615 0.0149429217 -0.00367127173
v 0.00251789857 0.014279712 -0.00417127274
v 0.00260472274 0.0147721171 -0.00367127173
v 0.00375287607 0.0140059255 -0.00417127274
v 0.00388228567 0.014488887 -0.00367127173
v 0.00495929224 0.0136255436 -0.00417127274
v 0.00513030216 0.0140953884 -0.00367127173
v 0.00612796471 0.0131414644 -0.00417127274
v 0.00633927388 0.0135946162 -0.00367127173
v 0.00724999979 0.0125573687 -0.00417127274
v 0.00749999983 0.0129903816 -0.00367127173
v 0.00831685867 0.0118777044 -0.00417127274
v 0.00860364642 0.0122872815 -0.00367127173
v 0.00932042021 0.0111076441 -0.00417127274
v 0.00964181405 0.0114906654 -0.00367127173
v 0.0102530485 0.0102530494 -0.00417127274
v 0.0106066018 0.0106066018 -0.00367127173
v 0.0111076441 0.00932042114 -0.00417127274
v 0.0114906663 0.00964181498 -0.00367127173
v 0.0118777044 0.0083168596 -0.00417127274
v 0.0122872805 0.00860364735 -0.00367127173
v 0.0125573687 0.00724999933 -0.00417127274
v 0.0129903806 0.00749999983 -0.00367127173
v 0.0131414626 0.00612796424 -0.00417127274
v 0.0135946171 0.00633927388 -0.00367127173
v 0.0136255426 0.00495929224 -0.00417127274
v 0.0140953893 0.0051303017 -0.00367127173
v 0.0140059246 0.00375287584 -0.00417127274
v 0.014488887 0.00388228497 -0.00367127173
v 0.014279712 0.00251789927 -0.00417127274
v 0.0147721162 0.00260472274 -0.00367127173
v 0.0144448234 0.00126375782 -0.00417127274
v 0.0149429208 0.00130733626 -0.00367127173
v 0.0144999996 -3.40054679e-10 -0.00417127274
v 0.0149999997 -3.40054679e-10 -0.00367127173
v 0.0144448234 -0.00126375852 -0.00417127274
v 0.0149429208 -0.00130733696 -0.00367127173
v 0.014279712 -0.00251789787 -0.00417127274
v 0.0147721162 -0.00260472321 -0.00367127173
v 0.0140059246 -0.00375287631 -0.00417127274
v 0.014488887 -0.00388228544 -0.00367127173
v 0.0136255426 -0.00495929224 -0.00417127274
v 0.0140953893 -0.00513030263 -0.00367127173
v 0.0131414626 -0.00612796517 -0.00417127274
v 0.0135946171 -0.00633927388 -0.00367127173
v 0.0125573687 -0.00725000026 -0.00417127274
v 0.0129903806 -0.00749999983 -0.00367127173
v 0.0118777044 -0.00831685774 -0.00417127274
v 0.0122872805 -0.00860364642 -0.00367127173
v 0.0111076441 -0.00932042021 -0.00417127274
v 0.0114906663 -0.00964181405 -0.00367127173
v 0.0102530485 -0.0102530476 -0.00417127274
v 0.0106066018 -0.0106066009 -0.00367127173
v 0.00932042021 -0.0111076441 -0.00417127274
v 0.00964181405 -0.0114906663 -0.00367127173
v 0.00831685867 -0.0118777044 -0.00417127274
v 0.00860364642 -0.0122872805 -0.00367127173
v 0.00724999979 -0.0125573678 -0.00417127274
v 0.00749999983 -0.0129903806 -0.00367127173
v 0.00612796471 -0.0131414626 -0.00417127274
v 0.00633927388 -0.0135946162 -0.00367127173
v 0.00495929224 -0.0136255426 -0.00417127274
v 0.00513030216 -0.0140953893 -0.00367127173
v 0.00375287607 -0.0140059246 -0.00417127274
v 0.00388228567 -0.014488887 -0.00367127173
v 0.00251789857 -0.014279712 -0.00417127274
v 0.00260472274 -0.0147721162 -0.00367127173
v 0.00126375828 -0.0144448224 -0.00417127274
v 0.00130733615 -0.0149429198 -0.00367127173
v 8.06844368e-15 -0.0144999996 -0.00417127274
v 8.06495306e-15 -0.0149999997 -0.00367127173
v -0.00126375828 -0.0144448224 -0.00417127274
v -0.00130733615 -0.0149429198 -0.00367127173
v -0.00251789857 -0.014279712 -0.00417127274
v -0.00260472274 -0.0147721162 -0.00367127173
v -0.00375287607 -0.0140059246 -0.00417127274
v -0.00388228567 -0.014488887 -0.00367127173
v -0.00495929224 -0.0136255426 -0.00417127274
v -0.00513030216 -0.0140953893 -0.00367127173
v -0.00612796471 -0.0131414626 -0.00417127274
v -0.00633927388 -0.0135946162 -0.00367127173
v -0.00724999979 -0.0125573678 -0.00417127274
v -0.00749999983 -0.0129903806 -0.00367127173
v -0.00831685867 -0.0118777044 -0.00417127274
v -0.00860364642 -0.0122872805 -0.00367127173
v -0.00932042021 -0.0111076441 -0.00417127274
v -0.00964181405 -0.0114906663 -0.00367127173
v -0.0102530485 -0.0102530476 -0.00417127274
v -0.0106066018 -0.0106066009 -0.00367127173
v -0.0111076441 -0.00932042021 -0.00417127274
v -0.0114906663 -0.00964181405 -0.00367127173
v -0.0118777044 -0.00831685774 -0.00417127274
v -0.0122872805 -0.00860364642 -0.00367127173
v -0.0125573687 -0.00725000026 -0.00417127274
v -0.0129903806 -0.00749999983 -0.00367127173
v -0.0131414626 -0.00612796517 -0.00417127274
v -0.0135946171 -0.00633927388 -0.00367127173
v -0.0136255426 -0.00495929224 -0.00417127274
v -0.0140953893 -0.00513030263 -0.00367127173
v -0.0140059246 -0.00375287631 -0.00417127274
v -0.014488887 -0.00388228544 -0.00367127173
v -0.014279712 -0.00251789787 -0.00417127274
v -0.0147721162 -0.00260472321 -0.00367127173
v -0.0144448234 -0.00126375852 -0.00417127274
v -0.0149429208 -0.00130733696 -0.00367127173
v -0.0144999996 -3.40054679e-10 -0.00417127274
v -0.0149999997 -3.40054679e-10 -0.00367127173
v -0.0144448234 0.00126375782 -0.00417127274
v -0.0149429208 0.00130733626 -0.00367127173
v -0.014279712 0.00251789927 -0.00417127274
v -0.0147721162 0.00260472274 -0.00367127173
v -0.0140059246 0.00375287584 -0.00417127274
v -0.014488887 0.00388228497 -0.00367127173
v -0.0136255426 0.00495929224 -0.00417127274
v -0.0140953893 0.0051303017 -0.00367127173
v -0.0131414626 0.00612796424 -0.00417127274
v -0.0135946171 0.00633927388 -0.00367127173
v -0.0125573687 0.00724999933 -0.00417127274
v -0.0129903806 0.00749999983 -0.00367127173
v -0.0118777044 0.0083168596 -0.00417127274
v -0.0122872805 0.00860364735 -0.00367127173
v -0.0111076441 0.00932042114 -0.00417127274
v -0.0114906663 0.00964181498 -0.00367127173
v -0.0102530485 0.0102530494 -0.00417127274
v -0.0106066018 0.0106066018 -0.00367127173
v -0.00932042021 0.0111076441 -0.00417127274
v -0.00964181405 0.0114906654 -0.00367127173
v -0.00831685867 0.0118777044 -0.00417127274
v -0.00860364642 0.0122872815 -0.00367127173
v -0.00724999979 0.0125573687 -0.00417127274
v -0.00749999983 0.0129903816 -0.00367127173
v -0.00612796471 0.0131414644 -0.00417127274
v -0.00633927388 0.0135946162 -0.00367127173
v -0.00495929224 0.0136255436 -0.00417127274
v -0.00513030216 0.0140953884 -0.00367127173
v -0.00375287607 0.0140059255 -0.00417127274
v -0.00388228567 0.014488887 -0.00367127173
v -0.00251789857 0.014279712 -0.00417127274
v -0.00260472274 0.0147721171 -0.00367127173
v -0.00126375828 0.0144448243 -0.00417127274
v -0.00130733615 0.0149429217 -0.00367127173
v 8.06311584e-15 0.0144999996 -0.00417127274
v 8.06311584e-15 0.0150000006 0.00382872857
v 0.00130733615 0.0149429217 0.00382872857
v 0.00260472274 0.0147721171 0.00382872857
v 0.00388228567 0.014488887 0.00382872857
v 0.00513030216 0.0140953884 0.00382872857
v 0.00633927388 0.0135946162 0.00382872857
v 0.00749999983 0.0129903816 0.00382872857
v 0.00860364642 0.0122872815 0.00382872857
v 0.00964181405 0.0114906654 0.00382872857
v 0.0106066018 0.0106066018 0.00382872857
v 0.0114906663 0.00964181498 0.00382872857
v 0.0122872805 0.00860364735 0.00382872857
v 0.0129903806 0.00749999983 0.00382872857
v 0.0135946171 0.00633927388 0.00382872857
v 0.0140953893 0.0051303017 0.00382872857
v 0.014488887 0.00388228497 0.00382872857
v 0.0147721162 0.00260472274 0.00382872857
v 0.0149429208 0.00130733626 0.00382872857
v 0.0149999997 -3.40054679e-10 0.00382872857
v 0.0149429208 -0.00130733696 0.00382872857
v 0.0147721162 -0.00260472321 0.00382872857
v 0.014488887 -0.00388228544 0.00382872857
v 0.0140953893 -0.00513030263 0.00382872857
v 0.0135946171 -0.00633927388 0.00382872857
v 0.0129903806 -0.00749999983 0.00382872857
v 0.0122872805 -0.00860364642 0.00382872857
v 0.0114906663 -0.00964181405 0.00382872857
v 0.0106066018 -0.0106066009 0.00382872857
v 0.00964181405 -0.0114906663 0.00382872857
v 0.00860364642 -0.0122872805 0.00382872857
v 0.00749999983 -0.0129903806 0.00382872857
v 0.00633927388 -0.0135946162 0.00382872857
v 0.00513030216 -0.0140953893 0.00382872857
v 0.00388228567 -0.014488887 0.00382872857
v 0.00260472274 -0.0147721162 0.00382872857
v 0.00130733615 -0.0149429198 0.00382872857
v 8.06495306e-15 -0.0149999997 0.00382872857
v -0.00130733615 -0.0149429198 0.00382872857
v -0.00260472274 -0.0147721162 0.00382872857
v -0.00388228567 -0.014488887 0.00382872857
v -0.00513030216 -0.0140953893 0.00382872857
v -0.00633927388 -0.0135946162 0.00382872857
v -0.00749999983 -0.0129903806 0.00382872857
v -0.00860364642 -0.0122872805 0.00382872857
v -0.00964181405 -0.0114906663 0.00382872857
v -0.0106066018 -0.0106066009 0.00382872857
v -0.0114906663 -0.00964181405 0.00382872857
v -0.0122872805 -0.00860364642 0.00382872857
v -0.0129903806 -0.00749999983 0.00382872857
v -0.0135946171 -0.00633927388 0.00382872857
v -0.0140953893 -0.00513030263 0.00382872857
v -0.014488887 -0.00388228544 0.00382872857
v -0.0147721162 -0.00260472321 0.00382872857
v -0.0149429208 -0.00130733696 0.00382872857
v -0.0149999997 -3.40054679e-10 0.00382872857
v -0.0149429208 0.00130733626 0.00382872857
v -0.0147721162 0.00260472274 0.00382872857
v -0.014488887 0.00388228497 0.00382872857
v -0.0140953893 0.0051303017 0.00382872857
v -0.0135946171 0.00633927388 0.00382872857
v -0.0129903806 0.00749999983 0.00382872857
v -0.0122872805 0.00860364735 0.00382872857
v -0.0114906663 0.00964181498 0.00382872857
v -0.0106066018 0.0106066018 0.00382872857
v -0.00964181405 0.0114906654 0.00382872857
v -0.00860364642 0.0122872815 0.00382872857
v -0.00749999983 0.0129903816 0.00382872857
v -0.00633927388 0.0135946162 0.00382872857
v -0.00513030216 0.0140953884 0.00382872857
v -0.00388228567 0.014488887 0.00382872857
v -0.00260472274 0.0147721171 0.00382872857
v -0.00130733615 0.0149429217 0.00382872857
v -0.00727742212 -0.00610648235 0.00532872789
v -0.00778194424 -0.00544897607 0.00532872789
v -0.00822724123 -0.00474999985 0.00532872789
v -0.00860992353 -0.00401487434 0.00532872789
v -0.00892707985 -0.00324919098 0.00532872789
v 8.06311584e-15 0.00720000034 0.00382872857
v -0.000627521367 0.00717260269 0.00382872857
v -0.00125026691 0.00709061651 0.00382872857
v -0.00186349708 0.00695466576 0.00382872857
v -0.00246254494 0.00676578609 0.00382872857
v -0.00304285157 0.00652541546 0.00382872857
v -0.00892707985 -0.00324919098 0.00382872857
v -0.00860992353 -0.00401487434 0.00382872857
v -0.00709061604 0.00125026668 0.00382872857
v -0.00717260176 0.000627521076 0.00382872857
v 0.00304285157 0.00652541546 0.00382872857
v 0.00246254494 0.00676578609 0.00382872857
v -0.0058978945 0.00412975019 0.00382872857
v -0.00551552 0.0046280711 0.00382872857
v -0.00509116892 0.00509116938 0.00382872857
v -0.00623538299 0.0036000011 0.00382872857
v -0.00652541593 0.00304285227 0.00382872857
v -0.00676578702 0.00246254518 0.00382872857
v -0.00727742212 -0.00610648235 0.00382872857
v -0.00778194424 -0.00544897607 0.00382872857
v -0.00822724123 -0.00474999985 0.00382872857
v 0.00462807063 -0.00551552 0.00382872857
v 0.00651137764 -0.00546369469 0.00382872857
v 0.00412975019 -0.00589789497 0.00382872857
v 0.00359999994 -0.00623538299 0.00382872857
v 0.00892707985 -0.00324919098 0.00382872857
v 0.00359999994 0.00623538299 0.00382872857
v -0.00359999994 0.00623538299 0.00382872857
v -0.00412975019 0.00589789404 0.00382872857
v -0.00462807063 0.00551551906 0.00382872857
v 0.00798738748 -0.00290717022 0.00382872857
v -0.00695466576 0.00186349789 0.00382872857
v -0.00509116892 -0.00509116845 0.00382872857
v -0.00462807063 -0.00551552 0.00382872857
v -0.00719999988 -3.40054679e-10 0.00382872857
v -0.00717260176 -0.000627521775 0.00382872857
v -0.00709061604 -0.00125026738 0.00382872857
v -0.00695466576 -0.00186349673 0.00382872857
v -0.00676578702 -0.00246254564 0.00382872857
v -0.00652541593 -0.00304285088 0.00382872857
v -0.00623538299 -0.00359999971 0.00382872857
v -0.0058978945 -0.00412975112 0.00382872857
v -0.00551552 -0.0046280711 0.00382872857
v 0.00860992353 -0.00401487434 0.00382872857
v 0.00822724123 -0.00474999985 0.00382872857
v 0.00778194424 -0.00544897607 0.00382872857
v 0.00727742212 -0.00610648235 0.00382872857
v 0.00709061604 0.00125026668 0.00382872857
v 0.00695466576 0.00186349789 0.00382872857
v 0.00676578702 0.00246254518 0.00382872857
v 0.00652541593 0.00304285227 0.00382872857
v 0.00246254494 -0.00676578702 0.00382872857
v 0.00304285157 -0.00652541639 0.00382872857
v 0.000627521367 0.00717260269 0.00382872857
v 0.00125026691 0.00709061651 0.00382872857
v 0.00186349708 0.00695466576 0.00382872857
v 0.00695466576 -0.00186349673 0.00382872857
v 0.00709061604 -0.00125026738 0.00382872857
v 0.00623538299 0.0036000011 0.00382872857
v 0.0058978945 0.00412975019 0.00382872857
v 0.00551552 0.0046280711 0.00382872857
v -0.00412975019 -0.00589789497 0.00382872857
v -0.00359999994 -0.00623538299 0.00382872857
v -0.00304285157 -0.00652541639 0.00382872857
v -0.00246254494 -0.00676578702 0.00382872857
v -0.00186349708 -0.00695466576 0.00382872857
v -0.00125026691 -0.00709061557 0.00382872857
v -0.000627521367 -0.00717260176 0.00382872857
v 8.06576113e-15 -0.00720000034 0.00382872857
v 0.000627521367 -0.00717260176 0.00382872857
v 0.00125026691 -0.00709061557 0.00382872857
v 0.00186349708 -0.00695466576 0.00382872857
v 0.00509116892 -0.00509116845 0.00382872857
v 0.00551552 -0.0046280711 0.00382872857
v 0.00696279248 -0.00487539964 0.00382872857
v 0.0058978945 -0.00412975112 0.00382872857
v 0.007361216 -0.00424999977 0.00382872857
v 0.00623538299 -0.00359999971 0.00382872857
v 0.00770361628 -0.00359225483 0.00382872857
v 0.00652541593 -0.00304285088 0.00382872857
v 0.00676578702 -0.00246254564 0.00382872857
v 0.00717260176 -0.000627521775 0.00382872857
v 0.00719999988 -3.40054679e-10 0.00382872857
v 0.00717260176 0.000627521076 0.00382872857
v 0.00462807063 0.00551551906 0.00382872857
v 0.00412975019 0.00589789404 0.00382872857
v 0.00509116892 0.00509116938 0.00382872857
v 0.00651137764 -0.00546369469 0.00532872789
v 0.00727742212 -0.00610648235 0.00532872789
v 0.00696279248 -0.00487539964 0.00532872789
v 0.007361216 -0.00424999977 0.00532872789
v 0.00770361628 -0.00359225483 0.00532872789
v 0.00798738748 -0.00290717022 0.00532872789
v 0.00892707985 -0.00324919098 0.00532872789
v 0.00860992353 -0.00401487434 0.00532872789
v 0.00822724123 -0.00474999985 0.00532872789
v 0.00778194424 -0.00544897607 0.00532872789
f 1 3 2
f 2 3 4
f 3 5 4
f 4 5 6
f 5 7 6
f 6 7 8
f 7 9 8
f 8 9 10
f 9 7 11
f 11 7 12
f 7 5 12
f 12 5 13
f 5 3 13
f 13 3 14
f 3 1 14
f 14 1 15
f 2 17 16
f 2 4 17
f 17 4 18
f 4 6 18
f 18 6 19
f 6 8 19
f 19 8 20
f 8 10 20
f 21 23 22
f 22 23 24
f 23 25 24
f 24 25 26
f 25 27 26
f 26 27 28
f 27 29 28
f 28 29 30
f 29 31 30
f 30 31 32
f 31 33 32
f 32 33 34
f 33 35 34
f 34 35 36
f 35 37 36
f 36 37 38
f 37 39 38
f 38 39 40
f 39 41 40
f 40 41 42
f 41 43 42
f 42 43 44
f 43 45 44
f 44 45 46
f 45 47 46
f 46 47 48
f 47 49 48
f 48 49 50
f 49 51 50
f 50 51 52
f 51 53 52
f 52 53 54
f 53 55 54
f 54 55 56
f 55 57 56
f 56 57 58
f 57 59 58
f 58 59 60
f 59 61 60
f 60 61 62
f 61 63 62
f 62 63 64
f 63 65 64
f 64 65 66
f 65 67 66
f 66 67 68
f 67 69 68
f 68 69 70
f 69 71 70
f 70 71 72
f 71 73 72
f 72 73 74
f 73 75 74
f 74 75 76
f 75 77 76
f 76 77 78
f 77 79 78
f 78 79 80
f 79 81 80
f 80 81 82
f 81 83 82
f 82 83 84
f 83 85 84
f 84 85 86
f 85 87 86
f 86 87 88
f 87 89 88
f 88 89 90
f 89 91 90
f 90 91 92
f 91 93 92
f 92 93 94
f 93 95 94
f 94 95 96
f 95 97 96
f 96 97 98
f 97 99 98
f 98 99 100
f 99 101 100
f 100 101 102
f 101 103 102
f 102 103 104
f 103 105 104
f 104 105 106
f 105 107 106
f 106 107 108
f 107 109 108
f 108 109 110
f 109 111 110
f 110 111 112
f 111 113 112
f 112 113 114
f 113 115 114
f 114 115 116
f 115 117 116
f 116 117 118
f 117 119 118
f 118 119 120
f 119 121 120
f 120 121 122
f 121 123 122
f 122 123 124
f 123 125 124
f 124 125 126
f 125 127 126
f 126 127 128
f 127 129 128
f 128 129 130
f 129 131 130
f 130 131 132
f 131 133 132
f 132 133 134
f 133 135 134
f 134 135 136
f 135 137 136
f 136 137 138
f 137 139 138
f 138 139 140
f 139 141 140
f 140 141 142
f 141 143 142
f 142 143 144
f 143 145 144
f 144 145 146
f 145 147 146
f 146 147 148
f 147 149 148
f 148 149 150
f 149 151 150
f 150 151 152
f 151 153 152
f 152 153 154
f 153 155 154
f 154 155 156
f 155 157 156
f 156 157 158
f 157 159 158
f 158 159 160
f 159 161 160
f 160 161 162
f 161 163 162
f 162 163 164
f 163 21 164
f 164 21 22
f 165 167 166
f 166 167 168
f 167 169 168
f 168 169 170
f 169 171 170
f 170 171 172
f 171 173 172
f 172 173 174
f 2 16 1
f 1 16 15
f 175 177 176
f 176 177 178
f 177 179 178
f 178 179 180
f 179 181 180
f 180 181 182
f 181 183 182
f 182 183 184
f 183 185 184
f 184 185 186
f 185 187 186
f 186 187 188
f 187 189 188
f 188 189 190
f 189 191 190
f 190 191 192
f 191 193 192
f 192 193 194
f 193 195 194
f 194 195 196
f 195 197 196
f 196 197 198
f 197 199 198
f 198 199 200
f 199 201 200
f 200 201 202
f 201 203 202
f 202 203 204
f 203 205 204
f 204 205 206
f 205 207 206
f 206 207 208
f 207 209 208
f 208 209 210
f 209 211 210
f 210 211 212
f 211 213 212
f 212 213 214
f 213 215 214
f 214 215 216
f 215 217 216
f 216 217 218
f 217 219 218
f 218 219 220
f 219 221 220
f 220 221 222
f 221 223 222
f 222 223 224
f 223 225 224
f 224 225 226
f 225 227 226
f 226 227 228
f 227 229 228
f 228 229 230
f 229 231 230
f 230 231 232
f 231 233 232
f 232 233 234
f 233 235 234
f 234 235 236
f 235 237 236
f 236 237 238
f 237 239 238
f 238 239 240
f 239 241 240
f 240 241 242
f 241 243 242
f 242 243 244
f 243 245 244
f 244 245 246
f 245 247 246
f 246 247 248
f 247 249 248
f 248 249 250
f 249 251 250
f 250 251 252
f 251 253 252
f 252 253 254
f 253 255 254
f 254 255 256
f 255 257 256
f 256 257 258
f 257 259 258
f 258 259 260
f 259 261 260
f 260 261 262
f 261 263 262
f 262 263 264
f 263 265 264
f 264 265 266
f 265 267 266
f 266 267 268
f 267 269 268
f 268 269 270
f 269 271 270
f 270 271 272
f 271 273 272
f 272 273 274
f 273 275 274
f 274 275 276
f 275 277 276
f 276 277 278
f 277 279 278
f 278 279 280
f 279 281 280
f 280 281 282
f 281 283 282
f 282 283 284
f 283 285 284
f 284 285 286
f 285 287 286
f 286 287 288
f 287 289 288
f 288 289 290
f 289 291 290
f 290 291 292
f 291 293 292
f 292 293 294
f 293 295 294
f 294 295 296
f 295 297 296
f 296 297 298
f 297 299 298
f 298 299 300
f 299 301 300
f 300 301 302
f 301 303 302
f 302 303 304
f 303 305 304
f 304 305 306
f 305 307 306
f 306 307 308
f 307 309 308
f 308 309 310
f 309 311 310
f 310 311 312
f 311 313 312
f 312 313 314
f 313 315 314
f 314 315 316
f 315 317 316
f 316 317 318
f 317 175 318
f 318 175 176
f 9 11 10
f 10 11 20
f 319 320 177
f 177 320 179
f 320 321 179
f 179 321 181
f 321 322 181
f 181 322 183
f 322 323 183
f 183 323 185
f 323 324 185
f 185 324 187
f 324 325 187
f 187 325 189
f 325 326 189
f 189 326 191
f 326 327 191
f 191 327 193
f 327 328 193
f 193 328 195
f 328 329 195
f 195 329 197
f 329 330 197
f 197 330 199
f 330 331 199
f 199 331 201
f 331 332 201
f 201 332 203
f 332 333 203
f 203 333 205
f 333 334 205
f 205 334 207
f 334 335 207
f 207 335 209
f 335 336 209
f 209 336 211
f 336 337 211
f 211 337 213
f 337 338 213
f 213 338 215
f 338 339 215
f 215 339 217
f 339 340 217
f 217 340 219
f 340 341 219
f 219 341 221
f 341 342 221
f 221 342 223
f 342 343 223
f 223 343 225
f 343 344 225
f 225 344 227
f 344 345 227
f 227 345 229
f 345 346 229
f 229 346 231
f 346 347 231
f 231 347 233
f 347 348 233
f 233 348 235
f 348 349 235
f 235 349 237
f 349 350 237
f 237 350 239
f 350 351 239
f 239 351 241
f 351 352 241
f 241 352 243
f 352 353 243
f 243 353 245
f 353 354 245
f 245 354 247
f 354 355 247
f 247 355 249
f 355 356 249
f 249 356 251
f 356 357 251
f 251 357 253
f 357 358 253
f 253 358 255
f 358 359 255
f 255 359 257
f 359 360 257
f 257 360 259
f 360 361 259
f 259 361 261
f 361 362 261
f 261 362 263
f 362 363 263
f 263 363 265
f 363 364 265
f 265 364 267
f 364 365 267
f 267 365 269
f 365 366 269
f 269 366 271
f 366 367 271
f 271 367 273
f 367 368 273
f 273 368 275
f 368 369 275
f 275 369 277
f 369 370 277
f 277 370 279
f 370 371 279
f 279 371 281
f 371 372 281
f 281 372 283
f 372 373 283
f 283 373 285
f 373 374 285
f 285 374 287
f 374 375 287
f 287 375 289
f 375 376 289
f 289 376 291
f 376 377 291
f 291 377 293
f 377 378 293
f 293 378 295
f 378 379 295
f 295 379 297
f 379 380 297
f 297 380 299
f 380 381 299
f 299 381 301
f 381 382 301
f 301 382 303
f 382 383 303
f 303 383 305
f 383 384 305
f 305 384 307
f 384 385 307
f 307 385 309
f 385 386 309
f 309 386 311
f 386 387 311
f 311 387 313
f 387 388 313
f 313 388 315
f 388 389 315
f 315 389 317
f 389 390 317
f 317 390 175
f 390 319 175
f 175 319 177
f 173 171 391
f 391 171 392
f 171 169 392
f 392 169 393
f 169 167 393
f 393 167 394
f 167 165 394
f 394 165 395
f 386 16 387
f 387 16 388
f 388 16 389
f 16 17 389
f 389 17 390
f 17 18 390
f 390 18 319
f 18 19 319
f 319 19 320
f 19 20 320
f 320 20 321
f 373 15 374
f 374 15 375
f 15 376 375
f 382 15 383
f 383 15 384
f 15 16 384
f 384 16 385
f 16 386 385
f 396 15 397
f 397 15 398
f 398 15 399
f 399 15 400
f 15 401 400
f 370 369 402
f 402 369 403
f 166 405 404
f 406 11 407
f 321 20 322
f 322 20 323
f 20 324 323
f 376 15 377
f 377 15 378
f 15 379 378
f 379 15 380
f 380 15 381
f 15 382 381
f 408 409 373
f 373 409 410
f 408 373 411
f 411 373 412
f 373 413 412
f 370 402 371
f 371 402 372
f 402 373 372
f 363 414 364
f 364 414 365
f 414 415 365
f 365 415 366
f 415 416 366
f 366 416 367
f 416 403 367
f 367 403 368
f 403 369 368
f 417 419 418
f 418 419 420
f 421 339 338
f 406 422 11
f 401 15 423
f 423 15 424
f 15 373 424
f 424 373 425
f 373 410 425
f 327 426 328
f 328 426 329
f 426 330 329
f 166 404 402
f 402 404 373
f 404 427 373
f 373 427 413
f 428 174 429
f 429 174 361
f 174 414 361
f 361 414 362
f 414 363 362
f 405 166 430
f 430 166 431
f 166 432 431
f 432 166 433
f 433 166 434
f 166 168 434
f 434 168 435
f 168 170 435
f 435 170 436
f 170 172 436
f 436 172 437
f 172 174 437
f 437 174 438
f 174 428 438
f 339 421 340
f 340 421 341
f 421 439 341
f 341 439 342
f 439 440 342
f 342 440 343
f 440 441 343
f 343 441 344
f 441 442 344
f 344 442 345
f 426 334 333
f 443 327 444
f 444 327 445
f 327 446 445
f 442 418 447
f 447 418 448
f 418 420 448
f 345 442 346
f 346 442 347
f 442 348 347
f 15 396 14
f 14 396 13
f 396 449 13
f 13 449 12
f 449 450 12
f 12 450 11
f 450 451 11
f 11 451 407
f 330 426 331
f 331 426 332
f 426 333 332
f 334 426 335
f 335 426 336
f 426 421 336
f 336 421 337
f 421 338 337
f 452 426 453
f 446 327 454
f 454 327 455
f 327 456 455
f 429 361 457
f 457 361 458
f 361 360 458
f 458 360 459
f 360 359 459
f 459 359 460
f 359 358 460
f 460 358 461
f 358 357 461
f 461 357 462
f 357 356 462
f 462 356 463
f 356 355 463
f 463 355 464
f 355 354 464
f 464 354 465
f 354 353 465
f 465 353 466
f 353 352 466
f 466 352 467
f 352 351 467
f 467 351 447
f 351 350 447
f 447 350 442
f 350 349 442
f 442 349 348
f 417 418 468
f 468 418 469
f 418 470 469
f 469 470 471
f 470 472 471
f 471 472 473
f 472 474 473
f 473 474 475
f 474 426 475
f 475 426 476
f 426 452 476
f 453 426 477
f 477 426 478
f 426 327 478
f 478 327 479
f 327 443 479
f 20 11 480
f 480 11 481
f 11 422 481
f 456 327 482
f 482 327 480
f 327 326 480
f 480 326 20
f 326 325 20
f 20 325 324
f 483 418 484
f 484 418 442
f 483 485 418
f 418 485 470
f 485 486 470
f 470 486 472
f 486 487 472
f 472 487 474
f 487 488 474
f 474 488 426
f 84 86 182
f 182 86 180
f 86 88 180
f 180 88 178
f 88 90 178
f 178 90 176
f 90 92 176
f 176 92 318
f 92 94 318
f 318 94 316
f 94 96 316
f 316 96 314
f 96 98 314
f 314 98 312
f 98 100 312
f 312 100 310
f 100 102 310
f 310 102 308
f 102 104 308
f 308 104 306
f 104 106 306
f 306 106 304
f 106 108 304
f 304 108 302
f 108 110 302
f 302 110 300
f 110 112 300
f 300 112 298
f 112 114 298
f 298 114 296
f 114 116 296
f 296 116 294
f 116 118 294
f 294 118 292
f 118 120 292
f 292 120 290
f 120 122 290
f 290 122 288
f 122 124 288
f 288 124 286
f 124 126 286
f 286 126 284
f 126 128 284
f 284 128 282
f 128 130 282
f 282 130 280
f 130 132 280
f 280 132 278
f 132 134 278
f 278 134 276
f 134 136 276
f 276 136 274
f 136 138 274
f 274 138 272
f 138 140 272
f 272 140 270
f 140 142 270
f 270 142 268
f 142 144 268
f 268 144 266
f 144 146 266
f 266 146 264
f 146 148 264
f 264 148 262
f 148 150 262
f 262 150 260
f 150 152 260
f 260 152 258
f 152 154 258
f 258 154 256
f 154 156 256
f 256 156 254
f 156 158 254
f 254 158 252
f 158 160 252
f 252 160 250
f 160 162 250
f 250 162 248
f 162 164 248
f 248 164 246
f 164 22 246
f 246 22 244
f 22 24 244
f 244 24 242
f 24 26 242
f 242 26 240
f 26 28 240
f 240 28 238
f 28 30 238
f 238 30 236
f 30 32 236
f 236 32 234
f 32 34 234
f 234 34 232
f 34 36 232
f 232 36 230
f 36 38 230
f 230 38 228
f 38 40 228
f 228 40 226
f 40 42 226
f 226 42 224
f 42 44 224
f 224 44 222
f 44 46 222
f 222 46 220
f 46 48 220
f 220 48 218
f 48 50 218
f 218 50 216
f 50 52 216
f 216 52 214
f 52 54 214
f 214 54 212
f 54 56 212
f 212 56 210
f 56 58 210
f 210 58 208
f 58 60 208
f 208 60 206
f 60 62 206
f 206 62 204
f 62 64 204
f 204 64 202
f 64 66 202
f 202 66 200
f 66 68 200
f 200 68 198
f 68 70 198
f 198 70 196
f 70 72 196
f 196 72 194
f 72 74 194
f 194 74 192
f 74 76 192
f 192 76 190
f 76 78 190
f 190 78 188
f 78 80 188
f 188 80 186
f 80 82 186
f 186 82 184
f 82 84 184
f 184 84 182
f 489 439 421
f 489 490 439
f 439 490 440
f 490 491 440
f 440 491 441
f 491 492 441
f 441 492 442
f 492 484 442
f 489 421 488
f 488 421 426
f 488 487 489
f 489 487 490
f 487 486 490
f 490 486 491
f 486 485 491
f 491 485 492
f 485 483 492
f 492 483 484
f 165 166 395
f 395 166 402
f 91 89 396
f 396 89 449
f 89 87 449
f 449 87 450
f 87 85 450
f 450 85 451
f 85 83 451
f 451 83 407
f 83 81 407
f 407 81 406
f 81 79 406
f 406 79 422
f 79 77 422
f 422 77 481
f 77 75 481
f 481 75 480
f 75 73 480
f 480 73 482
f 73 71 482
f 482 71 456
f 71 69 456
f 456 69 455
f 69 67 455
f 455 67 454
f 67 65 454
f 454 65 446
f 65 63 446
f 446 63 445
f 63 61 445
f 445 61 444
f 61 59 444
f 444 59 443
f 59 57 443
f 443 57 479
f 57 55 479
f 479 55 478
f 55 53 478
f 478 53 477
f 53 51 477
f 477 51 453
f 51 49 453
f 453 49 452
f 49 47 452
f 452 47 476
f 47 45 476
f 476 45 475
f 45 43 475
f 475 43 473
f 43 41 473
f 473 41 471
f 41 39 471
f 471 39 469
f 39 37 469
f 469 37 468
f 37 35 468
f 468 35 417
f 35 33 417
f 417 33 419
f 33 31 419
f 419 31 420
f 31 29 420
f 420 29 448
f 29 27 448
f 448 27 447
f 27 25 447
f 447 25 467
f 25 23 467
f 467 23 466
f 23 21 466
f 466 21 465
f 21 163 465
f 465 163 464
f 163 161 464
f 464 161 463
f 161 159 463
f 463 159 462
f 159 157 462
f 462 157 461
f 157 155 461
f 461 155 460
f 155 153 460
f 460 153 459
f 153 151 459
f 459 151 458
f 151 149 458
f 458 149 457
f 149 147 457
f 457 147 429
f 147 145 429
f 429 145 428
f 145 143 428
f 428 143 438
f 143 141 438
f 438 141 437
f 141 139 437
f 437 139 436
f 139 137 436
f 436 137 435
f 137 135 435
f 435 135 434
f 135 133 434
f 434 133 433
f 133 131 433
f 433 131 432
f 131 129 432
f 432 129 431
f 129 127 431
f 431 127 430
f 127 125 430
f 430 125 405
f 125 123 405
f 405 123 404
f 123 121 404
f 404 121 427
f 121 119 427
f 427 119 413
f 119 117 413
f 413 117 412
f 117 115 412
f 412 115 411
f 115 113 411
f 411 113 408
f 113 111 408
f 408 111 409
f 111 109 409
f 409 109 410
f 109 107 410
f 410 107 425
f 107 105 425
f 425 105 424
f 105 103 424
f 424 103 423
f 103 101 423
f 423 101 401
f 101 99 401
f 401 99 400
f 99 97 400
f 400 97 399
f 97 95 399
f 399 95 398
f 95 93 398
f 398 93 397
f 93 91 397
f 397 91 396
f 391 415 414
f 391 392 415
f 415 392 416
f 392 393 416
f 416 393 403
f 393 394 403
f 403 394 402
f 394 395 402
f 391 414 173
f 173 414 174
