# Generated MicroDuck mesh; do not edit by hand.
# Source: microduck_rl/src/mjlab_microduck/robot/microduck/assets/rim.stl
# Source repository: https://github.com/pollen-robotics/microduck_rl.git@5946fd9cdbc58956424420153e51975af3b30d77
# Source SHA-256: c2a84cd05ed8ce87bbdd64950bca415ba5945641385f5ec7cdbb161aa37281a4
# License: Creative Commons BY-SA-NC; see ../Licenses/ATTRIBUTION.json.
# Modified: exported MuJoCo-compiled mesh geometry in Tuanjie coordinates.
# Transform: (x,y,z) -> (-y,z,x); triangle winding reversed.
o rim
v 1.88664466e-11 0.0100999996 0.00130000012
v -0.000880273059 0.0100615658 0.00249999808
v -0.000880273059 0.0100615658 0.00130000012
v -0.00175384618 0.00994655862 0.00249999808
v -0.00175384618 0.00994655862 0.00130000012
v -0.00261407252 0.00975584984 0.00249999808
v -0.00261407252 0.00975584984 0.00130000012
v -0.00345440395 0.00949089415 0.00249999808
v -0.00345440395 0.00949089415 0.00130000012
v -0.00426844414 0.00915370882 0.00249999808
v -0.00426844414 0.00915370882 0.00130000012
v -0.0050499998 0.00874685682 0.00249999808
v -0.0050499998 0.00874685682 0.00130000012
v -0.00579312164 0.00827343576 0.00249999808
v -0.00579312164 0.00827343576 0.00130000012
v -0.00649215467 0.00773704844 0.00249999808
v -0.00649215467 0.00773704844 0.00130000012
v -0.00714177825 0.00714177871 0.00249999808
v -0.00714177825 0.00714177871 0.00130000012
v -0.0077370489 0.00649215514 0.00249999808
v -0.0077370489 0.00649215514 0.00130000012
v -0.00827343576 0.00579312304 0.00249999808
v -0.00827343576 0.00579312304 0.00130000012
v -0.00874685682 0.00504999841 0.00249999808
v -0.00874685682 0.00504999841 0.00130000012
v -0.00915370882 0.00426844368 0.00249999808
v -0.00915370882 0.00426844368 0.00130000012
v -0.00949089509 0.00345440442 0.00249999808
v -0.00949089509 0.00345440442 0.00130000012
v -0.00975585077 0.00261407206 0.00249999808
v -0.00975585077 0.00261407206 0.00130000012
v -0.00994655769 0.00175384653 0.00249999808
v -0.00994655769 0.00175384653 0.00130000012
v -0.0100615667 0.000880273466 0.00249999808
v -0.0100615667 0.000880273466 0.00130000012
v -0.0100999996 -1.45873658e-09 0.00249999808
v -0.0100999996 -1.45873658e-09 0.00130000012
v -0.0100615667 -0.000880272652 0.00249999808
v -0.0100615667 -0.000880272652 0.00130000012
v -0.00994655769 -0.00175384583 0.00249999808
v -0.00994655769 -0.00175384583 0.00130000012
v -0.00975585077 -0.00261407113 0.00249999808
v -0.00975585077 -0.00261407113 0.00130000012
v -0.00949089509 -0.00345440349 0.00249999808
v -0.00949089509 -0.00345440349 0.00130000012
v -0.00915370882 -0.00426844275 0.00249999808
v -0.00915370882 -0.00426844275 0.00130000012
v -0.00874685682 -0.0050500012 0.00249999808
v -0.00874685682 -0.0050500012 0.00130000012
v -0.00827343576 -0.00579312211 0.00249999808
v -0.00827343576 -0.00579312211 0.00130000012
v -0.0077370489 -0.00649215421 0.00249999808
v -0.0077370489 -0.00649215421 0.00130000012
v -0.00714177825 -0.00714177778 0.00249999808
v -0.00714177825 -0.00714177778 0.00130000012
v -0.00649215467 -0.00773704937 0.00249999808
v -0.00649215467 -0.00773704937 0.00130000012
v -0.00579312164 -0.00827343576 0.00249999808
v -0.00579312164 -0.00827343576 0.00130000012
v -0.0050499998 -0.00874685682 0.00249999808
v -0.0050499998 -0.00874685682 0.00130000012
v -0.00426844414 -0.00915371068 0.00249999808
v -0.00426844414 -0.00915371068 0.00130000012
v -0.00345440395 -0.00949089415 0.00249999808
v -0.00345440395 -0.00949089415 0.00130000012
v -0.00261407252 -0.0097558517 0.00249999808
v -0.00261407252 -0.0097558517 0.00130000012
v -0.00175384618 -0.00994656049 0.00249999808
v -0.00175384618 -0.00994656049 0.00130000012
v -0.000880273059 -0.0100615676 0.00249999808
v -0.000880273059 -0.0100615676 0.00130000012
v 1.88664466e-11 -0.0101000015 0.00249999808
v 1.88664466e-11 -0.0101000015 0.00130000012
v 0.000880273059 -0.0100615676 0.00249999808
v 0.000880273059 -0.0100615676 0.00130000012
v 0.00175384618 -0.00994656049 0.00249999808
v 0.00175384618 -0.00994656049 0.00130000012
v 0.00261407159 -0.0097558517 0.00249999808
v 0.00261407159 -0.0097558517 0.00130000012
v 0.00345440395 -0.00949089415 0.00249999808
v 0.00345440395 -0.00949089415 0.00130000012
v 0.00426844507 -0.00915371068 0.00249999808
v 0.00426844507 -0.00915371068 0.00130000012
v 0.0050499998 -0.00874685682 0.00249999808
v 0.0050499998 -0.00874685682 0.00130000012
v 0.00579312257 -0.00827343576 0.00249999808
v 0.00579312257 -0.00827343576 0.00130000012
v 0.00649215467 -0.00773704937 0.00249999808
v 0.00649215467 -0.00773704937 0.00130000012
v 0.00714177825 -0.00714177778 0.00249999808
v 0.00714177825 -0.00714177778 0.00130000012
v 0.00773704797 -0.00649215421 0.00249999808
v 0.00773704797 -0.00649215421 0.00130000012
v 0.00827343576 -0.00579312211 0.00249999808
v 0.00827343576 -0.00579312211 0.00130000012
v 0.00874685682 -0.0050500012 0.00249999808
v 0.00874685682 -0.0050500012 0.00130000012
v 0.00915370882 -0.00426844275 0.00249999808
v 0.00915370882 -0.00426844275 0.00130000012
v 0.00949089602 -0.00345440349 0.00249999808
v 0.00949089602 -0.00345440349 0.00130000012
v 0.0097558517 -0.00261407113 0.00249999808
v 0.0097558517 -0.00261407113 0.00130000012
v 0.00994655862 -0.00175384583 0.00249999808
v 0.00994655862 -0.00175384583 0.00130000012
v 0.0100615658 -0.000880272652 0.00249999808
v 0.0100615658 -0.000880272652 0.00130000012
v 0.0100999996 -1.45873658e-09 0.00249999808
v 0.0100999996 -1.45873658e-09 0.00130000012
v 0.0100615658 0.000880273466 0.00249999808
v 0.0100615658 0.000880273466 0.00130000012
v 0.00994655862 0.00175384653 0.00249999808
v 0.00994655862 0.00175384653 0.00130000012
v 0.0097558517 0.00261407206 0.00249999808
v 0.0097558517 0.00261407206 0.00130000012
v 0.00949089602 0.00345440442 0.00249999808
v 0.00949089602 0.00345440442 0.00130000012
v 0.00915370882 0.00426844368 0.00249999808
v 0.00915370882 0.00426844368 0.00130000012
v 0.00874685682 0.00504999841 0.00249999808
v 0.00874685682 0.00504999841 0.00130000012
v 0.00827343576 0.00579312304 0.00249999808
v 0.00827343576 0.00579312304 0.00130000012
v 0.00773704797 0.00649215514 0.00249999808
v 0.00773704797 0.00649215514 0.00130000012
v 0.00714177825 0.00714177871 0.00249999808
v 0.00714177825 0.00714177871 0.00130000012
v 0.00649215467 0.00773704844 0.00249999808
v 0.00649215467 0.00773704844 0.00130000012
v 0.00579312257 0.00827343576 0.00249999808
v 0.00579312257 0.00827343576 0.00130000012
v 0.0050499998 0.00874685682 0.00249999808
v 0.0050499998 0.00874685682 0.00130000012
v 0.00426844507 0.00915370882 0.00249999808
v 0.00426844507 0.00915370882 0.00130000012
v 0.00345440395 0.00949089415 0.00249999808
v 0.00345440395 0.00949089415 0.00130000012
v 0.00261407159 0.00975584984 0.00249999808
v 0.00261407159 0.00975584984 0.00130000012
v 0.00175384618 0.00994655862 0.00249999808
v 0.00175384618 0.00994655862 0.00130000012
v 0.000880273059 0.0100615658 0.00249999808
v 0.000880273059 0.0100615658 0.00130000012
v 1.88664466e-11 0.0100999996 0.00249999808
v -0.00806917716 -0.000705962593 0.00249999808
v -0.00810000021 -1.45873658e-09 0.00249999808
v -0.00806917716 0.000705959683 0.00249999808
v -0.0079769427 0.00140654889 0.00249999808
v -0.00782399904 0.00209643552 0.00249999808
v -0.00761151034 0.00277036289 0.00249999808
v -0.00734109338 0.00342320884 0.00249999808
v -0.00701480545 0.00405000011 0.00249999808
v -0.00663513131 0.00464596832 0.00249999808
v -0.00620495994 0.00520657981 0.00249999808
v -0.00572756492 0.00572756538 0.00249999808
v -0.00520657934 0.00620496133 0.00249999808
v -0.00464596879 0.00663513178 0.00249999808
v -0.00404999964 0.00701480592 0.00249999808
v -0.00342320837 0.00734109292 0.00249999808
v -0.00277036335 0.00761150988 0.00249999808
v -0.00209643412 0.00782399811 0.00249999808
v -0.00140655041 0.00797694176 0.00249999808
v -0.000705961138 0.00806917623 0.00249999808
v 1.88664466e-11 0.00809999928 0.00249999808
v 0.000705961138 0.00806917623 0.00249999808
v 0.00140655041 0.00797694176 0.00249999808
v 0.00209643506 0.00782399811 0.00249999808
v 0.00277036242 0.00761150988 0.00249999808
v 0.00342320837 0.00734109292 0.00249999808
v 0.00404999964 0.00701480592 0.00249999808
v 0.00464596972 0.00663513178 0.00249999808
v 0.00520657934 0.00620496133 0.00249999808
v 0.00572756492 0.00572756538 0.00249999808
v 0.00620495901 0.00520657981 0.00249999808
v 0.00663513131 0.00464596832 0.00249999808
v 0.00701480545 0.00405000011 0.00249999808
v 0.00734109245 0.00342320884 0.00249999808
v 0.00761150941 0.00277036289 0.00249999808
v 0.00782399997 0.00209643552 0.00249999808
v 0.00797694363 0.00140654889 0.00249999808
v 0.00806917623 0.000705959683 0.00249999808
v 0.00809999928 -1.45873658e-09 0.00249999808
v 0.00806917623 -0.000705962593 0.00249999808
v 0.00797694363 -0.00140655192 0.00249999808
v 0.00782399997 -0.00209643459 0.00249999808
v 0.00761150941 -0.00277036196 0.00249999808
v 0.00734109245 -0.00342320791 0.00249999808
v 0.00701480545 -0.00404999917 0.00249999808
v 0.00663513131 -0.00464596739 0.00249999808
v 0.00620495901 -0.00520657888 0.00249999808
v 0.00572756492 -0.00572756445 0.00249999808
v 0.00520657934 -0.0062049604 0.00249999808
v 0.00464596972 -0.00663513085 0.00249999808
v 0.00404999964 -0.00701480499 0.00249999808
v 0.00342320837 -0.00734109199 0.00249999808
v 0.00277036242 -0.00761151081 0.00249999808
v 0.00209643506 -0.00782399811 0.00249999808
v 0.00140655041 -0.00797694363 0.00249999808
v 0.000705961138 -0.00806917809 0.00249999808
v 1.88664466e-11 -0.00810000114 0.00249999808
v -0.000705961138 -0.00806917809 0.00249999808
v -0.00140655041 -0.00797694363 0.00249999808
v -0.00209643412 -0.00782399811 0.00249999808
v -0.00277036335 -0.00761151081 0.00249999808
v -0.00342320837 -0.00734109199 0.00249999808
v -0.00404999964 -0.00701480499 0.00249999808
v -0.00464596879 -0.00663513085 0.00249999808
v -0.00520657934 -0.0062049604 0.00249999808
v -0.00572756492 -0.00572756445 0.00249999808
v -0.00620495994 -0.00520657888 0.00249999808
v -0.00663513131 -0.00464596739 0.00249999808
v -0.00701480545 -0.00404999917 0.00249999808
v -0.00734109338 -0.00342320791 0.00249999808
v -0.00761151034 -0.00277036196 0.00249999808
v -0.00782399904 -0.00209643459 0.00249999808
v -0.0079769427 -0.00140655192 0.00249999808
v -0.000705961138 0.00806917623 0.00380000146
v -0.00140655041 0.00797694176 0.00380000146
v -0.00209643412 0.00782399811 0.00380000146
v -0.00277036335 0.00761150988 0.00380000146
v -0.00342320837 0.00734109292 0.00380000146
v -0.00404999964 0.00701480592 0.00380000146
v -0.00464596879 0.00663513178 0.00380000146
v -0.00520657934 0.00620496133 0.00380000146
v -0.00572756492 0.00572756538 0.00380000146
v -0.00620495994 0.00520657981 0.00380000146
v -0.00663513131 0.00464596832 0.00380000146
v -0.00701480545 0.00405000011 0.00380000146
v -0.00734109338 0.00342320884 0.00380000146
v -0.00761151034 0.00277036289 0.00380000146
v -0.00782399904 0.00209643552 0.00380000146
v -0.0079769427 0.00140654889 0.00380000146
v -0.00806917716 0.000705959683 0.00380000146
v -0.00810000021 -1.45873658e-09 0.00380000146
v -0.00806917716 -0.000705962593 0.00380000146
v -0.0079769427 -0.00140655192 0.00380000146
v -0.00782399904 -0.00209643459 0.00380000146
v -0.00761151034 -0.00277036196 0.00380000146
v -0.00734109338 -0.00342320791 0.00380000146
v -0.00701480545 -0.00404999917 0.00380000146
v -0.00663513131 -0.00464596739 0.00380000146
v -0.00620495994 -0.00520657888 0.00380000146
v -0.00572756492 -0.00572756445 0.00380000146
v -0.00520657934 -0.0062049604 0.00380000146
v -0.00464596879 -0.00663513085 0.00380000146
v -0.00404999964 -0.00701480499 0.00380000146
v -0.00342320837 -0.00734109199 0.00380000146
v -0.00277036335 -0.00761151081 0.00380000146
v -0.00209643412 -0.00782399811 0.00380000146
v -0.00140655041 -0.00797694363 0.00380000146
v -0.000705961138 -0.00806917809 0.00380000146
v 1.88664466e-11 -0.00810000114 0.00380000146
v 0.000705961138 -0.00806917809 0.00380000146
v 0.00140655041 -0.00797694363 0.00380000146
v 0.00209643506 -0.00782399811 0.00380000146
v 0.00277036242 -0.00761151081 0.00380000146
v 0.00342320837 -0.00734109199 0.00380000146
v 0.00404999964 -0.00701480499 0.00380000146
v 0.00464596972 -0.00663513085 0.00380000146
v 0.00520657934 -0.0062049604 0.00380000146
v 0.00572756492 -0.00572756445 0.00380000146
v 0.00620495901 -0.00520657888 0.00380000146
v 0.00663513131 -0.00464596739 0.00380000146
v 0.00701480545 -0.00404999917 0.00380000146
v 0.00734109245 -0.00342320791 0.00380000146
v 0.00761150941 -0.00277036196 0.00380000146
v 0.00782399997 -0.00209643459 0.00380000146
v 0.00797694363 -0.00140655192 0.00380000146
v 0.00806917623 -0.000705962593 0.00380000146
v 0.00809999928 -1.45873658e-09 0.00380000146
v 0.00806917623 0.000705959683 0.00380000146
v 0.00797694363 0.00140654889 0.00380000146
v 0.00782399997 0.00209643552 0.00380000146
v 0.00761150941 0.00277036289 0.00380000146
v 0.00734109245 0.00342320884 0.00380000146
v 0.00701480545 0.00405000011 0.00380000146
v 0.00663513131 0.00464596832 0.00380000146
v 0.00620495901 0.00520657981 0.00380000146
v 0.00572756492 0.00572756538 0.00380000146
v 0.00520657934 0.00620496133 0.00380000146
v 0.00464596972 0.00663513178 0.00380000146
v 0.00404999964 0.00701480592 0.00380000146
v 0.00342320837 0.00734109292 0.00380000146
v 0.00277036242 0.00761150988 0.00380000146
v 0.00209643506 0.00782399811 0.00380000146
v 0.00140655041 0.00797694176 0.00380000146
v 0.000705961138 0.00806917623 0.00380000146
v 1.88664466e-11 0.00809999928 0.00380000146
v -0.0049968278 -0.0034988164 0.00380000146
v -0.00528275501 -0.00305000087 0.00380000146
v -0.00552847795 -0.00257797306 0.00380000146
v -0.00573212467 -0.00208632415 0.00380000146
v -0.00589214731 -0.00157879817 0.00380000146
v -0.0060073277 -0.00105925428 0.00380000146
v -0.0060767876 -0.00053164881 0.00380000146
v -0.00609999988 -1.45873658e-09 0.00380000146
v -0.0060767876 0.000531649624 0.00380000146
v -0.0060073277 0.00105925498 0.00380000146
v -0.00589214731 0.00157879514 0.00380000146
v -0.00573212467 0.00208632136 0.00380000146
v -0.00552847795 0.00257797027 0.00380000146
v -0.00528275501 0.0030500018 0.00380000146
v -0.0049968278 0.00349881733 0.00380000146
v -0.00467287097 0.00392100448 0.00380000146
v -0.00431335159 0.00431335205 0.00380000146
v -0.00392100494 0.00467287237 0.00380000146
v -0.00349881593 0.00499682734 0.00380000146
v -0.00305000041 0.00528275454 0.00380000146
v -0.00257797167 0.00552847842 0.00380000146
v -0.00208632275 0.00573212514 0.00380000146
v -0.00157879665 0.00589214871 0.00380000146
v -0.00105925463 0.00600732723 0.00380000146
v -0.000531649217 0.006076789 0.00380000146
v 1.88664466e-11 0.00610000128 0.00380000146
v 0.000531649217 0.006076789 0.00380000146
v 0.00105925463 0.00600732723 0.00380000146
v 0.00157879665 0.00589214871 0.00380000146
v 0.00208632275 0.00573212514 0.00380000146
v 0.00257797167 0.00552847842 0.00380000146
v 0.00304999948 0.00528275454 0.00380000146
v 0.00349881686 0.00499682734 0.00380000146
v 0.00392100401 0.00467287237 0.00380000146
v 0.00431335159 0.00431335205 0.00380000146
v 0.0046728719 0.00392100448 0.00380000146
v 0.00499682687 0.00349881733 0.00380000146
v 0.00528275408 0.0030500018 0.00380000146
v 0.00552847795 0.00257797027 0.00380000146
v 0.00573212467 0.00208632136 0.00380000146
v 0.00589214824 0.00157879514 0.00380000146
v 0.00600732677 0.00105925498 0.00380000146
v 0.00607678667 0.000531649624 0.00380000146
v 0.00610000081 -1.45873658e-09 0.00380000146
v 0.00607678667 -0.00053164881 0.00380000146
v 0.00600732677 -0.00105925428 0.00380000146
v 0.00589214824 -0.00157879817 0.00380000146
v 0.00573212467 -0.00208632415 0.00380000146
v 0.00552847795 -0.00257797306 0.00380000146
v 0.00528275408 -0.00305000087 0.00380000146
v 0.00499682687 -0.0034988164 0.00380000146
v 0.0046728719 -0.00392100355 0.00380000146
v 0.00431335159 -0.00431335112 0.00380000146
v 0.00392100401 -0.00467287144 0.00380000146
v 0.00349881686 -0.00499682641 0.00380000146
v 0.00304999948 -0.00528275361 0.00380000146
v 0.00257797167 -0.00552847749 0.00380000146
v 0.00208632275 -0.00573212421 0.00380000146
v 0.00157879665 -0.00589214778 0.00380000146
v 0.00105925463 -0.0060073263 0.00380000146
v 0.000531649217 -0.00607678806 0.00380000146
v 1.88664466e-11 -0.00610000035 0.00380000146
v -0.000531649217 -0.00607678806 0.00380000146
v -0.00105925463 -0.0060073263 0.00380000146
v -0.00157879665 -0.00589214778 0.00380000146
v -0.00208632275 -0.00573212421 0.00380000146
v -0.00257797167 -0.00552847749 0.00380000146
v -0.00305000041 -0.00528275361 0.00380000146
v -0.00349881593 -0.00499682641 0.00380000146
v -0.00392100494 -0.00467287144 0.00380000146
v -0.00431335159 -0.00431335112 0.00380000146
v -0.00467287097 -0.00392100355 0.00380000146
v 1.88664466e-11 0.00610000128 0.000999998767
v -0.000531649217 0.006076789 0.000999998767
v -0.00105925463 0.00600732723 0.000999998767
v -0.00157879665 0.00589214871 0.000999998767
v -0.00208632275 0.00573212514 0.000999998767
v -0.00257797167 0.00552847842 0.000999998767
v -0.00305000041 0.00528275454 0.000999998767
v -0.00349881593 0.00499682734 0.000999998767
v -0.00392100494 0.00467287237 0.000999998767
v -0.00431335159 0.00431335205 0.000999998767
v -0.00467287097 0.00392100448 0.000999998767
v -0.0049968278 0.00349881733 0.000999998767
v -0.00528275501 0.0030500018 0.000999998767
v -0.00552847795 0.00257797027 0.000999998767
v -0.00573212467 0.00208632136 0.000999998767
v -0.00589214731 0.00157879514 0.000999998767
v -0.0060073277 0.00105925498 0.000999998767
v -0.0060767876 0.000531649624 0.000999998767
v -0.00609999988 -1.45873658e-09 0.000999998767
v -0.0060767876 -0.00053164881 0.000999998767
v -0.0060073277 -0.00105925428 0.000999998767
v -0.00589214731 -0.00157879817 0.000999998767
v -0.00573212467 -0.00208632415 0.000999998767
v -0.00552847795 -0.00257797306 0.000999998767
v -0.00528275501 -0.00305000087 0.000999998767
v -0.0049968278 -0.0034988164 0.000999998767
v -0.00467287097 -0.00392100355 0.000999998767
v -0.00431335159 -0.00431335112 0.000999998767
v -0.00392100494 -0.00467287144 0.000999998767
v -0.00349881593 -0.00499682641 0.000999998767
v -0.00305000041 -0.00528275361 0.000999998767
v -0.00257797167 -0.00552847749 0.000999998767
v -0.00208632275 -0.00573212421 0.000999998767
v -0.00157879665 -0.00589214778 0.000999998767
v -0.00105925463 -0.0060073263 0.000999998767
v -0.000531649217 -0.00607678806 0.000999998767
v 1.88664466e-11 -0.00610000035 0.000999998767
v 0.000531649217 -0.00607678806 0.000999998767
v 0.00105925463 -0.0060073263 0.000999998767
v 0.00157879665 -0.00589214778 0.000999998767
v 0.00208632275 -0.00573212421 0.000999998767
v 0.00257797167 -0.00552847749 0.000999998767
v 0.00304999948 -0.00528275361 0.000999998767
v 0.00349881686 -0.00499682641 0.000999998767
v 0.00392100401 -0.00467287144 0.000999998767
v 0.00431335159 -0.00431335112 0.000999998767
v 0.0046728719 -0.00392100355 0.000999998767
v 0.00499682687 -0.0034988164 0.000999998767
v 0.00528275408 -0.00305000087 0.000999998767
v 0.00552847795 -0.00257797306 0.000999998767
v 0.00573212467 -0.00208632415 0.000999998767
v 0.00589214824 -0.00157879817 0.000999998767
v 0.00600732677 -0.00105925428 0.000999998767
v 0.00607678667 -0.00053164881 0.000999998767
v 0.00610000081 -1.45873658e-09 0.000999998767
v 0.00607678667 0.000531649624 0.000999998767
v 0.00600732677 0.00105925498 0.000999998767
v 0.00589214824 0.00157879514 0.000999998767
v 0.00573212467 0.00208632136 0.000999998767
v 0.00552847795 0.00257797027 0.000999998767
v 0.00528275408 0.0030500018 0.000999998767
v 0.00499682687 0.00349881733 0.000999998767
v 0.0046728719 0.00392100448 0.000999998767
v 0.00431335159 0.00431335205 0.000999998767
v 0.00392100401 0.00467287237 0.000999998767
v 0.00349881686 0.00499682734 0.000999998767
v 0.00304999948 0.00528275454 0.000999998767
v 0.00257797167 0.00552847842 0.000999998767
v 0.00208632275 0.00573212514 0.000999998767
v 0.00157879665 0.00589214871 0.000999998767
v 0.00105925463 0.00600732723 0.000999998767
v 0.000531649217 0.006076789 0.000999998767
v -0.00346482359 0.00346482405 0.000999998767
v -0.00314965937 0.00375361601 0.000999998767
v -0.00281052478 0.00401384616 0.000999998767
v -0.00245000049 0.00424352521 0.000999998767
v -0.00207082927 0.00444090972 0.000999998767
v -0.00167589821 0.00460449466 0.000999998767
v -0.00126821361 0.00473303581 0.000999998767
v -0.000850876793 0.00482555712 0.000999998767
v -0.000427063525 0.00488135451 0.000999998767
v 1.88664466e-11 0.00489999959 0.000999998767
v 0.000427063584 0.00488135451 0.000999998767
v 0.000850876793 0.00482555712 0.000999998767
v 0.00126821361 0.00473303581 0.000999998767
v 0.00167589821 0.00460449466 0.000999998767
v 0.00207082927 0.00444090972 0.000999998767
v 0.00245000049 0.00424352521 0.000999998767
v 0.00281052478 0.00401384616 0.000999998767
v 0.00314965844 0.00375361601 0.000999998767
v 0.00346482359 0.00346482405 0.000999998767
v 0.00375361741 0.00314966077 0.000999998767
v 0.0040138457 0.00281052524 0.000999998767
v 0.00424352475 0.0024499991 0.000999998767
v 0.00444090739 0.00207082788 0.000999998767
v 0.0046044942 0.00167589856 0.000999998767
v 0.0047330372 0.00126821396 0.000999998767
v 0.00482555851 0.000850877201 0.000999998767
v 0.00488135405 0.000427062099 0.000999998767
v 0.00489999913 -1.45873658e-09 0.000999998767
v 0.00488135405 -0.00042706501 0.000999998767
v 0.00482555851 -0.000850876386 0.000999998767
v 0.0047330372 -0.00126821327 0.000999998767
v 0.0046044942 -0.00167589786 0.000999998767
v 0.00444090739 -0.00207083067 0.000999998767
v 0.00424352475 -0.00245000189 0.000999998767
v 0.0040138457 -0.00281052431 0.000999998767
v 0.00375361741 -0.00314965984 0.000999998767
v 0.00346482359 -0.00346482312 0.000999998767
v 0.00314965844 -0.0037536188 0.000999998767
v 0.00281052478 -0.00401384523 0.000999998767
v 0.00245000049 -0.00424352428 0.000999998767
v 0.00207082927 -0.00444090879 0.000999998767
v 0.00167589821 -0.00460449373 0.000999998767
v 0.00126821361 -0.00473303488 0.000999998767
v 0.000850876793 -0.00482555619 0.000999998767
v 0.000427063584 -0.00488135358 0.000999998767
v 1.88664466e-11 -0.00489999866 0.000999998767
v -0.000427063525 -0.00488135358 0.000999998767
v -0.000850876793 -0.00482555619 0.000999998767
v -0.00126821361 -0.00473303488 0.000999998767
v -0.00167589821 -0.00460449373 0.000999998767
v -0.00207082927 -0.00444090879 0.000999998767
v -0.00245000049 -0.00424352428 0.000999998767
v -0.00281052478 -0.00401384523 0.000999998767
v -0.00314965937 -0.0037536188 0.000999998767
v -0.00346482359 -0.00346482312 0.000999998767
v -0.00375361741 -0.00314965984 0.000999998767
v -0.00401384477 -0.00281052431 0.000999998767
v -0.00424352475 -0.00245000189 0.000999998767
v -0.00444090832 -0.00207083067 0.000999998767
v -0.0046044942 -0.00167589786 0.000999998767
v -0.00473303627 -0.00126821327 0.000999998767
v -0.00482555851 -0.000850876386 0.000999998767
v -0.00488135405 -0.00042706501 0.000999998767
v -0.00490000006 -1.45873658e-09 0.000999998767
v -0.00488135405 0.000427062099 0.000999998767
v -0.00482555851 0.000850877201 0.000999998767
v -0.00473303627 0.00126821396 0.000999998767
v -0.0046044942 0.00167589856 0.000999998767
v -0.00444090832 0.00207082788 0.000999998767
v -0.00424352475 0.0024499991 0.000999998767
v -0.00401384477 0.00281052524 0.000999998767
v -0.00375361741 0.00314966077 0.000999998767
v 1.88664466e-11 0.00489999959 -0.00100000156
v -0.000427063525 0.00488135451 -0.00100000156
v -0.000850876793 0.00482555712 -0.00100000156
v -0.00126821361 0.00473303581 -0.00100000156
v -0.00167589821 0.00460449466 -0.00100000156
v -0.00207082927 0.00444090972 -0.00100000156
v -0.00245000049 0.00424352521 -0.00100000156
v -0.00281052478 0.00401384616 -0.00100000156
v -0.00314965937 0.00375361601 -0.00100000156
v -0.00346482359 0.00346482405 -0.00100000156
v -0.00375361741 0.00314966077 -0.00100000156
v -0.00401384477 0.00281052524 -0.00100000156
v -0.00424352475 0.0024499991 -0.00100000156
v -0.00444090832 0.00207082788 -0.00100000156
v -0.0046044942 0.00167589856 -0.00100000156
v -0.00473303627 0.00126821396 -0.00100000156
v -0.00482555851 0.000850877201 -0.00100000156
v -0.00488135405 0.000427062099 -0.00100000156
v -0.00490000006 -1.45873658e-09 -0.00100000156
v -0.00488135405 -0.00042706501 -0.00100000156
v -0.00482555851 -0.000850876386 -0.00100000156
v -0.00473303627 -0.00126821327 -0.00100000156
v -0.0046044942 -0.00167589786 -0.00100000156
v -0.00444090832 -0.00207083067 -0.00100000156
v -0.00424352475 -0.00245000189 -0.00100000156
v -0.00401384477 -0.00281052431 -0.00100000156
v -0.00375361741 -0.00314965984 -0.00100000156
v -0.00346482359 -0.00346482312 -0.00100000156
v -0.00314965937 -0.0037536188 -0.00100000156
v -0.00281052478 -0.00401384523 -0.00100000156
v -0.00245000049 -0.00424352428 -0.00100000156
v -0.00207082927 -0.00444090879 -0.00100000156
v -0.00167589821 -0.00460449373 -0.00100000156
v -0.00126821361 -0.00473303488 -0.00100000156
v -0.000850876793 -0.00482555619 -0.00100000156
v -0.000427063525 -0.00488135358 -0.00100000156
v 1.88664466e-11 -0.00489999866 -0.00100000156
v 0.000427063584 -0.00488135358 -0.00100000156
v 0.000850876793 -0.00482555619 -0.00100000156
v 0.00126821361 -0.00473303488 -0.00100000156
v 0.00167589821 -0.00460449373 -0.00100000156
v 0.00207082927 -0.00444090879 -0.00100000156
v 0.00245000049 -0.00424352428 -0.00100000156
v 0.00281052478 -0.00401384523 -0.00100000156
v 0.00314965844 -0.0037536188 -0.00100000156
v 0.00346482359 -0.00346482312 -0.00100000156
v 0.00375361741 -0.00314965984 -0.00100000156
v 0.0040138457 -0.00281052431 -0.00100000156
v 0.00424352475 -0.00245000189 -0.00100000156
v 0.00444090739 -0.00207083067 -0.00100000156
v 0.0046044942 -0.00167589786 -0.00100000156
v 0.0047330372 -0.00126821327 -0.00100000156
v 0.00482555851 -0.000850876386 -0.00100000156
v 0.00488135405 -0.00042706501 -0.00100000156
v 0.00489999913 -1.45873658e-09 -0.00100000156
v 0.00488135405 0.000427062099 -0.00100000156
v 0.00482555851 0.000850877201 -0.00100000156
v 0.0047330372 0.00126821396 -0.00100000156
v 0.0046044942 0.00167589856 -0.00100000156
v 0.00444090739 0.00207082788 -0.00100000156
v 0.00424352475 0.0024499991 -0.00100000156
v 0.0040138457 0.00281052524 -0.00100000156
v 0.00375361741 0.00314966077 -0.00100000156
v 0.00346482359 0.00346482405 -0.00100000156
v 0.00314965844 0.00375361601 -0.00100000156
v 0.00281052478 0.00401384616 -0.00100000156
v 0.00245000049 0.00424352521 -0.00100000156
v 0.00207082927 0.00444090972 -0.00100000156
v 0.00167589821 0.00460449466 -0.00100000156
v 0.00126821361 0.00473303581 -0.00100000156
v 0.000850876793 0.00482555712 -0.00100000156
v 0.000427063584 0.00488135451 -0.00100000156
v 0.0046728719 -0.00392100355 -0.00100000156
v 0.00499682687 -0.0034988164 -0.00100000156
v 0.00528275408 -0.00305000087 -0.00100000156
v 0.00552847795 -0.00257797306 -0.00100000156
v 0.00573212467 -0.00208632415 -0.00100000156
v 0.00589214824 -0.00157879817 -0.00100000156
v 0.00600732677 -0.00105925428 -0.00100000156
v 0.00607678667 -0.00053164881 -0.00100000156
v 0.00610000081 -1.45873658e-09 -0.00100000156
v 0.00607678667 0.000531649624 -0.00100000156
v 0.00600732677 0.00105925498 -0.00100000156
v 0.00589214824 0.00157879514 -0.00100000156
v 0.00573212467 0.00208632136 -0.00100000156
v 0.00552847795 0.00257797027 -0.00100000156
v 0.00528275408 0.0030500018 -0.00100000156
v 0.00499682687 0.00349881733 -0.00100000156
v 0.0046728719 0.00392100448 -0.00100000156
v 0.00431335159 0.00431335205 -0.00100000156
v 0.00392100401 0.00467287237 -0.00100000156
v 0.00349881686 0.00499682734 -0.00100000156
v 0.00304999948 0.00528275454 -0.00100000156
v 0.00257797167 0.00552847842 -0.00100000156
v 0.00208632275 0.00573212514 -0.00100000156
v 0.00157879665 0.00589214871 -0.00100000156
v 0.00105925463 0.00600732723 -0.00100000156
v 0.000531649217 0.006076789 -0.00100000156
v 1.88664466e-11 0.00610000128 -0.00100000156
v -0.000531649217 0.006076789 -0.00100000156
v -0.00105925463 0.00600732723 -0.00100000156
v -0.00157879665 0.00589214871 -0.00100000156
v -0.00208632275 0.00573212514 -0.00100000156
v -0.00257797167 0.00552847842 -0.00100000156
v -0.00305000041 0.00528275454 -0.00100000156
v -0.00349881593 0.00499682734 -0.00100000156
v -0.00392100494 0.00467287237 -0.00100000156
v -0.00431335159 0.00431335205 -0.00100000156
v -0.00467287097 0.00392100448 -0.00100000156
v -0.0049968278 0.00349881733 -0.00100000156
v -0.00528275501 0.0030500018 -0.00100000156
v -0.00552847795 0.00257797027 -0.00100000156
v -0.00573212467 0.00208632136 -0.00100000156
v -0.00589214731 0.00157879514 -0.00100000156
v -0.0060073277 0.00105925498 -0.00100000156
v -0.0060767876 0.000531649624 -0.00100000156
v -0.00609999988 -1.45873658e-09 -0.00100000156
v -0.0060767876 -0.00053164881 -0.00100000156
v -0.0060073277 -0.00105925428 -0.00100000156
v -0.00589214731 -0.00157879817 -0.00100000156
v -0.00573212467 -0.00208632415 -0.00100000156
v -0.00552847795 -0.00257797306 -0.00100000156
v -0.00528275501 -0.00305000087 -0.00100000156
v -0.0049968278 -0.0034988164 -0.00100000156
v -0.00467287097 -0.00392100355 -0.00100000156
v -0.00431335159 -0.00431335112 -0.00100000156
v -0.00392100494 -0.00467287144 -0.00100000156
v -0.00349881593 -0.00499682641 -0.00100000156
v -0.00305000041 -0.00528275361 -0.00100000156
v -0.00257797167 -0.00552847749 -0.00100000156
v -0.00208632275 -0.00573212421 -0.00100000156
v -0.00157879665 -0.00589214778 -0.00100000156
v -0.00105925463 -0.0060073263 -0.00100000156
v -0.000531649217 -0.00607678806 -0.00100000156
v 1.88664466e-11 -0.00610000035 -0.00100000156
v 0.000531649217 -0.00607678806 -0.00100000156
v 0.00105925463 -0.0060073263 -0.00100000156
v 0.00157879665 -0.00589214778 -0.00100000156
v 0.00208632275 -0.00573212421 -0.00100000156
v 0.00257797167 -0.00552847749 -0.00100000156
v 0.00304999948 -0.00528275361 -0.00100000156
v 0.00349881686 -0.00499682641 -0.00100000156
v 0.00392100401 -0.00467287144 -0.00100000156
v 0.00431335159 -0.00431335112 -0.00100000156
v 1.88664466e-11 0.00610000128 -0.00380000053
v -0.000531649217 0.006076789 -0.00380000053
v -0.00105925463 0.00600732723 -0.00380000053
v -0.00157879665 0.00589214871 -0.00380000053
v -0.00208632275 0.00573212514 -0.00380000053
v -0.00257797167 0.00552847842 -0.00380000053
v -0.00305000041 0.00528275454 -0.00380000053
v -0.00349881593 0.00499682734 -0.00380000053
v -0.00392100494 0.00467287237 -0.00380000053
v -0.00431335159 0.00431335205 -0.00380000053
v -0.00467287097 0.00392100448 -0.00380000053
v -0.0049968278 0.00349881733 -0.00380000053
v -0.00528275501 0.0030500018 -0.00380000053
v -0.00552847795 0.00257797027 -0.00380000053
v -0.00573212467 0.00208632136 -0.00380000053
v -0.00589214731 0.00157879514 -0.00380000053
v -0.0060073277 0.00105925498 -0.00380000053
v -0.0060767876 0.000531649624 -0.00380000053
v -0.00609999988 -1.45873658e-09 -0.00380000053
v -0.0060767876 -0.00053164881 -0.00380000053
v -0.0060073277 -0.00105925428 -0.00380000053
v -0.00589214731 -0.00157879817 -0.00380000053
v -0.00573212467 -0.00208632415 -0.00380000053
v -0.00552847795 -0.00257797306 -0.00380000053
v -0.00528275501 -0.00305000087 -0.00380000053
v -0.0049968278 -0.0034988164 -0.00380000053
v -0.00467287097 -0.00392100355 -0.00380000053
v -0.00431335159 -0.00431335112 -0.00380000053
v -0.00392100494 -0.00467287144 -0.00380000053
v -0.00349881593 -0.00499682641 -0.00380000053
v -0.00305000041 -0.00528275361 -0.00380000053
v -0.00257797167 -0.00552847749 -0.00380000053
v -0.00208632275 -0.00573212421 -0.00380000053
v -0.00157879665 -0.00589214778 -0.00380000053
v -0.00105925463 -0.0060073263 -0.00380000053
v -0.000531649217 -0.00607678806 -0.00380000053
v 1.88664466e-11 -0.00610000035 -0.00380000053
v 0.000531649217 -0.00607678806 -0.00380000053
v 0.00105925463 -0.0060073263 -0.00380000053
v 0.00157879665 -0.00589214778 -0.00380000053
v 0.00208632275 -0.00573212421 -0.00380000053
v 0.00257797167 -0.00552847749 -0.00380000053
v 0.00304999948 -0.00528275361 -0.00380000053
v 0.00349881686 -0.00499682641 -0.00380000053
v 0.00392100401 -0.00467287144 -0.00380000053
v 0.00431335159 -0.00431335112 -0.00380000053
v 0.0046728719 -0.00392100355 -0.00380000053
v 0.00499682687 -0.0034988164 -0.00380000053
v 0.00528275408 -0.00305000087 -0.00380000053
v 0.00552847795 -0.00257797306 -0.00380000053
v 0.00573212467 -0.00208632415 -0.00380000053
v 0.00589214824 -0.00157879817 -0.00380000053
v 0.00600732677 -0.00105925428 -0.00380000053
v 0.00607678667 -0.00053164881 -0.00380000053
v 0.00610000081 -1.45873658e-09 -0.00380000053
v 0.00607678667 0.000531649624 -0.00380000053
v 0.00600732677 0.00105925498 -0.00380000053
v 0.00589214824 0.00157879514 -0.00380000053
v 0.00573212467 0.00208632136 -0.00380000053
v 0.00552847795 0.00257797027 -0.00380000053
v 0.00528275408 0.0030500018 -0.00380000053
v 0.00499682687 0.00349881733 -0.00380000053
v 0.0046728719 0.00392100448 -0.00380000053
v 0.00431335159 0.00431335205 -0.00380000053
v 0.00392100401 0.00467287237 -0.00380000053
v 0.00349881686 0.00499682734 -0.00380000053
v 0.00304999948 0.00528275454 -0.00380000053
v 0.00257797167 0.00552847842 -0.00380000053
v 0.00208632275 0.00573212514 -0.00380000053
v 0.00157879665 0.00589214871 -0.00380000053
v 0.00105925463 0.00600732723 -0.00380000053
v 0.000531649217 0.006076789 -0.00380000053
v -0.0079769427 -0.00140655192 -0.00380000053
v -0.00782399904 -0.00209643459 -0.00380000053
v -0.00761151034 -0.00277036196 -0.00380000053
v -0.00734109338 -0.00342320791 -0.00380000053
v -0.00701480545 -0.00404999917 -0.00380000053
v -0.00663513131 -0.00464596739 -0.00380000053
v -0.00620495994 -0.00520657888 -0.00380000053
v -0.00572756492 -0.00572756445 -0.00380000053
v -0.00520657934 -0.0062049604 -0.00380000053
v -0.00464596879 -0.00663513085 -0.00380000053
v -0.00404999964 -0.00701480499 -0.00380000053
v -0.00342320837 -0.00734109199 -0.00380000053
v -0.00277036335 -0.00761151081 -0.00380000053
v -0.00209643412 -0.00782399811 -0.00380000053
v -0.00140655041 -0.00797694363 -0.00380000053
v -0.000705961138 -0.00806917809 -0.00380000053
v 1.88664466e-11 -0.00810000114 -0.00380000053
v 0.000705961138 -0.00806917809 -0.00380000053
v 0.00140655041 -0.00797694363 -0.00380000053
v 0.00209643506 -0.00782399811 -0.00380000053
v 0.00277036242 -0.00761151081 -0.00380000053
v 0.00342320837 -0.00734109199 -0.00380000053
v 0.00404999964 -0.00701480499 -0.00380000053
v 0.00464596972 -0.00663513085 -0.00380000053
v 0.00520657934 -0.0062049604 -0.00380000053
v 0.00572756492 -0.00572756445 -0.00380000053
v 0.00620495901 -0.00520657888 -0.00380000053
v 0.00663513131 -0.00464596739 -0.00380000053
v 0.00701480545 -0.00404999917 -0.00380000053
v 0.00734109245 -0.00342320791 -0.00380000053
v 0.00761150941 -0.00277036196 -0.00380000053
v 0.00782399997 -0.00209643459 -0.00380000053
v 0.00797694363 -0.00140655192 -0.00380000053
v 0.00806917623 -0.000705962593 -0.00380000053
v 0.00809999928 -1.45873658e-09 -0.00380000053
v 0.00806917623 0.000705959683 -0.00380000053
v 0.00797694363 0.00140654889 -0.00380000053
v 0.00782399997 0.00209643552 -0.00380000053
v 0.00761150941 0.00277036289 -0.00380000053
v 0.00734109245 0.00342320884 -0.00380000053
v 0.00701480545 0.00405000011 -0.00380000053
v 0.00663513131 0.00464596832 -0.00380000053
v 0.00620495901 0.00520657981 -0.00380000053
v 0.00572756492 0.00572756538 -0.00380000053
v 0.00520657934 0.00620496133 -0.00380000053
v 0.00464596972 0.00663513178 -0.00380000053
v 0.00404999964 0.00701480592 -0.00380000053
v 0.00342320837 0.00734109292 -0.00380000053
v 0.00277036242 0.00761150988 -0.00380000053
v 0.00209643506 0.00782399811 -0.00380000053
v 0.00140655041 0.00797694176 -0.00380000053
v 0.000705961138 0.00806917623 -0.00380000053
v 1.88664466e-11 0.00809999928 -0.00380000053
v -0.000705961138 0.00806917623 -0.00380000053
v -0.00140655041 0.00797694176 -0.00380000053
v -0.00209643412 0.00782399811 -0.00380000053
v -0.00277036335 0.00761150988 -0.00380000053
v -0.00342320837 0.00734109292 -0.00380000053
v -0.00404999964 0.00701480592 -0.00380000053
v -0.00464596879 0.00663513178 -0.00380000053
v -0.00520657934 0.00620496133 -0.00380000053
v -0.00572756492 0.00572756538 -0.00380000053
v -0.00620495994 0.00520657981 -0.00380000053
v -0.00663513131 0.00464596832 -0.00380000053
v -0.00701480545 0.00405000011 -0.00380000053
v -0.00734109338 0.00342320884 -0.00380000053
v -0.00761151034 0.00277036289 -0.00380000053
v -0.00782399904 0.00209643552 -0.00380000053
v -0.0079769427 0.00140654889 -0.00380000053
v -0.00806917716 0.000705959683 -0.00380000053
v -0.00810000021 -1.45873658e-09 -0.00380000053
v -0.00806917716 -0.000705962593 -0.00380000053
v 1.88664466e-11 0.00809999928 -0.00129999919
v -0.000705961138 0.00806917623 0.00130000012
v -0.000705961138 0.00806917623 -0.00129999919
v -0.00140655041 0.00797694176 0.00130000012
v -0.00140655041 0.00797694176 -0.00129999919
v -0.00209643412 0.00782399811 0.00130000012
v -0.00209643412 0.00782399811 -0.00129999919
v -0.00277036335 0.00761150988 0.00130000012
v -0.00277036335 0.00761150988 -0.00129999919
v -0.00342320837 0.00734109292 0.00130000012
v -0.00342320837 0.00734109292 -0.00129999919
v -0.00404999964 0.00701480592 0.00130000012
v -0.00404999964 0.00701480592 -0.00129999919
v -0.00464596879 0.00663513178 0.00130000012
v -0.00464596879 0.00663513178 -0.00129999919
v -0.00520657934 0.00620496133 0.00130000012
v -0.00520657934 0.00620496133 -0.00129999919
v -0.00572756492 0.00572756538 0.00130000012
v -0.00572756492 0.00572756538 -0.00129999919
v -0.00620495994 0.00520657981 0.00130000012
v -0.00620495994 0.00520657981 -0.00129999919
v -0.00663513131 0.00464596832 0.00130000012
v -0.00663513131 0.00464596832 -0.00129999919
v -0.00701480545 0.00405000011 0.00130000012
v -0.00701480545 0.00405000011 -0.00129999919
v -0.00734109338 0.00342320884 0.00130000012
v -0.00734109338 0.00342320884 -0.00129999919
v -0.00761151034 0.00277036289 0.00130000012
v -0.00761151034 0.00277036289 -0.00129999919
v -0.00782399904 0.00209643552 0.00130000012
v -0.00782399904 0.00209643552 -0.00129999919
v -0.0079769427 0.00140654889 0.00130000012
v -0.0079769427 0.00140654889 -0.00129999919
v -0.00806917716 0.000705959683 0.00130000012
v -0.00806917716 0.000705959683 -0.00129999919
v -0.00810000021 -1.45873658e-09 0.00130000012
v -0.00810000021 -1.45873658e-09 -0.00129999919
v -0.00806917716 -0.000705962593 0.00130000012
v -0.00806917716 -0.000705962593 -0.00129999919
v -0.0079769427 -0.00140655192 0.00130000012
v -0.0079769427 -0.00140655192 -0.00129999919
v -0.00782399904 -0.00209643459 0.00130000012
v -0.00782399904 -0.00209643459 -0.00129999919
v -0.00761151034 -0.00277036196 0.00130000012
v -0.00761151034 -0.00277036196 -0.00129999919
v -0.00734109338 -0.00342320791 0.00130000012
v -0.00734109338 -0.00342320791 -0.00129999919
v -0.00701480545 -0.00404999917 0.00130000012
v -0.00701480545 -0.00404999917 -0.00129999919
v -0.00663513131 -0.00464596739 0.00130000012
v -0.00663513131 -0.00464596739 -0.00129999919
v -0.00620495994 -0.00520657888 0.00130000012
v -0.00620495994 -0.00520657888 -0.00129999919
v -0.00572756492 -0.00572756445 0.00130000012
v -0.00572756492 -0.00572756445 -0.00129999919
v -0.00520657934 -0.0062049604 0.00130000012
v -0.00520657934 -0.0062049604 -0.00129999919
v -0.00464596879 -0.00663513085 0.00130000012
v -0.00464596879 -0.00663513085 -0.00129999919
v -0.00404999964 -0.00701480499 0.00130000012
v -0.00404999964 -0.00701480499 -0.00129999919
v -0.00342320837 -0.00734109199 0.00130000012
v -0.00342320837 -0.00734109199 -0.00129999919
v -0.00277036335 -0.00761151081 0.00130000012
v -0.00277036335 -0.00761151081 -0.00129999919
v -0.00209643412 -0.00782399811 0.00130000012
v -0.00209643412 -0.00782399811 -0.00129999919
v -0.00140655041 -0.00797694363 0.00130000012
v -0.00140655041 -0.00797694363 -0.00129999919
v -0.000705961138 -0.00806917809 0.00130000012
v -0.000705961138 -0.00806917809 -0.00129999919
v 1.88664466e-11 -0.00810000114 0.00130000012
v 1.88664466e-11 -0.00810000114 -0.00129999919
v 0.000705961138 -0.00806917809 0.00130000012
v 0.000705961138 -0.00806917809 -0.00129999919
v 0.00140655041 -0.00797694363 0.00130000012
v 0.00140655041 -0.00797694363 -0.00129999919
v 0.00209643506 -0.00782399811 0.00130000012
v 0.00209643506 -0.00782399811 -0.00129999919
v 0.00277036242 -0.00761151081 0.00130000012
v 0.00277036242 -0.00761151081 -0.00129999919
v 0.00342320837 -0.00734109199 0.00130000012
v 0.00342320837 -0.00734109199 -0.00129999919
v 0.00404999964 -0.00701480499 0.00130000012
v 0.00404999964 -0.00701480499 -0.00129999919
v 0.00464596972 -0.00663513085 0.00130000012
v 0.00464596972 -0.00663513085 -0.00129999919
v 0.00520657934 -0.0062049604 0.00130000012
v 0.00520657934 -0.0062049604 -0.00129999919
v 0.00572756492 -0.00572756445 0.00130000012
v 0.00572756492 -0.00572756445 -0.00129999919
v 0.00620495901 -0.00520657888 0.00130000012
v 0.00620495901 -0.00520657888 -0.00129999919
v 0.00663513131 -0.00464596739 0.00130000012
v 0.00663513131 -0.00464596739 -0.00129999919
v 0.00701480545 -0.00404999917 0.00130000012
v 0.00701480545 -0.00404999917 -0.00129999919
v 0.00734109245 -0.00342320791 0.00130000012
v 0.00734109245 -0.00342320791 -0.00129999919
v 0.00761150941 -0.00277036196 0.00130000012
v 0.00761150941 -0.00277036196 -0.00129999919
v 0.00782399997 -0.00209643459 0.00130000012
v 0.00782399997 -0.00209643459 -0.00129999919
v 0.00797694363 -0.00140655192 0.00130000012
v 0.00797694363 -0.00140655192 -0.00129999919
v 0.00806917623 -0.000705962593 0.00130000012
v 0.00806917623 -0.000705962593 -0.00129999919
v 0.00809999928 -1.45873658e-09 0.00130000012
v 0.00809999928 -1.45873658e-09 -0.00129999919
v 0.00806917623 0.000705959683 0.00130000012
v 0.00806917623 0.000705959683 -0.00129999919
v 0.00797694363 0.00140654889 0.00130000012
v 0.00797694363 0.00140654889 -0.00129999919
v 0.00782399997 0.00209643552 0.00130000012
v 0.00782399997 0.00209643552 -0.00129999919
v 0.00761150941 0.00277036289 0.00130000012
v 0.00761150941 0.00277036289 -0.00129999919
v 0.00734109245 0.00342320884 0.00130000012
v 0.00734109245 0.00342320884 -0.00129999919
v 0.00701480545 0.00405000011 0.00130000012
v 0.00701480545 0.00405000011 -0.00129999919
v 0.00663513131 0.00464596832 0.00130000012
v 0.00663513131 0.00464596832 -0.00129999919
v 0.00620495901 0.00520657981 0.00130000012
v 0.00620495901 0.00520657981 -0.00129999919
v 0.00572756492 0.00572756538 0.00130000012
v 0.00572756492 0.00572756538 -0.00129999919
v 0.00520657934 0.00620496133 0.00130000012
v 0.00520657934 0.00620496133 -0.00129999919
v 0.00464596972 0.00663513178 0.00130000012
v 0.00464596972 0.00663513178 -0.00129999919
v 0.00404999964 0.00701480592 0.00130000012
v 0.00404999964 0.00701480592 -0.00129999919
v 0.00342320837 0.00734109292 0.00130000012
v 0.00342320837 0.00734109292 -0.00129999919
v 0.00277036242 0.00761150988 0.00130000012
v 0.00277036242 0.00761150988 -0.00129999919
v 0.00209643506 0.00782399811 0.00130000012
v 0.00209643506 0.00782399811 -0.00129999919
v 0.00140655041 0.00797694176 0.00130000012
v 0.00140655041 0.00797694176 -0.00129999919
v 0.000705961138 0.00806917623 0.00130000012
v 0.000705961138 0.00806917623 -0.00129999919
v 1.88664466e-11 0.00809999928 0.00130000012
v -0.0100615667 -0.000880272652 -0.00129999919
v -0.0100999996 -1.45873658e-09 -0.00129999919
v -0.0100615667 0.000880273466 -0.00129999919
v -0.00994655769 0.00175384653 -0.00129999919
v -0.00975585077 0.00261407206 -0.00129999919
v -0.00949089509 0.00345440442 -0.00129999919
v -0.00915370882 0.00426844368 -0.00129999919
v -0.00874685682 0.00504999841 -0.00129999919
v -0.00827343576 0.00579312304 -0.00129999919
v -0.0077370489 0.00649215514 -0.00129999919
v -0.00714177825 0.00714177871 -0.00129999919
v -0.00649215467 0.00773704844 -0.00129999919
v -0.00579312164 0.00827343576 -0.00129999919
v -0.0050499998 0.00874685682 -0.00129999919
v -0.00426844414 0.00915370882 -0.00129999919
v -0.00345440395 0.00949089415 -0.00129999919
v -0.00261407252 0.00975584984 -0.00129999919
v -0.00175384618 0.00994655862 -0.00129999919
v -0.000880273059 0.0100615658 -0.00129999919
v 1.88664466e-11 0.0100999996 -0.00129999919
v 0.000880273059 0.0100615658 -0.00129999919
v 0.00175384618 0.00994655862 -0.00129999919
v 0.00261407159 0.00975584984 -0.00129999919
v 0.00345440395 0.00949089415 -0.00129999919
v 0.00426844507 0.00915370882 -0.00129999919
v 0.0050499998 0.00874685682 -0.00129999919
v 0.00579312257 0.00827343576 -0.00129999919
v 0.00649215467 0.00773704844 -0.00129999919
v 0.00714177825 0.00714177871 -0.00129999919
v 0.00773704797 0.00649215514 -0.00129999919
v 0.00827343576 0.00579312304 -0.00129999919
v 0.00874685682 0.00504999841 -0.00129999919
v 0.00915370882 0.00426844368 -0.00129999919
v 0.00949089602 0.00345440442 -0.00129999919
v 0.0097558517 0.00261407206 -0.00129999919
v 0.00994655862 0.00175384653 -0.00129999919
v 0.0100615658 0.000880273466 -0.00129999919
v 0.0100999996 -1.45873658e-09 -0.00129999919
v 0.0100615658 -0.000880272652 -0.00129999919
v 0.00994655862 -0.00175384583 -0.00129999919
v 0.0097558517 -0.00261407113 -0.00129999919
v 0.00949089602 -0.00345440349 -0.00129999919
v 0.00915370882 -0.00426844275 -0.00129999919
v 0.00874685682 -0.0050500012 -0.00129999919
v 0.00827343576 -0.00579312211 -0.00129999919
v 0.00773704797 -0.00649215421 -0.00129999919
v 0.00714177825 -0.00714177778 -0.00129999919
v 0.00649215467 -0.00773704937 -0.00129999919
v 0.00579312257 -0.00827343576 -0.00129999919
v 0.0050499998 -0.00874685682 -0.00129999919
v 0.00426844507 -0.00915371068 -0.00129999919
v 0.00345440395 -0.00949089415 -0.00129999919
v 0.00261407159 -0.0097558517 -0.00129999919
v 0.00175384618 -0.00994656049 -0.00129999919
v 0.000880273059 -0.0100615676 -0.00129999919
v 1.88664466e-11 -0.0101000015 -0.00129999919
v -0.000880273059 -0.0100615676 -0.00129999919
v -0.00175384618 -0.00994656049 -0.00129999919
v -0.00261407252 -0.0097558517 -0.00129999919
v -0.00345440395 -0.00949089415 -0.00129999919
v -0.00426844414 -0.00915371068 -0.00129999919
v -0.0050499998 -0.00874685682 -0.00129999919
v -0.00579312164 -0.00827343576 -0.00129999919
v -0.00649215467 -0.00773704937 -0.00129999919
v -0.00714177825 -0.00714177778 -0.00129999919
v -0.0077370489 -0.00649215421 -0.00129999919
v -0.00827343576 -0.00579312211 -0.00129999919
v -0.00874685682 -0.0050500012 -0.00129999919
v -0.00915370882 -0.00426844275 -0.00129999919
v -0.00949089509 -0.00345440349 -0.00129999919
v -0.00975585077 -0.00261407113 -0.00129999919
v -0.00994655769 -0.00175384583 -0.00129999919
v 1.88664466e-11 0.0100999996 -0.00250000088
v -0.000880273059 0.0100615658 -0.00250000088
v -0.00175384618 0.00994655862 -0.00250000088
v -0.00261407252 0.00975584984 -0.00250000088
v -0.00345440395 0.00949089415 -0.00250000088
v -0.00426844414 0.00915370882 -0.00250000088
v -0.0050499998 0.00874685682 -0.00250000088
v -0.00579312164 0.00827343576 -0.00250000088
v -0.00649215467 0.00773704844 -0.00250000088
v -0.00714177825 0.00714177871 -0.00250000088
v -0.0077370489 0.00649215514 -0.00250000088
v -0.00827343576 0.00579312304 -0.00250000088
v -0.00874685682 0.00504999841 -0.00250000088
v -0.00915370882 0.00426844368 -0.00250000088
v -0.00949089509 0.00345440442 -0.00250000088
v -0.00975585077 0.00261407206 -0.00250000088
v -0.00994655769 0.00175384653 -0.00250000088
v -0.0100615667 0.000880273466 -0.00250000088
v -0.0100999996 -1.45873658e-09 -0.00250000088
v -0.0100615667 -0.000880272652 -0.00250000088
v -0.00994655769 -0.00175384583 -0.00250000088
v -0.00975585077 -0.00261407113 -0.00250000088
v -0.00949089509 -0.00345440349 -0.00250000088
v -0.00915370882 -0.00426844275 -0.00250000088
v -0.00874685682 -0.0050500012 -0.00250000088
v -0.00827343576 -0.00579312211 -0.00250000088
v -0.0077370489 -0.00649215421 -0.00250000088
v -0.00714177825 -0.00714177778 -0.00250000088
v -0.00649215467 -0.00773704937 -0.00250000088
v -0.00579312164 -0.00827343576 -0.00250000088
v -0.0050499998 -0.00874685682 -0.00250000088
v -0.00426844414 -0.00915371068 -0.00250000088
v -0.00345440395 -0.00949089415 -0.00250000088
v -0.00261407252 -0.0097558517 -0.00250000088
v -0.00175384618 -0.00994656049 -0.00250000088
v -0.000880273059 -0.0100615676 -0.00250000088
v 1.88664466e-11 -0.0101000015 -0.00250000088
v 0.000880273059 -0.0100615676 -0.00250000088
v 0.00175384618 -0.00994656049 -0.00250000088
v 0.00261407159 -0.0097558517 -0.00250000088
v 0.00345440395 -0.00949089415 -0.00250000088
v 0.00426844507 -0.00915371068 -0.00250000088
v 0.0050499998 -0.00874685682 -0.00250000088
v 0.00579312257 -0.00827343576 -0.00250000088
v 0.00649215467 -0.00773704937 -0.00250000088
v 0.00714177825 -0.00714177778 -0.00250000088
v 0.00773704797 -0.00649215421 -0.00250000088
v 0.00827343576 -0.00579312211 -0.00250000088
v 0.00874685682 -0.0050500012 -0.00250000088
v 0.00915370882 -0.00426844275 -0.00250000088
v 0.00949089602 -0.00345440349 -0.00250000088
v 0.0097558517 -0.00261407113 -0.00250000088
v 0.00994655862 -0.00175384583 -0.00250000088
v 0.0100615658 -0.000880272652 -0.00250000088
v 0.0100999996 -1.45873658e-09 -0.00250000088
v 0.0100615658 0.000880273466 -0.00250000088
v 0.00994655862 0.00175384653 -0.00250000088
v 0.0097558517 0.00261407206 -0.00250000088
v 0.00949089602 0.00345440442 -0.00250000088
v 0.00915370882 0.00426844368 -0.00250000088
v 0.00874685682 0.00504999841 -0.00250000088
v 0.00827343576 0.00579312304 -0.00250000088
v 0.00773704797 0.00649215514 -0.00250000088
v 0.00714177825 0.00714177871 -0.00250000088
v 0.00649215467 0.00773704844 -0.00250000088
v 0.00579312257 0.00827343576 -0.00250000088
v 0.0050499998 0.00874685682 -0.00250000088
v 0.00426844507 0.00915370882 -0.00250000088
v 0.00345440395 0.00949089415 -0.00250000088
v 0.00261407159 0.00975584984 -0.00250000088
v 0.00175384618 0.00994655862 -0.00250000088
v 0.000880273059 0.0100615658 -0.00250000088
v -0.00663513131 0.00464596832 -0.00250000088
v -0.00701480545 0.00405000011 -0.00250000088
v -0.00734109338 0.00342320884 -0.00250000088
v -0.00761151034 0.00277036289 -0.00250000088
v -0.00782399904 0.00209643552 -0.00250000088
v -0.0079769427 0.00140654889 -0.00250000088
v -0.00806917716 0.000705959683 -0.00250000088
v -0.00810000021 -1.45873658e-09 -0.00250000088
v -0.00806917716 -0.000705962593 -0.00250000088
v -0.0079769427 -0.00140655192 -0.00250000088
v -0.00782399904 -0.00209643459 -0.00250000088
v -0.00761151034 -0.00277036196 -0.00250000088
v -0.00734109338 -0.00342320791 -0.00250000088
v -0.00701480545 -0.00404999917 -0.00250000088
v -0.00663513131 -0.00464596739 -0.00250000088
v -0.00620495994 -0.00520657888 -0.00250000088
v -0.00572756492 -0.00572756445 -0.00250000088
v -0.00520657934 -0.0062049604 -0.00250000088
v -0.00464596879 -0.00663513085 -0.00250000088
v -0.00404999964 -0.00701480499 -0.00250000088
v -0.00342320837 -0.00734109199 -0.00250000088
v -0.00277036335 -0.00761151081 -0.00250000088
v -0.00209643412 -0.00782399811 -0.00250000088
v -0.00140655041 -0.00797694363 -0.00250000088
v -0.000705961138 -0.00806917809 -0.00250000088
v 1.88664466e-11 -0.00810000114 -0.00250000088
v 0.000705961138 -0.00806917809 -0.00250000088
v 0.00140655041 -0.00797694363 -0.00250000088
v 0.00209643506 -0.00782399811 -0.00250000088
v 0.00277036242 -0.00761151081 -0.00250000088
v 0.00342320837 -0.00734109199 -0.00250000088
v 0.00404999964 -0.00701480499 -0.00250000088
v 0.00464596972 -0.00663513085 -0.00250000088
v 0.00520657934 -0.0062049604 -0.00250000088
v 0.00572756492 -0.00572756445 -0.00250000088
v 0.00620495901 -0.00520657888 -0.00250000088
v 0.00663513131 -0.00464596739 -0.00250000088
v 0.00701480545 -0.00404999917 -0.00250000088
v 0.00734109245 -0.00342320791 -0.00250000088
v 0.00761150941 -0.00277036196 -0.00250000088
v 0.00782399997 -0.00209643459 -0.00250000088
v 0.00797694363 -0.00140655192 -0.00250000088
v 0.00806917623 -0.000705962593 -0.00250000088
v 0.00809999928 -1.45873658e-09 -0.00250000088
v 0.00806917623 0.000705959683 -0.00250000088
v 0.00797694363 0.00140654889 -0.00250000088
v 0.00782399997 0.00209643552 -0.00250000088
v 0.00761150941 0.00277036289 -0.00250000088
v 0.00734109245 0.00342320884 -0.00250000088
v 0.00701480545 0.00405000011 -0.00250000088
v 0.00663513131 0.00464596832 -0.00250000088
v 0.00620495901 0.00520657981 -0.00250000088
v 0.00572756492 0.00572756538 -0.00250000088
v 0.00520657934 0.00620496133 -0.00250000088
v 0.00464596972 0.00663513178 -0.00250000088
v 0.00404999964 0.00701480592 -0.00250000088
v 0.00342320837 0.00734109292 -0.00250000088
v 0.00277036242 0.00761150988 -0.00250000088
v 0.00209643506 0.00782399811 -0.00250000088
v 0.00140655041 0.00797694176 -0.00250000088
v 0.000705961138 0.00806917623 -0.00250000088
v 1.88664466e-11 0.00809999928 -0.00250000088
v -0.000705961138 0.00806917623 -0.00250000088
v -0.00140655041 0.00797694176 -0.00250000088
v -0.00209643412 0.00782399811 -0.00250000088
v -0.00277036335 0.00761150988 -0.00250000088
v -0.00342320837 0.00734109292 -0.00250000088
v -0.00404999964 0.00701480592 -0.00250000088
v -0.00464596879 0.00663513178 -0.00250000088
v -0.00520657934 0.00620496133 -0.00250000088
v -0.00572756492 0.00572756538 -0.00250000088
v -0.00620495994 0.00520657981 -0.00250000088
f 1 3 2
f 2 3 4
f 3 5 4
f 4 5 6
f 5 7 6
f 6 7 8
f 7 9 8
f 8 9 10
f 9 11 10
f 10 11 12
f 11 13 12
f 12 13 14
f 13 15 14
f 14 15 16
f 15 17 16
f 16 17 18
f 17 19 18
f 18 19 20
f 19 21 20
f 20 21 22
f 21 23 22
f 22 23 24
f 23 25 24
f 24 25 26
f 25 27 26
f 26 27 28
f 27 29 28
f 28 29 30
f 29 31 30
f 30 31 32
f 31 33 32
f 32 33 34
f 33 35 34
f 34 35 36
f 35 37 36
f 36 37 38
f 37 39 38
f 38 39 40
f 39 41 40
f 40 41 42
f 41 43 42
f 42 43 44
f 43 45 44
f 44 45 46
f 45 47 46
f 46 47 48
f 47 49 48
f 48 49 50
f 49 51 50
f 50 51 52
f 51 53 52
f 52 53 54
f 53 55 54
f 54 55 56
f 55 57 56
f 56 57 58
f 57 59 58
f 58 59 60
f 59 61 60
f 60 61 62
f 61 63 62
f 62 63 64
f 63 65 64
f 64 65 66
f 65 67 66
f 66 67 68
f 67 69 68
f 68 69 70
f 69 71 70
f 70 71 72
f 71 73 72
f 72 73 74
f 73 75 74
f 74 75 76
f 75 77 76
f 76 77 78
f 77 79 78
f 78 79 80
f 79 81 80
f 80 81 82
f 81 83 82
f 82 83 84
f 83 85 84
f 84 85 86
f 85 87 86
f 86 87 88
f 87 89 88
f 88 89 90
f 89 91 90
f 90 91 92
f 91 93 92
f 92 93 94
f 93 95 94
f 94 95 96
f 95 97 96
f 96 97 98
f 97 99 98
f 98 99 100
f 99 101 100
f 100 101 102
f 101 103 102
f 102 103 104
f 103 105 104
f 104 105 106
f 105 107 106
f 106 107 108
f 107 109 108
f 108 109 110
f 109 111 110
f 110 111 112
f 111 113 112
f 112 113 114
f 113 115 114
f 114 115 116
f 115 117 116
f 116 117 118
f 117 119 118
f 118 119 120
f 119 121 120
f 120 121 122
f 121 123 122
f 122 123 124
f 123 125 124
f 124 125 126
f 125 127 126
f 126 127 128
f 127 129 128
f 128 129 130
f 129 131 130
f 130 131 132
f 131 133 132
f 132 133 134
f 133 135 134
f 134 135 136
f 135 137 136
f 136 137 138
f 137 139 138
f 138 139 140
f 139 141 140
f 140 141 142
f 141 143 142
f 142 143 144
f 143 1 144
f 144 1 2
f 145 146 38
f 38 146 36
f 146 147 36
f 36 147 34
f 147 148 34
f 34 148 32
f 148 149 32
f 32 149 30
f 149 150 30
f 30 150 28
f 150 151 28
f 28 151 26
f 151 152 26
f 26 152 24
f 152 153 24
f 24 153 22
f 153 154 22
f 22 154 20
f 154 155 20
f 20 155 18
f 155 156 18
f 18 156 16
f 156 157 16
f 16 157 14
f 157 158 14
f 14 158 12
f 158 159 12
f 12 159 10
f 159 160 10
f 10 160 8
f 160 161 8
f 8 161 6
f 161 162 6
f 6 162 4
f 162 163 4
f 4 163 2
f 163 164 2
f 2 164 144
f 164 165 144
f 144 165 142
f 165 166 142
f 142 166 140
f 166 167 140
f 140 167 138
f 167 168 138
f 138 168 136
f 168 169 136
f 136 169 134
f 169 170 134
f 134 170 132
f 170 171 132
f 132 171 130
f 171 172 130
f 130 172 128
f 172 173 128
f 128 173 126
f 173 174 126
f 126 174 124
f 174 175 124
f 124 175 122
f 175 176 122
f 122 176 120
f 176 177 120
f 120 177 118
f 177 178 118
f 118 178 116
f 178 179 116
f 116 179 114
f 179 180 114
f 114 180 112
f 180 181 112
f 112 181 110
f 181 182 110
f 110 182 108
f 182 183 108
f 108 183 106
f 183 184 106
f 106 184 104
f 184 185 104
f 104 185 102
f 185 186 102
f 102 186 100
f 186 187 100
f 100 187 98
f 187 188 98
f 98 188 96
f 188 189 96
f 96 189 94
f 189 190 94
f 94 190 92
f 190 191 92
f 92 191 90
f 191 192 90
f 90 192 88
f 192 193 88
f 88 193 86
f 193 194 86
f 86 194 84
f 194 195 84
f 84 195 82
f 195 196 82
f 82 196 80
f 196 197 80
f 80 197 78
f 197 198 78
f 78 198 76
f 198 199 76
f 76 199 74
f 199 200 74
f 74 200 72
f 200 201 72
f 72 201 70
f 201 202 70
f 70 202 68
f 202 203 68
f 68 203 66
f 203 204 66
f 66 204 64
f 204 205 64
f 64 205 62
f 205 206 62
f 62 206 60
f 206 207 60
f 60 207 58
f 207 208 58
f 58 208 56
f 208 209 56
f 56 209 54
f 209 210 54
f 54 210 52
f 210 211 52
f 52 211 50
f 211 212 50
f 50 212 48
f 212 213 48
f 48 213 46
f 213 214 46
f 46 214 44
f 214 215 44
f 44 215 42
f 215 216 42
f 42 216 40
f 216 145 40
f 40 145 38
f 164 163 217
f 217 163 218
f 163 162 218
f 218 162 219
f 162 161 219
f 219 161 220
f 161 160 220
f 220 160 221
f 160 159 221
f 221 159 222
f 159 158 222
f 222 158 223
f 158 157 223
f 223 157 224
f 157 156 224
f 224 156 225
f 156 155 225
f 225 155 226
f 155 154 226
f 226 154 227
f 154 153 227
f 227 153 228
f 153 152 228
f 228 152 229
f 152 151 229
f 229 151 230
f 151 150 230
f 230 150 231
f 150 149 231
f 231 149 232
f 149 148 232
f 232 148 233
f 148 147 233
f 233 147 234
f 147 146 234
f 234 146 235
f 146 145 235
f 235 145 236
f 145 216 236
f 236 216 237
f 216 215 237
f 237 215 238
f 215 214 238
f 238 214 239
f 214 213 239
f 239 213 240
f 213 212 240
f 240 212 241
f 212 211 241
f 241 211 242
f 211 210 242
f 242 210 243
f 210 209 243
f 243 209 244
f 209 208 244
f 244 208 245
f 208 207 245
f 245 207 246
f 207 206 246
f 246 206 247
f 206 205 247
f 247 205 248
f 205 204 248
f 248 204 249
f 204 203 249
f 249 203 250
f 203 202 250
f 250 202 251
f 202 201 251
f 251 201 252
f 201 200 252
f 252 200 253
f 200 199 253
f 253 199 254
f 199 198 254
f 254 198 255
f 198 197 255
f 255 197 256
f 197 196 256
f 256 196 257
f 196 195 257
f 257 195 258
f 195 194 258
f 258 194 259
f 194 193 259
f 259 193 260
f 193 192 260
f 260 192 261
f 192 191 261
f 261 191 262
f 191 190 262
f 262 190 263
f 190 189 263
f 263 189 264
f 189 188 264
f 264 188 265
f 188 187 265
f 265 187 266
f 187 186 266
f 266 186 267
f 186 185 267
f 267 185 268
f 185 184 268
f 268 184 269
f 184 183 269
f 269 183 270
f 183 182 270
f 270 182 271
f 182 181 271
f 271 181 272
f 181 180 272
f 272 180 273
f 180 179 273
f 273 179 274
f 179 178 274
f 274 178 275
f 178 177 275
f 275 177 276
f 177 176 276
f 276 176 277
f 176 175 277
f 277 175 278
f 175 174 278
f 278 174 279
f 174 173 279
f 279 173 280
f 173 172 280
f 280 172 281
f 172 171 281
f 281 171 282
f 171 170 282
f 282 170 283
f 170 169 283
f 283 169 284
f 169 168 284
f 284 168 285
f 168 167 285
f 285 167 286
f 167 166 286
f 286 166 287
f 166 165 287
f 287 165 288
f 165 164 288
f 288 164 217
f 289 290 241
f 241 290 240
f 290 291 240
f 240 291 239
f 291 292 239
f 239 292 238
f 292 293 238
f 238 293 237
f 293 294 237
f 237 294 236
f 294 295 236
f 236 295 235
f 295 296 235
f 235 296 234
f 296 297 234
f 234 297 233
f 297 298 233
f 233 298 232
f 298 299 232
f 232 299 231
f 299 300 231
f 231 300 230
f 300 301 230
f 230 301 229
f 301 302 229
f 229 302 228
f 302 303 228
f 228 303 227
f 303 304 227
f 227 304 226
f 304 305 226
f 226 305 225
f 305 306 225
f 225 306 224
f 306 307 224
f 224 307 223
f 307 308 223
f 223 308 222
f 308 309 222
f 222 309 221
f 309 310 221
f 221 310 220
f 310 311 220
f 220 311 219
f 311 312 219
f 219 312 218
f 312 313 218
f 218 313 217
f 313 314 217
f 217 314 288
f 314 315 288
f 288 315 287
f 315 316 287
f 287 316 286
f 316 317 286
f 286 317 285
f 317 318 285
f 285 318 284
f 318 319 284
f 284 319 283
f 319 320 283
f 283 320 282
f 320 321 282
f 282 321 281
f 321 322 281
f 281 322 280
f 322 323 280
f 280 323 279
f 323 324 279
f 279 324 278
f 324 325 278
f 278 325 277
f 325 326 277
f 277 326 276
f 326 327 276
f 276 327 275
f 327 328 275
f 275 328 274
f 328 329 274
f 274 329 273
f 329 330 273
f 273 330 272
f 330 331 272
f 272 331 271
f 331 332 271
f 271 332 270
f 332 333 270
f 270 333 269
f 333 334 269
f 269 334 268
f 334 335 268
f 268 335 267
f 335 336 267
f 267 336 266
f 336 337 266
f 266 337 265
f 337 338 265
f 265 338 264
f 338 339 264
f 264 339 263
f 339 340 263
f 263 340 262
f 340 341 262
f 262 341 261
f 341 342 261
f 261 342 260
f 342 343 260
f 260 343 259
f 343 344 259
f 259 344 258
f 344 345 258
f 258 345 257
f 345 346 257
f 257 346 256
f 346 347 256
f 256 347 255
f 347 348 255
f 255 348 254
f 348 349 254
f 254 349 253
f 349 350 253
f 253 350 252
f 350 351 252
f 252 351 251
f 351 352 251
f 251 352 250
f 352 353 250
f 250 353 249
f 353 354 249
f 249 354 248
f 354 355 248
f 248 355 247
f 355 356 247
f 247 356 246
f 356 357 246
f 246 357 245
f 357 358 245
f 245 358 244
f 358 359 244
f 244 359 243
f 359 360 243
f 243 360 242
f 360 289 242
f 242 289 241
f 314 313 361
f 361 313 362
f 313 312 362
f 362 312 363
f 312 311 363
f 363 311 364
f 311 310 364
f 364 310 365
f 310 309 365
f 365 309 366
f 309 308 366
f 366 308 367
f 308 307 367
f 367 307 368
f 307 306 368
f 368 306 369
f 306 305 369
f 369 305 370
f 305 304 370
f 370 304 371
f 304 303 371
f 371 303 372
f 303 302 372
f 372 302 373
f 302 301 373
f 373 301 374
f 301 300 374
f 374 300 375
f 300 299 375
f 375 299 376
f 299 298 376
f 376 298 377
f 298 297 377
f 377 297 378
f 297 296 378
f 378 296 379
f 296 295 379
f 379 295 380
f 295 294 380
f 380 294 381
f 294 293 381
f 381 293 382
f 293 292 382
f 382 292 383
f 292 291 383
f 383 291 384
f 291 290 384
f 384 290 385
f 290 289 385
f 385 289 386
f 289 360 386
f 386 360 387
f 360 359 387
f 387 359 388
f 359 358 388
f 388 358 389
f 358 357 389
f 389 357 390
f 357 356 390
f 390 356 391
f 356 355 391
f 391 355 392
f 355 354 392
f 392 354 393
f 354 353 393
f 393 353 394
f 353 352 394
f 394 352 395
f 352 351 395
f 395 351 396
f 351 350 396
f 396 350 397
f 350 349 397
f 397 349 398
f 349 348 398
f 398 348 399
f 348 347 399
f 399 347 400
f 347 346 400
f 400 346 401
f 346 345 401
f 401 345 402
f 345 344 402
f 402 344 403
f 344 343 403
f 403 343 404
f 343 342 404
f 404 342 405
f 342 341 405
f 405 341 406
f 341 340 406
f 406 340 407
f 340 339 407
f 407 339 408
f 339 338 408
f 408 338 409
f 338 337 409
f 409 337 410
f 337 336 410
f 410 336 411
f 336 335 411
f 411 335 412
f 335 334 412
f 412 334 413
f 334 333 413
f 413 333 414
f 333 332 414
f 414 332 415
f 332 331 415
f 415 331 416
f 331 330 416
f 416 330 417
f 330 329 417
f 417 329 418
f 329 328 418
f 418 328 419
f 328 327 419
f 419 327 420
f 327 326 420
f 420 326 421
f 326 325 421
f 421 325 422
f 325 324 422
f 422 324 423
f 324 323 423
f 423 323 424
f 323 322 424
f 424 322 425
f 322 321 425
f 425 321 426
f 321 320 426
f 426 320 427
f 320 319 427
f 427 319 428
f 319 318 428
f 428 318 429
f 318 317 429
f 429 317 430
f 317 316 430
f 430 316 431
f 316 315 431
f 431 315 432
f 315 314 432
f 432 314 361
f 433 434 370
f 370 434 369
f 434 435 369
f 369 435 368
f 435 436 368
f 368 436 367
f 436 437 367
f 367 437 366
f 437 438 366
f 366 438 365
f 438 439 365
f 365 439 364
f 439 440 364
f 364 440 363
f 440 441 363
f 363 441 362
f 441 442 362
f 362 442 361
f 442 443 361
f 361 443 432
f 443 444 432
f 432 444 431
f 444 445 431
f 431 445 430
f 445 446 430
f 430 446 429
f 446 447 429
f 429 447 428
f 447 448 428
f 428 448 427
f 448 449 427
f 427 449 426
f 449 450 426
f 426 450 425
f 450 451 425
f 425 451 424
f 451 452 424
f 424 452 423
f 452 453 423
f 423 453 422
f 453 454 422
f 422 454 421
f 454 455 421
f 421 455 420
f 455 456 420
f 420 456 419
f 456 457 419
f 419 457 418
f 457 458 418
f 418 458 417
f 458 459 417
f 417 459 416
f 459 460 416
f 416 460 415
f 460 461 415
f 415 461 414
f 461 462 414
f 414 462 413
f 462 463 413
f 413 463 412
f 463 464 412
f 412 464 411
f 464 465 411
f 411 465 410
f 465 466 410
f 410 466 409
f 466 467 409
f 409 467 408
f 467 468 408
f 408 468 407
f 468 469 407
f 407 469 406
f 469 470 406
f 406 470 405
f 470 471 405
f 405 471 404
f 471 472 404
f 404 472 403
f 472 473 403
f 403 473 402
f 473 474 402
f 402 474 401
f 474 475 401
f 401 475 400
f 475 476 400
f 400 476 399
f 476 477 399
f 399 477 398
f 477 478 398
f 398 478 397
f 478 479 397
f 397 479 396
f 479 480 396
f 396 480 395
f 480 481 395
f 395 481 394
f 481 482 394
f 394 482 393
f 482 483 393
f 393 483 392
f 483 484 392
f 392 484 391
f 484 485 391
f 391 485 390
f 485 486 390
f 390 486 389
f 486 487 389
f 389 487 388
f 487 488 388
f 388 488 387
f 488 489 387
f 387 489 386
f 489 490 386
f 386 490 385
f 490 491 385
f 385 491 384
f 491 492 384
f 384 492 383
f 492 493 383
f 383 493 382
f 493 494 382
f 382 494 381
f 494 495 381
f 381 495 380
f 495 496 380
f 380 496 379
f 496 497 379
f 379 497 378
f 497 498 378
f 378 498 377
f 498 499 377
f 377 499 376
f 499 500 376
f 376 500 375
f 500 501 375
f 375 501 374
f 501 502 374
f 374 502 373
f 502 503 373
f 373 503 372
f 503 504 372
f 372 504 371
f 504 433 371
f 371 433 370
f 442 441 505
f 505 441 506
f 441 440 506
f 506 440 507
f 440 439 507
f 507 439 508
f 439 438 508
f 508 438 509
f 438 437 509
f 509 437 510
f 437 436 510
f 510 436 511
f 436 435 511
f 511 435 512
f 435 434 512
f 512 434 513
f 434 433 513
f 513 433 514
f 433 504 514
f 514 504 515
f 504 503 515
f 515 503 516
f 503 502 516
f 516 502 517
f 502 501 517
f 517 501 518
f 501 500 518
f 518 500 519
f 500 499 519
f 519 499 520
f 499 498 520
f 520 498 521
f 498 497 521
f 521 497 522
f 497 496 522
f 522 496 523
f 496 495 523
f 523 495 524
f 495 494 524
f 524 494 525
f 494 493 525
f 525 493 526
f 493 492 526
f 526 492 527
f 492 491 527
f 527 491 528
f 491 490 528
f 528 490 529
f 490 489 529
f 529 489 530
f 489 488 530
f 530 488 531
f 488 487 531
f 531 487 532
f 487 486 532
f 532 486 533
f 486 485 533
f 533 485 534
f 485 484 534
f 534 484 535
f 484 483 535
f 535 483 536
f 483 482 536
f 536 482 537
f 482 481 537
f 537 481 538
f 481 480 538
f 538 480 539
f 480 479 539
f 539 479 540
f 479 478 540
f 540 478 541
f 478 477 541
f 541 477 542
f 477 476 542
f 542 476 543
f 476 475 543
f 543 475 544
f 475 474 544
f 544 474 545
f 474 473 545
f 545 473 546
f 473 472 546
f 546 472 547
f 472 471 547
f 547 471 548
f 471 470 548
f 548 470 549
f 470 469 549
f 549 469 550
f 469 468 550
f 550 468 551
f 468 467 551
f 551 467 552
f 467 466 552
f 552 466 553
f 466 465 553
f 553 465 554
f 465 464 554
f 554 464 555
f 464 463 555
f 555 463 556
f 463 462 556
f 556 462 557
f 462 461 557
f 557 461 558
f 461 460 558
f 558 460 559
f 460 459 559
f 559 459 560
f 459 458 560
f 560 458 561
f 458 457 561
f 561 457 562
f 457 456 562
f 562 456 563
f 456 455 563
f 563 455 564
f 455 454 564
f 564 454 565
f 454 453 565
f 565 453 566
f 453 452 566
f 566 452 567
f 452 451 567
f 567 451 568
f 451 450 568
f 568 450 569
f 450 449 569
f 569 449 570
f 449 448 570
f 570 448 571
f 448 447 571
f 571 447 572
f 447 446 572
f 572 446 573
f 446 445 573
f 573 445 574
f 445 444 574
f 574 444 575
f 444 443 575
f 575 443 576
f 443 442 576
f 576 442 505
f 551 552 577
f 577 552 578
f 552 553 578
f 578 553 579
f 553 554 579
f 579 554 580
f 554 555 580
f 580 555 581
f 555 556 581
f 581 556 582
f 556 557 582
f 582 557 583
f 557 558 583
f 583 558 584
f 558 559 584
f 584 559 585
f 559 560 585
f 585 560 586
f 560 561 586
f 586 561 587
f 561 562 587
f 587 562 588
f 562 563 588
f 588 563 589
f 563 564 589
f 589 564 590
f 564 565 590
f 590 565 591
f 565 566 591
f 591 566 592
f 566 567 592
f 592 567 593
f 567 568 593
f 593 568 594
f 568 569 594
f 594 569 595
f 569 570 595
f 595 570 596
f 570 571 596
f 596 571 597
f 571 572 597
f 597 572 598
f 572 573 598
f 598 573 599
f 573 574 599
f 599 574 600
f 574 575 600
f 600 575 601
f 575 576 601
f 601 576 602
f 576 505 602
f 602 505 603
f 505 506 603
f 603 506 604
f 506 507 604
f 604 507 605
f 507 508 605
f 605 508 606
f 508 509 606
f 606 509 607
f 509 510 607
f 607 510 608
f 510 511 608
f 608 511 609
f 511 512 609
f 609 512 610
f 512 513 610
f 610 513 611
f 513 514 611
f 611 514 612
f 514 515 612
f 612 515 613
f 515 516 613
f 613 516 614
f 516 517 614
f 614 517 615
f 517 518 615
f 615 518 616
f 518 519 616
f 616 519 617
f 519 520 617
f 617 520 618
f 520 521 618
f 618 521 619
f 521 522 619
f 619 522 620
f 522 523 620
f 620 523 621
f 523 524 621
f 621 524 622
f 524 525 622
f 622 525 623
f 525 526 623
f 623 526 624
f 526 527 624
f 624 527 625
f 527 528 625
f 625 528 626
f 528 529 626
f 626 529 627
f 529 530 627
f 627 530 628
f 530 531 628
f 628 531 629
f 531 532 629
f 629 532 630
f 532 533 630
f 630 533 631
f 533 534 631
f 631 534 632
f 534 535 632
f 632 535 633
f 535 536 633
f 633 536 634
f 536 537 634
f 634 537 635
f 537 538 635
f 635 538 636
f 538 539 636
f 636 539 637
f 539 540 637
f 637 540 638
f 540 541 638
f 638 541 639
f 541 542 639
f 639 542 640
f 542 543 640
f 640 543 641
f 543 544 641
f 641 544 642
f 544 545 642
f 642 545 643
f 545 546 643
f 643 546 644
f 546 547 644
f 644 547 645
f 547 548 645
f 645 548 646
f 548 549 646
f 646 549 647
f 549 550 647
f 647 550 648
f 550 551 648
f 648 551 577
f 603 604 649
f 649 604 650
f 604 605 650
f 650 605 651
f 605 606 651
f 651 606 652
f 606 607 652
f 652 607 653
f 607 608 653
f 653 608 654
f 608 609 654
f 654 609 655
f 609 610 655
f 655 610 656
f 610 611 656
f 656 611 657
f 611 612 657
f 657 612 658
f 612 613 658
f 658 613 659
f 613 614 659
f 659 614 660
f 614 615 660
f 660 615 661
f 615 616 661
f 661 616 662
f 616 617 662
f 662 617 663
f 617 618 663
f 663 618 664
f 618 619 664
f 664 619 665
f 619 620 665
f 665 620 666
f 620 621 666
f 666 621 667
f 621 622 667
f 667 622 668
f 622 623 668
f 668 623 669
f 623 624 669
f 669 624 670
f 624 625 670
f 670 625 671
f 625 626 671
f 671 626 672
f 626 627 672
f 672 627 673
f 627 628 673
f 673 628 674
f 628 629 674
f 674 629 675
f 629 630 675
f 675 630 676
f 630 631 676
f 676 631 677
f 631 632 677
f 677 632 678
f 632 633 678
f 678 633 679
f 633 634 679
f 679 634 680
f 634 635 680
f 680 635 681
f 635 636 681
f 681 636 682
f 636 637 682
f 682 637 683
f 637 638 683
f 683 638 684
f 638 639 684
f 684 639 685
f 639 640 685
f 685 640 686
f 640 641 686
f 686 641 687
f 641 642 687
f 687 642 688
f 642 643 688
f 688 643 689
f 643 644 689
f 689 644 690
f 644 645 690
f 690 645 691
f 645 646 691
f 691 646 692
f 646 647 692
f 692 647 693
f 647 648 693
f 693 648 694
f 648 577 694
f 694 577 695
f 577 578 695
f 695 578 696
f 578 579 696
f 696 579 697
f 579 580 697
f 697 580 698
f 580 581 698
f 698 581 699
f 581 582 699
f 699 582 700
f 582 583 700
f 700 583 701
f 583 584 701
f 701 584 702
f 584 585 702
f 702 585 703
f 585 586 703
f 703 586 704
f 586 587 704
f 704 587 705
f 587 588 705
f 705 588 706
f 588 589 706
f 706 589 707
f 589 590 707
f 707 590 708
f 590 591 708
f 708 591 709
f 591 592 709
f 709 592 710
f 592 593 710
f 710 593 711
f 593 594 711
f 711 594 712
f 594 595 712
f 712 595 713
f 595 596 713
f 713 596 714
f 596 597 714
f 714 597 715
f 597 598 715
f 715 598 716
f 598 599 716
f 716 599 717
f 599 600 717
f 717 600 718
f 600 601 718
f 718 601 719
f 601 602 719
f 719 602 720
f 602 603 720
f 720 603 649
f 669 670 721
f 721 670 722
f 670 671 722
f 722 671 723
f 671 672 723
f 723 672 724
f 672 673 724
f 724 673 725
f 673 674 725
f 725 674 726
f 674 675 726
f 726 675 727
f 675 676 727
f 727 676 728
f 676 677 728
f 728 677 729
f 677 678 729
f 729 678 730
f 678 679 730
f 730 679 731
f 679 680 731
f 731 680 732
f 680 681 732
f 732 681 733
f 681 682 733
f 733 682 734
f 682 683 734
f 734 683 735
f 683 684 735
f 735 684 736
f 684 685 736
f 736 685 737
f 685 686 737
f 737 686 738
f 686 687 738
f 738 687 739
f 687 688 739
f 739 688 740
f 688 689 740
f 740 689 741
f 689 690 741
f 741 690 742
f 690 691 742
f 742 691 743
f 691 692 743
f 743 692 744
f 692 693 744
f 744 693 745
f 693 694 745
f 745 694 746
f 694 695 746
f 746 695 747
f 695 696 747
f 747 696 748
f 696 697 748
f 748 697 749
f 697 698 749
f 749 698 750
f 698 699 750
f 750 699 751
f 699 700 751
f 751 700 752
f 700 701 752
f 752 701 753
f 701 702 753
f 753 702 754
f 702 703 754
f 754 703 755
f 703 704 755
f 755 704 756
f 704 705 756
f 756 705 757
f 705 706 757
f 757 706 758
f 706 707 758
f 758 707 759
f 707 708 759
f 759 708 760
f 708 709 760
f 760 709 761
f 709 710 761
f 761 710 762
f 710 711 762
f 762 711 763
f 711 712 763
f 763 712 764
f 712 713 764
f 764 713 765
f 713 714 765
f 765 714 766
f 714 715 766
f 766 715 767
f 715 716 767
f 767 716 768
f 716 717 768
f 768 717 769
f 717 718 769
f 769 718 770
f 718 719 770
f 770 719 771
f 719 720 771
f 771 720 772
f 720 649 772
f 772 649 773
f 649 650 773
f 773 650 774
f 650 651 774
f 774 651 775
f 651 652 775
f 775 652 776
f 652 653 776
f 776 653 777
f 653 654 777
f 777 654 778
f 654 655 778
f 778 655 779
f 655 656 779
f 779 656 780
f 656 657 780
f 780 657 781
f 657 658 781
f 781 658 782
f 658 659 782
f 782 659 783
f 659 660 783
f 783 660 784
f 660 661 784
f 784 661 785
f 661 662 785
f 785 662 786
f 662 663 786
f 786 663 787
f 663 664 787
f 787 664 788
f 664 665 788
f 788 665 789
f 665 666 789
f 789 666 790
f 666 667 790
f 790 667 791
f 667 668 791
f 791 668 792
f 668 669 792
f 792 669 721
f 793 795 794
f 794 795 796
f 795 797 796
f 796 797 798
f 797 799 798
f 798 799 800
f 799 801 800
f 800 801 802
f 801 803 802
f 802 803 804
f 803 805 804
f 804 805 806
f 805 807 806
f 806 807 808
f 807 809 808
f 808 809 810
f 809 811 810
f 810 811 812
f 811 813 812
f 812 813 814
f 813 815 814
f 814 815 816
f 815 817 816
f 816 817 818
f 817 819 818
f 818 819 820
f 819 821 820
f 820 821 822
f 821 823 822
f 822 823 824
f 823 825 824
f 824 825 826
f 825 827 826
f 826 827 828
f 827 829 828
f 828 829 830
f 829 831 830
f 830 831 832
f 831 833 832
f 832 833 834
f 833 835 834
f 834 835 836
f 835 837 836
f 836 837 838
f 837 839 838
f 838 839 840
f 839 841 840
f 840 841 842
f 841 843 842
f 842 843 844
f 843 845 844
f 844 845 846
f 845 847 846
f 846 847 848
f 847 849 848
f 848 849 850
f 849 851 850
f 850 851 852
f 851 853 852
f 852 853 854
f 853 855 854
f 854 855 856
f 855 857 856
f 856 857 858
f 857 859 858
f 858 859 860
f 859 861 860
f 860 861 862
f 861 863 862
f 862 863 864
f 863 865 864
f 864 865 866
f 865 867 866
f 866 867 868
f 867 869 868
f 868 869 870
f 869 871 870
f 870 871 872
f 871 873 872
f 872 873 874
f 873 875 874
f 874 875 876
f 875 877 876
f 876 877 878
f 877 879 878
f 878 879 880
f 879 881 880
f 880 881 882
f 881 883 882
f 882 883 884
f 883 885 884
f 884 885 886
f 885 887 886
f 886 887 888
f 887 889 888
f 888 889 890
f 889 891 890
f 890 891 892
f 891 893 892
f 892 893 894
f 893 895 894
f 894 895 896
f 895 897 896
f 896 897 898
f 897 899 898
f 898 899 900
f 899 901 900
f 900 901 902
f 901 903 902
f 902 903 904
f 903 905 904
f 904 905 906
f 905 907 906
f 906 907 908
f 907 909 908
f 908 909 910
f 909 911 910
f 910 911 912
f 911 913 912
f 912 913 914
f 913 915 914
f 914 915 916
f 915 917 916
f 916 917 918
f 917 919 918
f 918 919 920
f 919 921 920
f 920 921 922
f 921 923 922
f 922 923 924
f 923 925 924
f 924 925 926
f 925 927 926
f 926 927 928
f 927 929 928
f 928 929 930
f 929 931 930
f 930 931 932
f 931 933 932
f 932 933 934
f 933 935 934
f 934 935 936
f 935 793 936
f 936 793 794
f 814 816 23
f 23 816 25
f 816 818 25
f 25 818 27
f 818 820 27
f 27 820 29
f 820 822 29
f 29 822 31
f 822 824 31
f 31 824 33
f 824 826 33
f 33 826 35
f 826 828 35
f 35 828 37
f 828 830 37
f 37 830 39
f 830 832 39
f 39 832 41
f 832 834 41
f 41 834 43
f 834 836 43
f 43 836 45
f 836 838 45
f 45 838 47
f 838 840 47
f 47 840 49
f 840 842 49
f 49 842 51
f 842 844 51
f 51 844 53
f 844 846 53
f 53 846 55
f 846 848 55
f 55 848 57
f 848 850 57
f 57 850 59
f 850 852 59
f 59 852 61
f 852 854 61
f 61 854 63
f 854 856 63
f 63 856 65
f 856 858 65
f 65 858 67
f 858 860 67
f 67 860 69
f 860 862 69
f 69 862 71
f 862 864 71
f 71 864 73
f 864 866 73
f 73 866 75
f 866 868 75
f 75 868 77
f 868 870 77
f 77 870 79
f 870 872 79
f 79 872 81
f 872 874 81
f 81 874 83
f 874 876 83
f 83 876 85
f 876 878 85
f 85 878 87
f 878 880 87
f 87 880 89
f 880 882 89
f 89 882 91
f 882 884 91
f 91 884 93
f 884 886 93
f 93 886 95
f 886 888 95
f 95 888 97
f 888 890 97
f 97 890 99
f 890 892 99
f 99 892 101
f 892 894 101
f 101 894 103
f 894 896 103
f 103 896 105
f 896 898 105
f 105 898 107
f 898 900 107
f 107 900 109
f 900 902 109
f 109 902 111
f 902 904 111
f 111 904 113
f 904 906 113
f 113 906 115
f 906 908 115
f 115 908 117
f 908 910 117
f 117 910 119
f 910 912 119
f 119 912 121
f 912 914 121
f 121 914 123
f 914 916 123
f 123 916 125
f 916 918 125
f 125 918 127
f 918 920 127
f 127 920 129
f 920 922 129
f 129 922 131
f 922 924 131
f 131 924 133
f 924 926 133
f 133 926 135
f 926 928 135
f 135 928 137
f 928 930 137
f 137 930 139
f 930 932 139
f 139 932 141
f 932 934 141
f 141 934 143
f 934 936 143
f 143 936 1
f 936 794 1
f 1 794 3
f 794 796 3
f 3 796 5
f 796 798 5
f 5 798 7
f 798 800 7
f 7 800 9
f 800 802 9
f 9 802 11
f 802 804 11
f 11 804 13
f 804 806 13
f 13 806 15
f 806 808 15
f 15 808 17
f 808 810 17
f 17 810 19
f 810 812 19
f 19 812 21
f 812 814 21
f 21 814 23
f 831 829 937
f 937 829 938
f 829 827 938
f 938 827 939
f 827 825 939
f 939 825 940
f 825 823 940
f 940 823 941
f 823 821 941
f 941 821 942
f 821 819 942
f 942 819 943
f 819 817 943
f 943 817 944
f 817 815 944
f 944 815 945
f 815 813 945
f 945 813 946
f 813 811 946
f 946 811 947
f 811 809 947
f 947 809 948
f 809 807 948
f 948 807 949
f 807 805 949
f 949 805 950
f 805 803 950
f 950 803 951
f 803 801 951
f 951 801 952
f 801 799 952
f 952 799 953
f 799 797 953
f 953 797 954
f 797 795 954
f 954 795 955
f 795 793 955
f 955 793 956
f 793 935 956
f 956 935 957
f 935 933 957
f 957 933 958
f 933 931 958
f 958 931 959
f 931 929 959
f 959 929 960
f 929 927 960
f 960 927 961
f 927 925 961
f 961 925 962
f 925 923 962
f 962 923 963
f 923 921 963
f 963 921 964
f 921 919 964
f 964 919 965
f 919 917 965
f 965 917 966
f 917 915 966
f 966 915 967
f 915 913 967
f 967 913 968
f 913 911 968
f 968 911 969
f 911 909 969
f 969 909 970
f 909 907 970
f 970 907 971
f 907 905 971
f 971 905 972
f 905 903 972
f 972 903 973
f 903 901 973
f 973 901 974
f 901 899 974
f 974 899 975
f 899 897 975
f 975 897 976
f 897 895 976
f 976 895 977
f 895 893 977
f 977 893 978
f 893 891 978
f 978 891 979
f 891 889 979
f 979 889 980
f 889 887 980
f 980 887 981
f 887 885 981
f 981 885 982
f 885 883 982
f 982 883 983
f 883 881 983
f 983 881 984
f 881 879 984
f 984 879 985
f 879 877 985
f 985 877 986
f 877 875 986
f 986 875 987
f 875 873 987
f 987 873 988
f 873 871 988
f 988 871 989
f 871 869 989
f 989 869 990
f 869 867 990
f 990 867 991
f 867 865 991
f 991 865 992
f 865 863 992
f 992 863 993
f 863 861 993
f 993 861 994
f 861 859 994
f 994 859 995
f 859 857 995
f 995 857 996
f 857 855 996
f 996 855 997
f 855 853 997
f 997 853 998
f 853 851 998
f 998 851 999
f 851 849 999
f 999 849 1000
f 849 847 1000
f 1000 847 1001
f 847 845 1001
f 1001 845 1002
f 845 843 1002
f 1002 843 1003
f 843 841 1003
f 1003 841 1004
f 841 839 1004
f 1004 839 1005
f 839 837 1005
f 1005 837 1006
f 837 835 1006
f 1006 835 1007
f 835 833 1007
f 1007 833 1008
f 833 831 1008
f 1008 831 937
f 1009 1010 955
f 955 1010 954
f 1010 1011 954
f 954 1011 953
f 1011 1012 953
f 953 1012 952
f 1012 1013 952
f 952 1013 951
f 1013 1014 951
f 951 1014 950
f 1014 1015 950
f 950 1015 949
f 1015 1016 949
f 949 1016 948
f 1016 1017 948
f 948 1017 947
f 1017 1018 947
f 947 1018 946
f 1018 1019 946
f 946 1019 945
f 1019 1020 945
f 945 1020 944
f 1020 1021 944
f 944 1021 943
f 1021 1022 943
f 943 1022 942
f 1022 1023 942
f 942 1023 941
f 1023 1024 941
f 941 1024 940
f 1024 1025 940
f 940 1025 939
f 1025 1026 939
f 939 1026 938
f 1026 1027 938
f 938 1027 937
f 1027 1028 937
f 937 1028 1008
f 1028 1029 1008
f 1008 1029 1007
f 1029 1030 1007
f 1007 1030 1006
f 1030 1031 1006
f 1006 1031 1005
f 1031 1032 1005
f 1005 1032 1004
f 1032 1033 1004
f 1004 1033 1003
f 1033 1034 1003
f 1003 1034 1002
f 1034 1035 1002
f 1002 1035 1001
f 1035 1036 1001
f 1001 1036 1000
f 1036 1037 1000
f 1000 1037 999
f 1037 1038 999
f 999 1038 998
f 1038 1039 998
f 998 1039 997
f 1039 1040 997
f 997 1040 996
f 1040 1041 996
f 996 1041 995
f 1041 1042 995
f 995 1042 994
f 1042 1043 994
f 994 1043 993
f 1043 1044 993
f 993 1044 992
f 1044 1045 992
f 992 1045 991
f 1045 1046 991
f 991 1046 990
f 1046 1047 990
f 990 1047 989
f 1047 1048 989
f 989 1048 988
f 1048 1049 988
f 988 1049 987
f 1049 1050 987
f 987 1050 986
f 1050 1051 986
f 986 1051 985
f 1051 1052 985
f 985 1052 984
f 1052 1053 984
f 984 1053 983
f 1053 1054 983
f 983 1054 982
f 1054 1055 982
f 982 1055 981
f 1055 1056 981
f 981 1056 980
f 1056 1057 980
f 980 1057 979
f 1057 1058 979
f 979 1058 978
f 1058 1059 978
f 978 1059 977
f 1059 1060 977
f 977 1060 976
f 1060 1061 976
f 976 1061 975
f 1061 1062 975
f 975 1062 974
f 1062 1063 974
f 974 1063 973
f 1063 1064 973
f 973 1064 972
f 1064 1065 972
f 972 1065 971
f 1065 1066 971
f 971 1066 970
f 1066 1067 970
f 970 1067 969
f 1067 1068 969
f 969 1068 968
f 1068 1069 968
f 968 1069 967
f 1069 1070 967
f 967 1070 966
f 1070 1071 966
f 966 1071 965
f 1071 1072 965
f 965 1072 964
f 1072 1073 964
f 964 1073 963
f 1073 1074 963
f 963 1074 962
f 1074 1075 962
f 962 1075 961
f 1075 1076 961
f 961 1076 960
f 1076 1077 960
f 960 1077 959
f 1077 1078 959
f 959 1078 958
f 1078 1079 958
f 958 1079 957
f 1079 1080 957
f 957 1080 956
f 1080 1009 956
f 956 1009 955
f 1081 1082 1020
f 1020 1082 1021
f 1082 1083 1021
f 1021 1083 1022
f 1083 1084 1022
f 1022 1084 1023
f 1084 1085 1023
f 1023 1085 1024
f 1085 1086 1024
f 1024 1086 1025
f 1086 1087 1025
f 1025 1087 1026
f 1087 1088 1026
f 1026 1088 1027
f 1088 1089 1027
f 1027 1089 1028
f 1089 1090 1028
f 1028 1090 1029
f 1090 1091 1029
f 1029 1091 1030
f 1091 1092 1030
f 1030 1092 1031
f 1092 1093 1031
f 1031 1093 1032
f 1093 1094 1032
f 1032 1094 1033
f 1094 1095 1033
f 1033 1095 1034
f 1095 1096 1034
f 1034 1096 1035
f 1096 1097 1035
f 1035 1097 1036
f 1097 1098 1036
f 1036 1098 1037
f 1098 1099 1037
f 1037 1099 1038
f 1099 1100 1038
f 1038 1100 1039
f 1100 1101 1039
f 1039 1101 1040
f 1101 1102 1040
f 1040 1102 1041
f 1102 1103 1041
f 1041 1103 1042
f 1103 1104 1042
f 1042 1104 1043
f 1104 1105 1043
f 1043 1105 1044
f 1105 1106 1044
f 1044 1106 1045
f 1106 1107 1045
f 1045 1107 1046
f 1107 1108 1046
f 1046 1108 1047
f 1108 1109 1047
f 1047 1109 1048
f 1109 1110 1048
f 1048 1110 1049
f 1110 1111 1049
f 1049 1111 1050
f 1111 1112 1050
f 1050 1112 1051
f 1112 1113 1051
f 1051 1113 1052
f 1113 1114 1052
f 1052 1114 1053
f 1114 1115 1053
f 1053 1115 1054
f 1115 1116 1054
f 1054 1116 1055
f 1116 1117 1055
f 1055 1117 1056
f 1117 1118 1056
f 1056 1118 1057
f 1118 1119 1057
f 1057 1119 1058
f 1119 1120 1058
f 1058 1120 1059
f 1120 1121 1059
f 1059 1121 1060
f 1121 1122 1060
f 1060 1122 1061
f 1122 1123 1061
f 1061 1123 1062
f 1123 1124 1062
f 1062 1124 1063
f 1124 1125 1063
f 1063 1125 1064
f 1125 1126 1064
f 1064 1126 1065
f 1126 1127 1065
f 1065 1127 1066
f 1127 1128 1066
f 1066 1128 1067
f 1128 1129 1067
f 1067 1129 1068
f 1129 1130 1068
f 1068 1130 1069
f 1130 1131 1069
f 1069 1131 1070
f 1131 1132 1070
f 1070 1132 1071
f 1132 1133 1071
f 1071 1133 1072
f 1133 1134 1072
f 1072 1134 1073
f 1134 1135 1073
f 1073 1135 1074
f 1135 1136 1074
f 1074 1136 1075
f 1136 1137 1075
f 1075 1137 1076
f 1137 1138 1076
f 1076 1138 1077
f 1138 1139 1077
f 1077 1139 1078
f 1139 1140 1078
f 1078 1140 1079
f 1140 1141 1079
f 1079 1141 1080
f 1141 1142 1080
f 1080 1142 1009
f 1142 1143 1009
f 1009 1143 1010
f 1143 1144 1010
f 1010 1144 1011
f 1144 1145 1011
f 1011 1145 1012
f 1145 1146 1012
f 1012 1146 1013
f 1146 1147 1013
f 1013 1147 1014
f 1147 1148 1014
f 1014 1148 1015
f 1148 1149 1015
f 1015 1149 1016
f 1149 1150 1016
f 1016 1150 1017
f 1150 1151 1017
f 1017 1151 1018
f 1151 1152 1018
f 1018 1152 1019
f 1152 1081 1019
f 1019 1081 1020
f 773 774 1143
f 1143 774 1144
f 774 775 1144
f 1144 775 1145
f 775 776 1145
f 1145 776 1146
f 776 777 1146
f 1146 777 1147
f 777 778 1147
f 1147 778 1148
f 778 779 1148
f 1148 779 1149
f 779 780 1149
f 1149 780 1150
f 780 781 1150
f 1150 781 1151
f 781 782 1151
f 1151 782 1152
f 782 783 1152
f 1152 783 1081
f 783 784 1081
f 1081 784 1082
f 784 785 1082
f 1082 785 1083
f 785 786 1083
f 1083 786 1084
f 786 787 1084
f 1084 787 1085
f 787 788 1085
f 1085 788 1086
f 788 789 1086
f 1086 789 1087
f 789 790 1087
f 1087 790 1088
f 790 791 1088
f 1088 791 1089
f 791 792 1089
f 1089 792 1090
f 792 721 1090
f 1090 721 1091
f 721 722 1091
f 1091 722 1092
f 722 723 1092
f 1092 723 1093
f 723 724 1093
f 1093 724 1094
f 724 725 1094
f 1094 725 1095
f 725 726 1095
f 1095 726 1096
f 726 727 1096
f 1096 727 1097
f 727 728 1097
f 1097 728 1098
f 728 729 1098
f 1098 729 1099
f 729 730 1099
f 1099 730 1100
f 730 731 1100
f 1100 731 1101
f 731 732 1101
f 1101 732 1102
f 732 733 1102
f 1102 733 1103
f 733 734 1103
f 1103 734 1104
f 734 735 1104
f 1104 735 1105
f 735 736 1105
f 1105 736 1106
f 736 737 1106
f 1106 737 1107
f 737 738 1107
f 1107 738 1108
f 738 739 1108
f 1108 739 1109
f 739 740 1109
f 1109 740 1110
f 740 741 1110
f 1110 741 1111
f 741 742 1111
f 1111 742 1112
f 742 743 1112
f 1112 743 1113
f 743 744 1113
f 1113 744 1114
f 744 745 1114
f 1114 745 1115
f 745 746 1115
f 1115 746 1116
f 746 747 1116
f 1116 747 1117
f 747 748 1117
f 1117 748 1118
f 748 749 1118
f 1118 749 1119
f 749 750 1119
f 1119 750 1120
f 750 751 1120
f 1120 751 1121
f 751 752 1121
f 1121 752 1122
f 752 753 1122
f 1122 753 1123
f 753 754 1123
f 1123 754 1124
f 754 755 1124
f 1124 755 1125
f 755 756 1125
f 1125 756 1126
f 756 757 1126
f 1126 757 1127
f 757 758 1127
f 1127 758 1128
f 758 759 1128
f 1128 759 1129
f 759 760 1129
f 1129 760 1130
f 760 761 1130
f 1130 761 1131
f 761 762 1131
f 1131 762 1132
f 762 763 1132
f 1132 763 1133
f 763 764 1133
f 1133 764 1134
f 764 765 1134
f 1134 765 1135
f 765 766 1135
f 1135 766 1136
f 766 767 1136
f 1136 767 1137
f 767 768 1137
f 1137 768 1138
f 768 769 1138
f 1138 769 1139
f 769 770 1139
f 1139 770 1140
f 770 771 1140
f 1140 771 1141
f 771 772 1141
f 1141 772 1142
f 772 773 1142
f 1142 773 1143
