# Generated MicroDuck mesh; do not edit by hand.
# Source: microduck_rl/src/mjlab_microduck/robot/microduck/assets/bottom_head_shell.stl
# Source repository: https://github.com/pollen-robotics/microduck_rl.git@5946fd9cdbc58956424420153e51975af3b30d77
# Source SHA-256: 3ce9532854a712c93e00e0fd2bbc2ce6b1c45f9418fd29d6e82f6ad8af8fc1af
# License: Creative Commons BY-SA-NC; see ../Licenses/ATTRIBUTION.json.
# Modified: exported MuJoCo-compiled mesh geometry in Tuanjie coordinates.
# Transform: (x,y,z) -> (-y,z,x); triangle winding reversed.
o bottom_head_shell
v 0.0424099602 -0.00285750977 0.00516298832
v 0.041454196 -0.0022504197 0.00663775112
v 0.0359365903 -0.0310753547 0.00760265719
v -0.0379927382 0.0145310024 0.0116300806
v -0.0364912935 0.0150265731 0.0116211418
v 0.0366893634 -0.0319610462 0.00613640621
v -0.0283394586 -0.0410144106 0.00609520264
v -0.0436601564 0.0645461529 0.00236834888
v -0.0419142507 0.0654918328 0.00234520854
v -0.0406260118 0.0557373986 0.00569074089
v -0.0373391211 0.0582433455 0.0056221229
v 0.0423885696 0.0268032216 -0.0053428039
v 0.0473502465 0.061941348 -0.000819019566
v -0.0234549437 -0.0452531092 0.00626807101
v -0.0256961212 -0.0422089323 0.00765172485
v -0.0150776422 -0.0491304174 0.0064474633
v -0.0125973681 -0.0487256944 0.0079478994
v 0.0293737166 0.0241473876 -0.00809068605
v 0.0453068838 0.064583458 -0.000944370695
v 0.0470134057 0.0643423945 0.00286877691
v 0.0467801206 0.0637264103 -0.000899514009
v 0.0475714542 0.0627763048 0.00292593706
v 0.0456953645 0.0651862249 0.00283227302
v 0.042093318 0.0577067174 0.00607267395
v 0.0440307818 0.0543303303 0.00619975012
v 0.0198477712 -0.0485431626 0.0066171512
v -0.0305647384 -0.0362345241 0.00741903298
v -0.0269596055 -0.0421284512 -0.00104828028
v 0.0260738134 -0.0442117602 0.00800242741
v 0.0213706009 -0.0468057543 0.00806638133
v 0.0248308741 -0.0462361574 0.00656462554
v 0.0144348787 -0.0154991867 0.00994991697
v -0.0260843355 0.0243000891 -0.00839759037
v -0.0297524482 0.0214708168 -0.00839397684
v -0.0414444916 0.0648594201 -0.00142605545
v -0.043348968 0.0639767721 -0.00139819749
v 0.0352148004 -0.033534091 -0.00296816067
v 0.0366510563 -0.0312922969 -0.00145636371
v -0.0321562514 -0.035482835 0.00588351628
v -0.0345753655 -0.0284304842 -0.00235092756
v -0.0346975774 -0.0294924956 0.00566293299
v 0.0301564001 -0.0414768532 -0.00237675523
v 0.0289830901 -0.0430511832 -0.000717310177
v 0.0324155763 -0.0372664146 -0.00389999477
v -0.0271652434 -0.0412118994 -0.00307699945
v -0.030519519 -0.0376540311 -0.00161473162
v -0.0327919126 -0.0334991515 -0.00134672772
v 0.00134932541 -0.0502460971 0.00807623286
v 0.00960038044 -0.0498015694 0.00810576603
v -0.00689897826 -0.0497561395 0.00801445916
v -8.50893048e-05 -0.047269281 0.00946659874
v 0.0342424661 -0.0228092019 -0.00609662803
v 0.0295182522 -0.0384975672 -0.00512778806
v 0.0383064114 -0.0052680322 -0.00654201861
v 0.0338931084 0.0198029839 -0.00795473065
v 0.0343759395 -0.0305436607 -0.00515370769
v 0.00406490779 -0.0465534516 -0.00556655321
v 0.0377633274 -0.0172089878 -0.00561402971
v 0.00726918178 0.0238992404 -0.00859563984
v -0.0441899635 0.062979579 0.00241953973
v 0.0190839469 -0.0486737825 -0.000634506578
v 0.024890488 -0.0459350795 -0.00149282441
v -0.0351292528 -0.00497063622 -0.00697433157
v -0.0350404829 -0.0234172996 -0.00440600561
v -0.0343666039 -0.0169577859 -0.0062078312
v -0.0357041806 -0.017139541 -0.00526660867
v -0.0230816938 -0.0422979072 -0.00512425136
v 0.0330964364 -0.0386846289 0.00634893449
v 0.0349579081 -0.035667628 0.00625492493
v 0.0328489877 -0.0385251269 -0.00165237975
v 0.0300262421 -0.0423056595 0.0064572189
v 0.0305510778 -0.0402407534 0.00788971689
v -0.0155614279 -0.0466439389 -0.00476799766
v -0.0184793361 -0.0442529358 -0.00541449478
v -0.00903664809 -0.0471718311 -0.00531274593
v -0.00698648579 -0.050803721 0.00654922612
v 0.0219782162 -0.0456419587 -0.004326405
v 0.0153726647 -0.0468929857 -0.00501735136
v 0.0233107451 -0.0433203727 -0.00520476699
v 0.0187152363 -0.0475990102 -0.00371929747
v 0.0281908587 -0.042225685 -0.00378584443
v 0.0245871432 -0.0454439484 -0.00305335433
v 0.0201797523 -0.0477780774 -0.00266120979
v -0.0196879189 -0.046649579 -0.00290263933
v -0.0231606048 -0.0438108258 -0.00402782066
v -0.0220603924 -0.0458058044 -0.00175264967
v -0.0159567017 -0.0477417484 -0.00357738486
v -0.0162657909 -0.0485528708 -0.0012479258
v -0.0389907956 0.0269627422 -0.00587111618
v -0.0392289534 0.00512827188 -0.00377587765
v -0.0398625396 0.0275984351 -0.00508513814
v -0.0371858068 -0.00675230846 -0.00557638938
v -0.039338246 0.000430475746 -0.00209198147
v -0.043931853 0.0621926896 -0.00132417295
v -0.00476163719 -0.0502344258 -0.00312518911
v -0.00934451818 -0.0488760695 -0.00415976252
v -0.00957565103 -0.0500960089 -0.00200306624
v -0.00483612297 -0.0508945771 -0.000726063154
v 0.00142504764 -0.0487660207 -0.00487049436
v 0.001410397 -0.05050404 -0.00308786239
v 0.00754743814 -0.0497936942 -0.00374603132
v 0.0123086181 -0.0496804304 -0.00303929229
v -0.0301015787 -0.034932442 -0.00489109103
v -0.0266066175 -0.038343031 -0.00543838227
v -0.0307160337 -0.0301118139 -0.00587586965
v -0.0274305772 -0.0389830843 -0.00475772563
v -0.0329359174 -0.0280246083 -0.00513302116
v -0.0319003016 -0.0331938118 -0.00405208673
v -0.0299274586 -0.0373404287 -0.00356711703
v 0.0398466103 -0.017469611 -0.00313797011
v 0.0396443605 -0.0218932796 0.00580498111
v 0.0415378772 -0.00712261815 -0.00266904221
v 0.0388375968 -0.0237420443 -0.00211998518
v 0.0402721204 -0.00696558459 -0.00514773885
v 0.0390076712 -0.0173802115 -0.00455085328
v 0.0367074199 -0.0284390766 -0.00383790559
v -0.0379616916 -0.0148147373 0.00513856485
v -0.0380457044 -0.00345821632 0.0122507056
v -0.0396256112 -0.00036140575 0.00449367194
v -0.0367615148 -0.0216828994 0.00538215274
v -0.0380788408 -0.0102318618 -0.00305108889
v -0.0359505489 -0.023537457 -0.00212627416
v 0.00762814982 -0.0509288944 -0.000657086086
v 0.00760988425 -0.0506218635 -0.00229789736
v 0.0013976763 -0.0511418097 -0.00110653101
v 0.0128044467 -0.050394427 0.00664274069
v 0.00135453627 -0.0512972362 0.0066116266
v 0.0124004204 -0.0502496697 -0.00147324172
f 89 34 63
f 118 60 119
f 19 59 35
f 74 105 34
f 19 35 9
f 23 19 9
f 23 11 24
f 9 11 23
f 32 118 51
f 51 118 15
f 54 55 12
f 24 11 5
f 5 118 32
f 34 105 63
f 13 22 1
f 1 112 13
f 3 32 72
f 1 22 2
f 2 22 25
f 25 3 2
f 25 32 3
f 25 24 5
f 5 32 25
f 49 127 126
f 30 49 126
f 30 51 49
f 3 6 111
f 111 112 1
f 111 1 2
f 2 3 111
f 69 6 3
f 3 72 69
f 94 60 36
f 9 35 36
f 36 34 89
f 36 89 94
f 4 118 5
f 4 60 118
f 10 60 4
f 5 11 4
f 4 11 10
f 38 6 69
f 69 70 38
f 111 6 38
f 38 113 111
f 28 86 14
f 28 14 7
f 14 15 7
f 39 46 7
f 7 46 28
f 15 118 27
f 7 15 27
f 27 39 7
f 126 128 61
f 61 62 31
f 36 60 8
f 8 9 36
f 8 60 10
f 8 11 9
f 10 11 8
f 21 22 13
f 21 19 23
f 12 55 21
f 13 12 21
f 97 16 88
f 87 97 88
f 14 86 88
f 88 16 14
f 92 89 63
f 66 121 92
f 54 12 114
f 13 112 114
f 114 12 13
f 17 15 14
f 14 16 17
f 51 15 17
f 50 51 17
f 76 16 97
f 17 16 76
f 76 50 17
f 96 97 87
f 101 99 78
f 43 70 71
f 31 62 43
f 71 31 43
f 55 59 18
f 18 59 19
f 21 55 18
f 18 19 21
f 20 22 21
f 21 23 20
f 23 24 20
f 25 22 20
f 20 24 25
f 81 79 53
f 44 81 53
f 53 56 44
f 26 31 30
f 30 126 26
f 61 31 26
f 26 126 61
f 41 118 120
f 27 118 41
f 41 39 27
f 116 113 38
f 100 99 101
f 45 106 85
f 28 46 45
f 85 86 45
f 45 86 28
f 57 79 78
f 78 99 57
f 34 59 57
f 74 34 57
f 30 31 29
f 29 31 71
f 71 72 29
f 29 51 30
f 29 32 51
f 72 32 29
f 75 99 96
f 57 99 75
f 75 74 57
f 108 40 64
f 64 121 66
f 104 105 74
f 33 59 34
f 35 59 33
f 33 34 36
f 36 35 33
f 41 120 122
f 122 40 41
f 122 121 64
f 64 40 122
f 38 70 37
f 37 70 44
f 116 38 37
f 44 56 37
f 37 56 116
f 47 46 39
f 47 40 108
f 47 39 41
f 41 40 47
f 116 56 58
f 58 115 116
f 58 54 114
f 114 115 58
f 42 70 43
f 44 70 42
f 42 81 44
f 82 81 42
f 43 62 42
f 42 62 82
f 109 106 45
f 45 46 109
f 109 46 47
f 47 108 109
f 48 127 49
f 76 127 48
f 48 50 76
f 49 51 48
f 48 51 50
f 53 79 52
f 52 55 54
f 52 56 53
f 52 79 57
f 58 56 52
f 52 54 58
f 52 59 55
f 57 59 52
f 78 80 102
f 102 101 78
f 121 119 93
f 119 60 93
f 93 60 94
f 83 62 61
f 82 62 83
f 102 80 83
f 61 128 83
f 83 128 102
f 63 105 65
f 92 63 65
f 65 66 92
f 107 108 64
f 65 105 107
f 64 66 107
f 107 66 65
f 67 74 85
f 104 74 67
f 85 106 67
f 67 106 104
f 68 70 69
f 71 70 68
f 69 72 68
f 68 72 71
f 96 87 73
f 85 74 73
f 73 87 85
f 73 74 75
f 75 96 73
f 76 97 98
f 125 127 98
f 98 127 76
f 78 79 77
f 77 80 78
f 77 79 81
f 77 81 82
f 83 80 77
f 77 82 83
f 84 86 85
f 85 87 84
f 88 86 84
f 84 87 88
f 94 89 91
f 91 89 92
f 91 92 90
f 92 121 90
f 90 121 93
f 93 94 90
f 90 94 91
f 95 97 96
f 98 97 95
f 96 99 95
f 95 99 100
f 100 125 95
f 95 125 98
f 100 101 124
f 102 128 124
f 124 101 102
f 124 125 100
f 103 105 104
f 104 106 103
f 107 105 103
f 103 108 107
f 103 106 109
f 109 108 103
f 110 112 111
f 111 113 110
f 114 112 110
f 110 115 114
f 110 113 116
f 116 115 110
f 118 119 117
f 120 118 117
f 117 119 121
f 122 120 117
f 117 121 122
f 123 125 124
f 126 127 123
f 123 127 125
f 123 128 126
f 124 128 123
