# Generated MicroDuck mesh; do not edit by hand.
# Source: microduck_rl/src/mjlab_microduck/robot/microduck/assets/hip_l.stl
# Source repository: https://github.com/pollen-robotics/microduck_rl.git@5946fd9cdbc58956424420153e51975af3b30d77
# Source SHA-256: 02bc777ce76a31b3d5c415188f8268b989f4eca57bc440a2900825ac459dec38
# License: Creative Commons BY-SA-NC; see ../Licenses/ATTRIBUTION.json.
# Modified: exported MuJoCo-compiled mesh geometry in Tuanjie coordinates.
# Transform: (x,y,z) -> (-y,z,x); triangle winding reversed.
o hip_l
v -0.00144085148 0.0185936205 -0.00417309627
v -0.00421242137 -0.0222464558 -0.00207239226
v 0.00133878156 -0.0159093495 -0.0079713976
v -0.000484986318 -0.0179913156 -0.00772924628
v -0.0106702466 0.0182776377 0.00401303358
v -0.0106702466 0.0182776377 -0.00401671324
v -0.00858358294 -0.0184867848 0.00544549944
v 0.0058328351 -0.0107790576 -0.00273800106
v 0.00351504446 -0.013424986 -0.00693004299
v 0.00597112067 -0.0106211947 0.00206871261
v -0.00220760796 -0.0169984438 0.00917445496
v -0.000587459013 -0.0151489247 -0.00950183999
v -0.00663393736 -0.0220514238 -0.00246062083
v -0.0040741358 -0.0220885929 0.0027343214
v -0.0064697233 -0.0218639616 0.00324735162
v -0.00682341354 -0.0222677253 0.000826139702
v -0.00437198021 -0.0224286038 0.00069540611
v -0.00950207748 -0.0195353143 0.0024562024
v -0.00982929301 -0.0192032177 -0.00161335221
v -0.00950207748 -0.0195353143 -0.00245988206
v -0.0097153103 -0.0197787341 -1.83983195e-06
v -0.0093241157 -0.0187785067 -0.00395939127
v -0.0109325461 0.0159150474 -0.00338278594
v -0.00834671129 0.0199972391 0.00461420557
v -0.00274819252 0.0198546946 0.00243602111
v -0.00852002297 0.0194721632 0.00544549944
v 0.00946402736 0.00317429914 0.00894227438
v -0.00641660532 0.018183602 -0.00764005026
v -0.00241776113 0.0195652433 -0.00300052692
v -0.00481659081 0.0131499292 -0.00946568977
v -0.00726010278 0.0183684919 0.00727339601
v -0.00924675632 0.0170306824 0.00671567442
v -0.00783457514 -0.0177309401 -0.00671935407
v -0.00847757515 -0.0177333411 -0.00599553436
v -0.00882937014 -0.0188665725 -0.00475183968
v 0.00133878156 -0.0159093495 0.00796771701
v -0.00214419491 -0.0198854245 0.00655137654
v -0.000923571701 -0.0184919927 0.007515701
v -0.00538272457 -0.020623073 0.00610464253
v -0.00315876887 -0.021043634 0.00514046103
v -0.000526943011 -0.0180392917 -0.00210590847
v -0.00468302285 -0.0137439175 -0.00931297056
v -0.00272842823 -0.0175929982 -0.00892892014
v 0.012565678 0.00635747099 -0.00408899551
v 0.0116602005 0.00717962394 -0.00450183963
v -0.00658636354 -0.0162068121 0.0082229292
v -0.00371734635 -0.0187219214 0.00822540093
v -0.00769809028 -0.0169222783 0.00717167929
v -0.00829255022 0.016194813 0.00778010441
v 0.00985167269 0.00113147998 0.00900467485
v -0.0114049334 0.0163288508 0.0013873456
v -0.00982929301 -0.0192032177 0.00160967256
v -0.0114734564 0.0163888745 -0.000699085766
v -0.0109325461 0.0159150474 0.00337910629
v -0.00933937542 -0.0187171493 0.00393887842
v -0.0113125769 0.0188403074 -0.000829819357
v -0.00829255022 0.016194813 -0.00778378407
v -0.00724280719 -0.0164862853 -0.00770147517
v -0.00924675632 0.0170306824 -0.00671935407
v -0.00568724703 0.0169906951 -0.00860917754
v -0.00663785031 0.014745323 -0.00892892014
v -0.00623409916 -0.0155145852 -0.00857077166
v -0.00771958847 0.0187709946 -0.00671733636
v 0.00900105108 -0.00288313162 -0.00912684016
v 0.0130989365 0.00206971099 0.00449815998
v 0.00873399433 -0.0035263414 0.00894227438
v 0.0133952405 0.00428274181 0.00399816036
v 0.0131876087 0.0051292046 -0.00400184002
v 0.0129791154 0.00564587023 0.00399816036
v 0.0130687868 0.00402721995 0.00476420484
v -0.00470777275 0.0168095864 0.00867348723
v -0.00559519464 0.0170812197 0.00858492218
v -0.00729789119 0.0190197229 0.00656034471
v 0.0133332601 0.00242780731 -0.00400184002
v 0.0134244468 0.00297780824 0.00399816036
v 0.0130079444 0.00193248072 -0.00457094284
v 0.0128313787 0.00110329408 -0.00402601622
v 0.0127884485 0.00102709245 0.00402728794
v -0.00862645078 0.0202422868 -0.00390349003
v -0.00314848498 0.0201200712 -0.00180304318
v -0.00910689309 0.0207160991 -0.00159596174
v -0.00956855249 0.0203906577 -0.00245988206
v -0.00875525549 0.0198493823 -0.00473906193
v -0.00754127884 0.0193913784 -0.00586727681
v 0.00968638994 0.00180747604 -0.00918202288
v 0.00973232649 -0.000245020725 -0.00918202288
v 0.013436825 0.00365485181 -0.00417548791
v 0.0127673736 0.00554636819 -0.00464462722
v 0.00841764919 0.00495748688 0.00923025049
v 0.00156384485 0.0159617085 0.00457157148
v -0.00136965688 0.0185618456 0.00416416442
v 0.00136230746 0.0163785201 0.00399816036
v 0.0120637408 0.00697894255 0.00399816036
v 0.0118788136 0.00683369394 0.00464094756
v 0.00765737705 0.00611080974 0.00900467485
v -0.00390864257 0.015432667 -0.00935470313
v -0.00412998535 0.0163034555 -0.00891935546
v 0.00156399328 0.0159812272 -0.00455353176
v -0.00304166367 0.0151581997 0.00932688918
v 0.00686044758 0.00625323365 0.00945292879
v -0.0054346649 0.0136913517 0.00935383327
v -0.00333401305 0.0148424003 0.00946200918
v -0.00400282769 -0.0132575156 0.00945916586
v -0.00663785031 0.014745323 0.00892523956
v -0.00564461201 -0.015033287 0.00891453214
v -0.00451709051 0.0159656573 0.00917169824
v 0.00841835421 -0.00259618345 0.0094981594
v 0.00880732201 -0.00278768037 0.00931323599
v -0.000587459013 -0.0151489247 0.0094981594
v 0.00830127951 0.00411412073 0.0094945142
v 0.0094039198 0.00176389096 0.00937937386
v 0.00955257937 -0.000225394484 0.00931322947
v -0.00960179046 0.020590933 0.00164338015
v -0.00910689309 0.0207160991 0.00159228209
v -0.0098571917 0.0205565989 -1.83983195e-06
v -0.00928026531 0.0203092806 0.00323861092
v -0.0112312064 0.0187690295 0.0016478179
v 0.00673449552 0.00610945001 -0.00949898642
v 0.00814523548 -0.0031713075 -0.00949921366
v -0.00271119899 0.014296825 -0.00950183999
v 0.00920793694 0.00173356046 -0.00949044619
v -0.00250234362 0.0145352492 -0.00943157077
v 0.00753143616 0.00599011173 -0.00928217079
v 0.00898974854 0.00372480578 -0.00932637323
v -0.00214419491 -0.0198854245 -0.0065550562
v -0.00571516622 -0.0210025795 -0.00545081589
v -0.00417791819 -0.0192476977 -0.00778378407
v -0.00343871978 -0.0213632192 -0.00459045125
f 39 48 7
f 25 92 29
f 29 92 45
f 109 36 108
f 117 115 56
f 78 36 10
f 36 41 10
f 77 9 64
f 77 78 10
f 38 41 36
f 126 128 13
f 98 29 45
f 98 45 123
f 91 92 25
f 25 73 91
f 39 47 48
f 94 70 69
f 23 53 56
f 6 59 23
f 23 56 6
f 83 59 6
f 42 12 43
f 43 12 4
f 123 45 88
f 28 29 1
f 1 29 98
f 97 28 1
f 1 98 97
f 25 29 80
f 117 54 5
f 5 54 32
f 116 117 5
f 21 13 16
f 125 41 128
f 4 41 125
f 125 127 43
f 43 4 125
f 13 128 2
f 128 41 2
f 2 41 17
f 16 13 2
f 2 17 16
f 48 32 7
f 7 15 39
f 54 55 7
f 32 54 7
f 3 12 64
f 4 12 3
f 64 9 3
f 9 41 3
f 3 41 4
f 5 32 26
f 26 116 5
f 124 123 88
f 6 56 82
f 56 115 82
f 82 115 81
f 82 83 6
f 18 15 7
f 7 55 18
f 16 15 18
f 18 21 16
f 60 28 97
f 63 59 83
f 63 28 60
f 8 9 77
f 77 10 8
f 8 41 9
f 10 41 8
f 20 13 21
f 114 25 80
f 80 81 114
f 81 115 114
f 11 47 38
f 11 105 47
f 11 36 109
f 38 36 11
f 103 105 11
f 11 109 103
f 64 12 119
f 12 120 119
f 119 121 86
f 86 64 119
f 30 42 61
f 30 120 12
f 30 12 42
f 126 13 35
f 20 22 35
f 35 13 20
f 39 15 14
f 14 40 39
f 14 15 16
f 16 17 14
f 14 41 40
f 17 41 14
f 34 59 58
f 34 22 23
f 23 59 34
f 35 22 34
f 72 73 31
f 31 73 26
f 26 32 31
f 68 87 88
f 52 21 18
f 18 55 52
f 20 21 19
f 52 53 19
f 19 21 52
f 19 22 20
f 23 22 19
f 19 53 23
f 93 94 69
f 45 92 93
f 89 94 95
f 27 70 89
f 89 70 94
f 24 73 25
f 26 73 24
f 24 116 26
f 24 25 114
f 114 116 24
f 111 70 27
f 50 70 111
f 111 27 89
f 111 89 110
f 84 29 28
f 80 29 84
f 84 28 63
f 63 83 84
f 60 97 96
f 96 120 30
f 96 61 60
f 30 61 96
f 31 32 49
f 49 32 48
f 49 104 72
f 49 72 31
f 58 127 33
f 34 58 33
f 33 127 126
f 33 126 35
f 33 35 34
f 66 36 78
f 108 36 66
f 72 104 106
f 38 47 37
f 37 47 39
f 39 40 37
f 40 41 37
f 37 41 38
f 61 42 62
f 62 42 43
f 62 127 58
f 43 127 62
f 88 45 44
f 68 88 44
f 44 45 93
f 44 69 68
f 93 69 44
f 47 105 46
f 48 47 46
f 49 48 46
f 46 105 104
f 46 104 49
f 112 50 111
f 112 70 50
f 51 53 52
f 51 54 117
f 51 55 54
f 52 55 51
f 56 53 51
f 51 117 56
f 58 59 57
f 60 61 57
f 57 61 62
f 62 58 57
f 57 59 63
f 63 60 57
f 77 64 76
f 76 64 86
f 86 87 76
f 65 78 75
f 66 78 65
f 65 108 66
f 112 108 65
f 75 70 65
f 65 70 112
f 75 87 67
f 67 87 68
f 68 69 67
f 69 70 67
f 67 70 75
f 71 99 91
f 106 99 71
f 71 72 106
f 71 73 72
f 91 73 71
f 74 87 75
f 76 87 74
f 74 77 76
f 74 78 77
f 75 78 74
f 79 81 80
f 79 83 82
f 82 81 79
f 84 83 79
f 79 80 84
f 85 87 86
f 86 121 85
f 88 87 85
f 85 121 124
f 124 88 85
f 110 89 100
f 95 99 100
f 89 95 100
f 90 92 91
f 93 92 90
f 90 94 93
f 91 99 90
f 90 99 95
f 95 94 90
f 122 120 96
f 96 97 122
f 98 123 122
f 97 98 122
f 102 99 106
f 100 99 102
f 102 110 100
f 103 109 102
f 102 109 110
f 101 103 102
f 104 105 101
f 101 105 103
f 106 104 101
f 102 106 101
f 107 109 108
f 110 109 107
f 111 110 107
f 107 108 112
f 112 111 107
f 114 115 113
f 113 116 114
f 113 115 117
f 113 117 116
f 119 120 118
f 118 121 119
f 118 120 122
f 122 123 118
f 124 121 118
f 118 123 124
f 126 127 125
f 125 128 126
