# Generated MicroDuck mesh; do not edit by hand.
# Source: microduck_rl/src/mjlab_microduck/robot/microduck/assets/jaw.stl
# Source repository: https://github.com/pollen-robotics/microduck_rl.git@5946fd9cdbc58956424420153e51975af3b30d77
# Source SHA-256: 65c300349113d3c6cd4a2cc587f76f7228115565a854492e42358ba8df71796a
# License: Creative Commons BY-SA-NC; see ../Licenses/ATTRIBUTION.json.
# Modified: exported MuJoCo-compiled mesh geometry in Tuanjie coordinates.
# Transform: (x,y,z) -> (-y,z,x); triangle winding reversed.
o jaw
v -0.0312925205 0.0378177427 0.00159685162
v 0.0243293084 0.0432448126 -0.00821849518
v 0.037752483 -0.0438158475 0.00509178173
v 0.0356155559 -0.0435232967 -0.000283537607
v -0.0321082026 -0.0265883878 0.00164575747
v -0.0298300143 -0.0438217781 0.000576508988
v -0.0301248822 -0.0444982946 0.00173423684
v -0.0307380557 -0.0436511673 0.000785284385
v -0.0316507705 0.0075610755 0.00108140148
v -0.0316420235 -0.0266135111 0.000462166558
v -0.0295460764 0.0460641794 0.00751376012
v -0.0285289846 0.0462313481 0.00728972862
v 0.0273302123 -0.0431252271 -0.00919840857
v 0.0373029262 0.043840982 0.0104450453
v 0.0386707298 0.043507006 0.00570430793
v 0.0373670794 -0.0440144017 0.0081935944
v 0.0371215641 -0.0423611999 0.0089356536
v 0.037564788 -0.0439638607 0.00743367476
v 0.0384738743 0.0436237492 0.0075476151
v 0.0380151235 0.0437304415 0.00904764794
v -0.0310339592 0.0449416973 0.00383620616
v -0.0304826368 0.0455023125 0.00336893438
v -0.0302528404 0.045631174 0.0076682982
v -0.0308721364 0.0447958 0.00780207245
v 0.0305348206 0.044353459 0.0146296741
v -0.030491164 -0.044991836 0.00739530753
v -0.0294777546 -0.0451794975 0.00717081456
v -0.0311887916 -0.0445446596 0.00755099067
v -0.0304886904 -0.0448478945 0.00316149346
v -0.0296843369 0.044831045 0.000906325644
v 0.0205472335 0.038622573 -0.0122412778
v -0.0312386062 -0.0422288068 0.000286487571
v -0.0308921393 -0.0266382936 -0.000565408147
v -0.031719707 -0.0419443436 0.000900172221
v -0.0313055106 -0.0433447734 0.00100806565
v -0.0318416171 -0.042974364 0.00149867695
v 0.0218329132 0.0375699922 -0.0124376295
v -0.0295182727 0.0431666598 -0.000358016754
v -0.0301415008 0.0438785106 0.000440470845
v -0.0311393104 0.0443251617 0.00231740298
v -0.0307966098 0.0439422503 0.00126178225
v -0.031191621 0.043477606 0.00184043508
v -0.0314367712 0.0439337231 0.00328217191
v -0.0309029128 0.0449427478 0.00272570294
v -0.0305204075 0.044635959 0.00146922318
v -0.0298327301 -0.0422991104 -0.000659204205
v -0.0306211803 -0.0426812246 -5.58283027e-05
v -0.0295824707 -0.042960301 -0.000317351689
v 0.024172917 0.0412497446 -0.0120025203
v 0.0226511825 0.0402104557 -0.0123205865
v -0.0283875819 0.043153327 -0.00081573287
v -0.0292383879 0.0439206548 -0.000116723437
v -0.028833678 0.0445814207 0.000317499682
v -0.028972391 0.027747944 -0.00150902534
v -0.0283862296 0.0420902371 -0.00117694226
v -0.0276436638 0.03789372 -0.00164984702
v -0.0292302389 -0.0368240327 -0.00149421312
v -0.0294307508 -0.0412302613 -0.0011791304
v -0.0299071167 -0.0266611278 -0.0013704265
v -0.0305999387 -0.0414894111 -0.000467130652
v -0.030196866 0.0378728472 -0.000206053926
v -0.0305404346 0.0430139676 0.000549634569
v -0.0294985045 0.0422471091 -0.000570158125
v 0.0251413304 0.041847147 -0.0116199227
v 0.0263158623 -0.0429073125 -0.0102824774
v -0.0305559803 0.00755752251 -0.000722709345
v -0.0296932776 0.0277475193 -0.00105960271
v -0.0308573395 0.0277365427 0.000169480671
v -0.0311591774 0.000557807973 -7.83826908e-05
v -0.0303962622 -0.00645485939 -0.00103695097
v -0.0295708347 0.00755063491 -0.0015278369
v 0.0234054495 -0.038140282 -0.0121731786
v 0.0222211853 -0.0378319919 -0.0124569582
v 0.0228000097 -0.0408859216 -0.0122553781
v 0.024109358 0.0381259769 -0.0121024232
v 0.0247261878 -0.0421318077 -0.0114914393
v 0.0245673042 -0.0384278595 -0.0116686141
v 0.0252420101 0.0383816585 -0.0116337426
v -0.0317186862 -0.0440605134 0.00293712155
v -0.0312106442 -0.0442590974 0.00218151417
v -0.0315507241 -0.0443075486 0.0036463826
v -0.0319933482 -0.0434197634 0.00233401824
v -0.0291961301 0.0457648821 0.00232501631
v -0.0299399495 0.0455479324 0.00228685397
v -0.028999975 0.0454445891 0.00154262024
v -0.0289270934 0.0459922403 0.00325091416
v 0.0272726938 0.0428693891 -0.0101037193
v -0.029711552 0.0459178649 0.00364121399
v 0.0266357791 0.0426231287 -0.0106811877
v -0.0281490386 -0.00647970662 -0.00218574028
v -0.0288882032 0.000536651583 -0.00193443603
v -0.00561379315 0.0185772441 -0.00699791219
v -0.0277749877 0.0277421828 -0.00193919684
v 0.0167289786 -0.0362423509 -0.0117549803
v -0.0284400303 -0.0401127599 -0.00161148468
v -0.0283399094 -0.0266860202 -0.0020100011
v 0.0207597744 -0.0393577851 -0.0124574723
v -0.00410513906 -0.0244094077 -0.00739961211
v 0.0209122729 -0.0374745987 -0.0125316828
v -0.00654259557 -0.00356674008 -0.00695500011
v 0.0204771012 0.0372126698 -0.0122872833
v -0.032324668 -0.0428560376 0.00383023731
v -0.0321522988 -0.0434597358 0.00376751856
v -0.03235301 -0.0423851237 0.00294086896
v -0.0316973925 0.0276893191 0.00297930138
v -0.0318656676 -0.0435003899 0.00770423654
v 0.0285760779 0.0444285348 0.0146025792
v 0.0276522283 -0.0445813797 0.0144867888
v -0.0319961682 -0.0426699556 0.00773604214
v -0.03109896 0.0437731557 0.00784849375
v 0.0377949737 0.0433103852 0.00180086365
v 0.0369103737 -0.0419178084 0.00168999261
v 0.0358813107 -0.0418338105 2.29352554e-05
v 0.0367644317 0.0432520993 0.000133621259
v 0.0384405106 0.0433945842 0.00365152326
v 0.0375362933 -0.0437239148 0.00353819295
v 0.0322676748 -0.0444567874 0.013842212
v 0.0316963904 0.0442968458 0.0144412806
v 0.0307746045 -0.0445140675 0.0143257491
v 0.0331879631 0.0442098454 0.0139575563
v 0.0336542279 -0.0443859175 0.0131068863
v 0.0345550813 0.0424084142 0.0132197952
v 0.035791032 0.0423029512 0.0122547783
v 0.0348921269 -0.0443036184 0.0121421143
v 0.0359437689 -0.0442123823 0.0109772105
v 0.0368582681 0.043896649 0.0110918293
v 0.0301256832 0.042666778 0.0146562727
v 0.0292203818 -0.0445560254 0.0145428069
f 87 2 114
f 7 65 29
f 43 105 110
f 110 105 109
f 86 12 2
f 86 2 87
f 77 65 76
f 76 65 7
f 48 74 76
f 80 7 29
f 29 81 80
f 82 35 80
f 126 125 14
f 59 91 96
f 103 81 28
f 103 104 82
f 1 68 9
f 62 68 1
f 1 105 43
f 9 105 1
f 24 43 110
f 24 110 107
f 107 23 24
f 1 43 42
f 42 62 1
f 2 12 111
f 114 2 111
f 19 18 15
f 15 115 111
f 103 28 106
f 108 109 106
f 106 28 108
f 18 116 3
f 15 18 3
f 3 116 115
f 3 115 15
f 14 125 17
f 44 22 84
f 84 45 44
f 84 85 30
f 30 45 84
f 8 7 80
f 80 35 8
f 8 35 47
f 47 48 8
f 22 23 11
f 107 12 11
f 11 23 107
f 30 52 39
f 39 45 30
f 64 78 75
f 97 58 95
f 33 70 59
f 59 60 33
f 34 10 33
f 13 116 18
f 13 27 29
f 29 65 13
f 13 65 87
f 4 116 13
f 4 113 112
f 112 116 4
f 114 113 4
f 4 87 114
f 13 87 4
f 9 10 5
f 34 104 5
f 5 10 34
f 104 105 5
f 5 105 9
f 76 7 6
f 6 48 76
f 6 7 8
f 8 48 6
f 9 68 69
f 69 10 9
f 33 10 69
f 69 70 33
f 88 22 11
f 84 22 88
f 88 12 86
f 11 12 88
f 51 50 55
f 55 50 31
f 120 122 126
f 120 12 107
f 111 12 120
f 13 18 117
f 117 119 128
f 108 27 128
f 128 27 13
f 128 13 117
f 20 14 17
f 126 14 20
f 120 126 20
f 20 111 120
f 20 19 15
f 15 111 20
f 124 121 117
f 117 18 124
f 126 122 123
f 17 125 16
f 16 125 124
f 124 18 16
f 16 18 19
f 20 17 16
f 16 19 20
f 21 22 44
f 21 23 22
f 24 23 21
f 21 43 24
f 44 43 21
f 25 107 127
f 25 118 120
f 120 107 25
f 25 119 118
f 128 119 25
f 127 128 25
f 93 101 92
f 92 101 100
f 26 27 108
f 108 28 26
f 29 27 26
f 28 81 26
f 26 81 29
f 53 52 30
f 53 85 64
f 30 85 53
f 37 99 101
f 31 50 37
f 37 101 31
f 36 35 82
f 36 104 34
f 82 104 36
f 56 101 93
f 56 55 31
f 31 101 56
f 32 60 47
f 33 60 32
f 32 34 33
f 47 35 32
f 32 35 36
f 36 34 32
f 41 62 42
f 39 62 41
f 41 45 39
f 73 99 37
f 37 50 73
f 97 99 73
f 73 74 97
f 73 50 75
f 39 52 38
f 38 52 51
f 63 62 38
f 38 62 39
f 38 55 63
f 51 55 38
f 41 42 40
f 42 43 40
f 40 43 44
f 44 45 40
f 40 45 41
f 46 48 47
f 46 74 48
f 60 58 46
f 47 60 46
f 46 58 97
f 97 74 46
f 75 50 49
f 49 64 75
f 49 50 51
f 51 52 49
f 49 52 53
f 53 64 49
f 71 91 59
f 59 70 71
f 63 55 54
f 54 67 63
f 54 55 56
f 56 93 54
f 71 67 54
f 93 91 54
f 54 91 71
f 95 58 57
f 57 96 95
f 59 96 57
f 57 58 60
f 57 60 59
f 61 68 62
f 67 68 61
f 61 62 63
f 63 67 61
f 89 78 64
f 77 78 89
f 64 85 89
f 87 65 89
f 89 65 77
f 66 68 67
f 69 68 66
f 66 70 69
f 71 70 66
f 66 67 71
f 72 74 73
f 73 75 72
f 76 74 72
f 72 77 76
f 72 78 77
f 75 78 72
f 80 81 79
f 79 82 80
f 79 81 103
f 103 82 79
f 83 85 84
f 86 87 83
f 88 86 83
f 83 84 88
f 89 85 83
f 83 87 89
f 96 91 90
f 92 100 90
f 98 96 90
f 90 100 98
f 90 91 93
f 90 93 92
f 95 96 94
f 94 97 95
f 94 96 98
f 94 99 97
f 98 100 94
f 101 99 94
f 100 101 94
f 102 104 103
f 102 105 104
f 109 105 102
f 106 109 102
f 102 103 106
f 107 110 109
f 107 109 108
f 112 113 111
f 111 113 114
f 115 116 111
f 111 116 112
f 118 119 117
f 120 118 117
f 121 122 117
f 117 122 120
f 124 125 123
f 123 125 126
f 123 122 121
f 123 121 124
f 107 108 127
f 127 108 128
