# Generated MicroDuck mesh; do not edit by hand.
# Source: microduck_rl/src/mjlab_microduck/robot/microduck/assets/leg.stl
# Source repository: https://github.com/pollen-robotics/microduck_rl.git@5946fd9cdbc58956424420153e51975af3b30d77
# Source SHA-256: b57d55ec2504dfb90b07bfc781dbf9b4bb6560becaf1dddbadd6a3914fdc423f
# License: Creative Commons BY-SA-NC; see ../Licenses/ATTRIBUTION.json.
# Modified: exported MuJoCo-compiled mesh geometry in Tuanjie coordinates.
# Transform: (x,y,z) -> (-y,z,x); triangle winding reversed.
o leg
v -0.00418090122 -0.0289440099 -0.000275652885
v 0.00233724108 -0.0252487287 0.00441694027
v 0.00563816307 -0.026742097 0.00216018641
v 0.00459627388 -0.0285459105 0.00221364433
v -0.00421879673 0.0263487827 0.00108700083
v 0.000871564611 0.0272482671 0.000560123124
v -0.00547008077 0.0171523038 -0.0038142819
v 0.00418091519 -0.0289440099 -0.000275652885
v 0.00572575582 0.0254791304 0.0011127739
v 0.00341423741 0.0266819056 0.00107712846
v 0.00573577126 0.0254786145 0.000612568692
v 0.00499509228 0.0193263125 -0.00389067433
v 0.00513934856 0.0185040031 -0.00392502965
v 0.00344146555 -0.0296036322 0.00224499102
v 0.00295635639 -0.0298832338 -0.000247817923
v 0.008147927 0.0229513571 -0.000733099529
v 0.00764707616 0.0237193387 0.00116492726
v 0.00947395153 0.0197741985 -0.00103919045
v 0.00961194187 0.0180714391 -0.00118813652
v 0.0089424951 0.0204810556 -0.00136711833
v 0.00902083609 0.0214557834 -0.000603694585
v 0.00849411357 0.0221386962 -0.00110926491
v -0.0025761188 0.0268611573 -0.000763888704
v -0.00249880785 -0.0301213078 -0.000240762354
v -0.00543784024 -0.0272254758 0.00217451178
v -0.00535871694 -0.0272626542 -0.000325481698
v -0.0057955482 -0.0262431111 0.00214539841
v 0.00980217662 0.0189787745 -0.000530285703
v -0.00165249838 0.0265953951 -0.00154832343
v -0.00171031675 0.0269344561 -0.00117667136
v 6.89090873e-09 0.0271513183 -0.00102450268
v 0.000829414814 0.0267037116 -0.00155153358
v 0.000458655326 0.0224428698 -0.00404176209
v -0.00978202838 0.018970212 -0.000699323893
v -0.00998253468 0.0173055027 0.00135500834
v -0.00919212867 0.0196896289 -0.00134366355
v -0.00476649264 0.0192542989 -0.00397797162
v 0.00700883707 0.0242494363 -0.000938502257
v 0.00739130331 0.0234301854 -0.00134694879
v 0.0021573524 0.0220927298 -0.00399936363
v -0.00968974922 -0.0102589773 -0.000286689203
v -0.00936779846 -0.00985913165 -0.00055148924
v -0.00974684674 -0.0111030266 0.000109206441
v -0.00964864437 0.0172308721 -0.00116322539
v -0.00155533536 -0.0264755152 0.00445329724
v -0.00459625991 -0.0285459105 0.00221364433
v -0.00219297083 -0.0256448984 0.00442868099
v -0.00253570313 -0.0301263388 0.00226048194
v 0.00864513963 0.0222945828 0.00120715145
v -0.00173344335 0.0271320697 0.00106378738
v 0.00087004283 0.0272456892 0.00106042007
v -0.00892654527 0.0213996824 -0.00101264229
v -0.00862477813 0.0212477222 -0.00138983934
v -0.00330002652 0.0262936614 -0.00143181102
v -0.00217530923 0.0221448429 -0.00397420442
v -0.00693540322 0.0241691433 -0.00116943941
v -0.00760906609 0.0236281026 -0.000837365515
v -0.00475819269 0.0254655108 -0.00151483808
v -0.00728997635 0.0233420264 -0.00145190628
v -0.00799551141 0.0228307415 -0.0012007053
v 0.00983088836 0.0190381892 0.00130365824
v 0.00998254586 0.0173055027 0.00135500834
v 0.00938052498 0.0207182318 0.00125386834
v 0.0098480843 0.0190264098 0.000803786854
v 0.00153032632 -0.030473657 -0.000230320133
v -0.000515318126 -0.0306525491 -0.000225018448
v 0.00535873091 -0.0272626542 -0.000325481698
v -0.00904724654 0.0215224531 0.0012300344
v -0.00964238588 0.0198880397 0.00127847202
v -0.00817721058 0.0230287388 0.00118539401
v -0.00866024848 0.0222884957 0.00070711138
v -0.00935311709 0.0206539091 -0.000579930143
v -0.00861415174 0.0222198311 -0.000711419911
v -0.00497668469 0.0258672461 -0.000734433066
v -0.00417717593 0.0261953622 -0.00107680762
v -0.00422617653 0.0263497904 0.00058675051
v -0.00641664537 0.0249492135 0.00112847867
v -0.0063936566 0.0248649549 -0.000789811078
v -0.00562571594 0.0252676178 -0.0012019939
v 0.00416252716 0.0261616223 -0.00115376757
v 0.00248074112 0.0264833588 -0.00149404118
v 0.0047582048 0.0254655108 -0.00151483808
v 0.00420369534 0.026259508 -0.000831140205
v 0.00570524251 0.0253929738 -0.000805459451
v 0.00256541697 0.0268137213 -0.0010144976
v 0.00627407944 0.024708543 -0.00125635602
v 0.00958482642 -0.00985514931 -0.000417109957
v 0.00987263769 -0.0106885964 0.000263857073
v 6.89090873e-09 -0.0270413645 0.0044700671
v 0.00205212785 -0.0303265601 0.00226641563
v 0.00138787867 -0.0266039632 0.00445710402
v 6.89090873e-09 -0.0306882448 0.00227713468
v -0.000626253546 -0.0269589536 0.00446762471
v -0.00104188232 -0.0305971317 0.00227443432
v -0.00994676817 0.0172486268 -0.000564092945
v -0.00994676817 -0.00983571727 0.00023858108
v -0.00999999512 -0.00979365408 0.00165790075
v -0.00999999512 0.0172906909 0.000855226768
v -0.000689782784 0.0252441335 0.00307059404
v 0.00508731371 0.023423424 0.00312455278
v 0.00334479613 0.0245330427 0.00309166801
v -0.00779419998 0.0187369902 0.00326344022
v -0.00685410248 0.0213187542 0.00318692694
v -0.00849999394 -0.000129052802 0.003822556
v 0.00850000605 -0.000129052802 0.003822556
v 0.000689796521 0.0252441335 0.00307059404
v -0.00508729974 0.023423424 0.00312455278
v 0.00850000605 0.00486875186 0.00367444055
v -0.00849999394 0.00486875186 0.00367444055
v 0.00743715139 0.0200689789 0.00322396541
v 0.00779421302 0.0187369902 0.00326344022
v -0.00270689325 0.0247971471 0.00308384094
v 0.00648313994 0.021900814 0.00316967699
v 0.00469846977 -0.0265631545 -0.00334753166
v 0.00498098088 -0.0252893921 -0.00338528096
v -0.00498096691 -0.0252893921 -0.00338528096
v -0.00453153299 -0.0269659683 -0.00333559373
v -0.00211308384 -0.0293833558 -0.00326395198
v -0.000435771974 -0.0298325922 -0.00325063826
v 0.00086824724 -0.0297756828 -0.00325232488
v 0.00171010697 -0.0295502059 -0.00325900712
v 0.00321394531 -0.0286823455 -0.00328472699
v 0.00433013355 -0.0273527075 -0.00332413241
v -0.00353552634 -0.0283877868 -0.00329345674
v 0.00991198979 -0.0098406598 7.17948278e-05
v 0.00991198979 0.0172436852 -0.000730879197
v 0.0100000063 0.0172906909 0.000855226768
v 0.0100000063 -0.00979365408 0.00165790075
f 114 88 67
f 67 88 3
f 33 13 115
f 116 37 33
f 115 116 33
f 115 13 19
f 44 116 42
f 3 88 128
f 104 97 27
f 27 47 104
f 33 37 55
f 116 26 43
f 27 97 43
f 43 26 27
f 106 101 10
f 40 13 33
f 24 119 66
f 65 92 66
f 1 124 24
f 46 26 1
f 123 67 8
f 8 122 123
f 48 46 1
f 1 24 48
f 98 69 34
f 10 85 6
f 70 77 57
f 128 127 62
f 62 105 128
f 87 115 19
f 70 103 107
f 107 77 70
f 55 37 59
f 28 21 63
f 117 26 116
f 1 26 117
f 117 124 1
f 118 119 24
f 24 124 118
f 4 14 8
f 4 91 14
f 4 67 3
f 8 67 4
f 2 105 91
f 128 105 2
f 2 3 128
f 4 3 2
f 2 91 4
f 19 13 20
f 106 10 51
f 6 50 51
f 51 10 6
f 112 50 5
f 5 50 76
f 76 77 5
f 107 112 5
f 5 77 107
f 10 101 9
f 9 17 11
f 11 10 9
f 35 97 104
f 98 97 35
f 35 69 98
f 7 37 116
f 7 116 44
f 103 69 102
f 102 69 35
f 31 85 32
f 6 85 31
f 30 50 31
f 31 50 6
f 36 37 7
f 7 44 36
f 36 44 34
f 34 52 36
f 15 122 8
f 121 122 15
f 15 65 121
f 8 14 15
f 75 30 54
f 9 101 100
f 113 17 100
f 100 17 9
f 126 19 28
f 87 19 126
f 28 127 126
f 83 85 10
f 83 10 11
f 11 84 83
f 16 39 38
f 38 17 16
f 11 17 38
f 38 84 11
f 16 21 22
f 20 39 22
f 22 39 16
f 12 13 40
f 40 39 12
f 20 13 12
f 12 39 20
f 14 91 90
f 90 92 65
f 15 14 90
f 90 65 15
f 63 21 49
f 16 17 49
f 49 21 16
f 49 17 113
f 43 97 96
f 32 85 81
f 81 82 40
f 40 33 81
f 81 33 32
f 57 77 78
f 95 98 34
f 34 44 95
f 28 19 18
f 18 19 20
f 18 21 28
f 22 21 18
f 18 20 22
f 23 50 30
f 76 50 23
f 23 30 75
f 75 76 23
f 66 92 94
f 94 93 48
f 94 24 66
f 48 24 94
f 25 26 46
f 27 26 25
f 46 47 25
f 25 47 27
f 28 63 64
f 62 127 64
f 64 127 28
f 54 30 29
f 29 30 31
f 31 32 29
f 32 33 29
f 29 33 55
f 29 55 54
f 34 69 72
f 72 52 34
f 108 105 62
f 62 111 108
f 35 104 109
f 102 35 109
f 36 52 53
f 59 37 53
f 53 37 36
f 38 39 86
f 86 39 40
f 40 82 86
f 86 84 38
f 42 116 41
f 41 116 43
f 41 43 96
f 41 44 42
f 41 96 95
f 95 44 41
f 45 47 46
f 104 47 45
f 93 104 45
f 45 46 48
f 48 93 45
f 110 63 49
f 49 113 110
f 99 50 112
f 51 50 99
f 99 106 51
f 73 52 72
f 73 71 70
f 70 57 73
f 60 52 73
f 73 57 60
f 53 52 60
f 60 59 53
f 54 55 58
f 58 55 59
f 58 79 75
f 58 75 54
f 78 79 56
f 56 57 78
f 56 79 58
f 58 59 56
f 60 57 56
f 56 59 60
f 61 111 62
f 110 111 61
f 61 63 110
f 64 63 61
f 61 62 64
f 121 65 120
f 66 119 120
f 120 65 66
f 114 67 123
f 115 88 114
f 68 69 103
f 68 103 70
f 70 71 68
f 72 69 68
f 68 71 73
f 73 72 68
f 74 76 75
f 74 77 76
f 78 77 74
f 75 79 74
f 74 79 78
f 80 82 81
f 83 84 80
f 80 85 83
f 81 85 80
f 80 84 86
f 86 82 80
f 125 87 126
f 125 88 115
f 125 115 87
f 128 88 125
f 90 91 89
f 91 105 89
f 89 92 90
f 89 105 104
f 89 104 93
f 94 92 89
f 89 93 94
f 96 97 95
f 95 97 98
f 100 101 99
f 99 103 102
f 104 105 99
f 99 101 106
f 107 103 99
f 99 105 108
f 109 104 99
f 99 111 110
f 99 112 107
f 99 102 109
f 99 113 100
f 108 111 99
f 110 113 99
f 114 116 115
f 117 116 114
f 114 119 118
f 120 119 114
f 114 122 121
f 123 122 114
f 114 124 117
f 118 124 114
f 114 121 120
f 126 127 125
f 125 127 128
