# Generated MicroDuck mesh; do not edit by hand.
# Source: microduck_rl/src/mjlab_microduck/robot/microduck/assets/np_f970.stl
# Source repository: https://github.com/pollen-robotics/microduck_rl.git@5946fd9cdbc58956424420153e51975af3b30d77
# Source SHA-256: 979ca81251d4ec5862b6c987b46095aa07d0534ca1ec15f3cf438bbf7189deda
# License: Creative Commons BY-SA-NC; see ../Licenses/ATTRIBUTION.json.
# Modified: exported MuJoCo-compiled mesh geometry in Tuanjie coordinates.
# Transform: (x,y,z) -> (-y,z,x); triangle winding reversed.
o np_f970
v -0.0193118714 -0.0337684676 -0.00454586279
v -0.0191424284 0.0351115949 -0.00980283599
v -0.0192424506 0.0350116193 -0.00980284624
v -0.0158204194 0.035102345 0.00911905617
v -0.0163957998 0.035043437 0.00872555282
v -0.00227497169 0.0351681337 -0.00686132954
v -0.0192327108 -0.0355559848 -0.0044615427
v -0.0112562748 0.0351216942 0.0105025452
v 0.0191590227 -0.0355863646 0.00266466034
v -0.0125583885 -0.0355895013 -0.00976568926
v 0.0177830961 -0.0354911387 0.0072521707
v 0.0177990161 0.0350175686 0.00721092196
v 0.0191622302 -0.0337916687 -0.0097608855
v 0.0125416052 -0.03559516 -0.00974856783
v 0.0125416778 -0.0355297923 -0.00983385928
v 0.0126098646 -0.0355641395 0.010498248
v 0.0191104896 -0.0354933068 0.0040537254
v 0.0191759896 -0.035556864 0.00335960486
v 0.0171237551 0.024734959 -0.0099280132
v 0.00229441654 0.0235728566 -0.00995696615
v 0.019157609 0.0350116193 -0.0098762773
v 0.0126111191 -0.0337648131 -0.0099009024
v 0.0187196694 -0.0355601273 0.00538989389
v 0.0181358196 -0.0355547033 0.00665077427
v 0.01886677 -0.0355883203 0.00471026171
v 0.0192310102 0.0350675583 0.00262336479
v 0.0193072092 0.0312398616 -0.00564201549
v 0.019257538 0.0350029431 -0.0097765848
v 0.0192181636 0.0350106135 0.00332063576
v 0.0191491041 0.0351102166 0.002623284
v 0.0191575624 0.0351029634 -0.00977671146
v 0.0193087086 0.0165901724 -0.00562892575
v 0.0168185551 -0.0355857834 0.00825229101
v 0.0168844163 -0.0355075747 0.00831817742
v 0.0177049208 -0.035586603 0.0071974243
v 0.00112529041 -0.0356403105 -0.0053334469
v -0.0191578958 -0.0336884484 -0.00986258686
v -0.0125583056 -0.0354986489 -0.00985664595
v -0.0126216793 -0.0337575004 -0.00990584679
v -0.0172245242 -0.0251080152 -0.00990570895
v -0.01917951 -0.0337849855 -0.00977577455
v -0.0192398392 -0.0336884037 -0.00982000027
v -0.0191510953 0.0350414738 -0.00989771821
v -0.017148139 0.0247583445 -0.00994901359
v -0.0173472464 0.0351056941 0.00771092484
v -0.0168788265 0.0351058878 0.00822281931
v -0.0180989541 0.0351207368 0.00655005639
v -0.0191682503 0.0351173393 0.0025971483
v 0.0163703021 0.0350819156 0.00872958358
v 0.0157784428 0.0351145752 0.00909585692
v 0.0173537787 0.0350811183 0.00774744712
v 0.0169019457 0.0350183956 0.0082785273
v 0.0163870845 0.0350187868 0.00874966569
v -0.0119666709 -0.0355517715 0.0105805928
v -0.012644738 -0.0355778597 0.0104272412
v -0.0133342333 -0.0355516039 0.0103384927
v 0.0119395452 0.0350701809 0.0105722705
v 0.0112436889 0.0351072773 0.0105601596
v 0.0126324752 0.0350379162 0.0104949214
v 0.0126163764 0.0351160541 0.0104031013
v 0.0119249765 -0.0354834795 0.0106292274
v 0.0119172456 -0.0355826765 0.0105404798
v 0.015226312 -0.0355127454 0.00958646368
v 0.0157599822 -0.0355852209 0.00913364533
v 0.0158171989 -0.0354895443 0.00921538752
v 0.0139315259 -0.0355840586 0.0100887641
v 0.0158318207 0.0350364223 0.00917226635
v -0.0169272721 -0.0354870446 0.00829657912
v -0.0164133087 -0.035478171 0.00876869541
v -0.0185014382 0.0350423045 0.00597755332
v -0.018447658 0.0351129547 0.00595248537
v -0.0126454681 0.0350219943 0.0104801171
v -0.0126613863 -0.0354779921 0.0105213616
v -0.0119530531 0.0350560918 0.0105656581
v -0.018964259 -0.0355536304 0.00470078178
v -0.0168852229 -0.0355696566 0.00825461745
v -0.0139913484 0.035043709 0.0101159513
v -0.0133165475 0.0351012945 0.0102907112
v -0.0133267315 0.0350220613 0.0103285983
v -0.0146230254 0.035095714 0.00982126687
v -0.0152556337 0.0350220278 0.00952807907
v -0.0178211592 -0.0355003774 0.007226591
v -0.0173686761 -0.0355578065 0.00775685022
v -0.0181974303 -0.0354877263 0.00663893763
v -0.0173986908 -0.0354785249 0.00778196845
v -0.01818184 0.0350209735 0.00659787934
v -0.0173827708 0.0350214615 0.00774072483
v 0.0139792822 0.0350374021 0.0101350304
v 0.0146139842 0.0350829661 0.00984679814
v 0.0146250054 0.035019841 0.00987054408
v 0.013298397 -0.0354882888 0.0103878323
v 0.0146090845 -0.0354888663 0.00991179235
v 0.0133143179 0.0350204147 0.010346584
v 0.0139474897 0.0351155475 0.0100474041
v -0.0152552975 -0.0355516374 0.00954122562
v -0.0158197638 -0.0355733708 0.00913671032
v -0.0152715528 -0.0354779586 0.00956932269
v -0.0146195684 -0.0355754942 0.00982104987
v -0.014008116 -0.035477899 0.0101595214
v 0.0187634267 0.0350270756 0.00535874534
v 0.0184733868 0.0350798368 0.00599265611
v 0.0184970684 0.0350167044 0.0060037612
v 0.0184811484 -0.035492003 0.00604500994
v 0.0190846249 0.0350929573 0.00400503119
v 0.0189750772 0.0350114703 0.00469377637
v 0.0189589728 -0.0354928747 0.00473497342
v 0.0192376226 -0.0355026573 -0.00443533808
v 0.0192022659 -0.0355705395 -0.00443532225
v 0.0192132425 -0.0337122492 -0.00980450772
v 0.0192949027 -0.0337643363 -0.00450644363
v 0.0192327816 -0.0354985036 0.00266465917
v -0.0192344114 -0.0355023332 0.00333545916
v -0.019183211 -0.0355693437 0.00333105307
v -0.0192664489 -0.0354898274 0.00263839867
v -0.0191946831 0.0350867659 0.00329209864
v -0.019250907 0.0350188762 0.00259714946
v -0.0189797264 0.0350200273 0.00466788746
v -0.0191462357 -0.0354803279 0.00402766094
v -0.0191278849 0.0350412801 0.00398597866
v -0.0189121179 0.035115283 0.00464977091
v -0.0187703148 0.0350203663 0.00533363922
v -0.018785879 -0.0354883336 0.00537475757
v -0.0112722851 -0.0354782343 0.0106438473
v -0.0028241789 0.0202843398 0.0106169777
v 0.0112436293 0.035016682 0.0106179509
v -0.00283677061 -0.0354801342 0.010649601
v 0.0112277288 -0.0355739668 0.0106015094
v -0.0112722665 -0.0355688967 0.0105861621
f 125 126 61
f 68 5 87
f 7 1 42
f 11 51 34
f 65 34 53
f 99 81 97
f 99 73 79
f 124 125 74
f 114 1 7
f 116 1 114
f 74 73 123
f 123 124 74
f 28 109 21
f 60 6 8
f 8 6 47
f 66 92 91
f 31 6 30
f 31 21 43
f 28 21 31
f 3 43 42
f 3 1 116
f 42 1 3
f 28 32 110
f 110 109 28
f 110 32 111
f 30 6 50
f 3 116 48
f 47 6 48
f 22 109 15
f 14 10 15
f 12 51 11
f 114 7 113
f 7 10 113
f 64 34 65
f 11 34 35
f 15 10 38
f 38 22 15
f 39 22 38
f 43 21 20
f 20 22 39
f 2 6 31
f 31 43 2
f 48 6 2
f 2 43 3
f 2 3 48
f 105 29 104
f 104 30 50
f 9 108 111
f 9 14 108
f 120 47 48
f 4 8 47
f 4 5 81
f 78 8 4
f 74 8 78
f 4 47 46
f 87 5 46
f 46 5 4
f 4 81 80
f 78 4 80
f 93 60 59
f 59 91 93
f 59 61 91
f 69 5 68
f 81 5 69
f 97 81 69
f 96 97 69
f 9 111 18
f 18 25 9
f 111 29 18
f 65 53 67
f 94 60 93
f 94 6 60
f 50 6 94
f 7 42 41
f 41 10 7
f 38 10 41
f 128 55 62
f 60 8 58
f 74 125 58
f 58 8 74
f 12 102 101
f 101 51 12
f 50 51 101
f 104 50 101
f 36 14 9
f 9 25 36
f 36 10 14
f 36 25 35
f 36 55 98
f 64 66 36
f 36 98 96
f 62 55 36
f 36 66 62
f 113 10 36
f 36 96 113
f 56 73 99
f 56 99 98
f 98 55 56
f 27 32 28
f 24 11 35
f 24 103 102
f 12 11 24
f 24 102 12
f 13 109 108
f 108 14 13
f 15 109 13
f 13 14 15
f 44 43 20
f 39 40 44
f 20 39 44
f 91 61 16
f 16 61 62
f 66 91 16
f 62 66 16
f 120 121 71
f 71 47 120
f 71 86 47
f 18 29 17
f 17 29 105
f 17 105 106
f 17 106 25
f 17 25 18
f 34 51 52
f 53 34 52
f 20 21 19
f 19 22 20
f 21 109 19
f 19 109 22
f 23 103 24
f 106 103 23
f 25 106 23
f 35 25 23
f 24 35 23
f 27 28 26
f 104 29 26
f 26 30 104
f 26 28 31
f 31 30 26
f 26 29 111
f 111 32 26
f 26 32 27
f 33 34 64
f 35 34 33
f 33 64 36
f 36 35 33
f 37 39 38
f 37 40 39
f 41 42 37
f 37 38 41
f 42 43 37
f 37 43 44
f 44 40 37
f 45 87 46
f 46 47 45
f 45 86 87
f 47 86 45
f 48 116 115
f 115 119 120
f 120 48 115
f 89 50 94
f 89 90 67
f 67 50 89
f 49 51 50
f 52 51 49
f 49 53 52
f 67 53 49
f 49 50 67
f 85 68 87
f 83 68 85
f 123 73 54
f 128 123 54
f 54 55 128
f 54 73 56
f 56 55 54
f 58 125 57
f 57 125 61
f 57 61 59
f 59 60 57
f 57 60 58
f 61 126 127
f 62 61 127
f 127 128 62
f 64 65 63
f 63 90 92
f 63 92 66
f 63 66 64
f 67 90 63
f 63 65 67
f 76 68 83
f 69 68 76
f 76 96 69
f 113 96 76
f 70 86 71
f 71 121 70
f 70 121 122
f 84 86 70
f 122 84 70
f 79 73 72
f 72 73 74
f 78 79 72
f 72 74 78
f 75 84 122
f 83 84 75
f 122 118 75
f 75 118 113
f 76 83 75
f 75 113 76
f 77 79 78
f 77 78 80
f 77 99 79
f 77 81 99
f 80 81 77
f 82 84 83
f 82 83 85
f 82 86 84
f 87 86 82
f 85 87 82
f 88 90 89
f 91 92 88
f 92 90 88
f 93 91 88
f 94 93 88
f 89 94 88
f 95 97 96
f 96 98 95
f 99 97 95
f 98 99 95
f 101 102 100
f 102 103 100
f 100 105 104
f 100 104 101
f 100 103 106
f 106 105 100
f 108 109 107
f 107 109 110
f 111 108 107
f 107 110 111
f 113 118 112
f 112 114 113
f 118 119 112
f 112 119 115
f 112 116 114
f 115 116 112
f 117 119 118
f 120 119 117
f 117 121 120
f 117 118 122
f 122 121 117
f 123 125 124
f 123 126 125
f 127 126 123
f 127 123 128
