# Generated MicroDuck mesh; do not edit by hand.
# Source: microduck_rl/src/mjlab_microduck/robot/microduck/assets/power_support.stl
# Source repository: https://github.com/pollen-robotics/microduck_rl.git@5946fd9cdbc58956424420153e51975af3b30d77
# Source SHA-256: cb43ba9351f51559f49ffc89679478288cfe6e9682b31898397406165b520cbe
# License: Creative Commons BY-SA-NC; see ../Licenses/ATTRIBUTION.json.
# Modified: exported MuJoCo-compiled mesh geometry in Tuanjie coordinates.
# Transform: (x,y,z) -> (-y,z,x); triangle winding reversed.
o power_support
v -0.0114966873 0.0360388011 -0.00185868144
v -0.0115895346 0.0360465162 -0.00385899842
v 0.0272202864 0.0218695235 -0.00365511584
v -0.0211973898 -0.0362823159 0.00668489095
v -0.00506474962 -0.0428098105 0.00347813033
v -0.0272373725 0.0216945764 -0.001662786
v 0.0252743438 0.0353601947 -0.00184232637
v 0.0257711448 0.0352709703 -0.00184099551
v 0.0254775118 0.0353499092 -0.00384233799
v -0.0213145446 -0.0410925485 -0.000791182683
v 0.0271716975 0.0333656333 -0.00181431521
v 0.0263689812 0.0349650905 -0.00183664181
v 0.0260830019 0.0351433046 -0.00183916662
v -0.0269211307 0.0344160832 -0.00183909794
v -0.0261738747 0.0350825675 -0.00184819696
v -0.0251320861 0.0351054817 0.00595243182
v 0.0268024858 0.0335508771 0.00598379644
v -0.0272304434 0.0336381793 -0.00182837155
v -0.0267666243 0.033957012 0.00596804544
v -0.0271464549 0.0339645073 -0.00183287985
v -0.0272584446 0.0333023742 -0.0018237211
v -0.0272860993 0.0334762298 -0.00382632925
v -0.0271810256 0.0339698605 -0.00383315329
v 0.00505464524 -0.0469745398 -0.00244304957
v -0.00495397532 -0.046975784 -0.00247461465
v 0.0251999684 0.0351495221 0.00596132968
v 0.0262650046 0.0350656696 -0.00383824855
v 0.0259650182 0.035219159 -0.0038404332
v -0.0266244784 0.034802217 -0.00384458783
v -0.0262084473 0.0350879245 -0.00384847028
v -0.0269557014 0.0344214439 -0.00383937149
v -0.0264594406 0.0349036902 -0.00184577098
v -0.0267109051 0.0346794054 -0.00184270903
v 0.00505073136 -0.0468016751 -0.00266031432
v 0.00505220145 -0.0468988605 -0.00258042454
v -0.00495145796 -0.0468652658 -0.00262620253
v -0.00495610805 -0.0470018424 -0.00235153479
v -0.0201657135 -0.0427291058 -0.000768276281
v -0.0198380183 -0.0428479239 -0.000766567129
v -0.0200389531 -0.0428583398 -0.0027666532
v 0.020368889 -0.0427060463 -0.00276113069
v 0.0201295875 -0.0428116545 -0.00275971182
v 0.0209768061 -0.0422170386 -0.00276779546
v -0.021042455 -0.0420549549 -0.00277798087
v -0.0209594108 -0.0420647599 -0.000777636771
v -0.02088755 -0.0422656946 -0.00277502998
v -0.0206063055 -0.04244918 -0.000772240455
v -0.0207064562 -0.0424544103 -0.00277237943
v -0.0207954571 -0.0422685444 -0.000774780579
v -0.0212012772 -0.0365315452 0.006446674
v -0.0203951877 -0.0426035821 -0.000770059938
v -0.0205022767 -0.0426178724 -0.00277007464
v 0.0205570217 -0.0425075218 -0.000763655
v 0.0203335602 -0.0426434539 -0.000761812611
v 0.0205923505 -0.0425701104 -0.00276297308
v 0.02079615 -0.0424061753 -0.00276520755
v 0.020760823 -0.042343583 -0.000765889359
v -0.0117621887 0.0220071133 -0.0106060682
v -0.027279675 0.0218061805 -0.00366453384
v 0.0211829394 -0.0417921841 -0.000773454201
v 0.0210475102 -0.04201594 -0.000770377694
v 0.0211312212 -0.0420059413 -0.00277069304
v 0.0199279375 -0.042801708 -0.000759695249
v 0.00505681708 -0.0469901375 -0.00231821183
v 0.0212567616 -0.0417764895 -0.00277385046
v -0.0212354679 -0.0416647159 -0.00278342771
v -0.0212536231 -0.0414357372 -0.000786413148
v -0.0213260688 -0.0413281471 -0.0027881111
v -0.0118093854 -0.00614805846 -0.0101830624
v -0.0211685263 -0.0418257974 -0.00278118183
v -0.0211340338 -0.0417631269 -0.000781851646
v 0.0214003865 -0.0410429016 -0.000783801253
v -0.0269068088 0.03316487 0.00597900106
v 0.0212656837 -0.0359465294 0.00688410038
v 0.026804151 0.0330657624 0.00599052245
v 0.0212716553 -0.0363627113 0.00657850038
v 0.0212765355 -0.0365904719 0.00631969748
v 0.00515349489 -0.0427741893 0.00350093725
v 0.0212694667 -0.0362329595 0.00669222977
v 0.0271775518 0.0217578188 -0.00165338267
v 0.0271781664 0.0337068141 -0.00381923676
v 0.0267671812 0.0346198641 -0.00383197307
v 0.0265349448 0.034864001 -0.0038354015
v 0.0266209655 0.0347413905 -0.00183349289
v -0.0113911508 -0.00614724308 -0.010274658
v 0.0113990679 -0.00612075534 -0.0102707203
v 0.00504987501 -0.046683535 -0.0027035661
v -0.00495030312 -0.0466951579 -0.00270529417
v 0.0113664158 0.0220321491 -0.0106610395
v -0.0114238039 0.0220056605 -0.0106649781
v 0.00336858048 0.036484357 -0.00386224291
v -0.0258968845 0.0352163203 -0.0038501916
v -0.0258623157 0.0352109596 -0.00184991816
v -0.0253657233 0.0353013389 -0.00185107731
v -0.025400294 0.0353066996 -0.00385135086
v -0.0115628904 -0.0061474964 -0.0102598276
v -0.0115935076 0.0202499479 -0.0106258085
v 0.026831802 0.0344785564 -0.00182980904
v 0.0268670507 0.034483999 -0.00383007037
v 0.0270307548 0.0341894925 -0.00382595649
v 0.0269955043 0.0341840498 -0.00182569504
v 0.0128133893 0.0352508053 0.00615760451
v 0.0212599095 -0.0349530913 0.00713251112
v -0.0211909581 -0.035002429 0.00712517509
v -0.0129073123 0.0352209099 0.00615315977
v -0.0209364612 0.0305120312 0.00621692697
v 0.0208534393 0.0305606015 0.00622414844
v 0.0034031556 0.036475338 -0.00186191872
v 0.0116550708 -0.00612057792 -0.0102373445
v 0.0116224168 0.0220334902 -0.0106276805
v 0.0117846159 0.0220355075 -0.0105693433
v 0.0118172728 -0.00612059841 -0.0101789795
v 0.00505841197 -0.0469740815 -0.00222503208
v -0.00495832972 -0.0469857231 -0.00222676317
v -0.00496039074 -0.046929244 -0.00211434462
v 0.00506030256 -0.0469175987 -0.00211261283
v 0.0213778205 -0.0412158817 -0.000781407289
v 0.0213233288 -0.0416152515 -0.00277607329
v 0.0214131474 -0.041278474 -0.00278072548
v 0.0212880019 -0.0415526628 -0.000776755158
v 0.021261679 -0.0354659781 0.00707296655
v -0.0211931542 -0.0358413309 0.00695348112
v 0.0212641135 -0.0357919857 0.00696081808
v -0.0211915169 -0.0355153196 0.00706563052
v -0.0211910754 -0.0353462845 0.0071002231
v 0.0212608334 -0.035296943 0.00710755913
v 0.0271426775 0.0338716693 -0.00382152898
v 0.0271074269 0.0338662267 -0.00182126765
f 20 14 31
f 39 115 5
f 26 17 84
f 39 5 50
f 2 91 90
f 6 59 68
f 77 78 63
f 108 91 2
f 87 86 42
f 63 64 42
f 88 40 85
f 94 2 95
f 2 90 95
f 106 19 73
f 16 19 106
f 105 16 106
f 108 16 105
f 107 17 26
f 32 19 16
f 81 3 111
f 6 68 10
f 10 50 6
f 119 3 80
f 111 3 112
f 112 3 119
f 1 16 108
f 108 2 1
f 94 16 1
f 1 2 94
f 89 91 9
f 89 9 28
f 20 19 14
f 50 5 4
f 6 50 4
f 93 16 94
f 11 3 81
f 80 3 11
f 106 73 104
f 80 77 72
f 72 119 80
f 20 31 23
f 63 78 116
f 116 78 5
f 5 115 116
f 61 57 43
f 61 77 57
f 21 6 73
f 22 59 21
f 21 59 6
f 8 26 13
f 28 9 8
f 8 13 28
f 54 63 42
f 77 63 54
f 35 25 36
f 36 40 88
f 25 40 36
f 4 5 122
f 5 78 122
f 122 124 73
f 73 6 122
f 122 6 4
f 108 26 7
f 8 9 7
f 7 26 8
f 9 91 7
f 7 91 108
f 90 30 92
f 95 90 92
f 11 81 128
f 101 17 128
f 128 17 11
f 39 40 37
f 37 40 25
f 23 31 58
f 58 22 23
f 58 30 90
f 90 97 58
f 58 59 22
f 58 97 96
f 85 40 96
f 96 40 52
f 67 71 50
f 67 50 10
f 10 68 67
f 103 17 107
f 103 126 75
f 75 17 103
f 11 17 75
f 75 80 11
f 28 13 27
f 12 84 83
f 12 26 84
f 13 26 12
f 12 83 27
f 27 13 12
f 14 19 33
f 33 19 32
f 31 14 33
f 32 16 15
f 15 16 93
f 15 30 32
f 15 93 92
f 92 30 15
f 84 17 98
f 98 17 101
f 73 19 18
f 18 19 20
f 21 73 18
f 18 22 21
f 23 22 18
f 18 20 23
f 42 64 24
f 35 42 24
f 24 25 35
f 24 64 37
f 37 25 24
f 107 26 102
f 102 26 108
f 27 83 110
f 99 100 110
f 89 28 110
f 110 28 27
f 29 30 58
f 58 31 29
f 32 30 29
f 29 31 33
f 33 32 29
f 50 71 45
f 49 50 45
f 45 46 49
f 34 87 42
f 34 42 35
f 34 35 36
f 34 88 87
f 36 88 34
f 114 115 39
f 114 39 37
f 37 64 114
f 38 39 50
f 38 50 51
f 38 40 39
f 52 40 38
f 51 52 38
f 43 57 56
f 109 43 56
f 56 86 109
f 55 86 56
f 54 42 41
f 41 55 54
f 42 86 41
f 41 86 55
f 61 43 62
f 62 43 109
f 109 65 62
f 44 46 45
f 96 46 44
f 44 70 96
f 44 71 70
f 45 71 44
f 49 46 48
f 48 46 96
f 96 52 48
f 47 49 48
f 47 50 49
f 51 50 47
f 47 52 51
f 48 52 47
f 54 55 53
f 56 57 53
f 53 55 56
f 57 77 53
f 53 77 54
f 69 59 58
f 68 59 69
f 69 58 96
f 60 120 77
f 60 77 61
f 65 120 60
f 62 65 60
f 60 61 62
f 113 64 63
f 113 63 116
f 114 64 113
f 118 120 65
f 118 65 109
f 109 112 118
f 112 119 118
f 67 68 66
f 66 68 69
f 70 71 66
f 66 71 67
f 96 70 66
f 69 96 66
f 77 120 117
f 72 77 117
f 117 119 72
f 121 123 75
f 75 126 121
f 73 124 125
f 104 73 125
f 74 78 79
f 74 123 122
f 122 78 74
f 79 80 74
f 75 123 74
f 74 80 75
f 76 78 77
f 79 78 76
f 76 77 80
f 76 80 79
f 128 81 127
f 127 81 111
f 127 111 110
f 110 100 127
f 83 84 82
f 98 99 82
f 82 84 98
f 110 83 82
f 82 99 110
f 85 86 87
f 87 88 85
f 89 86 85
f 85 90 89
f 90 91 89
f 93 94 92
f 92 94 95
f 96 90 85
f 96 97 90
f 98 100 99
f 98 101 100
f 102 104 103
f 105 106 102
f 103 107 102
f 102 106 104
f 102 108 105
f 110 111 109
f 109 111 112
f 109 86 89
f 109 89 110
f 113 115 114
f 116 115 113
f 118 119 117
f 117 120 118
f 122 123 121
f 121 124 122
f 125 126 103
f 103 104 125
f 125 124 121
f 121 126 125
f 100 101 127
f 127 101 128
