# Generated MicroDuck mesh; do not edit by hand.
# Source: microduck_rl/src/mjlab_microduck/robot/microduck/assets/sole_left.stl
# Source repository: https://github.com/pollen-robotics/microduck_rl.git@5946fd9cdbc58956424420153e51975af3b30d77
# Source SHA-256: db35f3b231c075fe1f9cb5449e7a698fb8ea97362daf8432be3e9700c2067574
# License: Creative Commons BY-SA-NC; see ../Licenses/ATTRIBUTION.json.
# Modified: exported MuJoCo-compiled mesh geometry in Tuanjie coordinates.
# Transform: (x,y,z) -> (-y,z,x); triangle winding reversed.
o sole_left
v -0.0188760795 0.0229895674 0.00165233831
v -0.0194587316 -0.00690563815 0.000888519804
v 0.0178970359 0.0197230503 -0.0029174115
v 0.0209782999 0.0202839673 7.68549507e-05
v -0.0124134179 0.0271228459 0.00180554972
v -0.0158642922 0.0259960629 0.00029179838
v -0.0148303201 0.0267201066 0.00174691516
v -0.0175917652 0.0248900633 0.00120071566
v -0.0188655872 -0.0235970989 0.00170707377
v -0.0121086035 0.0267083235 -0.000527416472
v 0.0211678799 0.0225676373 0.00263211038
v 0.0215476453 0.0204975344 0.00193071202
v -0.010564222 0.0137786223 -0.00618819799
v -0.0132185891 0.0155583769 -0.00563709624
v -0.0157492943 0.0189016461 -0.00416923314
v -0.018950101 0.0195083134 -0.000977102667
v -0.0194270313 0.0209013205 0.000918375619
v -0.0185349695 0.0230080243 -1.56104834e-05
v -0.0122491671 -0.0247127935 -0.003144457
v -0.00665239571 -0.0249663442 -0.00297363801
v -0.0105423331 0.020308556 -0.00547503214
v -0.00559136784 0.0197554789 -0.00588883506
v 0.02173803 -0.0212734435 0.00212703203
v 0.0210872293 -0.000938505516 -0.00077128777
v 0.0216957759 -0.00674654124 0.0017601985
v 0.0174690746 -0.0184394456 -0.00380069483
v -0.0147802029 -0.00952029694 -0.00587411132
v -0.0148372455 -0.000765797682 -0.00589483557
v -0.0127664693 -0.0068890932 -0.00635244185
v -0.0193274505 -0.0218456239 0.00110503193
v -0.0187898241 -0.0230095387 -0.00025517671
v 0.0187893286 -0.0261351708 0.00263089477
v -0.0132108815 -0.020998532 -0.00497429445
v -0.0163693111 -0.0201498847 -0.00404803362
v -0.0146802301 -0.0179372579 -0.0052608205
v -0.0146663506 -0.0224825237 -0.00398551766
v -0.0106544187 -0.0170406345 -0.00609539868
v 0.0127694933 -0.0174061675 -0.00502325362
v 0.0180868357 -0.000322221342 -0.00402192632
v 0.0157364327 -0.00349497329 -0.00486962916
v 0.017319683 -0.00931902975 -0.00438199332
v 0.0191439707 -0.0117974114 -0.0032185982
v 0.0196446441 -0.00187403674 -0.00290209684
v 0.0166247357 0.0154800816 -0.00406559184
v 0.0196799058 0.0185173135 -0.00181758252
v 0.0139474133 0.0145181725 -0.00496478006
v 0.0137705207 -0.0231318474 -0.00344524486
v 0.0148551855 -0.0220191777 -0.00373404776
v 0.0141533371 0.026944492 0.00056539505
v 0.018469451 0.0258504469 0.00137204095
v 0.0197712742 0.0249134675 0.0023550035
v 0.0167239066 0.0267941374 0.00156094972
v 0.0206712093 0.0229903776 0.000968996494
v -0.00117147423 -0.0216860045 -0.00523621216
v -0.00894949026 -0.0202064496 -0.00570932077
v -0.000631729956 -0.0197456591 -0.00568448473
v 0.0112996949 -0.0200552996 -0.00485768681
v 0.00472416589 -0.0232610255 -0.00419065682
v -0.0105513027 -0.0227999054 -0.00464299507
v 0.0161824971 -0.0266888943 0.0015969798
v 0.00971828122 -0.0252184235 -0.00206506811
v -0.0135151688 -0.0260902159 -0.00126129854
v -0.0134924017 -0.0267337933 0.000467522099
v -0.0178436954 -0.00690540718 -0.00383672374
v -0.0167301595 -0.0120439986 -0.00465612765
v -0.0166360345 -0.00227210834 -0.00497667305
v -0.0178941265 0.0203385185 -0.00228459272
v -0.0187154859 -0.00117020844 -0.00248175673
v -0.018684797 -0.0207104068 -0.00159358198
v -0.0180172529 -0.0210279785 -0.00248008734
v 0.00131632457 0.024476273 -0.00376383797
v -0.00251574419 0.0225061569 -0.00510317925
v -0.00427816901 0.0257943012 -0.00237899157
v 0.0180347897 -0.025202034 -0.000576521095
v 0.0159527883 -0.025318604 -0.00133581331
v 0.0186569467 -0.0259254482 0.00109124836
v 0.0167546272 -0.0262387712 0.000283351546
v -0.0175306015 -0.0237286948 -0.00155678636
v -0.0151258381 -0.0250963215 -0.00203676475
v 0.0106825531 0.0221036486 -0.00448292168
v 0.00461058365 0.0206635892 -0.00537079154
v 0.00545511581 0.0231875665 -0.00444470486
v 0.0133900847 0.0205837954 -0.00439266907
v 0.0109547712 0.0171721522 -0.00521900272
v -0.0169109553 -0.0259401184 0.00175761338
v -0.01786118 -0.0250215195 0.000750807114
v -0.0153700458 -0.0266635418 0.00179614197
v -0.0154219931 -0.0262560621 -0.000166449696
v -0.0169458222 -0.0253235456 -0.000399822224
v 0.0160316825 0.025105603 -0.00151786814
v 0.0162313413 0.0263117943 -5.07688055e-05
v 0.0179971177 0.0253878776 -4.16088778e-06
v 0.0194513723 0.0223250352 -0.00102957431
v 0.0159456208 0.0233902186 -0.00263075647
v 0.0139756957 0.0259568039 -0.00137285609
v 0.0121655967 0.0240012296 -0.00338527211
v -0.0132483579 0.0246788226 -0.00290232687
v -0.0113726808 0.025665164 -0.00243073329
v -0.0141209438 0.0259485785 -0.00125699048
v -0.01703039 0.0238062646 -0.00135465432
v -0.0142825274 0.0229879767 -0.00352674397
v -0.00960654858 0.0238948595 -0.00418925984
v 0.0201856401 -0.0223368406 -0.00100205478
v 0.0199968126 -0.0242907237 0.000205084798
v 0.0187075362 -0.0237325691 -0.00139292574
v 0.0187060609 -0.0211657677 -0.00258058892
v 0.0203832742 -0.0203070696 -0.00146668556
v 0.0213585906 -0.0210648626 0.000261056499
v 0.0212498233 -0.0231677834 0.00135611696
v 0.0204078872 -0.0248167738 0.00209293934
v 0.0209802929 -0.0235692337 0.00539651234
v 0.014868632 0.0272056665 0.00554096838
v -0.011715644 0.0271314271 0.00647832034
v -0.0177994575 0.0236083195 0.00669773715
v -0.018626973 0.0213207025 0.00673011132
v -0.0141220158 0.0267001428 0.00656376174
v 0.0213231612 0.0205620881 0.0053227013
v 0.0214457344 -0.0219609477 0.00537785329
v 0.0169336945 -0.0266766474 0.00554352393
v -0.0130170118 -0.0268738549 0.00659973361
v 0.0187389683 -0.0260164924 0.00547895441
v -0.0161937512 -0.0258912407 0.0067103575
v -0.0181407817 -0.023498036 0.00677565439
v 0.0183027033 0.0259793904 0.00542161288
v 0.0202125032 0.0240136571 0.00535703078
v -0.0185699463 -0.0213948917 0.00678784354
v -0.0162349008 0.0254765805 0.00663996441
v 0.0200493205 -0.0249641184 0.00543128513
f 101 67 100
f 112 5 113
f 17 2 115
f 117 25 12
f 122 123 86
f 68 2 17
f 30 2 68
f 56 29 38
f 125 51 124
f 52 112 124
f 26 48 38
f 38 41 26
f 119 120 60
f 120 63 60
f 38 29 84
f 37 29 56
f 53 93 92
f 101 102 21
f 36 79 78
f 87 120 122
f 87 63 120
f 20 59 58
f 58 61 20
f 12 25 24
f 24 107 43
f 18 8 100
f 100 67 18
f 15 67 101
f 66 67 15
f 21 14 15
f 15 101 21
f 113 5 7
f 7 8 127
f 94 83 96
f 17 115 1
f 1 8 18
f 18 17 1
f 116 113 7
f 7 127 116
f 1 115 114
f 127 8 114
f 114 8 1
f 7 5 10
f 23 118 109
f 117 118 23
f 23 25 117
f 78 86 31
f 31 70 78
f 30 123 126
f 115 2 126
f 126 2 30
f 3 45 44
f 93 45 3
f 94 93 3
f 44 83 3
f 3 83 94
f 88 63 87
f 53 12 4
f 4 12 24
f 4 45 93
f 4 93 53
f 43 45 4
f 24 43 4
f 49 95 73
f 49 73 10
f 10 5 49
f 49 5 112
f 49 112 52
f 104 109 110
f 110 76 104
f 6 8 7
f 100 8 6
f 6 99 100
f 10 99 6
f 6 7 10
f 84 22 81
f 86 123 9
f 9 123 30
f 31 86 9
f 9 30 31
f 84 29 13
f 13 22 84
f 13 14 21
f 21 22 13
f 10 73 98
f 98 99 10
f 11 12 53
f 11 125 117
f 117 12 11
f 11 51 125
f 53 51 11
f 37 56 55
f 13 29 28
f 28 14 13
f 15 14 28
f 28 66 15
f 62 63 88
f 20 61 62
f 88 79 62
f 16 67 68
f 68 17 16
f 18 67 16
f 16 17 18
f 62 79 19
f 36 59 19
f 19 79 36
f 19 59 20
f 19 20 62
f 21 102 72
f 72 22 21
f 81 22 72
f 72 82 81
f 23 109 108
f 108 107 24
f 24 25 108
f 108 25 23
f 38 48 57
f 57 56 38
f 34 70 65
f 65 35 34
f 78 70 34
f 34 36 78
f 26 107 106
f 105 48 106
f 106 48 26
f 60 76 32
f 32 119 60
f 32 76 110
f 110 128 32
f 43 107 42
f 42 107 26
f 26 41 42
f 28 29 27
f 27 29 37
f 37 35 27
f 27 35 65
f 65 66 27
f 27 66 28
f 69 30 68
f 31 30 69
f 69 70 31
f 121 119 32
f 32 128 121
f 34 35 33
f 33 36 34
f 33 35 37
f 33 37 55
f 33 59 36
f 55 59 33
f 40 41 38
f 40 38 84
f 40 84 46
f 46 83 44
f 84 83 46
f 39 41 40
f 42 41 39
f 39 43 42
f 44 45 39
f 39 45 43
f 46 44 39
f 39 40 46
f 47 48 105
f 47 105 75
f 57 48 47
f 47 58 57
f 75 61 47
f 47 61 58
f 91 95 49
f 49 52 91
f 124 51 50
f 50 52 124
f 50 51 53
f 53 92 50
f 91 52 50
f 50 92 91
f 55 56 54
f 54 56 57
f 57 58 54
f 58 59 54
f 54 59 55
f 77 76 60
f 77 61 75
f 62 61 77
f 60 63 77
f 77 63 62
f 64 66 65
f 64 67 66
f 68 67 64
f 69 68 64
f 65 70 64
f 64 70 69
f 72 102 71
f 71 82 72
f 71 102 98
f 98 73 71
f 96 82 71
f 73 95 71
f 71 95 96
f 75 105 74
f 104 76 74
f 74 105 104
f 74 76 77
f 77 75 74
f 89 86 78
f 78 79 89
f 89 79 88
f 81 82 80
f 96 83 80
f 80 82 96
f 80 83 84
f 80 84 81
f 122 86 85
f 87 122 85
f 88 87 85
f 85 86 89
f 89 88 85
f 91 92 90
f 92 93 90
f 90 93 94
f 90 95 91
f 96 95 90
f 90 94 96
f 97 99 98
f 100 99 97
f 97 101 100
f 97 102 101
f 98 102 97
f 104 105 103
f 106 107 103
f 103 105 106
f 103 107 108
f 103 109 104
f 108 109 103
f 109 118 111
f 110 109 111
f 111 128 110
f 112 113 111
f 114 115 111
f 111 113 116
f 111 118 117
f 111 120 119
f 111 119 121
f 111 123 122
f 111 125 124
f 126 123 111
f 117 125 111
f 122 120 111
f 124 112 111
f 116 127 111
f 111 127 114
f 111 115 126
f 121 128 111
