# Generated MicroDuck mesh; do not edit by hand.
# Source: microduck_rl/src/mjlab_microduck/robot/microduck/assets/sole_right.stl
# Source repository: https://github.com/pollen-robotics/microduck_rl.git@5946fd9cdbc58956424420153e51975af3b30d77
# Source SHA-256: a4f5c114aae7137d559cacfb71d77c981588850335de5a09a14f95a4192a218f
# License: Creative Commons BY-SA-NC; see ../Licenses/ATTRIBUTION.json.
# Modified: exported MuJoCo-compiled mesh geometry in Tuanjie coordinates.
# Transform: (x,y,z) -> (-y,z,x); triangle winding reversed.
o sole_right
v 0.015663689 -0.0265685394 0.00159299944
v 0.0173410773 -0.0239636377 -0.00155130774
v 0.0155794173 -0.0260094535 -0.000557168561
v 0.0194587018 -0.00690571032 0.000888580922
v 0.0194839723 0.0205369834 0.00127910345
v 0.0134967379 0.021140147 -0.00453759963
v 0.0159990359 0.02343826 -0.00240458478
v 0.018865535 -0.0235971715 0.00170712569
v 0.0178611353 -0.0250215959 0.000750855776
v 0.0108379349 0.0255500898 -0.00261051604
v 0.0135991359 0.024998337 -0.00251474977
v 0.018902231 -0.0212737583 -0.00103247445
v 0.0187897757 -0.0230096113 -0.000255124731
v 0.0193273984 -0.0218456965 0.00110508595
v -0.0140932854 0.0264902599 -0.000540714653
v -0.00701503642 0.0262526348 -0.00136826909
v 0.0129649406 0.0271017011 0.00155174825
v 0.0130916229 0.0263960548 -0.001003552
v -0.0197809599 -0.0254605003 0.00226922613
v -0.0200657602 -0.0243717749 0.000389362365
v -0.0209200438 -0.0240727942 0.00191492494
v -0.0157974865 0.000725669612 -0.00481751747
v -0.0145312622 0.0272269808 0.00246433238
v -0.0171558671 0.0267328508 0.00240274775
v -0.0174535811 0.017238507 -0.00353426021
v -0.0150643811 0.0147855198 -0.00468378747
v -0.0199327096 0.0244796332 0.00141166477
v -0.0210435558 0.022868203 0.00215092115
v -0.0193248745 0.0253657419 0.00258372189
v -0.0184166618 0.0257958286 0.00113768643
v 0.0172537733 0.0251171738 0.000730382686
v 0.0189237595 0.0223289058 0.000211204751
v 0.0167213418 0.0246251263 -0.00089129142
v 0.0183489919 0.0239545982 0.00142355217
v 0.0153693566 0.0260655507 -0.000161883829
v 0.0160126742 0.0261718892 0.00171869888
v -0.0196800306 0.0185171664 -0.00181762793
v 0.0179301985 0.0189610776 -0.00251434487
v 0.0181128159 0.0215517394 -0.00162397546
v 0.0190537237 0.0196138266 -0.00074564555
v 0.0188723579 -0.00690732757 -0.00217344658
v 0.0165179148 -0.0189221594 -0.00420255167
v 0.0178937055 -0.0209036581 -0.00265125651
v 0.0146801872 -0.017937338 -0.00526077859
v 0.0154871391 -0.0216389894 -0.00401413115
v -0.0170353837 0.0244666971 -0.00149225618
v -0.0170795713 0.0222599693 -0.00260227546
v -0.0144710159 0.0250726286 -0.00213221204
v -0.0164200235 0.0264923275 0.000398885546
v -0.0189153757 0.0246020313 2.01290313e-05
v -0.0194515064 0.0223248862 -0.00102961774
v -0.0213364027 -0.00073458621 -0.000106385196
v -0.0215746164 0.0202346109 0.0022218246
v -0.0208417978 0.0210847184 7.25699574e-05
v -0.0200401023 0.00110214355 -0.00238710037
v -0.0216977466 -0.00674662506 0.0018095898
v -0.0217019413 -0.0215179976 0.00174748979
v -0.0161825418 -0.0266890377 0.00159692939
v -0.0186569933 -0.0259255953 0.0010911912
v -0.0187075771 -0.0237327144 -0.00139298243
v -0.0173993912 -0.0253453664 -0.000773292675
v 0.0027114097 0.0229646116 -0.00488098105
v 0.0104968762 0.0239392575 -0.00406421721
v -0.00131645531 0.0244761724 -0.00376384123
v 0.00836384203 0.0209381487 -0.0055779703
v -0.02032586 -0.0196133181 -0.00161873072
v -0.0206859708 -0.0107609238 -0.00152882526
v -0.0208998211 -0.0215697438 -0.000462672935
v -0.0185783524 -0.00242779125 -0.00377803552
v 0.00743997283 -0.0190339182 -0.00594835961
v -0.00392543525 -0.0206533223 -0.00530621363
v 0.00979808904 -0.0204685219 -0.00560235931
v 0.0121025108 -0.0158116855 -0.00608649058
v -0.0126269925 -0.0159674156 -0.00508989953
v -0.0158735905 -0.0190737341 -0.00424138643
v -0.0122341393 -0.0197399314 -0.004814927
v -0.0158911068 -0.0152938599 -0.00462018605
v -0.0184419788 -0.018367704 -0.00332499901
v -0.0194396526 -0.0215329621 -0.00197760249
v 0.0118384995 0.0132929944 -0.00608339952
v 0.0137306899 0.0160461459 -0.0054332763
v 0.0106161498 0.018112855 -0.00586072309
v 0.0127263246 -0.00688902428 -0.00635406142
v 0.00572288642 0.0176299606 -0.00601201225
v -0.017977085 -0.0264812931 0.00241781562
v 0.0157171097 -0.000286130991 -0.0054920502
v 0.0168650877 -0.010267199 -0.00466570724
v 0.0171866827 0.00349011365 -0.00428455509
v 0.0164113678 0.0185068399 -0.00384855643
v 0.0148512833 0.00459815701 -0.00564749073
v 0.0142282443 -0.00689450791 -0.00613280432
v -0.0135283414 -0.0235661659 -0.0032100454
v -0.0164470952 -0.0238360353 -0.00240600621
v -0.00448709168 -0.0225552972 -0.00460372958
v -0.0148552246 -0.0220193155 -0.00373409269
v 0.0122491317 -0.0247128792 -0.00314442464
v 0.0108823078 -0.0231795348 -0.00440545473
v 0.0146344509 -0.0245715734 -0.00272068218
v -0.00146517239 -0.0256562326 -0.0019151289
v 0.0127320066 -0.0259106029 -0.00160925672
v 0.00223932019 -0.024534665 -0.00343331206
v -0.0151477503 -0.0251337551 -0.0016941448
v -0.0163194016 -0.0261179302 -9.86283849e-05
v 0.0134923598 -0.0267338753 0.000467557518
v -0.00966823474 0.0210984834 -0.00489443121
v -0.0013683344 0.0214082543 -0.00540049234
v -0.0121096317 0.0189293157 -0.00494349934
v -0.0110988971 0.0231600776 -0.00398950418
v -0.0142662851 0.0216036458 -0.00389369274
v -0.017865479 -0.0264251269 0.00551026827
v -0.0206487831 0.0232345108 0.00534269772
v -0.0212973841 0.0209152605 0.00532307196
v 0.0161936898 -0.0258913208 0.00671040127
v 0.0181407146 -0.0234981123 0.00677570421
v -0.0213071462 -0.0226672441 0.00538366521
v 0.0182034671 0.0227854885 0.00671320269
v 0.016897561 0.024840802 0.0066642845
v 0.0185698755 -0.021394968 0.00678789522
v 0.0134991622 -0.0268548429 0.00661674282
v -0.0159721728 -0.0267639998 0.00557749718
v 0.0123289954 0.0271023754 0.00650004065
v -0.0149178291 0.02720128 0.00553921703
v 0.0146884015 0.0264642127 0.00658412231
v -0.0205007568 -0.0244014822 0.00541452225
v -0.016115522 0.0269887894 0.00549728516
v 0.0187235866 0.0204100516 0.00673486246
v -0.0192472804 0.0251985006 0.00538936676
v -0.0191456117 -0.0257572941 0.00546419853
f 34 5 32
f 112 56 115
f 121 23 122
f 17 23 121
f 126 4 5
f 9 114 113
f 41 4 14
f 5 4 41
f 21 115 57
f 57 68 21
f 115 56 57
f 119 120 58
f 58 104 119
f 41 43 87
f 87 88 41
f 2 9 3
f 3 98 2
f 7 33 39
f 39 89 7
f 113 119 1
f 119 104 1
f 1 104 3
f 1 9 113
f 3 9 1
f 7 89 6
f 67 68 57
f 16 64 48
f 45 43 2
f 2 98 45
f 45 98 97
f 45 72 44
f 97 72 45
f 123 117 36
f 123 17 121
f 36 17 123
f 53 56 112
f 53 112 28
f 28 54 53
f 6 82 65
f 65 63 6
f 24 29 127
f 24 23 49
f 13 9 2
f 2 43 13
f 48 64 108
f 22 74 77
f 78 69 77
f 77 69 22
f 40 5 41
f 100 98 3
f 3 104 100
f 81 89 90
f 81 82 6
f 6 89 81
f 34 117 116
f 126 5 116
f 116 5 34
f 28 112 111
f 127 29 111
f 111 29 28
f 25 69 37
f 47 25 37
f 97 101 94
f 71 72 94
f 94 72 97
f 118 114 14
f 118 4 126
f 14 4 118
f 32 5 40
f 40 39 32
f 39 33 32
f 6 63 11
f 11 7 6
f 11 33 7
f 21 68 20
f 20 68 60
f 44 72 73
f 8 114 9
f 14 114 8
f 8 9 13
f 13 14 8
f 35 33 11
f 11 18 35
f 18 17 35
f 35 17 36
f 87 44 91
f 73 83 91
f 91 44 73
f 26 107 22
f 26 69 25
f 22 69 26
f 76 74 71
f 77 74 76
f 94 95 76
f 76 71 94
f 37 54 51
f 51 47 37
f 124 115 21
f 85 59 58
f 58 120 85
f 61 59 20
f 20 60 61
f 63 64 10
f 10 64 16
f 16 18 10
f 11 63 10
f 10 18 11
f 60 68 79
f 12 43 41
f 13 43 12
f 41 14 12
f 12 14 13
f 15 48 49
f 16 48 15
f 49 23 15
f 15 23 17
f 15 17 18
f 15 18 16
f 19 59 85
f 85 128 19
f 20 59 19
f 19 21 20
f 19 128 124
f 124 21 19
f 84 107 106
f 65 82 84
f 84 106 65
f 84 83 74
f 22 107 84
f 84 74 22
f 24 127 125
f 122 23 125
f 125 23 24
f 49 50 30
f 30 29 24
f 24 49 30
f 109 25 47
f 47 48 109
f 109 48 108
f 109 107 26
f 26 25 109
f 28 29 27
f 27 29 30
f 30 50 27
f 27 54 28
f 51 54 27
f 27 50 51
f 32 33 31
f 31 34 32
f 31 33 35
f 35 36 31
f 31 117 34
f 36 117 31
f 55 69 67
f 37 69 55
f 55 54 37
f 38 89 39
f 38 39 40
f 38 88 89
f 41 88 38
f 40 41 38
f 87 43 42
f 42 44 87
f 42 43 45
f 45 44 42
f 46 48 47
f 49 48 46
f 46 50 49
f 51 50 46
f 46 47 51
f 53 54 52
f 52 54 55
f 55 67 52
f 52 56 53
f 57 56 52
f 67 57 52
f 61 102 103
f 58 59 103
f 103 59 61
f 103 104 58
f 79 95 93
f 93 60 79
f 93 102 61
f 61 60 93
f 62 64 63
f 108 64 62
f 62 106 108
f 62 63 65
f 65 106 62
f 66 68 67
f 79 68 66
f 66 78 79
f 66 69 78
f 67 69 66
f 70 72 71
f 73 72 70
f 71 74 70
f 74 83 70
f 70 83 73
f 76 95 75
f 75 77 76
f 75 78 77
f 75 95 79
f 79 78 75
f 80 82 81
f 81 90 80
f 80 90 91
f 91 83 80
f 80 83 84
f 84 82 80
f 85 120 110
f 110 128 85
f 86 88 87
f 89 88 86
f 90 89 86
f 86 87 91
f 91 90 86
f 92 102 93
f 92 101 102
f 94 101 92
f 92 95 94
f 93 95 92
f 97 98 96
f 96 98 100
f 96 101 97
f 100 101 96
f 99 101 100
f 102 101 99
f 103 102 99
f 100 104 99
f 99 104 103
f 106 107 105
f 108 106 105
f 105 107 109
f 109 108 105
f 111 112 110
f 113 114 110
f 110 112 115
f 116 117 110
f 110 114 118
f 110 120 119
f 121 122 110
f 110 117 123
f 110 115 124
f 110 122 125
f 110 119 113
f 123 121 110
f 110 126 116
f 110 127 111
f 118 126 110
f 124 128 110
f 125 127 110
