# Generated MicroDuck mesh; do not edit by hand.
# Source: microduck_rl/src/mjlab_microduck/robot/microduck/assets/top_head_shell.stl
# Source repository: https://github.com/pollen-robotics/microduck_rl.git@5946fd9cdbc58956424420153e51975af3b30d77
# Source SHA-256: bc64288c0d54e13ec907256c2b99535937d370af1410de498905ec3cf8d7c3df
# License: Creative Commons BY-SA-NC; see ../Licenses/ATTRIBUTION.json.
# Modified: exported MuJoCo-compiled mesh geometry in Tuanjie coordinates.
# Transform: (x,y,z) -> (-y,z,x); triangle winding reversed.
o top_head_shell
v 0.043346528 0.0534376465 -0.029645253
v -0.0245466568 -0.0408774838 0.00727562234
v -0.0177128147 -0.0449623428 0.00961521547
v 0.0332992785 -0.0440762043 -0.00959338434
v 0.0311708078 -0.0366966724 0.00152121973
v 0.0325363353 0.0624286085 0.0054367343
v 0.0419263169 0.0567044541 -0.0173089616
v 0.0378903933 0.0604483038 -0.00178739103
v -0.0344427936 -0.0381161682 -0.00633854652
v -0.0386836044 -0.0300572067 -0.0175525006
v -0.0379862227 -0.0292756651 -0.0120164417
v -0.0354189575 -0.0424324721 -0.0161965936
v -0.0398199968 -0.0168391373 -0.0195795447
v -0.0186665095 -0.0339795537 0.014262001
v 0.0247638095 0.063825734 0.00963799004
v -0.0403946042 -0.0160982925 -0.0171844158
v 0.00114295131 -0.0592384525 -0.0032842143
v 0.0438661575 0.0556332767 -0.0166006349
v -0.0231213383 0.0636354163 0.0118688745
v -0.0182735454 0.0643594041 0.0115783066
v 0.0126720462 -0.0271025356 0.0175532587
v 0.0174739584 -0.04979847 0.00558320992
v 0.0164315775 -0.0447801203 0.0104183238
v -0.00233198237 -0.0387283824 0.0164366942
v -0.00950223114 -0.0428423844 0.0139582111
v -0.00958096329 -0.0332813598 0.0171326529
v -6.18671857e-06 -0.0300446022 0.0183430668
v 0.00680519594 -0.0374726355 0.0164788887
v 0.00915441755 -0.0440616533 0.0133966869
v -0.0301123131 -0.0516660362 -0.0153277395
v 0.0296577662 -0.0134173092 0.0102224266
v 0.0333792791 -0.0229699556 0.00335674034
v -8.64319827e-06 -0.0534770377 0.00673731929
v 0.00644105533 -0.0546561182 0.00446149614
v -0.010008039 -0.0499016047 0.00896215811
v -8.15936983e-06 -0.0483885817 0.0116170663
v 0.00871010777 -0.0497930162 0.00942913163
v -0.0312327091 -0.0333734564 0.00318778516
v -0.0356152616 -0.0278397705 -0.00310412049
v -0.0270407386 -0.0287843999 0.0100459466
v 0.0179190505 -0.058822833 -0.010780205
v 0.0112742772 -0.0607319213 -0.0112201814
v 0.0107331052 -0.0579106361 -0.002858483
v 0.0264204536 -0.0509632789 -0.00480041141
v 0.0227619372 -0.0485223159 0.00273710606
v 0.0294249598 -0.0452227183 -0.00229441235
v 0.0297640953 -0.051287204 -0.0126027968
v 0.0240702722 -0.0552327409 -0.00940419082
v 0.0185400862 -0.0545628518 -0.00157143758
v -0.044871144 0.0536983274 -0.0259652864
v -0.0433376394 0.0534476377 -0.0296470746
v -0.0458755083 0.0508742705 -0.029628776
v -0.0446715131 0.0535931997 -0.018741671
v 0.0185769871 0.0640424713 0.0130262477
v 0.00911110546 0.0646786764 0.0136529235
v 0.0224001557 -0.031333562 0.0129630622
v 0.0162877962 -0.036687728 0.0144268917
v 0.0190776177 -0.0240770262 0.0160235818
v 0.0251451023 -0.0170067474 0.0136297327
v 0.0270290039 -0.0287906323 0.0100470837
v 0.0245322511 -0.0408831388 0.00727665424
v -0.0402408987 0.0589947253 -0.00567448745
v -0.0435528569 0.0560419224 -0.016774673
v -0.0416469388 0.0568483137 -0.00729701295
v -0.00548409671 -0.0563721173 0.00199902733
v -0.0144957788 -0.0536970198 0.00261387345
v 0.0155260833 0.00283058779 0.0175622962
v 0.00605514925 -0.019764211 0.0189224314
v 0.00918612629 0.0637139827 0.0149790999
v -0.0337423831 0.0618549995 0.00513782958
v -0.0290464852 0.0631811321 0.00825277902
v -0.0361840501 0.0611763112 -0.000210685364
v 0.0281091426 0.028142849 0.012068375
v 0.0293504149 0.0017470445 0.0114317276
v 0.0333268829 0.0606260449 0.00673038652
v 0.0239807516 0.00235417602 0.014933588
v 0.0275569316 0.0626882613 0.0104426732
v 0.0210123938 0.0623159334 0.0134231336
v -0.0375618711 0.0599576756 0.000961152662
v -0.0182148628 -0.0589501858 -0.0116070183
v -0.012331062 -0.0612194762 -0.014429912
v -0.0229030512 -0.0575447902 -0.0149472011
v -0.01071613 -0.0605523326 -0.0101708742
v -0.0130854016 -0.0574322566 -0.00309824687
v -0.00907389447 -0.0158987548 0.0187563803
v 0.00699773571 0.0030169466 0.0185441561
v -0.0276316162 0.0619421415 0.0107997926
v -0.0333178677 0.0606337227 0.00672898535
v 0.0391420163 -0.0215844251 -0.0126795545
v 0.04136068 0.00441336865 -0.0139765013
v 0.0352794789 -0.035115812 -0.0063620829
v 0.0378302224 -0.0332575552 -0.0153573956
v 0.0379114822 0.0265011135 0.000211894585
v 0.0417215638 0.0566197149 -0.00747536821
v 0.0378378741 -0.0112181222 -0.00399929564
v 0.0333752409 0.000990801025 0.00688691111
v 0.0376714766 0.0593948252 0.00117169844
v -0.0352293029 0.000512186205 0.00386399589
v -0.0370748863 0.0267408751 0.00190679182
v -0.0381817557 -0.000546700263 -0.00296778465
v -0.0333893895 -0.022962261 0.00335533661
v -0.0313384347 -0.00906223524 0.00878665224
v -0.0321339853 0.0134636527 0.00888430607
v -0.0264366735 -0.050957188 -0.00480152247
v -0.0268094279 -0.0539005995 -0.0114449607
v -0.0303169582 -0.0485237129 -0.00829284359
v -0.0293490142 -0.0437278785 -0.000693960057
v -0.023645455 -0.048748903 0.00161019166
v -0.0211238563 -0.0553001761 -0.00546112657
v -0.013965046 0.0627268478 0.0147857992
v -0.013924594 0.0640419051 0.0141271455
v -0.0210032705 0.0623207763 0.0134222498
v -0.0075222943 0.0288898945 0.0172395092
v 4.42682403e-06 0.0630306378 0.0155403567
v -0.023060495 -0.00784577429 0.0153177418
v -0.0196831971 -0.0203955136 0.0161632523
v -0.0179235432 0.00273912214 0.0170450397
v -0.025510639 0.0283511989 0.0134927901
v -0.0279782638 0.00194347429 0.0125416713
v -0.0251542702 -0.0170009509 0.0136286756
v 0.0387628339 -0.0303043965 -0.0193931926
v 0.0301526058 -0.0518488027 -0.016676899
v 0.0352934077 -0.0431243554 -0.0177768562
v -9.21514038e-06 -0.0624671355 -0.0153383203
v 0.0458839498 0.0508708507 -0.0296278354
v 0.0405879505 -0.0172984544 -0.0210329872
v 0.0123906098 -0.0613611303 -0.0154776862
v 0.022925185 -0.0576794408 -0.0159418099
f 66 3 108
f 124 52 125
f 82 52 124
f 125 52 51
f 1 125 51
f 1 51 7
f 7 51 20
f 15 7 20
f 20 51 72
f 106 12 30
f 12 52 30
f 30 52 82
f 122 123 47
f 47 128 122
f 14 26 116
f 71 20 72
f 42 124 127
f 15 20 55
f 14 3 25
f 25 26 14
f 32 95 96
f 91 95 32
f 35 36 25
f 25 3 35
f 82 124 81
f 81 124 83
f 72 51 63
f 85 117 116
f 116 26 85
f 57 23 61
f 14 40 2
f 2 3 14
f 108 3 2
f 2 107 108
f 45 46 61
f 61 23 45
f 67 76 78
f 58 76 67
f 18 125 1
f 1 7 18
f 8 94 18
f 18 7 8
f 55 20 111
f 64 100 99
f 17 124 42
f 83 124 17
f 17 65 83
f 34 65 17
f 79 64 99
f 13 52 12
f 9 12 106
f 106 107 9
f 5 91 32
f 32 60 5
f 5 60 61
f 61 46 5
f 2 40 38
f 38 107 2
f 9 107 38
f 38 39 9
f 59 76 58
f 66 65 35
f 108 109 66
f 35 3 66
f 97 94 8
f 97 75 96
f 48 128 47
f 47 123 4
f 4 46 47
f 4 123 92
f 92 91 4
f 5 46 4
f 4 91 5
f 6 15 77
f 6 7 15
f 8 7 6
f 77 75 6
f 6 75 97
f 97 8 6
f 9 39 11
f 11 100 16
f 39 100 11
f 11 12 9
f 10 12 11
f 11 16 10
f 13 12 10
f 16 52 10
f 10 52 13
f 37 23 29
f 29 23 57
f 57 28 29
f 29 36 37
f 96 75 74
f 74 76 59
f 102 40 120
f 120 119 102
f 120 40 14
f 14 116 120
f 54 15 55
f 54 78 77
f 77 15 54
f 92 123 121
f 16 100 53
f 53 100 64
f 53 64 63
f 53 52 16
f 27 68 85
f 85 26 27
f 43 49 34
f 43 34 17
f 17 42 43
f 126 125 90
f 90 125 18
f 94 95 90
f 18 94 90
f 19 20 71
f 19 112 111
f 111 20 19
f 87 112 19
f 19 71 87
f 21 68 27
f 27 28 21
f 67 68 21
f 21 58 67
f 21 28 57
f 57 58 21
f 45 23 22
f 22 23 37
f 22 49 45
f 34 49 22
f 37 34 22
f 24 26 25
f 27 26 24
f 24 28 27
f 25 36 24
f 24 36 29
f 29 28 24
f 82 109 105
f 30 82 105
f 105 106 30
f 31 96 74
f 31 60 32
f 32 96 31
f 59 60 31
f 74 59 31
f 33 65 34
f 33 36 35
f 35 65 33
f 37 36 33
f 33 34 37
f 101 39 38
f 101 100 39
f 101 40 102
f 38 40 101
f 41 128 48
f 127 128 41
f 41 42 127
f 48 49 41
f 41 49 43
f 43 42 41
f 44 46 45
f 47 46 44
f 48 47 44
f 45 49 44
f 44 49 48
f 51 52 50
f 63 51 50
f 50 52 53
f 53 63 50
f 54 55 69
f 111 114 69
f 69 55 111
f 69 78 54
f 67 78 69
f 56 58 57
f 56 60 59
f 59 58 56
f 61 60 56
f 57 61 56
f 62 72 63
f 79 72 62
f 63 64 62
f 62 64 79
f 83 65 84
f 84 65 66
f 66 109 84
f 86 68 67
f 85 68 86
f 69 114 86
f 86 67 69
f 79 88 70
f 70 88 87
f 87 71 70
f 71 72 70
f 70 72 79
f 74 75 73
f 73 76 74
f 73 75 77
f 78 76 73
f 77 78 73
f 119 88 103
f 102 119 103
f 103 88 79
f 79 99 103
f 80 82 81
f 81 83 80
f 80 109 82
f 84 109 80
f 80 83 84
f 113 117 85
f 86 114 113
f 113 85 86
f 118 117 112
f 118 112 87
f 118 88 119
f 87 88 118
f 90 95 89
f 89 126 90
f 89 95 91
f 89 91 92
f 121 126 89
f 89 92 121
f 93 95 94
f 96 95 93
f 93 94 97
f 97 96 93
f 99 100 98
f 98 100 101
f 101 102 98
f 98 102 103
f 103 99 98
f 104 106 105
f 104 107 106
f 108 107 104
f 104 109 108
f 105 109 104
f 111 112 110
f 112 117 110
f 110 117 113
f 110 114 111
f 113 114 110
f 116 117 115
f 115 117 118
f 118 119 115
f 115 119 120
f 120 116 115
f 121 123 122
f 124 125 121
f 121 125 126
f 127 124 121
f 122 128 121
f 121 128 127
